# vtk DataFile Version 3.0
cartmesh2d deterministic topology export
ASCII
DATASET UNSTRUCTURED_GRID
POINTS 1028 double
-1.9300000000000002 -1.97 0
-1.9300000000000002 -1.47 0
-1.9300000000000002 -0.96999999999999997 0
-1.9300000000000002 -0.71999999999999997 0
-1.9300000000000002 -0.46999999999999997 0
-1.9300000000000002 -0.21999999999999997 0
-1.9300000000000002 0.030000000000000027 0
-1.9300000000000002 0.28000000000000003 0
-1.9300000000000002 0.53000000000000003 0
-1.9300000000000002 0.78000000000000003 0
-1.9300000000000002 1.03 0
-1.9300000000000002 1.53 0
-1.9300000000000002 2.0300000000000002 0
-1.6800000000000002 -0.96999999999999997 0
-1.6800000000000002 -0.71999999999999997 0
-1.6800000000000002 -0.46999999999999997 0
-1.6800000000000002 -0.34499999999999997 0
-1.6800000000000002 -0.21999999999999997 0
-1.6800000000000002 -0.094999999999999973 0
-1.6800000000000002 0.030000000000000027 0
-1.6800000000000002 0.15500000000000003 0
-1.6800000000000002 0.28000000000000003 0
-1.6800000000000002 0.40500000000000003 0
-1.6800000000000002 0.53000000000000003 0
-1.6800000000000002 0.78000000000000003 0
-1.6800000000000002 1.03 0
-1.5550000000000002 -0.46999999999999997 0
-1.5550000000000002 -0.34499999999999997 0
-1.5550000000000002 -0.21999999999999997 0
-1.5550000000000002 -0.094999999999999973 0
-1.5550000000000002 0.030000000000000027 0
-1.5550000000000002 0.15500000000000003 0
-1.5550000000000002 0.28000000000000003 0
-1.5550000000000002 0.40500000000000003 0
-1.5550000000000002 0.53000000000000003 0
-1.4300000000000002 -1.97 0
-1.4300000000000002 -1.47 0
-1.4300000000000002 -1.22 0
-1.4300000000000002 -0.96999999999999997 0
-1.4300000000000002 -0.84499999999999997 0
-1.4300000000000002 -0.71999999999999997 0
-1.4300000000000002 -0.59499999999999997 0
-1.4300000000000002 -0.46999999999999997 0
-1.4300000000000002 -0.40749999999999997 0
-1.4300000000000002 -0.34499999999999997 0
-1.4300000000000002 -0.28249999999999997 0
-1.4300000000000002 -0.21999999999999997 0
-1.4300000000000002 -0.15749999999999997 0
-1.4300000000000002 -0.094999999999999973 0
-1.4300000000000002 -0.032499999999999973 0
-1.4300000000000002 0.030000000000000027 0
-1.4300000000000002 0.092500000000000027 0
-1.4300000000000002 0.15500000000000003 0
-1.4300000000000002 0.21750000000000003 0
-1.4300000000000002 0.28000000000000003 0
-1.4300000000000002 0.34250000000000003 0
-1.4300000000000002 0.40500000000000003 0
-1.4300000000000002 0.46750000000000003 0
-1.4300000000000002 0.53000000000000003 0
-1.4300000000000002 0.65500000000000003 0
-1.4300000000000002 0.78000000000000003 0
-1.4300000000000002 0.90500000000000003 0
-1.4300000000000002 1.03 0
-1.4300000000000002 1.28 0
-1.4300000000000002 1.53 0
-1.4300000000000002 2.0300000000000002 0
-1.377012487307379 0.029999999999999999 0
-1.3708567745974785 -0.032499999999999973 0
-1.3708567745974785 0.092500000000000027 0
-1.370061502508128 -0.04057453302758262 0
-1.370061502508128 0.10057453302758262 0
-1.3675000000000002 -0.46999999999999997 0
-1.3675000000000002 -0.40749999999999997 0
-1.3675000000000002 -0.34499999999999997 0
-1.3675000000000002 -0.28249999999999997 0
-1.3675000000000002 -0.21999999999999997 0
-1.3675000000000002 -0.15749999999999997 0
-1.3675000000000002 0.21750000000000003 0
-1.3675000000000002 0.28000000000000003 0
-1.3675000000000002 0.34250000000000003 0
-1.3675000000000002 0.40500000000000003 0
-1.3675000000000002 0.46750000000000003 0
-1.3675000000000002 0.53000000000000003 0
-1.3647010618875779 -0.094999999999999973 0
-1.3647010618875779 0.15500000000000003 0
-1.3631105177088769 -0.11114906605516524 0
-1.3631105177088769 0.17114906605516522 0
-1.3585453491776771 -0.15749999999999997 0
-1.3585453491776771 0.21750000000000003 0
-1.3561595329096257 -0.18172359908274788 0
-1.3561595329096257 0.24172359908274788 0
-1.3523896364677763 -0.21999999999999997 0
-1.3523896364677763 0.28000000000000003 0
-1.3492085481103746 -0.25229813211033048 0
-1.3492085481103746 0.31229813211033047 0
-1.3400469116472893 -0.28249999999999997 0
-1.3400469116472893 0.34250000000000003 0
-1.3286227161606485 -0.32016052541197226 0
-1.3286227161606485 0.38016052541197226 0
-1.3210877439218158 -0.34499999999999997 0
-1.3210877439218156 0.40500000000000003 0
-1.3080368842109227 -0.38802291871361405 0
-1.3080368842109227 0.44802291871361405 0
-1.3050000000000002 -0.96999999999999997 0
-1.3050000000000002 -0.84499999999999997 0
-1.3050000000000002 -0.71999999999999997 0
-1.3050000000000002 -0.65749999999999997 0
-1.3050000000000002 -0.59499999999999997 0
-1.3050000000000002 -0.53249999999999997 0
-1.3050000000000002 -0.46999999999999997 0
-1.3050000000000002 -0.40749999999999997 0
-1.3050000000000002 0.46750000000000003 0
-1.3050000000000002 0.53000000000000003 0
-1.3050000000000002 0.59250000000000003 0
-1.3050000000000002 0.65500000000000003 0
-1.3050000000000002 0.71750000000000003 0
-1.3050000000000002 0.78000000000000003 0
-1.3050000000000002 0.90500000000000003 0
-1.3050000000000002 1.03 0
-1.3021285761963424 -0.40749999999999997 0
-1.3021285761963424 0.46750000000000003 0
-1.2874510522611968 -0.45588531201525578 0
-1.2874510522611968 0.51588531201525578 0
-1.2831694084708689 -0.46999999999999997 0
-1.2831694084708689 0.53000000000000003 0
-1.266865220311471 -0.52374770531689763 0
-1.266865220311471 0.58374770531689757 0
-1.2639681479150306 0.029999999999999999 0
-1.2621870213382804 -0.53249999999999997 0
-1.2621870213382804 0.59250000000000003 0
-1.251152235958259 -0.10012213776805 0
-1.251152235958259 0.16012213776804998 0
-1.2425000000000002 -0.71999999999999997 0
-1.2425000000000002 -0.65749999999999997 0
-1.2425000000000002 -0.59499999999999997 0
-1.2425000000000002 0.65500000000000003 0
-1.2425000000000002 0.71750000000000003 0
-1.2425000000000002 0.78000000000000003 0
-1.2383363240014873 -0.2302442755361 0
-1.2383363240014873 0.29024427553609999 0
-1.2334356431884725 -0.58629004517646988 0
-1.2334356431884725 0.64629004517646982 0
-1.2287800753417177 -0.59499999999999997 0
-1.2287800753417177 0.65500000000000003 0
-1.200381096441026 -0.35536589252256445 0
-1.200381096441026 0.41536589252256445 0
-1.2000060660654743 -0.64883238503604201 0
-1.2000060660654743 0.70883238503604207 0
-1.1953731293451553 -0.65749999999999997 0
-1.1953731293451553 0.71750000000000003 0
-1.1800000000000002 -1.47 0
-1.1800000000000002 -1.22 0
-1.1800000000000002 -1.095 0
-1.1800000000000002 -0.96999999999999997 0
-1.1800000000000002 -0.90749999999999997 0
-1.1800000000000002 -0.84499999999999997 0
-1.1800000000000002 -0.78249999999999997 0
-1.1800000000000002 -0.71999999999999997 0
-1.1800000000000002 0.78000000000000003 0
-1.1800000000000002 0.84250000000000003 0
-1.1800000000000002 0.90500000000000003 0
-1.1800000000000002 0.96750000000000003 0
-1.1800000000000002 1.03 0
-1.1800000000000002 1.155 0
-1.1800000000000002 1.28 0
-1.1800000000000002 1.53 0
-1.1665764889424761 -0.71137472489561437 0
-1.1665764889424761 0.77137472489561432 0
-1.1624258688805646 -0.48048750950902885 0
-1.1624258688805646 0.54048750950902891 0
-1.1619661833485928 -0.71999999999999997 0
-1.1619661833485928 0.78000000000000003 0
-1.1509238085226823 0.029999999999999999 0
-1.1331469118194777 -0.77391706475518651 0
-1.1331469118194777 0.83391706475518657 0
-1.1274640998926 -0.20819041896186949 0
-1.1274640998926 0.26819041896186951 0
-1.126103078901006 -0.78249999999999997 0
-1.126103078901006 0.84250000000000003 0
-1.1175000000000002 -0.96999999999999997 0
-1.1175000000000002 -0.90749999999999997 0
-1.1175000000000002 -0.84499999999999997 0
-1.1175000000000002 -0.79298288197179079 0
-1.1175000000000002 0.85298288197179073 0
-1.1175000000000002 0.90500000000000003 0
-1.1175000000000002 0.96750000000000003 0
-1.1175000000000002 1.03 0
-1.1007899238261669 -0.59580025214333765 0
-1.1007899238261669 0.6558002521433377 0
-1.0881582694238785 -0.82873588412566024 0
-1.0881582694238785 0.88873588412565985 0
-1.0748106544742329 -0.84499999999999997 0
-1.0748106544742324 0.90500000000000003 0
-1.0579865174496583 -0.43722731370116019 0
-1.0579865174496583 0.49722731370116019 0
-1.0550000000000002 -1.22 0
-1.0550000000000002 -1.095 0
-1.0550000000000002 -1.0325 0
-1.0550000000000002 -0.96999999999999997 0
-1.0550000000000002 -0.90749999999999997 0
-1.0550000000000002 -0.86913935232106609 0
-1.0550000000000002 0.9291393523210657 0
-1.0550000000000002 0.96750000000000003 0
-1.0550000000000002 1.03 0
-1.0550000000000002 1.0925 0
-1.0550000000000002 1.155 0
-1.0550000000000002 1.28 0
-1.0431696270282793 -0.88355470349613374 0
-1.0431696270282793 0.94355470349613324 0
-1.039153978771769 -0.71111299477764656 0
-1.039153978771769 0.7711129947776465 0
-1.0378794691303339 0.029999999999999999 0
-1.0235182300474597 -0.90749999999999997 0
-1.023518230047459 0.96750000000000003 0
-1.0165918757837127 -0.18613656238763901 0
-1.0165918757837127 0.24613656238763901 0
-1.0031522480690045 0.029999999999999999 0
-0.99818098463268023 -0.93837352286660736 0
-0.99818098463268023 0.99837352286660652 0
-0.99250000000000016 -1.095 0
-0.99250000000000016 -1.0325 0
-0.99250000000000016 -0.96999999999999997 0
-0.99250000000000016 1.03 0
-0.99250000000000016 1.0925 0
-0.99250000000000016 1.155 0
-0.98253192853746252 -0.1793616176480354 0
-0.98253192853746252 0.2393616176480354 0
-0.97421289718456316 0.029999999999999999 0
-0.97222580562068639 -0.96999999999999997 0
-0.9722258056206855 1.03 0
-0.95620595102488748 -0.81218545902782613 0
-0.95620595102488748 0.87218545902782585 0
-0.95414863916558723 -0.17371583036503238 0
-0.95414863916558723 0.23371583036503238 0
-0.953547166018752 -0.39396711789329147 0
-0.953547166018752 0.45396711789329147 0
-0.95319234223708094 -0.99319234223708097 0
-0.95319234223708094 1.0531923422370799 0
-0.95009677144752869 0.029999999999999999 0
-0.94516104572406023 -0.64830892480010649 0
-0.94516104572406023 0.70830892480010643 0
-0.93049589802235777 -0.16901100762919652 0
-0.93049589802235777 0.22901100762919652 0
-0.93000000000000016 -1.97 0
-0.93000000000000016 -1.72 0
-0.93000000000000016 -1.47 0
-0.93000000000000016 -1.345 0
-0.93000000000000016 -1.22 0
-0.93000000000000016 -1.1575 0
-0.93000000000000016 -1.095 0
-0.93000000000000016 -1.0325 0
-0.93000000000000016 -1.0122258056206861 0
-0.93000000000000016 1.0722258056206853 0
-0.93000000000000016 1.0925 0
-0.93000000000000016 1.155 0
-0.93000000000000016 1.2175 0
-0.93000000000000016 1.28 0
-0.93000000000000016 1.405 0
-0.93000000000000016 1.53 0
-0.93000000000000016 1.78 0
-0.93000000000000016 2.0300000000000002 0
-0.93000000000000005 0.029999999999999999 0
-0.92146339725917759 -0.38067758574111421 0
-0.92146339725917759 0.44067758574111421 0
-0.910785280403 -0.16509032201599999 0
-0.910785280403 0.22509032201599999 0
-0.89837352286660732 -1.0381809846326802 0
-0.89837352286660732 1.0981809846326795 0
-0.89472692329286552 -0.36960297561429978 0
-0.89472692329286552 0.42960297561429978 0
-0.873257923278006 -0.91325792327800603 0
-0.873257923278006 0.9732579232780052 0
-0.87244652832093894 -0.36037413384195444 0
-0.87244652832093894 0.42037413384195443 0
-0.86750000000000016 -1.22 0
-0.86750000000000016 -1.1575 0
-0.86750000000000016 -1.095 0
-0.86750000000000016 -1.0635182300474595 0
-0.86750000000000016 1.1235182300474591 0
-0.86750000000000016 1.155 0
-0.86750000000000016 1.2175 0
-0.86750000000000016 1.28 0
-0.85387953251100002 -0.35268343236499999 0
-0.85387953251100002 0.41268343236499999 0
-0.85116811267635151 -0.58550485482256642 0
-0.85116811267635151 0.64550485482256637 0
-0.84355470349613371 -1.0831696270282793 0
-0.84355470349613371 1.1431696270282794 0
-0.82913935232106661 1.155 0
-0.82913935232106639 -1.095 0
-0.82229348364409538 -0.56621144452546612 0
-0.82229348364409538 0.62621144452546607 0
-0.80500000000000016 -1.47 0
-0.80500000000000016 -1.345 0
-0.80500000000000016 -1.22 0
-0.80500000000000016 -1.1575 0
-0.80500000000000016 -1.1148106544742327 0
-0.80500000000000016 1.1748106544742332 0
-0.80500000000000016 1.2175 0
-0.80500000000000016 1.28 0
-0.80500000000000016 1.405 0
-0.80500000000000016 1.53 0
-0.79823129278388183 -0.5501336026112158 0
-0.79823129278388183 0.61013360261121574 0
-0.79332350431893095 -0.83332350431893099 0
-0.79332350431893095 0.89332350431893048 0
-0.7887358841256602 -1.1281582694238785 0
-0.7887358841256602 1.1881582694238793 0
-0.77817946706703722 -0.53673540101600725 0
-0.77817946706703722 0.59673540101600719 0
-0.77218545902782609 -0.9962059510248874 0
-0.77218545902782609 1.0562059510248876 0
-0.76146961230300003 -0.52557023302000005 0
-0.76146961230300003 0.58557023302 0
-0.75298288197179242 1.2175 0
-0.75298288197179108 -1.1575 0
-0.74250000000000016 -1.22 0
-0.74250000000000016 -1.1661030789010058 0
-0.74250000000000016 1.226103078901007 0
-0.74250000000000016 1.28 0
-0.73391706475518648 -1.1731469118194777 0
-0.73391706475518648 1.2331469118194791 0
-0.7133890853598559 -0.75338908535985594 0
-0.7133890853598559 0.81338908535985588 0
-0.68883323185562806 -0.72883323185562809 0
-0.68883323185562806 0.78883323185562815 0
-0.68000000000000016 -1.97 0
-0.68000000000000016 -1.72 0
-0.68000000000000016 -1.47 0
-0.68000000000000016 -1.345 0
-0.68000000000000016 -1.2825 0
-0.68000000000000016 -1.22 0
-0.68000000000000016 -1.2019661833485924 0
-0.68000000000000016 1.2619661833485933 0
-0.68000000000000016 1.28 0
-0.68000000000000016 1.3425 0
-0.68000000000000016 1.405 0
-0.68000000000000016 1.53 0
-0.68000000000000016 1.78 0
-0.68000000000000016 2.0300000000000002 0
-0.67137472489561434 -1.2065764889424757 0
-0.67137472489561434 1.2665764889424767 0
-0.67111299477764652 -1.079153978771769 0
-0.67111299477764652 1.1391539787717699 0
-0.66837002060210493 -0.70837002060210486 0
-0.66837002060210493 0.76837002060210491 0
-0.65131734455750223 -0.69131734455750216 0
-0.65131734455750223 0.75131734455750221 0
-0.63710678118700004 -0.67710678118699996 0
-0.63710678118700004 0.73710678118700002 0
-0.61750000000000016 -1.345 0
-0.61750000000000016 -1.2825 0
-0.61750000000000016 -1.2353731293451546 0
-0.61750000000000016 1.2953731293451554 0
-0.61750000000000016 1.3425 0
-0.61750000000000016 1.405 0
-0.60883238503604209 -1.2400060660654737 0
-0.60883238503604209 1.3000060660654744 0
-0.60830892480010645 -0.98516104572406016 0
-0.60830892480010645 1.0451610457240608 0
-0.55580025214333773 -1.1407899238261665 0
-0.55580025214333773 1.2007899238261668 0
-0.55500000000000016 -1.47 0
-0.55500000000000016 -1.345 0
-0.55500000000000016 -1.2825 0
-0.55500000000000016 -1.2687800753417171 0
-0.55500000000000016 1.3287800753417172 0
-0.55500000000000016 1.3425 0
-0.55500000000000016 1.405 0
-0.55500000000000016 1.53 0
-0.54629004517646984 -1.2734356431884719 0
-0.54629004517646984 1.333435643188472 0
-0.54550485482256639 -0.89116811267635143 0
-0.54550485482256639 0.9511681126763516 0
-0.52621144452546609 -0.8622934836440953 0
-0.52621144452546609 0.92229348364409536 0
-0.51013360261121576 -0.83823129278388175 0
-0.51013360261121576 0.89823129278388181 0
-0.49673540101600716 -0.81817946706703715 0
-0.49673540101600716 0.8781794670670372 0
-0.49250000000000016 -1.345 0
-0.49250000000000016 -1.3021870213382791 0
-0.49250000000000016 1.3621870213382792 0
-0.49250000000000016 1.405 0
-0.48557023302000002 -0.80146961230299996 0
-0.48557023302000002 0.86146961230300001 0
-0.48374770531689759 -1.3068652203114697 0
-0.48374770531689759 1.3668652203114697 0
-0.44048750950902893 -1.2024258688805638 0
-0.44048750950902893 1.2624258688805639 0
-0.43000000000000016 -1.97 0
-0.43000000000000016 -1.72 0
-0.43000000000000016 -1.595 0
-0.43000000000000016 -1.47 0
-0.43000000000000016 -1.4075 0
-0.43000000000000016 -1.345 0
-0.43000000000000016 -1.3231694084708681 0
-0.43000000000000016 1.3831694084708686 0
-0.43000000000000016 1.405 0
-0.43000000000000016 1.4675 0
-0.43000000000000016 1.53 0
-0.43000000000000016 1.655 0
-0.43000000000000016 1.78 0
-0.43000000000000016 2.0300000000000002 0
-0.4158853120152558 -1.327451052261196 0
-0.4158853120152558 1.3874510522611967 0
-0.39722731370116021 -1.0979865174496579 0
-0.39722731370116021 1.1579865174496577 0
-0.36750000000000016 -1.47 0
-0.36750000000000016 -1.4075 0
-0.36750000000000016 -1.345 0
-0.36750000000000016 -1.3421285761963417 0
-0.36750000000000016 1.4021285761963427 0
-0.36750000000000016 1.405 0
-0.36750000000000016 1.4675 0
-0.36750000000000016 1.53 0
-0.35396711789329149 -0.99354716601875193 0
-0.35396711789329149 1.0535471660187519 0
-0.34802291871361407 1.4080368842109232 0
-0.34802291871361402 -1.3480368842109223 0
-0.34067758574111423 -0.96146339725917762 0
-0.34067758574111423 1.0214633972591776 0
-0.3296029756142998 -0.93472692329286555 0
-0.3296029756142998 0.99472692329286549 0
-0.32037413384195446 -0.91244652832093898 0
-0.32037413384195446 0.97244652832093892 0
-0.31536589252256447 1.3003810964410261 0
-0.31536589252256442 -1.2403810964410256 0
-0.31268343236500001 -0.89387953251100005 0
-0.31268343236500001 0.95387953251099999 0
-0.30500000000000016 -1.72 0
-0.30500000000000016 -1.595 0
-0.30500000000000016 -1.47 0
-0.30500000000000016 -1.4075 0
-0.30500000000000016 -1.3610877439218154 0
-0.30500000000000016 1.4210877439218168 0
-0.30500000000000016 1.4675 0
-0.30500000000000016 1.53 0
-0.30500000000000016 1.655 0
-0.30500000000000016 1.78 0
-0.28016052541197228 -1.3686227161606483 0
-0.28016052541197228 1.42862271616065 0
-0.24250000000000016 -1.47 0
-0.24250000000000016 -1.4075 0
-0.24250000000000016 -1.3800469116472891 0
-0.24250000000000016 1.4400469116472909 0
-0.24250000000000016 1.4675 0
-0.24250000000000016 1.53 0
-0.2122981321103305 1.4492085481103767 0
-0.21229813211033047 -1.3892085481103746 0
-0.19024427553610002 1.3383363240014887 0
-0.19024427553609999 -1.2783363240014873 0
-0.18000000000000016 -1.97 0
-0.18000000000000016 -1.72 0
-0.18000000000000016 -1.595 0
-0.18000000000000016 -1.47 0
-0.18000000000000016 -1.4075 0
-0.18000000000000016 -1.3923896364677766 0
-0.18000000000000016 1.4523896364677784 0
-0.18000000000000016 1.4675 0
-0.18000000000000016 1.53 0
-0.18000000000000016 1.655 0
-0.18000000000000016 1.78 0
-0.18000000000000016 2.0300000000000002 0
-0.16819041896186951 1.2274640998926007 0
-0.16819041896186948 -1.1674640998926 0
-0.14613656238763903 1.1165918757837128 0
-0.146136562387639 -1.0565918757837127 0
-0.1417235990827479 1.4561595329096277 0
-0.14172359908274784 -1.3961595329096261 0
-0.13936161764803542 1.0825319285374624 0
-0.1393616176480354 -1.0225319285374626 0
-0.1337158303650324 1.0541486391655872 0
-0.13371583036503237 -0.99414863916558727 0
-0.12901100762919654 -0.97049589802235781 0
-0.12901100762919654 1.0304958980223577 0
-0.12509032201600001 -0.95078528040300003 0
-0.12509032201600001 1.010785280403 0
-0.11750000000000016 -1.47 0
-0.11750000000000016 -1.4075 0
-0.11750000000000016 -1.3985453491776776 0
-0.11750000000000016 1.4585453491776792 0
-0.11750000000000016 1.4675 0
-0.11750000000000016 1.53 0
-0.071149066055165244 1.463110517708879 0
-0.07114906605516523 -1.4031105177088778 0
-0.060122137768050005 1.3511522359582604 0
-0.060122137768049991 -1.2911522359582597 0
-0.05500000000000016 -1.72 0
-0.05500000000000016 -1.595 0
-0.05500000000000016 -1.47 0
-0.05500000000000016 -1.4047010618875788 0
-0.05500000000000016 1.46470106188758 0
-0.05500000000000016 1.53 0
-0.05500000000000016 1.655 0
-0.05500000000000016 1.78 0
-0.00057453302758261882 1.4700615025081303 0
-0.00057453302758261188 -1.4100615025081296 0
0.0074999999999998401 -1.47 0
0.0074999999999998401 -1.41085677459748 0
0.0074999999999998401 1.4708567745974808 0
0.0074999999999998401 1.53 0
0.06999999999999984 -1.97 0
0.06999999999999984 -1.72 0
0.06999999999999984 -1.595 0
0.06999999999999984 -1.47 0
0.06999999999999984 -1.4170124873073813 0
0.06999999999999984 1.4770124873073813 0
0.06999999999999984 1.53 0
0.06999999999999984 1.655 0
0.06999999999999984 1.78 0
0.06999999999999984 2.0300000000000002 0
0.070000000000000007 -1.3039681479150322 0
0.070000000000000007 -1.190923808522683 0
0.070000000000000007 -1.0778794691303339 0
0.070000000000000007 -1.0431522480690043 0
0.070000000000000007 -1.014212897184563 0
0.070000000000000007 -0.99009677144752861 0
0.070000000000000007 -0.96999999999999997 0
0.070000000000000007 1.03 0
0.070000000000000007 1.0500967714475287 0
0.070000000000000007 1.074212897184563 0
0.070000000000000007 1.1031522480690044 0
0.070000000000000007 1.137879469130334 0
0.070000000000000007 1.250923808522683 0
0.070000000000000007 1.3639681479150323 0
0.13249999999999984 -1.47 0
0.13249999999999984 -1.41085677459748 0
0.13249999999999984 1.4708567745974808 0
0.13249999999999984 1.53 0
0.14057453302758263 -1.4100615025081296 0
0.14057453302758277 1.4700615025081303 0
0.19499999999999984 -1.72 0
0.19499999999999984 -1.595 0
0.19499999999999984 -1.47 0
0.19499999999999984 -1.4047010618875788 0
0.19499999999999984 1.46470106188758 0
0.19499999999999984 1.53 0
0.19499999999999984 1.655 0
0.19499999999999984 1.78 0
0.20012213776804999 -1.2911522359582597 0
0.20012213776805021 1.3511522359582604 0
0.21114906605516526 -1.4031105177088778 0
0.21114906605516554 1.463110517708879 0
0.25749999999999984 -1.47 0
0.25749999999999984 -1.4075 0
0.25749999999999984 -1.3985453491776778 0
0.25749999999999984 1.4585453491776792 0
0.25749999999999984 1.4675 0
0.25749999999999984 1.53 0
0.26509032201600002 -0.95078528040300003 0
0.26509032201600002 1.010785280403 0
0.26901100762919655 -0.97049589802235781 0
0.26901100762919655 1.0304958980223577 0
0.27371583036503239 -0.99414863916558727 0
0.27371583036503239 1.0541486391655872 0
0.27936161764803541 -1.0225319285374626 0
0.27936161764803541 1.0825319285374624 0
0.28172359908274786 -1.3961595329096261 0
0.28172359908274835 1.4561595329096277 0
0.28613656238763902 -1.0565918757837127 0
0.28613656238763907 1.1165918757837128 0
0.30819041896186949 -1.1674640998926 0
0.30819041896186972 1.2274640998926007 0
0.31999999999999984 -1.97 0
0.31999999999999984 -1.72 0
0.31999999999999984 -1.595 0
0.31999999999999984 -1.47 0
0.31999999999999984 -1.4075 0
0.31999999999999984 -1.3923896364677766 0
0.31999999999999984 1.4523896364677786 0
0.31999999999999984 1.4675 0
0.31999999999999984 1.53 0
0.31999999999999984 1.655 0
0.31999999999999984 1.78 0
0.31999999999999984 2.0300000000000002 0
0.33024427553609997 -1.2783363240014873 0
0.33024427553610042 1.3383363240014887 0
0.35229813211033045 -1.3892085481103746 0
0.35229813211033112 1.4492085481103767 0
0.38249999999999984 -1.47 0
0.38249999999999984 -1.4075 0
0.38249999999999984 -1.3800469116472891 0
0.38249999999999984 1.4400469116472912 0
0.38249999999999984 1.4675 0
0.38249999999999984 1.53 0
0.4201605254119723 -1.3686227161606483 0
0.42016052541197274 1.42862271616065 0
0.44499999999999984 -1.72 0
0.44499999999999984 -1.595 0
0.44499999999999984 -1.47 0
0.44499999999999984 -1.4075 0
0.44499999999999984 -1.3610877439218154 0
0.44499999999999984 1.421087743921817 0
0.44499999999999984 1.4675 0
0.44499999999999984 1.53 0
0.44499999999999984 1.655 0
0.44499999999999984 1.78 0
0.45268343236500003 -0.89387953251100005 0
0.45268343236500003 0.95387953251099999 0
0.45536589252256443 -1.2403810964410256 0
0.45536589252256465 1.3003810964410261 0
0.46037413384195447 -0.91244652832093898 0
0.46037413384195447 0.97244652832093892 0
0.46960297561429981 -0.93472692329286555 0
0.46960297561429981 0.99472692329286549 0
0.48067758574111424 -0.96146339725917762 0
0.48067758574111424 1.0214633972591776 0
0.48802291871361403 -1.3480368842109223 0
0.48802291871361436 1.4080368842109232 0
0.49396711789329151 -0.99354716601875193 0
0.49396711789329151 1.0535471660187519 0
0.50749999999999984 -1.47 0
0.50749999999999984 -1.4075 0
0.50749999999999984 -1.345 0
0.50749999999999984 -1.342128576196342 0
0.50749999999999984 1.4021285761963429 0
0.50749999999999984 1.405 0
0.50749999999999984 1.4675 0
0.50749999999999984 1.53 0
0.53722731370116017 -1.0979865174496579 0
0.53722731370116017 1.1579865174496577 0
0.55588531201525582 -1.327451052261196 0
0.55588531201525593 1.3874510522611967 0
0.56999999999999984 -1.97 0
0.56999999999999984 -1.72 0
0.56999999999999984 -1.595 0
0.56999999999999984 -1.47 0
0.56999999999999984 -1.4075 0
0.56999999999999984 -1.345 0
0.56999999999999984 -1.3231694084708681 0
0.56999999999999984 1.3831694084708688 0
0.56999999999999984 1.405 0
0.56999999999999984 1.4675 0
0.56999999999999984 1.53 0
0.56999999999999984 1.655 0
0.56999999999999984 1.78 0
0.56999999999999984 2.0300000000000002 0
0.58048750950902894 -1.2024258688805638 0
0.58048750950902894 1.2624258688805639 0
0.6237477053168976 -1.3068652203114697 0
0.6237477053168976 1.3668652203114697 0
0.62557023302000003 -0.80146961230299996 0
0.62557023302000003 0.86146961230300001 0
0.63249999999999984 -1.345 0
0.63249999999999984 -1.3021870213382793 0
0.63249999999999984 1.3621870213382794 0
0.63249999999999984 1.405 0
0.63673540101600723 -0.81817946706703715 0
0.63673540101600723 0.8781794670670372 0
0.65013360261121578 -0.83823129278388175 0
0.65013360261121578 0.89823129278388181 0
0.6662114445254661 -0.8622934836440953 0
0.6662114445254661 0.92229348364409536 0
0.6855048548225664 -0.89116811267635143 0
0.6855048548225664 0.9511681126763516 0
0.68629004517646985 -1.2734356431884719 0
0.68629004517646985 1.333435643188472 0
0.69499999999999984 -1.47 0
0.69499999999999984 -1.345 0
0.69499999999999984 -1.2825 0
0.69499999999999984 -1.2687800753417173 0
0.69499999999999984 1.3287800753417174 0
0.69499999999999984 1.3425 0
0.69499999999999984 1.405 0
0.69499999999999984 1.53 0
0.69580025214333774 -1.1407899238261665 0
0.69580025214333774 1.2007899238261668 0
0.74830892480010647 -0.98516104572406016 0
0.74830892480010647 1.0451610457240608 0
0.7488323850360421 -1.2400060660654737 0
0.7488323850360421 1.3000060660654744 0
0.75749999999999984 -1.345 0
0.75749999999999984 -1.2825 0
0.75749999999999984 -1.2353731293451549 0
0.75749999999999984 1.2953731293451556 0
0.75749999999999984 1.3425 0
0.75749999999999984 1.405 0
0.77710678118700005 -0.67710678118699996 0
0.77710678118700005 0.73710678118700002 0
0.79131734455750224 -0.69131734455750216 0
0.79131734455750224 0.75131734455750221 0
0.80837002060210494 -0.70837002060210486 0
0.80837002060210494 0.76837002060210491 0
0.81111299477764653 -1.079153978771769 0
0.81111299477764653 1.1391539787717699 0
0.81137472489561435 -1.2065764889424757 0
0.81137472489561435 1.2665764889424767 0
0.81999999999999984 -1.97 0
0.81999999999999984 -1.72 0
0.81999999999999984 -1.47 0
0.81999999999999984 -1.345 0
0.81999999999999984 -1.2825 0
0.81999999999999984 -1.22 0
0.81999999999999984 -1.2019661833485926 0
0.81999999999999984 1.2619661833485936 0
0.81999999999999984 1.28 0
0.81999999999999984 1.3425 0
0.81999999999999984 1.405 0
0.81999999999999984 1.53 0
0.81999999999999984 1.78 0
0.81999999999999984 2.0300000000000002 0
0.82883323185562807 -0.72883323185562809 0
0.82883323185562818 0.78883323185562815 0
0.85338908535985591 -0.75338908535985594 0
0.85338908535985591 0.81338908535985588 0
0.8739170647551866 -1.1731469118194777 0
0.8739170647551866 1.2331469118194791 0
0.88249999999999984 -1.22 0
0.88249999999999984 -1.1661030789010063 0
0.88249999999999984 1.2261030789010074 0
0.88249999999999984 1.28 0
0.8929828819717911 -1.1575 0
0.89298288197179232 1.2175 0
0.90146961230300005 -0.52557023302000005 0
0.90146961230300005 0.58557023302 0
0.91218545902782588 1.0562059510248876 0
0.91218545902782622 -0.9962059510248874 0
0.91817946706703724 -0.53673540101600725 0
0.91817946706703724 0.59673540101600719 0
0.92873588412565988 1.1881582694238793 0
0.92873588412566022 -1.1281582694238785 0
0.93332350431893052 0.89332350431893048 0
0.93332350431893096 -0.83332350431893099 0
0.93823129278388184 -0.5501336026112158 0
0.93823129278388184 0.61013360261121574 0
0.94499999999999984 -1.47 0
0.94499999999999984 -1.345 0
0.94499999999999984 -1.22 0
0.94499999999999984 -1.1575 0
0.94499999999999984 -1.1148106544742329 0
0.94499999999999984 1.1748106544742332 0
0.94499999999999984 1.2175 0
0.94499999999999984 1.28 0
0.94499999999999984 1.405 0
0.94499999999999984 1.53 0
0.96229348364409539 -0.56621144452546612 0
0.96229348364409539 0.62621144452546607 0
0.96913935232106618 1.155 0
0.96913935232106652 -1.095 0
0.98355470349613328 1.1431696270282794 0
0.98355470349613383 -1.0831696270282793 0
0.99116811267635163 -0.58550485482256642 0
0.99116811267635163 0.64550485482256637 0
0.99387953251100003 -0.35268343236499999 0
0.99387953251100003 0.41268343236499999 0
1.0074999999999998 -1.22 0
1.0074999999999998 -1.1575 0
1.0074999999999998 -1.095 0
1.0074999999999998 -1.0635182300474597 0
1.0074999999999998 1.1235182300474589 0
1.0074999999999998 1.155 0
1.0074999999999998 1.2175 0
1.0074999999999998 1.28 0
1.012446528320939 -0.36037413384195444 0
1.012446528320939 0.42037413384195443 0
1.0132579232780052 0.9732579232780052 0
1.0132579232780059 -0.91325792327800603 0
1.0347269232928655 -0.36960297561429978 0
1.0347269232928655 0.42960297561429978 0
1.0383735228666064 1.0981809846326795 0
1.0383735228666073 -1.0381809846326802 0
1.050785280403 -0.16509032201599999 0
1.050785280403 0.22509032201599999 0
1.0614633972591776 -0.38067758574111421 0
1.0614633972591776 0.44067758574111421 0
1.0699999999999998 -1.97 0
1.0699999999999998 -1.72 0
1.0699999999999998 -1.47 0
1.0699999999999998 -1.345 0
1.0699999999999998 -1.22 0
1.0699999999999998 -1.1575 0
1.0699999999999998 -1.095 0
1.0699999999999998 -1.0325 0
1.0699999999999998 -1.0122258056206865 0
1.0699999999999998 1.0722258056206848 0
1.0699999999999998 1.0925 0
1.0699999999999998 1.155 0
1.0699999999999998 1.2175 0
1.0699999999999998 1.28 0
1.0699999999999998 1.405 0
1.0699999999999998 1.53 0
1.0699999999999998 1.78 0
1.0699999999999998 2.0300000000000002 0
1.0700000000000001 0.029999999999999999 0
1.0704958980223578 -0.16901100762919652 0
1.0704958980223578 0.22901100762919652 0
1.0851610457240608 -0.64830892480010649 0
1.0851610457240608 0.70830892480010643 0
1.0900967714475287 0.029999999999999999 0
1.09319234223708 1.0531923422370799 0
1.0931923422370811 -0.99319234223708097 0
1.0935471660187519 -0.39396711789329147 0
1.0935471660187519 0.45396711789329147 0
1.0941486391655872 -0.17371583036503238 0
1.0941486391655872 0.23371583036503238 0
1.0962059510248876 0.87218545902782585 0
1.0962059510248878 -0.81218545902782613 0
1.1122258056206846 1.03 0
1.1122258056206866 -0.96999999999999997 0
1.1142128971845631 0.029999999999999999 0
1.1225319285374624 -0.1793616176480354 0
1.1225319285374624 0.2393616176480354 0
1.1324999999999998 -1.095 0
1.1324999999999998 -1.0325 0
1.1324999999999998 -0.96999999999999997 0
1.1324999999999998 1.03 0
1.1324999999999998 1.0925 0
1.1324999999999998 1.155 0
1.1381809846326796 0.99837352286660652 0
1.1381809846326805 -0.93837352286660736 0
1.1431522480690044 0.029999999999999999 0
1.1565918757837128 -0.18613656238763901 0
1.1565918757837128 0.24613656238763901 0
1.1635182300474589 0.96750000000000003 0
1.16351823004746 -0.90749999999999997 0
1.177879469130334 0.029999999999999999 0
1.17915397877177 -0.71111299477764656 0
1.17915397877177 0.7711129947776465 0
1.1831696270282794 0.94355470349613324 0
1.1831696270282799 -0.88355470349613374 0
1.1949999999999998 -1.22 0
1.1949999999999998 -1.095 0
1.1949999999999998 -1.0325 0
1.1949999999999998 -0.96999999999999997 0
1.1949999999999998 -0.90749999999999997 0
1.1949999999999998 -0.86913935232106732 0
1.1949999999999998 0.92913935232106637 0
1.1949999999999998 0.96750000000000003 0
1.1949999999999998 1.03 0
1.1949999999999998 1.0925 0
1.1949999999999998 1.155 0
1.1949999999999998 1.28 0
1.1979865174496578 -0.43722731370116019 0
1.1979865174496578 0.49722731370116019 0
1.214810654474233 0.90500000000000003 0
1.2148106544742336 -0.84499999999999997 0
1.2281582694238793 0.88873588412565985 0
1.2281582694238795 -0.82873588412566024 0
1.2407899238261668 -0.59580025214333765 0
1.2407899238261668 0.6558002521433377 0
1.2574999999999998 -0.96999999999999997 0
1.2574999999999998 -0.90749999999999997 0
1.2574999999999998 -0.84499999999999997 0
1.2574999999999998 -0.79298288197179279 0
1.2574999999999998 0.85298288197179262 0
1.2574999999999998 0.90500000000000003 0
1.2574999999999998 0.96750000000000003 0
1.2574999999999998 1.03 0
1.2661030789010073 -0.78249999999999997 0
1.2661030789010073 0.84250000000000003 0
1.2674640998926008 -0.20819041896186949 0
1.2674640998926008 0.26819041896186951 0
1.2731469118194791 -0.77391706475518651 0
1.2731469118194791 0.83391706475518657 0
1.2909238085226831 0.029999999999999999 0
1.3019661833485936 -0.71999999999999997 0
1.3019661833485936 0.78000000000000003 0
1.3024258688805639 -0.48048750950902885 0
1.3024258688805639 0.54048750950902891 0
1.3065764889424769 -0.71137472489561437 0
1.3065764889424769 0.77137472489561432 0
1.3199999999999998 -1.47 0
1.3199999999999998 -1.22 0
1.3199999999999998 -1.095 0
1.3199999999999998 -0.96999999999999997 0
1.3199999999999998 -0.90749999999999997 0
1.3199999999999998 -0.84499999999999997 0
1.3199999999999998 -0.78249999999999997 0
1.3199999999999998 -0.71999999999999997 0
1.3199999999999998 0.78000000000000003 0
1.3199999999999998 0.84250000000000003 0
1.3199999999999998 0.90500000000000003 0
1.3199999999999998 0.96750000000000003 0
1.3199999999999998 1.03 0
1.3199999999999998 1.155 0
1.3199999999999998 1.28 0
1.3199999999999998 1.53 0
1.3353731293451554 -0.65749999999999997 0
1.3353731293451554 0.71750000000000003 0
1.3400060660654745 -0.64883238503604201 0
1.3400060660654745 0.70883238503604207 0
1.3403810964410261 -0.35536589252256445 0
1.3403810964410261 0.41536589252256445 0
1.3687800753417174 -0.59499999999999997 0
1.3687800753417174 0.65500000000000003 0
1.373435643188472 -0.58629004517646988 0
1.373435643188472 0.64629004517646982 0
1.3783363240014888 -0.2302442755361 0
1.3783363240014888 0.29024427553609999 0
1.3824999999999998 -0.71999999999999997 0
1.3824999999999998 -0.65749999999999997 0
1.3824999999999998 -0.59499999999999997 0
1.3824999999999998 0.65500000000000003 0
1.3824999999999998 0.71750000000000003 0
1.3824999999999998 0.78000000000000003 0
1.3911522359582604 -0.10012213776805 0
1.3911522359582604 0.16012213776804998 0
1.4021870213382794 -0.53249999999999997 0
1.4021870213382794 0.59250000000000003 0
1.4039681479150323 0.029999999999999999 0
1.4068652203114698 -0.52374770531689763 0
1.4068652203114698 0.58374770531689757 0
1.4231694084708686 -0.46999999999999997 0
1.4231694084708686 0.53000000000000003 0
1.4274510522611967 -0.45588531201525578 0
1.4274510522611967 0.51588531201525578 0
1.4421285761963427 -0.40749999999999997 0
1.4421285761963427 0.46750000000000003 0
1.4449999999999998 -0.96999999999999997 0
1.4449999999999998 -0.84499999999999997 0
1.4449999999999998 -0.71999999999999997 0
1.4449999999999998 -0.65749999999999997 0
1.4449999999999998 -0.59499999999999997 0
1.4449999999999998 -0.53249999999999997 0
1.4449999999999998 -0.46999999999999997 0
1.4449999999999998 -0.40749999999999997 0
1.4449999999999998 0.46750000000000003 0
1.4449999999999998 0.53000000000000003 0
1.4449999999999998 0.59250000000000003 0
1.4449999999999998 0.65500000000000003 0
1.4449999999999998 0.71750000000000003 0
1.4449999999999998 0.78000000000000003 0
1.4449999999999998 0.90500000000000003 0
1.4449999999999998 1.03 0
1.4480368842109232 -0.38802291871361405 0
1.4480368842109232 0.44802291871361405 0
1.4610877439218168 -0.34499999999999997 0
1.4610877439218168 0.40500000000000003 0
1.46862271616065 -0.32016052541197226 0
1.46862271616065 0.38016052541197226 0
1.480046911647291 -0.28249999999999997 0
1.480046911647291 0.34250000000000003 0
1.4892085481103767 -0.25229813211033048 0
1.4892085481103767 0.31229813211033047 0
1.4923896364677784 -0.21999999999999997 0
1.4923896364677784 0.28000000000000003 0
1.4961595329096278 -0.18172359908274788 0
1.4961595329096278 0.24172359908274788 0
1.4985453491776792 -0.15749999999999997 0
1.4985453491776792 0.21750000000000003 0
1.503110517708879 -0.11114906605516524 0
1.503110517708879 0.17114906605516522 0
1.50470106188758 -0.094999999999999973 0
1.50470106188758 0.15500000000000003 0
1.5074999999999998 -0.46999999999999997 0
1.5074999999999998 -0.40749999999999997 0
1.5074999999999998 -0.34499999999999997 0
1.5074999999999998 -0.28249999999999997 0
1.5074999999999998 -0.21999999999999997 0
1.5074999999999998 -0.15749999999999997 0
1.5074999999999998 0.21750000000000003 0
1.5074999999999998 0.28000000000000003 0
1.5074999999999998 0.34250000000000003 0
1.5074999999999998 0.40500000000000003 0
1.5074999999999998 0.46750000000000003 0
1.5074999999999998 0.53000000000000003 0
1.5100615025081303 -0.04057453302758262 0
1.5100615025081303 0.10057453302758262 0
1.5108567745974808 -0.032499999999999973 0
1.5108567745974808 0.092500000000000027 0
1.5170124873073814 0.029999999999999999 0
1.5699999999999998 -1.97 0
1.5699999999999998 -1.47 0
1.5699999999999998 -1.22 0
1.5699999999999998 -0.96999999999999997 0
1.5699999999999998 -0.84499999999999997 0
1.5699999999999998 -0.71999999999999997 0
1.5699999999999998 -0.59499999999999997 0
1.5699999999999998 -0.46999999999999997 0
1.5699999999999998 -0.40749999999999997 0
1.5699999999999998 -0.34499999999999997 0
1.5699999999999998 -0.28249999999999997 0
1.5699999999999998 -0.21999999999999997 0
1.5699999999999998 -0.15749999999999997 0
1.5699999999999998 -0.094999999999999973 0
1.5699999999999998 -0.032499999999999973 0
1.5699999999999998 0.030000000000000027 0
1.5699999999999998 0.092500000000000027 0
1.5699999999999998 0.15500000000000003 0
1.5699999999999998 0.21750000000000003 0
1.5699999999999998 0.28000000000000003 0
1.5699999999999998 0.34250000000000003 0
1.5699999999999998 0.40500000000000003 0
1.5699999999999998 0.46750000000000003 0
1.5699999999999998 0.53000000000000003 0
1.5699999999999998 0.65500000000000003 0
1.5699999999999998 0.78000000000000003 0
1.5699999999999998 0.90500000000000003 0
1.5699999999999998 1.03 0
1.5699999999999998 1.28 0
1.5699999999999998 1.53 0
1.5699999999999998 2.0300000000000002 0
1.6949999999999998 -0.46999999999999997 0
1.6949999999999998 -0.34499999999999997 0
1.6949999999999998 -0.21999999999999997 0
1.6949999999999998 -0.094999999999999973 0
1.6949999999999998 0.030000000000000027 0
1.6949999999999998 0.15500000000000003 0
1.6949999999999998 0.28000000000000003 0
1.6949999999999998 0.40500000000000003 0
1.6949999999999998 0.53000000000000003 0
1.8199999999999998 -0.96999999999999997 0
1.8199999999999998 -0.71999999999999997 0
1.8199999999999998 -0.46999999999999997 0
1.8199999999999998 -0.34499999999999997 0
1.8199999999999998 -0.21999999999999997 0
1.8199999999999998 -0.094999999999999973 0
1.8199999999999998 0.030000000000000027 0
1.8199999999999998 0.15500000000000003 0
1.8199999999999998 0.28000000000000003 0
1.8199999999999998 0.40500000000000003 0
1.8199999999999998 0.53000000000000003 0
1.8199999999999998 0.78000000000000003 0
1.8199999999999998 1.03 0
2.0700000000000003 -1.97 0
2.0700000000000003 -1.47 0
2.0700000000000003 -0.96999999999999997 0
2.0700000000000003 -0.71999999999999997 0
2.0700000000000003 -0.46999999999999997 0
2.0700000000000003 -0.21999999999999997 0
2.0700000000000003 0.030000000000000027 0
2.0700000000000003 0.28000000000000003 0
2.0700000000000003 0.53000000000000003 0
2.0700000000000003 0.78000000000000003 0
2.0700000000000003 1.03 0
2.0700000000000003 1.53 0
2.0700000000000003 2.0300000000000002 0
CELLS 728 4160
4 0 35 36 1
6 35 243 244 245 150 36
6 1 36 37 38 13 2
4 36 150 151 37
6 150 245 246 247 195 151
6 37 151 152 153 103 38
4 243 326 327 244
4 326 390 391 327
5 244 327 328 292 245
6 327 391 392 393 362 328
6 766 962 963 862 768 767
5 390 452 453 430 391
4 962 1015 1016 963
5 452 502 503 488 453
6 963 1016 1017 1002 965 964
4 2 13 14 3
5 13 38 39 40 14
4 3 14 15 4
6 14 40 41 42 26 15
6 10 25 62 63 64 11
5 4 15 16 17 5
4 11 64 65 12
5 5 17 18 19 6
6 64 165 258 259 260 65
4 151 195 196 152
6 989 1014 1025 1026 991 990
6 195 247 248 249 219 196
6 781 877 991 992 783 782
6 152 196 197 198 179 153
4 991 1026 1027 992
5 502 564 565 532 503
5 564 624 625 588 565
4 624 688 689 625
4 688 766 767 689
6 625 689 690 658 627 626
5 689 767 768 726 690
6 768 862 863 821 770 769
4 391 430 431 392
4 862 963 964 863
4 430 453 454 431
5 392 431 432 408 393
6 863 964 965 909 865 864
5 431 454 455 442 432
4 453 488 489 454
4 488 503 504 489
5 454 489 490 478 455
5 489 504 505 498 490
4 245 292 293 246
4 292 328 329 293
5 246 293 294 274 247
6 293 329 330 331 316 294
5 328 362 363 350 329
6 362 393 394 395 380 363
5 965 1002 1003 967 966
4 1002 1017 1018 1003
6 967 1003 1004 993 969 968
4 1003 1018 1019 1004
5 1004 1019 1020 1006 1005
5 1006 1020 1021 1008 1007
5 6 19 20 21 7
5 7 21 22 23 8
4 8 23 24 9
6 23 34 58 59 60 24
4 9 24 25 10
5 24 60 61 62 25
4 38 103 104 39
5 103 153 154 155 104
4 39 104 105 40
6 104 155 156 157 132 105
5 40 105 106 107 41
6 41 107 108 109 71 42
6 62 118 162 163 164 63
4 15 26 27 16
5 26 42 43 44 27
4 63 164 165 64
4 16 27 28 17
6 164 206 256 257 258 165
5 27 44 45 46 28
4 17 28 29 18
5 28 46 47 48 29
4 18 29 30 19
5 29 48 49 50 30
5 258 301 337 338 259
6 337 369 400 401 402 338
4 259 338 339 260
4 338 402 403 339
5 402 439 462 463 403
5 462 495 510 511 463
5 1008 1021 1022 1010 1009
5 1010 1022 1023 1012 1011
6 985 1001 1012 1013 987 986
4 1012 1023 1024 1013
5 987 1013 1014 989 988
4 1013 1024 1025 1014
5 510 539 574 575 511
5 574 597 636 637 575
6 634 665 699 700 636 635
5 699 735 781 782 700
4 636 700 701 637
4 700 782 783 701
6 874 924 989 990 876 875
6 779 832 876 877 781 780
4 876 990 991 877
4 196 219 220 197
4 219 249 250 220
4 197 220 221 198
4 220 250 251 236
4 236 228 221 220
4 503 532 533 504
4 532 565 566 533
5 504 533 534 526 505
5 533 566 567 544 534
4 565 588 589 566
4 588 625 626 589
5 566 589 590 580 567
5 589 626 627 612 590
6 627 658 659 644 629 628
5 658 690 691 672 659
4 690 726 727 691
4 726 768 769 727
6 691 727 728 708 693 692
5 727 769 770 746 728
6 770 821 822 803 772 771
4 821 863 864 822
6 822 864 865 841 824 823
4 329 350 351 330
4 350 363 364 351
6 330 351 352 340 332 331
5 351 364 365 356 352
6 363 380 381 370 365 364
3 395 396 386
4 386 381 380 395
4 247 274 275 248
4 274 294 295 275
4 248 275 276 249
5 275 295 296 289 276
5 294 316 317 315 295
3 331 332 320
4 320 317 316 331
4 295 315 306 296
6 249 276 277 266 251 250
4 276 289 286 277
4 393 408 409 394
4 408 432 433 409
4 394 409 410 395
6 409 433 434 419 411 410
5 865 909 910 867 866
4 432 442 443 433
4 909 965 966 910
4 442 455 456 443
6 867 910 911 890 869 868
5 433 443 444 440 434
4 910 966 967 911
4 443 456 457 449
3 449 444 443
5 395 410 411 404 396
5 911 967 968 913 912
6 913 968 969 945 915 914
4 455 478 479 456
6 478 490 491 485 480 479
5 456 479 480 469 457
5 490 498 499 497 491
4 498 505 506 499
5 969 993 994 971 970
4 993 1004 1005 994
5 971 994 995 973 972
4 994 1005 1006 995
5 973 995 996 975 974
4 995 1006 1007 996
5 975 996 997 977 976
4 996 1007 1008 997
4 19 30 31 20
5 30 50 51 52 31
4 20 31 32 21
5 31 52 53 54 32
4 21 32 33 22
5 32 54 55 56 33
4 22 33 34 23
5 33 56 57 58 34
6 58 82 112 113 114 59
5 59 114 115 116 60
4 60 116 117 61
6 116 137 158 159 160 117
4 61 117 118 62
5 117 160 161 162 118
4 153 179 180 154
4 179 198 199 180
4 154 180 181 155
5 180 199 200 191 181
6 198 221 228 217 212 199
4 199 212 207 200
5 155 181 182 177 156
4 181 191 189 182
3 173 170 157
4 157 156 177 173
4 105 132 133 106
6 132 157 170 166 148 133
4 106 133 134 107
5 133 148 146 142 134
6 107 134 142 140 128 108
3 125 123 109
4 109 108 128 125
6 162 186 203 204 205 163
4 163 205 206 164
6 205 224 254 255 256 206
4 42 71 72 43
4 71 109 110 72
4 43 72 73 44
6 72 110 119 101 99 73
5 109 123 121 119 110
5 256 281 299 300 257
4 44 73 74 45
6 299 319 334 335 336 300
5 73 99 97 95 74
4 257 300 301 258
4 45 74 75 46
4 300 336 337 301
3 74 95 93
4 93 91 75 74
5 336 355 368 369 337
6 368 383 398 399 400 369
4 46 75 76 47
5 75 91 89 87 76
6 47 76 87 85 83 48
5 48 83 69 67 49
4 49 67 66 50
5 400 415 437 438 401
5 437 447 460 461 438
4 401 438 439 402
4 438 461 462 439
5 460 483 493 494 461
5 493 501 508 509 494
4 461 494 495 462
4 494 509 510 495
5 977 997 998 979 978
4 997 1008 1009 998
5 979 998 999 981 980
4 998 1009 1010 999
5 981 999 1000 983 982
4 999 1010 1011 1000
5 983 1000 1001 985 984
4 1000 1011 1012 1001
6 918 956 985 986 920 919
5 920 986 987 922 921
6 870 895 922 923 872 871
4 922 987 988 923
5 872 923 924 874 873
4 923 988 989 924
6 632 647 664 665 634 633
5 664 677 698 699 665
6 696 711 733 734 698 697
5 733 753 779 780 734
4 698 734 735 699
4 734 780 781 735
5 508 529 537 538 509
5 537 549 572 573 538
4 509 538 539 510
4 538 573 574 539
5 572 585 595 596 573
5 595 619 634 635 596
4 573 596 597 574
4 596 635 636 597
6 829 848 874 875 831 830
6 777 808 831 832 779 778
4 831 875 876 832
4 505 526 527 506
5 526 534 535 530 527
6 534 544 545 546 542 535
4 544 567 568 545
5 545 568 569 558 546
4 567 580 581 568
4 580 590 591 581
3 581 582 578
4 578 569 568 581
5 581 591 592 586 582
4 590 612 613 591
4 612 627 628 613
6 591 613 614 615 608 592
4 613 628 629 614
5 614 629 630 622 615
4 629 644 645 640
3 640 630 629
6 644 659 660 661 656 645
4 659 672 673 660
4 672 691 692 673
5 660 673 674 670 661
6 673 692 693 694 686 674
4 693 708 709 706
3 706 694 693
5 708 728 729 712 709
4 712 729 730 721
4 728 746 747 729
4 746 770 771 747
5 729 747 748 739 730
4 747 771 772 748
4 739 748 749 741
6 748 772 773 774 761 749
4 772 803 804 773
4 803 822 823 804
4 804 805 799 791
4 791 774 773 804
4 804 823 824 805
6 799 805 824 825 815 810
4 815 825 826 820
4 824 841 842 825
4 841 865 866 842
5 825 842 843 836 826
4 842 866 867 843
4 836 843 844 838
5 843 867 868 849 844
3 869 856 853
4 853 849 868 869
6 856 869 890 891 878 860
4 890 911 912 891
5 878 891 892 884 880
4 891 912 913 892
6 884 892 913 914 898 886
3 915 903 901
4 901 898 914 915
5 903 915 916 907 905
6 907 916 946 947 927 925
4 915 945 946 916
4 945 969 970 946
4 946 970 971 947
5 927 947 948 931 929
4 947 971 972 948
4 948 949 935 933
3 933 931 948
4 948 972 973 949
5 935 949 950 939 937
4 949 973 974 950
6 939 950 974 975 943 941
5 943 975 976 959 957
4 959 976 977 961
4 50 66 68 51
5 51 68 70 84 52
6 52 84 86 88 77 53
4 53 77 78 54
5 77 88 90 92 78
4 54 78 79 55
3 94 96 79
4 79 78 92 94
4 55 79 80 56
5 79 96 98 100 80
4 56 80 81 57
6 80 100 102 120 111 81
4 57 81 82 58
4 81 111 112 82
5 111 120 122 124 112
3 112 124 126
4 126 129 113 112
6 113 129 141 143 135 114
4 114 135 136 115
5 135 143 147 149 136
4 115 136 137 116
6 136 149 167 171 158 137
3 158 171 174
4 174 178 159 158
5 159 178 183 184 160
4 183 190 192 184
4 160 184 185 161
5 184 192 201 202 185
4 161 185 186 162
4 185 202 203 186
4 201 208 213 202
6 202 213 218 229 222 203
4 203 222 223 204
4 237 252 253 223
4 223 222 229 237
4 204 223 224 205
4 223 253 254 224
6 252 267 278 279 254 253
4 278 287 288 279
4 254 279 280 255
5 279 288 297 298 280
4 255 280 281 256
4 280 298 299 281
4 297 307 314 298
5 298 314 318 319 299
3 321 333 334
4 334 319 318 321
6 333 341 353 354 335 334
5 353 357 366 367 354
4 335 354 355 336
4 354 367 368 355
6 366 371 382 383 368 367
3 387 397 398
4 398 383 382 387
5 397 405 412 413 398
6 412 418 435 436 414 413
4 398 413 414 399
4 399 414 415 400
4 414 436 437 415
5 435 441 445 446 436
4 448 458 459 446
3 446 445 448
4 436 446 447 437
4 446 459 460 447
5 458 468 481 482 459
6 481 484 492 493 483 482
4 459 482 483 460
5 492 496 500 501 493
4 500 507 508 501
4 960 961 977 978
5 944 958 960 978 979
6 940 942 944 979 980 951
5 936 938 940 951 952
4 951 980 981 952
4 934 936 952 953
3 953 932 934
4 952 981 982 953
5 928 930 932 953 954
4 953 982 983 954
6 908 926 928 954 955 917
5 904 906 908 917 918
4 954 983 984 955
4 917 955 956 918
4 955 984 985 956
6 857 861 879 894 895 870
3 902 904 918
4 918 919 899 902
6 885 887 899 919 920 893
5 879 881 885 893 894
4 893 920 921 894
4 894 921 922 895
3 854 857 870
4 870 871 850 854
4 835 837 845 846
5 845 850 871 872 846
4 814 819 827 828
6 798 809 814 828 829 806
5 827 835 846 847 828
4 846 872 873 847
4 828 847 848 829
4 847 873 874 848
5 528 531 536 537 529
4 507 528 529 508
6 536 543 547 548 549 537
5 547 559 570 571 548
4 548 571 572 549
6 593 609 616 617 618 594
5 616 623 631 632 617
3 579 583 584
4 584 571 570 579
5 583 587 593 594 584
4 571 584 585 572
4 584 594 595 585
4 617 632 633 618
4 594 618 619 595
4 618 633 634 619
6 675 687 695 696 697 676
6 750 760 775 776 777 751
4 738 740 750 751
4 713 720 731 732
4 707 710 711 696
3 696 695 707
5 710 713 732 733 711
5 731 738 751 752 732
4 751 777 778 752
4 732 752 753 733
4 752 778 779 753
6 646 657 662 663 664 647
4 641 646 647 632
3 632 631 641
5 662 671 675 676 663
4 663 676 677 664
4 676 697 698 677
4 790 798 806 807
4 807 776 775 790
4 806 829 830 807
4 776 807 808 777
4 807 830 831 808
4 211 172 175 214
4 214 175 193 234
4 234 193 239 284
4 284 239 304 322
4 322 304 358 372
4 372 358 406 416
4 416 406 465 467
4 467 465 513 514
4 514 513 562 560
4 560 562 620 610
4 610 620 668 654
4 654 668 723 704
4 704 723 787 742
4 742 787 833 792
4 792 833 851 812
4 812 851 855 816
4 816 855 852 813
4 813 852 834 793
4 793 834 788 743
4 743 788 722 705
4 705 722 669 655
4 655 669 621 611
4 611 621 563 561
4 561 563 524 523
4 523 524 464 466
4 466 464 407 417
4 417 407 359 373
4 373 359 305 323
4 323 305 240 285
4 285 240 194 235
4 235 194 176 215
4 215 176 172 211
5 172 127 130 138 175
5 175 138 144 168 193
5 193 168 187 209 239
5 239 209 230 270 304
5 304 270 310 342 358
5 358 342 360 388 406
5 406 388 427 451 465
5 465 451 487 512 513
5 513 512 540 576 562
5 562 576 600 638 620
5 620 638 666 684 668
5 668 684 717 757 723
5 723 757 797 817 787
5 787 817 839 858 833
5 833 858 882 888 851
5 851 888 896 900 855
5 855 900 897 889 852
5 852 889 883 859 834
5 834 859 840 818 788
5 788 818 796 756 722
5 722 756 716 685 669
5 669 685 667 639 621
5 621 639 601 577 563
5 563 577 541 525 524
5 524 525 486 450 464
5 464 450 426 389 407
5 407 389 361 343 359
5 359 343 311 271 305
5 305 271 231 210 240
5 240 210 188 169 194
5 194 169 145 139 176
5 176 139 131 127 172
7 127 66 67 69 83 85 130
7 130 85 87 89 91 93 138
7 138 93 95 97 99 101 144
7 144 101 119 121 123 125 168
7 168 125 128 140 142 146 187
7 187 146 148 166 170 173 209
9 209 173 177 182 189 191 200 207 230
7 230 207 212 217 228 236 270
7 270 236 251 266 277 286 310
9 310 286 289 296 306 315 317 320 342
7 342 320 332 340 352 356 360
7 360 356 365 370 381 386 388
7 388 386 396 404 411 419 427
7 427 419 434 440 444 449 451
7 451 449 457 469 480 485 487
7 487 485 491 497 499 506 512
7 512 506 527 530 535 542 540
7 540 542 546 558 569 578 576
7 576 578 582 586 592 608 600
7 600 608 615 622 630 640 638
7 638 640 645 656 661 670 666
7 666 670 674 686 694 706 684
9 684 706 709 712 721 730 739 741 717
7 717 741 749 761 774 791 757
7 757 791 799 810 815 820 797
9 797 820 826 836 838 844 849 853 817
7 817 853 856 860 878 880 839
7 839 880 884 886 898 901 858
7 858 901 903 905 907 925 882
7 882 925 927 929 931 933 888
7 888 933 935 937 939 941 896
7 896 941 943 957 959 961 900
7 900 961 960 958 944 942 897
7 897 942 940 938 936 934 889
7 889 934 932 930 928 926 883
7 883 926 908 906 904 902 859
7 859 902 899 887 885 881 840
7 840 881 879 861 857 854 818
9 818 854 850 845 837 835 827 819 796
7 796 819 814 809 798 790 756
7 756 790 775 760 750 740 716
9 716 740 738 731 720 713 710 707 685
7 685 707 695 687 675 671 667
7 667 671 662 657 646 641 639
7 639 641 631 623 616 609 601
7 601 609 593 587 583 579 577
7 577 579 570 559 547 543 541
7 541 543 536 531 528 507 525
7 525 507 500 496 492 484 486
7 486 484 481 468 458 448 450
7 450 448 445 441 435 418 426
7 426 418 412 405 397 387 389
7 389 387 382 371 366 357 361
7 361 357 353 341 333 321 343
9 343 321 318 314 307 297 288 287 311
7 311 287 278 267 252 237 271
7 271 237 229 218 213 208 231
9 231 208 201 192 190 183 178 174 210
7 210 174 171 167 149 147 188
7 188 147 143 141 129 126 169
7 169 126 124 122 120 102 145
7 145 102 100 98 96 94 139
7 139 94 92 90 88 86 131
7 131 86 84 70 68 66 127
4 261 238 241 264
4 264 241 272 282
4 282 272 308 312
4 312 308 346 348
4 348 346 378 384
4 384 378 424 428
4 428 424 474 476
4 476 474 517 518
4 518 517 552 550
4 550 552 602 598
4 598 602 648 642
4 642 648 680 678
4 678 680 718 714
4 714 718 754 744
4 744 754 785 762
4 762 785 789 784
4 784 789 786 763
4 763 786 755 745
4 745 755 719 715
4 715 719 681 679
4 679 681 649 643
4 643 649 603 599
4 599 603 553 551
4 551 553 520 519
4 519 520 475 477
4 477 475 425 429
4 429 425 379 385
4 385 379 347 349
4 349 347 309 313
4 313 309 273 283
4 283 273 242 265
4 265 242 238 261
4 238 227 232 241
4 241 232 268 272
4 272 268 302 308
4 308 302 344 346
4 346 344 376 378
4 378 376 422 424
4 424 422 473 474
4 474 473 516 517
4 517 516 554 552
4 552 554 604 602
4 602 604 650 648
4 648 650 682 680
4 680 682 724 718
4 718 724 758 754
4 754 758 794 785
4 785 794 800 789
4 789 800 795 786
4 786 795 759 755
4 755 759 725 719
4 719 725 683 681
4 681 683 651 649
4 649 651 605 603
4 603 605 555 553
4 553 555 521 520
4 520 521 472 475
4 475 472 423 425
4 425 423 377 379
4 379 377 345 347
4 347 345 303 309
4 309 303 269 273
4 273 269 233 242
4 242 233 227 238
4 227 216 225 232
4 232 225 262 268
4 268 262 290 302
4 302 290 324 344
4 344 324 374 376
4 376 374 420 422
4 422 420 471 473
4 473 471 515 516
4 516 515 556 554
4 554 556 606 604
4 604 606 652 650
4 650 652 702 682
4 682 702 736 724
4 724 736 764 758
4 758 764 801 794
4 794 801 811 800
4 800 811 802 795
4 795 802 765 759
4 759 765 737 725
4 725 737 703 683
4 683 703 653 651
4 651 653 607 605
4 605 607 557 555
4 555 557 522 521
4 521 522 470 472
4 472 470 421 423
4 423 421 375 377
4 377 375 325 345
4 345 325 291 303
4 303 291 263 269
4 269 263 226 233
4 233 226 216 227
4 216 211 214 225
4 225 214 234 262
4 262 234 284 290
4 290 284 322 324
4 324 322 372 374
4 374 372 416 420
4 420 416 467 471
4 471 467 514 515
4 515 514 560 556
4 556 560 610 606
4 606 610 654 652
4 652 654 704 702
4 702 704 742 736
4 736 742 792 764
4 764 792 812 801
4 801 812 816 811
4 811 816 813 802
4 802 813 793 765
4 765 793 743 737
4 737 743 705 703
4 703 705 655 653
4 653 655 611 607
4 607 611 561 557
4 557 561 523 522
4 522 523 466 470
4 470 466 417 421
4 421 417 373 375
4 375 373 323 325
4 325 323 285 291
4 291 285 235 263
4 263 235 215 226
4 226 215 211 216
CELL_TYPES 728
7
7
7
7
7
7
7
7
7
7
7
7
7
7
7
7
7
7
7
7
7
7
7
7
7
7
7
7
7
7
7
7
7
7
7
7
7
7
7
7
7
7
7
7
7
7
7
7
7
7
7
7
7
7
7
7
7
7
7
7
7
7
7
7
7
7
7
7
7
7
7
7
7
7
7
7
7
7
7
7
7
7
7
7
7
7
7
7
7
7
7
7
7
7
7
7
7
7
7
7
7
7
7
7
7
7
7
7
7
7
7
7
7
7
7
7
7
7
7
7
7
7
7
7
7
7
7
7
7
7
7
7
7
7
7
7
7
7
7
7
7
7
7
7
7
7
7
7
7
7
7
7
7
7
7
7
7
7
7
7
7
7
7
7
7
7
7
7
7
7
7
7
7
7
7
7
7
7
7
7
7
7
7
7
7
7
7
7
7
7
7
7
7
7
7
7
7
7
7
7
7
7
7
7
7
7
7
7
7
7
7
7
7
7
7
7
7
7
7
7
7
7
7
7
7
7
7
7
7
7
7
7
7
7
7
7
7
7
7
7
7
7
7
7
7
7
7
7
7
7
7
7
7
7
7
7
7
7
7
7
7
7
7
7
7
7
7
7
7
7
7
7
7
7
7
7
7
7
7
7
7
7
7
7
7
7
7
7
7
7
7
7
7
7
7
7
7
7
7
7
7
7
7
7
7
7
7
7
7
7
7
7
7
7
7
7
7
7
7
7
7
7
7
7
7
7
7
7
7
7
7
7
7
7
7
7
7
7
7
7
7
7
7
7
7
7
7
7
7
7
7
7
7
7
7
7
7
7
7
7
7
7
7
7
7
7
7
7
7
7
7
7
7
7
7
7
7
7
7
7
7
7
7
7
7
7
7
7
7
7
7
7
7
7
7
7
7
7
7
7
7
7
7
7
7
7
7
7
7
7
7
7
7
7
7
7
7
7
7
7
7
7
7
7
7
7
7
7
7
7
7
7
7
7
7
7
7
7
7
7
7
7
7
7
7
7
7
7
7
7
7
7
7
7
7
7
7
7
7
7
7
7
7
7
7
7
7
7
7
7
7
7
7
7
7
7
7
7
7
7
7
7
7
7
7
7
7
7
7
7
7
7
7
7
7
7
7
7
7
7
7
7
7
7
7
7
7
7
7
7
7
7
7
7
7
7
7
7
7
7
7
7
7
7
7
7
7
7
7
7
7
7
7
7
7
7
7
7
7
7
7
7
7
7
7
7
7
7
7
7
7
7
7
7
7
7
7
7
7
7
7
7
7
7
7
7
7
7
7
7
7
7
7
7
7
7
7
7
7
7
7
7
7
7
7
7
7
7
7
7
7
7
7
7
7
7
7
7
7
7
7
7
7
7
7
7
7
7
7
7
7
7
7
7
7
7
7
7
7
7
7
7
7
7
7
7
7
7
7
7
7
7
7
7
7
7
7
7
7
7
7
7
7
7
7
7
7
7
7
7
7
7
7
7
7
7
7
7
7
7
7
7
7
7
7
7
7
7
7
7
7
7
7
7
7
7
7
7
7
7
7
7
7
7
7
7
7
7
7
7
7
7
7
7
7
7
7
7
7
7
7
7
7
7
7
7
7
7
7
7
7
7
7
7
7
7
7
7
7
7
7
7
7
7
7
7
7
7
CELL_DATA 728
SCALARS geometry_area double 1
LOOKUP_TABLE default
0.25
0.25
0.25
0.0625
0.0625
0.0625
0.0625
0.0625
0.0625
0.0625
0.25
0.0625
0.25000000000000022
0.0625
0.25000000000000022
0.0625
0.0625
0.0625
0.0625
0.25
0.0625
0.25000000000000011
0.0625
0.25000000000000011
0.015625
0.25000000000000022
0.015625
0.25000000000000011
0.015625
0.25000000000000033
0.0625
0.0625
0.0625
0.0625
0.0625
0.0625
0.0625
0.015625
0.0625
0.015625
0.015625
0.0625
0.015625
0.015625
0.015625
0.015625
0.015625
0.015625
0.015625
0.015625
0.015625
0.015625
0.015625
0.0625
0.062500000000000111
0.0625
0.062500000000000111
0.062500000000000111
0.062500000000000111
0.0625
0.0625
0.0625
0.0625
0.0625
0.0625
0.015625
0.015625
0.015625
0.015625
0.015625
0.015625
0.0625
0.015625
0.015625
0.0625
0.015625
0.0625
0.015625
0.015625
0.015625
0.015625
0.015625
0.0625
0.0625
0.062500000000000056
0.062500000000000056
0.062500000000000056
0.062500000000000056
0.062500000000000111
0.062500000000000111
0.0625
0.062500000000000111
0.0625
0.062500000000000111
0.062500000000000056
0.062500000000000056
0.0625
0.0625
0.062500000000000056
0.062500000000000056
0.0625
0.0625
0.0625
0.00390625
0.00390625
0.00390625
0.0014634673324042922
0.0014634673324043002
0.015625
0.015625
0.015625
0.015625
0.015625
0.015625
0.015625
0.015625
0.015625
0.015625
0.015625
0.015625
0.015625
0.015625
0.015625
0.015625
0.015625
0.00390625
0.00390625
0.0039893964783204033
0.0019014623535352562
0.003719778228750116
0.0005866721002006697
0.0013790677680209534
0.00390625
0.00390625
0.00390625
0.0036671418159677951
0.0038611574696433754
0.00048616523008854977
0.0016954558974850698
0.0011102883623804185
0.0035704988853704489
0.00060383054272932445
0.00390625
0.00390625
0.00390625
0.0034932399963075872
0.015625
0.00390625
0.015625
0.00390625
0.015625
0.0023082920134654822
0.015625
0.0008156261303502258
0.00041456727379600178
0.0007719379791496922
0.015625
0.015625
0.00390625
0.0042735496542107357
0.00075203169857955554
0.0038888176098419089
0.0035040855654730821
0.015625
0.015625
0.015625
0.015625
0.015625
0.015625
0.015625
0.015625
0.015625
0.015625
0.015625
0.015625
0.015625
0.015625
0.015625
0.015625
0.015625
0.015625
0.015625
0.015625
0.015625
0.015625
0.00390625
0.00390625
0.00390625
0.003667141815967796
0.0035704988853704454
0.00060383054272932619
0.0038611574696433759
0.0011102883623804209
0.00048616523008854565
0.0016954558974850709
0.00390625
0.0039893964783203825
0.00390625
0.0019014623535352285
0.0037197782287500675
0.0005866721002006543
0.0013790677680209089
0.015625
0.015625
0.015625
0.00390625
0.00390625
0.00390625
0.0034932399963075664
0.0007719379791496575
0.015625
0.00390625
0.015625
0.0023082920134654752
0.015625
0.00390625
0.015625
0.00041456727379599913
0.00081562613035024141
0.015625
0.015625
0.00390625
0.00075203169857959024
0.0042735496542107912
0.0038888176098419991
0.0035040855654732139
0.015625
0.015625
0.015625
0.015625
0.015625
0.015625
0.015625
0.015625
0.015625
0.015625
0.015625
0.015625
0.015625
0.015625
0.015625
0.015625
0.015625
0.015625
0.015625
0.015625
0.015625
0.015625
0.015625
0.015625
0.015625
0.015625
0.015625
0.015625
0.015625
0.015625
0.015625
0.015625
0.015625
0.015625
0.015625
0.015625
0.015625
0.015625
0.015625
0.0035040855654730821
0.0038888176098419089
0.0042735496542107287
0.00390625
0.0007520316985795486
0.00390625
0.00390625
0.00041456727379599761
0.00081562613035022808
0.0023082920134654822
0.00390625
0.00390625
0.0034932399963075803
0.00390625
0.00077193797914968526
0.0013790677680209451
0.00058667210020067338
0.0037197782287501022
0.00390625
0.00390625
0.0019014623535352423
0.0039893964783203895
0.0016954558974850559
0.00048616523008854776
0.0038611574696433715
0.0011102883623804057
0.00390625
0.00390625
0.0036671418159677878
0.00390625
0.00060383054272931318
0.0035704988853704281
0.00390625
0.00390625
0.0014634673324042799
0.0014634673324042916
0.00390625
0.0035704988853704073
0.0006038305427292942
0.00390625
0.00390625
0.0036671418159677704
0.00390625
0.0011102883623803493
0.003861157469643359
0.00048616523008851583
0.0016954558974850086
0.0039893964783203339
0.00390625
0.0019014623535352146
0.00390625
0.0037197782287500883
0.0005866721002006543
0.0013790677680209397
0.00077193797914963669
0.0034932399963075039
0.00390625
0.00390625
0.00390625
0.0023082920134653712
0.00390625
0.00081562613035012562
0.00041456727379596893
0.00390625
0.00075203169857943758
0.00390625
0.0042735496542106385
0.0038888176098418395
0.0035040855654730474
0.0035040855654732139
0.0038888176098419991
0.0042735496542107912
0.00390625
0.00075203169857959024
0.00390625
0.00041456727379599989
0.00081562613035024098
0.00390625
0.0023082920134654822
0.00390625
0.0034932399963075733
0.00390625
0.00390625
0.0007719379791496575
0.000586672100200653
0.0013790677680209113
0.0037197782287500675
0.00390625
0.0019014623535352285
0.00390625
0.0039893964783203825
0.00048616523008854576
0.0016954558974850709
0.0038611574696433763
0.0011102883623804348
0.00390625
0.003667141815967806
0.00390625
0.00390625
0.00060383054272934603
0.003570498885370494
0.00390625
0.0014634673324043373
0.0014634673324042994
0.00390625
0.00390625
0.0035704988853704905
0.00060383054272932955
0.00390625
0.0036671418159677873
0.00390625
0.00390625
0.0011102883623803786
0.0038611574696433637
0.00048616523008852586
0.0016954558974850234
0.0039893964783203548
0.0019014623535352354
0.00390625
0.00390625
0.003719778228750116
0.00058667210020065788
0.0013790677680209534
0.00077193797914965057
0.0034932399963075178
0.00390625
0.00390625
0.00390625
0.002308292013465385
0.00081562613035013494
0.00041456727379597457
0.00390625
0.00390625
0.00075203169857945146
0.0042735496542106524
0.00390625
0.0038888176098418534
0.0035040855654730613
0.0035040855654730474
0.0038888176098418395
0.0042735496542106385
0.00075203169857943758
0.00390625
0.00081562613035012529
0.00041456727379596969
0.00390625
0.0023082920134653712
0.00390625
0.0034932399963075039
0.00077193797914963669
0.00390625
0.00390625
0.00390625
0.0039893964783203339
0.000586672100200653
0.0013790677680209421
0.0037197782287500883
0.0019014623535352146
0.00390625
0.00390625
0.00048616523008851594
0.0016954558974850086
0.0011102883623803714
0.0038611574696433603
0.00060383054272933128
0.0035704988853705044
0.0036671418159677886
0.00390625
0.00390625
0.00390625
0.0038888176098418534
0.0035040855654730613
0.0042735496542106524
0.00075203169857944452
0.00390625
0.0034932399963075039
0.00077193797914963669
0.00041456727379595831
0.00081562613035013852
0.0023082920134653712
0.00390625
0.00390625
0.00390625
0.00390625
0.00390625
0.0039893964783203409
0.0035704988853705114
0.00060383054272933551
0.0011102883623803738
0.0016954558974850095
0.0004861652300885238
0.0038611574696433607
0.0036671418159677886
0.00390625
0.00390625
0.00390625
0.0037197782287501022
0.0013790677680209451
0.0005866721002006555
0.0019014623535352215
0.00390625
0.00390625
0.0014634673324043265
0.0014634673324043358
0.00390625
0.00390625
0.00390625
0.025679546737387482
0.025679546737338479
0.025679546737391347
0.02567954673743424
0.025679546737434233
0.025679546737391298
0.025679546737338452
0.025679546737387565
0.025679546737387565
0.025679546737338445
0.025679546737391298
0.025679546737434229
0.025679546737434299
0.025679546737391312
0.025679546737338528
0.025679546737387635
0.025679546737387635
0.025679546737338528
0.025679546737391305
0.025679546737434229
0.025679546737434229
0.025679546737391305
0.025679546737338514
0.025679546737387652
0.025679546737387638
0.025679546737338528
0.025679546737391305
0.025679546737434278
0.025679546737434188
0.02567954673739134
0.025679546737338476
0.025679546737387485
0.028172610384874966
0.028172610384779976
0.028172610384867118
0.028172610384942308
0.028172610384942308
0.028172610384867049
0.028172610384779955
0.028172610384875077
0.028172610384875077
0.028172610384779952
0.028172610384867056
0.028172610384942308
0.028172610384942391
0.028172610384867042
0.028172610384780063
0.02817261038487515
0.028172610384875146
0.028172610384780063
0.028172610384867042
0.028172610384942353
0.028172610384942353
0.028172610384867049
0.028172610384780042
0.028172610384875188
0.028172610384875153
0.02817261038478007
0.028172610384867042
0.028172610384942419
0.028172610384942245
0.028172610384867122
0.028172610384779979
0.028172610384874973
0.015332837016181235
0.015332837016181228
0.015332837016110717
0.015332837016110743
0.015332837016171431
0.015332837016171434
0.015332837016225186
0.015332837016225221
0.015332837016225218
0.015332837016225193
0.015332837016171368
0.015332837016171386
0.015332837016110743
0.015332837016110729
0.015332837016181256
0.015332837016181298
0.015332837016181301
0.015332837016181253
0.015332837016110733
0.015332837016110745
0.015332837016171386
0.015332837016171375
0.0153328370162252
0.015332837016225211
0.015332837016225271
0.015332837016225273
0.015332837016171403
0.015332837016171368
0.015332837016110809
0.015332837016110837
0.015332837016181319
0.015332837016181333
0.015332837016181331
0.01533283701618132
0.015332837016110839
0.015332837016110807
0.015332837016171372
0.015332837016171399
0.015332837016225237
0.015332837016225204
0.0153328370162252
0.015332837016225238
0.015332837016171386
0.015332837016171372
0.015332837016110785
0.015332837016110813
0.01533283701618135
0.015332837016181362
0.015332837016181336
0.015332837016181319
0.015332837016110837
0.015332837016110807
0.015332837016171372
0.015332837016171379
0.015332837016225283
0.015332837016225273
0.015332837016225155
0.015332837016225139
0.015332837016171427
0.015332837016171431
0.015332837016110741
0.015332837016110719
0.015332837016181228
0.015332837016181232
0.0039600821745233283
0.0039600821745257725
0.0039600821745268688
0.0039600821745266364
0.0039600821745266346
0.0039600821745268654
0.0039600821745257725
0.0039600821745233283
0.0039600821745233283
0.0039600821745257725
0.0039600821745268671
0.0039600821745266373
0.0039600821745266364
0.0039600821745268671
0.0039600821745257725
0.0039600821745233283
0.0039600821745233283
0.0039600821745257725
0.0039600821745268654
0.0039600821745266381
0.0039600821745266381
0.0039600821745268671
0.0039600821745257725
0.0039600821745233283
0.0039600821745233283
0.0039600821745257725
0.0039600821745268636
0.0039600821745266346
0.0039600821745266381
0.0039600821745268671
0.0039600821745257725
0.0039600821745233283
0.0048561055313735705
0.0048561055313745636
0.0048561055313772871
0.0048561055313783774
0.0048561055313783835
0.0048561055313772871
0.0048561055313745627
0.0048561055313735583
0.0048561055313735592
0.0048561055313745636
0.0048561055313772871
0.0048561055313783782
0.0048561055313783765
0.0048561055313772871
0.0048561055313745636
0.0048561055313735592
0.0048561055313735592
0.0048561055313745636
0.0048561055313772854
0.00485610553137838
0.0048561055313783782
0.0048561055313772854
0.0048561055313745627
0.0048561055313735592
0.0048561055313735601
0.0048561055313745636
0.0048561055313772871
0.0048561055313783835
0.0048561055313783791
0.0048561055313772854
0.0048561055313745636
0.0048561055313735705
0.0059770966052498688
0.0059770966052483214
0.0059770966052536557
0.0059770966052568857
0.0059770966052568857
0.0059770966052536548
0.0059770966052483231
0.0059770966052498688
0.0059770966052498688
0.0059770966052483231
0.0059770966052536557
0.0059770966052568866
0.0059770966052568857
0.0059770966052536557
0.005977096605248311
0.0059770966052498584
0.0059770966052498575
0.005977096605248311
0.0059770966052536539
0.0059770966052568944
0.0059770966052568944
0.0059770966052536548
0.005977096605248311
0.0059770966052498584
0.0059770966052498584
0.0059770966052483101
0.0059770966052536539
0.0059770966052568866
0.0059770966052568857
0.0059770966052536539
0.0059770966052483223
0.0059770966052498696
0.0073881846796461032
0.0073881846796402797
0.0073881846796496429
0.0073881846796563285
0.0073881846796563259
0.0073881846796496325
0.0073881846796402702
0.0073881846796461266
0.0073881846796461266
0.0073881846796402693
0.0073881846796496325
0.0073881846796563268
0.0073881846796563407
0.0073881846796496412
0.007388184679640291
0.00738818467964615
0.00738818467964615
0.007388184679640291
0.0073881846796496412
0.0073881846796563233
0.0073881846796563233
0.0073881846796496394
0.0073881846796402927
0.0073881846796461518
0.0073881846796461509
0.007388184679640291
0.0073881846796496412
0.0073881846796563294
0.0073881846796563242
0.0073881846796496429
0.0073881846796402788
0.0073881846796461032
SCALARS source_id unsigned_long 1
LOOKUP_TABLE default
0
1
2
3
4
5
6
7
8
9
10
11
12
13
14
15
16
17
18
19
20
21
22
23
24
25
26
27
28
29
30
31
32
33
34
35
36
37
38
39
40
41
42
43
44
45
46
47
48
49
50
51
52
53
54
55
56
57
58
59
60
61
62
63
64
65
66
67
68
69
70
71
72
73
74
75
76
77
78
79
80
81
82
83
84
85
86
87
88
89
90
91
92
93
94
95
96
97
98
99
100
101
102
103
104
105
106
107
108
109
110
111
112
113
114
115
116
117
118
119
120
121
122
123
124
125
126
127
128
129
130
131
132
133
134
135
136
137
138
139
140
141
142
143
144
145
146
147
148
149
150
151
152
153
154
155
156
157
158
159
160
161
162
163
164
165
166
167
168
169
170
171
172
173
174
175
176
177
178
179
180
181
182
183
184
185
186
187
188
189
190
191
192
193
194
195
196
197
198
199
200
201
202
203
204
205
206
207
208
209
210
211
212
213
214
215
216
217
218
219
220
221
222
223
224
225
226
227
228
229
230
231
232
233
234
235
236
237
238
239
240
241
242
243
244
245
246
247
248
249
250
251
252
253
254
255
256
257
258
259
260
261
262
263
264
265
266
267
268
269
270
271
272
273
274
275
276
277
278
279
280
281
282
283
284
285
286
287
288
289
290
291
292
293
294
295
296
297
298
299
300
301
302
303
304
305
306
307
308
309
310
311
312
313
314
315
316
317
318
319
320
321
322
323
324
325
326
327
328
329
330
331
332
333
334
335
336
337
338
339
340
341
342
343
344
345
346
347
348
349
350
351
352
353
354
355
356
357
358
359
360
361
362
363
364
365
366
367
368
369
370
371
372
373
374
375
376
377
378
379
380
381
382
383
384
385
386
387
388
389
390
391
392
393
394
395
396
397
398
399
400
401
402
403
404
405
406
407
408
409
410
411
412
413
414
415
416
417
418
419
420
421
422
423
424
425
426
427
428
429
430
431
432
433
434
435
436
437
438
439
440
441
442
443
444
445
446
447
448
449
450
451
452
453
454
455
456
457
458
459
460
461
462
463
464
465
466
467
468
469
470
471
472
473
474
475
476
477
478
479
480
481
482
483
484
485
486
487
488
489
490
491
492
493
494
495
496
497
498
499
500
501
502
503
504
505
506
507
508
509
510
511
512
513
514
515
516
517
518
519
520
521
522
523
524
525
526
527
528
529
530
531
532
533
534
535
536
537
538
539
540
541
542
543
544
545
546
547
548
549
550
551
552
553
554
555
556
557
558
559
560
561
562
563
564
565
566
567
568
569
570
571
572
573
574
575
576
577
578
579
580
581
582
583
584
585
586
587
588
589
590
591
592
593
594
595
596
597
598
599
600
601
602
603
604
605
606
607
608
609
610
611
612
613
614
615
616
617
618
619
620
621
622
623
624
625
626
627
628
629
630
631
632
633
634
635
636
637
638
639
640
641
642
643
644
645
646
647
648
649
650
651
652
653
654
655
656
657
658
659
660
661
662
663
664
665
666
667
668
669
670
671
672
673
674
675
676
677
678
679
680
681
682
683
684
685
686
687
688
689
690
691
692
693
694
695
696
697
698
699
700
701
702
703
704
705
706
707
708
709
710
711
712
713
714
715
716
717
718
719
720
721
722
723
724
725
726
727
