# vtk DataFile Version 3.0
cartmesh2d H4-2 conformal hybrid mesh
ASCII
DATASET UNSTRUCTURED_GRID
POINTS 660 double
-1.9300000000000002 -1.97 0
-1.9300000000000002 -1.47 0
-1.9300000000000002 -0.96999999999999997 0
-1.9300000000000002 -0.46999999999999997 0
-1.9300000000000002 0.030000000000000027 0
-1.9300000000000002 0.53000000000000003 0
-1.9300000000000002 1.03 0
-1.9300000000000002 1.53 0
-1.9300000000000002 2.0300000000000002 0
-1.4300000000000002 -1.97 0
-1.4300000000000002 -1.47 0
-1.4300000000000002 -0.96999999999999997 0
-1.4300000000000002 -0.71999999999999997 0
-1.4300000000000002 -0.46999999999999997 0
-1.4300000000000002 -0.21999999999999997 0
-1.4300000000000002 0.030000000000000027 0
-1.4300000000000002 0.28000000000000003 0
-1.4300000000000002 0.53000000000000003 0
-1.4300000000000002 0.78000000000000003 0
-1.4300000000000002 1.03 0
-1.4300000000000002 1.53 0
-1.4300000000000002 2.0300000000000002 0
-1.1800000000000002 -0.96999999999999997 0
-1.1800000000000002 -0.71999999999999997 0
-1.1800000000000002 -0.59499999999999997 0
-1.1800000000000002 -0.46999999999999997 0
-1.1800000000000002 -0.34499999999999997 0
-1.1800000000000002 -0.21999999999999997 0
-1.1800000000000002 -0.094999999999999973 0
-1.1800000000000002 0.030000000000000027 0
-1.1800000000000002 0.15500000000000003 0
-1.1800000000000002 0.28000000000000003 0
-1.1800000000000002 0.40500000000000003 0
-1.1800000000000002 0.53000000000000003 0
-1.1800000000000002 0.65500000000000003 0
-1.1800000000000002 0.78000000000000003 0
-1.1800000000000002 1.03 0
-1.0550000000000002 -0.71999999999999997 0
-1.0550000000000002 -0.59499999999999997 0
-1.0550000000000002 -0.46999999999999997 0
-1.0550000000000002 -0.40749999999999997 0
-1.0550000000000002 -0.34499999999999997 0
-1.0550000000000002 -0.28249999999999997 0
-1.0550000000000002 -0.21999999999999997 0
-1.0550000000000002 -0.15749999999999997 0
-1.0550000000000002 -0.094999999999999973 0
-1.0550000000000002 -0.032499999999999973 0
-1.0550000000000002 0.030000000000000027 0
-1.0550000000000002 0.092500000000000027 0
-1.0550000000000002 0.15500000000000003 0
-1.0550000000000002 0.21750000000000003 0
-1.0550000000000002 0.28000000000000003 0
-1.0550000000000002 0.34250000000000003 0
-1.0550000000000002 0.40500000000000003 0
-1.0550000000000002 0.46750000000000003 0
-1.0550000000000002 0.53000000000000003 0
-1.0550000000000002 0.65500000000000003 0
-1.0550000000000002 0.78000000000000003 0
-1.0378794691303339 0.029999999999999999 0
-1.0317237564204333 -0.032499999999999973 0
-1.0317237564204333 0.092500000000000027 0
-1.0255680437105326 -0.094999999999999973 0
-1.0255680437105326 0.15500000000000003 0
-1.019412331000632 -0.15749999999999997 0
-1.019412331000632 0.21750000000000003 0
-1.0165918757837127 -0.18613656238763901 0
-1.0165918757837127 0.24613656238763901 0
-1.0063195142884509 -0.21999999999999997 0
-1.0063195142884509 0.28000000000000003 0
-1.0031522480690045 0.029999999999999999 0
-0.99250000000000016 -0.46999999999999997 0
-0.99250000000000016 -0.40749999999999997 0
-0.99250000000000016 -0.34499999999999997 0
-0.99250000000000016 -0.28249999999999997 0
-0.99250000000000016 -0.26555683327109675 0
-0.99250000000000016 0.32555683327109675 0
-0.99250000000000016 0.34250000000000003 0
-0.99250000000000016 0.40500000000000003 0
-0.99250000000000016 0.46750000000000003 0
-0.99250000000000016 0.53000000000000003 0
-0.98736034656297711 -0.28249999999999997 0
-0.98736034656297711 0.34250000000000003 0
-0.98253192853746252 -0.1793616176480354 0
-0.98253192853746252 0.2393616176480354 0
-0.97421289718456316 0.029999999999999999 0
-0.96840117883750332 -0.34499999999999997 0
-0.96840117883750332 0.40500000000000003 0
-0.95414863916558723 -0.17371583036503238 0
-0.95414863916558723 0.23371583036503238 0
-0.953547166018752 -0.39396711789329147 0
-0.953547166018752 0.45396711789329147 0
-0.95009677144752869 0.029999999999999999 0
-0.9463136898312855 -0.40749999999999997 0
-0.9463136898312855 0.46750000000000003 0
-0.93049589802235777 -0.16901100762919652 0
-0.93049589802235777 0.22901100762919652 0
-0.93000000000000016 -1.97 0
-0.93000000000000016 -1.47 0
-0.93000000000000016 -1.22 0
-0.93000000000000016 -0.96999999999999997 0
-0.93000000000000016 -0.84499999999999997 0
-0.93000000000000016 -0.71999999999999997 0
-0.93000000000000016 -0.65749999999999997 0
-0.93000000000000016 -0.59499999999999997 0
-0.93000000000000016 -0.53249999999999997 0
-0.93000000000000016 -0.46999999999999997 0
-0.93000000000000016 -0.43802076698541254 0
-0.93000000000000016 0.49802076698541248 0
-0.93000000000000016 0.53000000000000003 0
-0.93000000000000016 0.59250000000000003 0
-0.93000000000000016 0.65500000000000003 0
-0.93000000000000016 0.71750000000000003 0
-0.93000000000000016 0.78000000000000003 0
-0.93000000000000016 0.90500000000000003 0
-0.93000000000000016 1.03 0
-0.93000000000000016 1.28 0
-0.93000000000000016 1.53 0
-0.93000000000000016 2.0300000000000002 0
-0.93000000000000005 0.029999999999999999 0
-0.92146339725917759 -0.38067758574111421 0
-0.92146339725917759 0.44067758574111421 0
-0.91290674383472326 -0.46999999999999997 0
-0.91290674383472326 0.53000000000000003 0
-0.910785280403 -0.16509032201599999 0
-0.910785280403 0.22509032201599999 0
-0.89472692329286552 -0.36960297561429978 0
-0.89472692329286552 0.42960297561429978 0
-0.87949979783816112 -0.53249999999999997 0
-0.87949979783816101 0.59250000000000003 0
-0.87244652832093894 -0.36037413384195444 0
-0.87244652832093894 0.42037413384195443 0
-0.86750000000000016 -0.71999999999999997 0
-0.86750000000000016 -0.65749999999999997 0
-0.86750000000000016 -0.59499999999999997 0
-0.86750000000000016 -0.55495004272351733 0
-0.86750000000000016 0.61495004272351728 0
-0.86750000000000016 0.65500000000000003 0
-0.86750000000000016 0.71750000000000003 0
-0.86750000000000016 0.78000000000000003 0
-0.85387953251100002 -0.35268343236499999 0
-0.85387953251100002 0.41268343236499999 0
-0.85116811267635151 -0.58550485482256642 0
-0.85116811267635151 0.64550485482256637 0
-0.84337564841339541 -0.59499999999999997 0
-0.8433756484133953 0.65500000000000003 0
-0.82229348364409538 -0.56621144452546612 0
-0.82229348364409538 0.62621144452546607 0
-0.80500000000000016 -0.96999999999999997 0
-0.80500000000000016 -0.84499999999999997 0
-0.80500000000000016 -0.78249999999999997 0
-0.80500000000000016 -0.71999999999999997 0
-0.80500000000000016 -0.65749999999999997 0
-0.80500000000000016 -0.64176086288846279 0
-0.80500000000000016 0.70176086288846273 0
-0.80500000000000016 0.71750000000000003 0
-0.80500000000000016 0.78000000000000003 0
-0.80500000000000016 0.84250000000000003 0
-0.80500000000000016 0.90500000000000003 0
-0.80500000000000016 1.03 0
-0.79823129278388183 -0.5501336026112158 0
-0.79823129278388183 0.61013360261121574 0
-0.79208322398662168 -0.65749999999999997 0
-0.79208322398662168 0.71750000000000003 0
-0.77817946706703722 -0.53673540101600725 0
-0.77817946706703722 0.59673540101600719 0
-0.76146961230300003 -0.52557023302000005 0
-0.76146961230300003 0.58557023302 0
-0.74250000000000016 -0.84499999999999997 0
-0.74250000000000016 -0.78249999999999997 0
-0.74250000000000016 -0.71999999999999997 0
-0.74250000000000016 -0.71791733323773732 0
-0.74250000000000016 0.77791733323773726 0
-0.74250000000000016 0.78000000000000003 0
-0.74250000000000016 0.84250000000000003 0
-0.74250000000000016 0.90500000000000003 0
-0.74079079955984806 -0.71999999999999997 0
-0.74079079955984795 0.78000000000000003 0
-0.7133890853598559 -0.75338908535985594 0
-0.7133890853598559 0.81338908535985588 0
-0.68883323185562806 -0.72883323185562809 0
-0.68883323185562806 0.78883323185562815 0
-0.68000000000000016 -1.47 0
-0.68000000000000016 -1.22 0
-0.68000000000000016 -1.095 0
-0.68000000000000016 -0.96999999999999997 0
-0.68000000000000016 -0.90749999999999997 0
-0.68000000000000016 -0.84499999999999997 0
-0.68000000000000016 -0.78249999999999997 0
-0.68000000000000016 -0.78079079955984787 0
-0.68000000000000016 0.84079079955984781 0
-0.68000000000000016 0.84250000000000003 0
-0.68000000000000016 0.90500000000000003 0
-0.68000000000000016 0.96750000000000003 0
-0.68000000000000016 1.03 0
-0.68000000000000016 1.155 0
-0.68000000000000016 1.28 0
-0.68000000000000016 1.53 0
-0.67791733323773762 -0.78249999999999997 0
-0.67791733323773751 0.84250000000000003 0
-0.66837002060210493 -0.70837002060210486 0
-0.66837002060210493 0.76837002060210491 0
-0.65131734455750223 -0.69131734455750216 0
-0.65131734455750223 0.75131734455750221 0
-0.63710678118700004 -0.67710678118699996 0
-0.63710678118700004 0.73710678118700002 0
-0.61750000000000016 -0.96999999999999997 0
-0.61750000000000016 -0.90749999999999997 0
-0.61750000000000016 -0.84499999999999997 0
-0.61750000000000016 -0.83208322398662149 0
-0.61750000000000016 0.89208322398662154 0
-0.61750000000000016 0.90500000000000003 0
-0.61750000000000016 0.96750000000000003 0
-0.61750000000000016 1.03 0
-0.60176086288846298 0.90500000000000003 0
-0.60176086288846287 -0.84499999999999997 0
-0.55500000000000016 -1.22 0
-0.55500000000000016 -1.095 0
-0.55500000000000016 -0.96999999999999997 0
-0.55500000000000016 -0.90749999999999997 0
-0.55500000000000016 -0.88337564841339522 0
-0.55500000000000016 0.94337564841339527 0
-0.55500000000000016 0.96750000000000003 0
-0.55500000000000016 1.03 0
-0.55500000000000016 1.155 0
-0.55500000000000016 1.28 0
-0.54550485482256639 -0.89116811267635143 0
-0.54550485482256639 0.9511681126763516 0
-0.52621144452546609 -0.8622934836440953 0
-0.52621144452546609 0.92229348364409536 0
-0.51495004272351763 0.96750000000000003 0
-0.51495004272351741 -0.90749999999999997 0
-0.51013360261121576 -0.83823129278388175 0
-0.51013360261121576 0.89823129278388181 0
-0.49673540101600716 -0.81817946706703715 0
-0.49673540101600716 0.8781794670670372 0
-0.49250000000000016 -0.96999999999999997 0
-0.49250000000000016 -0.91949979783816094 0
-0.49250000000000016 0.97949979783816099 0
-0.49250000000000016 1.03 0
-0.48557023302000002 -0.80146961230299996 0
-0.48557023302000002 0.86146961230300001 0
-0.43000000000000016 -1.97 0
-0.43000000000000016 -1.47 0
-0.43000000000000016 -1.22 0
-0.43000000000000016 -1.095 0
-0.43000000000000016 -1.0325 0
-0.43000000000000016 -0.96999999999999997 0
-0.43000000000000016 -0.95290674383472318 0
-0.43000000000000016 1.0129067438347232 0
-0.43000000000000016 1.03 0
-0.43000000000000016 1.0925 0
-0.43000000000000016 1.155 0
-0.43000000000000016 1.28 0
-0.43000000000000016 1.53 0
-0.43000000000000016 2.0300000000000002 0
-0.39802076698541272 -0.96999999999999997 0
-0.39802076698541261 1.03 0
-0.36750000000000016 -1.095 0
-0.36750000000000016 -1.0325 0
-0.36750000000000016 -0.98631368983128531 0
-0.36750000000000016 1.0463136898312853 0
-0.36750000000000016 1.0925 0
-0.36750000000000016 1.155 0
-0.35396711789329149 -0.99354716601875193 0
-0.35396711789329149 1.0535471660187519 0
-0.34067758574111423 -0.96146339725917762 0
-0.34067758574111423 1.0214633972591776 0
-0.3296029756142998 -0.93472692329286555 0
-0.3296029756142998 0.99472692329286549 0
-0.32037413384195446 -0.91244652832093898 0
-0.32037413384195446 0.97244652832093892 0
-0.31268343236500001 -0.89387953251100005 0
-0.31268343236500001 0.95387953251099999 0
-0.30500000000000016 -1.22 0
-0.30500000000000016 -1.095 0
-0.30500000000000016 -1.0325 0
-0.30500000000000016 -1.0084011788375034 0
-0.30500000000000016 1.0684011788375032 0
-0.30500000000000016 1.0925 0
-0.30500000000000016 1.155 0
-0.30500000000000016 1.28 0
-0.24250000000000016 -1.095 0
-0.24250000000000016 -1.0325 0
-0.24250000000000016 -1.027360346562977 0
-0.24250000000000016 1.0873603465629771 0
-0.24250000000000016 1.0925 0
-0.24250000000000016 1.155 0
-0.22555683327109732 -1.0325 0
-0.22555683327109721 1.0925 0
-0.18000000000000016 -1.47 0
-0.18000000000000016 -1.22 0
-0.18000000000000016 -1.095 0
-0.18000000000000016 -1.0463195142884507 0
-0.18000000000000016 1.1063195142884508 0
-0.18000000000000016 1.155 0
-0.18000000000000016 1.28 0
-0.18000000000000016 1.53 0
-0.14613656238763903 1.1165918757837128 0
-0.146136562387639 -1.0565918757837127 0
-0.13936161764803542 1.0825319285374624 0
-0.1393616176480354 -1.0225319285374626 0
-0.1337158303650324 1.0541486391655872 0
-0.13371583036503237 -0.99414863916558727 0
-0.12901100762919654 -0.97049589802235781 0
-0.12901100762919654 1.0304958980223577 0
-0.12509032201600001 -0.95078528040300003 0
-0.12509032201600001 1.010785280403 0
-0.11750000000000016 -1.095 0
-0.11750000000000016 -1.059412331000632 0
-0.11750000000000016 1.1194123310006321 0
-0.11750000000000016 1.155 0
-0.05500000000000016 -1.22 0
-0.05500000000000016 -1.095 0
-0.05500000000000016 -1.0655680437105326 0
-0.05500000000000016 1.1255680437105327 0
-0.05500000000000016 1.155 0
-0.05500000000000016 1.28 0
0.0074999999999998401 -1.095 0
0.0074999999999998401 -1.0717237564204332 0
0.0074999999999998401 1.1317237564204332 0
0.0074999999999998401 1.155 0
0.06999999999999984 -1.97 0
0.06999999999999984 -1.47 0
0.06999999999999984 -1.22 0
0.06999999999999984 -1.095 0
0.06999999999999984 -1.0778794691303339 0
0.06999999999999984 1.137879469130334 0
0.06999999999999984 1.155 0
0.06999999999999984 1.28 0
0.06999999999999984 1.53 0
0.06999999999999984 2.0300000000000002 0
0.070000000000000007 -1.0431522480690043 0
0.070000000000000007 -1.014212897184563 0
0.070000000000000007 -0.99009677144752861 0
0.070000000000000007 -0.96999999999999997 0
0.070000000000000007 1.03 0
0.070000000000000007 1.0500967714475287 0
0.070000000000000007 1.074212897184563 0
0.070000000000000007 1.1031522480690044 0
0.13249999999999984 -1.095 0
0.13249999999999984 -1.0717237564204334 0
0.13249999999999984 1.1317237564204334 0
0.13249999999999984 1.155 0
0.19499999999999984 -1.22 0
0.19499999999999984 -1.095 0
0.19499999999999984 -1.0655680437105326 0
0.19499999999999984 1.1255680437105327 0
0.19499999999999984 1.155 0
0.19499999999999984 1.28 0
0.25749999999999984 -1.095 0
0.25749999999999984 -1.059412331000632 0
0.25749999999999984 1.1194123310006321 0
0.25749999999999984 1.155 0
0.26509032201600002 -0.95078528040300003 0
0.26509032201600002 1.010785280403 0
0.26901100762919655 -0.97049589802235781 0
0.26901100762919655 1.0304958980223577 0
0.27371583036503239 -0.99414863916558727 0
0.27371583036503239 1.0541486391655872 0
0.27936161764803541 -1.0225319285374626 0
0.27936161764803541 1.0825319285374624 0
0.28613656238763902 -1.0565918757837127 0
0.28613656238763907 1.1165918757837128 0
0.31999999999999984 -1.47 0
0.31999999999999984 -1.22 0
0.31999999999999984 -1.095 0
0.31999999999999984 -1.0463195142884509 0
0.31999999999999984 1.106319514288451 0
0.31999999999999984 1.155 0
0.31999999999999984 1.28 0
0.31999999999999984 1.53 0
0.36555683327109723 1.0925 0
0.36555683327109734 -1.0325 0
0.38249999999999984 -1.095 0
0.38249999999999984 -1.0325 0
0.38249999999999984 -1.027360346562977 0
0.38249999999999984 1.0873603465629771 0
0.38249999999999984 1.0925 0
0.38249999999999984 1.155 0
0.44499999999999984 -1.22 0
0.44499999999999984 -1.095 0
0.44499999999999984 -1.0325 0
0.44499999999999984 -1.0084011788375034 0
0.44499999999999984 1.0684011788375034 0
0.44499999999999984 1.0925 0
0.44499999999999984 1.155 0
0.44499999999999984 1.28 0
0.45268343236500003 -0.89387953251100005 0
0.45268343236500003 0.95387953251099999 0
0.46037413384195447 -0.91244652832093898 0
0.46037413384195447 0.97244652832093892 0
0.46960297561429981 -0.93472692329286555 0
0.46960297561429981 0.99472692329286549 0
0.48067758574111424 -0.96146339725917762 0
0.48067758574111424 1.0214633972591776 0
0.49396711789329151 -0.99354716601875193 0
0.49396711789329151 1.0535471660187519 0
0.50749999999999984 -1.095 0
0.50749999999999984 -1.0325 0
0.50749999999999984 -0.98631368983128553 0
0.50749999999999984 1.0463136898312855 0
0.50749999999999984 1.0925 0
0.50749999999999984 1.155 0
0.53802076698541268 1.03 0
0.53802076698541279 -0.96999999999999997 0
0.56999999999999984 -1.97 0
0.56999999999999984 -1.47 0
0.56999999999999984 -1.22 0
0.56999999999999984 -1.095 0
0.56999999999999984 -1.0325 0
0.56999999999999984 -0.96999999999999997 0
0.56999999999999984 -0.95290674383472329 0
0.56999999999999984 1.0129067438347232 0
0.56999999999999984 1.03 0
0.56999999999999984 1.0925 0
0.56999999999999984 1.155 0
0.56999999999999984 1.28 0
0.56999999999999984 1.53 0
0.56999999999999984 2.0300000000000002 0
0.62557023302000003 -0.80146961230299996 0
0.62557023302000003 0.86146961230300001 0
0.63249999999999984 -0.96999999999999997 0
0.63249999999999984 -0.91949979783816105 0
0.63249999999999984 0.97949979783816121 0
0.63249999999999984 1.03 0
0.63673540101600723 -0.81817946706703715 0
0.63673540101600723 0.8781794670670372 0
0.65013360261121578 -0.83823129278388175 0
0.65013360261121578 0.89823129278388181 0
0.65495004272351753 -0.90749999999999997 0
0.65495004272351764 0.96750000000000003 0
0.6662114445254661 -0.8622934836440953 0
0.6662114445254661 0.92229348364409536 0
0.6855048548225664 -0.89116811267635143 0
0.6855048548225664 0.9511681126763516 0
0.69499999999999984 -1.22 0
0.69499999999999984 -1.095 0
0.69499999999999984 -0.96999999999999997 0
0.69499999999999984 -0.90749999999999997 0
0.69499999999999984 -0.88337564841339544 0
0.69499999999999984 0.94337564841339561 0
0.69499999999999984 0.96750000000000003 0
0.69499999999999984 1.03 0
0.69499999999999984 1.155 0
0.69499999999999984 1.28 0
0.74176086288846288 -0.84499999999999997 0
0.74176086288846299 0.90500000000000003 0
0.75749999999999984 -0.96999999999999997 0
0.75749999999999984 -0.90749999999999997 0
0.75749999999999984 -0.84499999999999997 0
0.75749999999999984 -0.83208322398662182 0
0.75749999999999984 0.89208322398662188 0
0.75749999999999984 0.90500000000000003 0
0.75749999999999984 0.96750000000000003 0
0.75749999999999984 1.03 0
0.77710678118700005 -0.67710678118699996 0
0.77710678118700005 0.73710678118700002 0
0.79131734455750224 -0.69131734455750216 0
0.79131734455750224 0.75131734455750221 0
0.80837002060210494 -0.70837002060210486 0
0.80837002060210494 0.76837002060210491 0
0.81791733323773752 0.84250000000000003 0
0.81791733323773763 -0.78249999999999997 0
0.81999999999999984 -1.47 0
0.81999999999999984 -1.22 0
0.81999999999999984 -1.095 0
0.81999999999999984 -0.96999999999999997 0
0.81999999999999984 -0.90749999999999997 0
0.81999999999999984 -0.84499999999999997 0
0.81999999999999984 -0.78249999999999997 0
0.81999999999999984 -0.78079079955984809 0
0.81999999999999984 0.84079079955984815 0
0.81999999999999984 0.84250000000000003 0
0.81999999999999984 0.90500000000000003 0
0.81999999999999984 0.96750000000000003 0
0.81999999999999984 1.03 0
0.81999999999999984 1.155 0
0.81999999999999984 1.28 0
0.81999999999999984 1.53 0
0.82883323185562807 -0.72883323185562809 0
0.82883323185562818 0.78883323185562815 0
0.85338908535985591 -0.75338908535985594 0
0.85338908535985591 0.81338908535985588 0
0.88079079955984796 0.78000000000000003 0
0.88079079955984807 -0.71999999999999997 0
0.88249999999999984 -0.84499999999999997 0
0.88249999999999984 -0.78249999999999997 0
0.88249999999999984 -0.71999999999999997 0
0.88249999999999984 -0.71791733323773776 0
0.88249999999999984 0.77791733323773771 0
0.88249999999999984 0.78000000000000003 0
0.88249999999999984 0.84250000000000003 0
0.88249999999999984 0.90500000000000003 0
0.90146961230300005 -0.52557023302000005 0
0.90146961230300005 0.58557023302 0
0.91817946706703724 -0.53673540101600725 0
0.91817946706703724 0.59673540101600719 0
0.93208322398662169 0.71750000000000003 0
0.9320832239866218 -0.65749999999999997 0
0.93823129278388184 -0.5501336026112158 0
0.93823129278388184 0.61013360261121574 0
0.94499999999999984 -0.96999999999999997 0
0.94499999999999984 -0.84499999999999997 0
0.94499999999999984 -0.78249999999999997 0
0.94499999999999984 -0.71999999999999997 0
0.94499999999999984 -0.65749999999999997 0
0.94499999999999984 -0.64176086288846323 0
0.94499999999999984 0.70176086288846318 0
0.94499999999999984 0.71750000000000003 0
0.94499999999999984 0.78000000000000003 0
0.94499999999999984 0.84250000000000003 0
0.94499999999999984 0.90500000000000003 0
0.94499999999999984 1.03 0
0.96229348364409539 -0.56621144452546612 0
0.96229348364409539 0.62621144452546607 0
0.98337564841339542 0.65500000000000003 0
0.98337564841339553 -0.59499999999999997 0
0.99116811267635163 -0.58550485482256642 0
0.99116811267635163 0.64550485482256637 0
0.99387953251100003 -0.35268343236499999 0
0.99387953251100003 0.41268343236499999 0
1.0074999999999998 -0.71999999999999997 0
1.0074999999999998 -0.65749999999999997 0
1.0074999999999998 -0.59499999999999997 0
1.0074999999999998 -0.554950042723518 0
1.0074999999999998 0.61495004272351805 0
1.0074999999999998 0.65500000000000003 0
1.0074999999999998 0.71750000000000003 0
1.0074999999999998 0.78000000000000003 0
1.012446528320939 -0.36037413384195444 0
1.012446528320939 0.42037413384195443 0
1.019499797838161 0.59250000000000003 0
1.0194997978381612 -0.53249999999999997 0
1.0347269232928655 -0.36960297561429978 0
1.0347269232928655 0.42960297561429978 0
1.050785280403 -0.16509032201599999 0
1.050785280403 0.22509032201599999 0
1.0529067438347233 -0.46999999999999997 0
1.0529067438347233 0.53000000000000003 0
1.0614633972591776 -0.38067758574111421 0
1.0614633972591776 0.44067758574111421 0
1.0699999999999998 -1.97 0
1.0699999999999998 -1.47 0
1.0699999999999998 -1.22 0
1.0699999999999998 -0.96999999999999997 0
1.0699999999999998 -0.84499999999999997 0
1.0699999999999998 -0.71999999999999997 0
1.0699999999999998 -0.65749999999999997 0
1.0699999999999998 -0.59499999999999997 0
1.0699999999999998 -0.53249999999999997 0
1.0699999999999998 -0.46999999999999997 0
1.0699999999999998 -0.43802076698541303 0
1.0699999999999998 0.49802076698541303 0
1.0699999999999998 0.53000000000000003 0
1.0699999999999998 0.59250000000000003 0
1.0699999999999998 0.65500000000000003 0
1.0699999999999998 0.71750000000000003 0
1.0699999999999998 0.78000000000000003 0
1.0699999999999998 0.90500000000000003 0
1.0699999999999998 1.03 0
1.0699999999999998 1.28 0
1.0699999999999998 1.53 0
1.0699999999999998 2.0300000000000002 0
1.0700000000000001 0.029999999999999999 0
1.0704958980223578 -0.16901100762919652 0
1.0704958980223578 0.22901100762919652 0
1.0863136898312855 -0.40749999999999997 0
1.0863136898312855 0.46750000000000003 0
1.0900967714475287 0.029999999999999999 0
1.0935471660187519 -0.39396711789329147 0
1.0935471660187519 0.45396711789329147 0
1.0941486391655872 -0.17371583036503238 0
1.0941486391655872 0.23371583036503238 0
1.1084011788375032 -0.34499999999999997 0
1.1084011788375032 0.40500000000000003 0
1.1142128971845631 0.029999999999999999 0
1.1225319285374624 -0.1793616176480354 0
1.1225319285374624 0.2393616176480354 0
1.1273603465629771 -0.28249999999999997 0
1.1273603465629771 0.34250000000000003 0
1.1324999999999998 -0.46999999999999997 0
1.1324999999999998 -0.40749999999999997 0
1.1324999999999998 -0.34499999999999997 0
1.1324999999999998 -0.28249999999999997 0
1.1324999999999998 -0.26555683327109791 0
1.1324999999999998 0.32555683327109791 0
1.1324999999999998 0.34250000000000003 0
1.1324999999999998 0.40500000000000003 0
1.1324999999999998 0.46750000000000003 0
1.1324999999999998 0.53000000000000003 0
1.1431522480690044 0.029999999999999999 0
1.1463195142884508 -0.21999999999999997 0
1.1463195142884508 0.28000000000000003 0
1.1565918757837128 -0.18613656238763901 0
1.1565918757837128 0.24613656238763901 0
1.1594123310006321 -0.15749999999999997 0
1.1594123310006321 0.21750000000000003 0
1.1655680437105327 -0.094999999999999973 0
1.1655680437105327 0.15500000000000003 0
1.1717237564204335 -0.032499999999999973 0
1.1717237564204335 0.092500000000000027 0
1.177879469130334 0.029999999999999999 0
1.1949999999999998 -0.71999999999999997 0
1.1949999999999998 -0.59499999999999997 0
1.1949999999999998 -0.46999999999999997 0
1.1949999999999998 -0.40749999999999997 0
1.1949999999999998 -0.34499999999999997 0
1.1949999999999998 -0.28249999999999997 0
1.1949999999999998 -0.21999999999999997 0
1.1949999999999998 -0.15749999999999997 0
1.1949999999999998 -0.094999999999999973 0
1.1949999999999998 -0.032499999999999973 0
1.1949999999999998 0.030000000000000027 0
1.1949999999999998 0.092500000000000027 0
1.1949999999999998 0.15500000000000003 0
1.1949999999999998 0.21750000000000003 0
1.1949999999999998 0.28000000000000003 0
1.1949999999999998 0.34250000000000003 0
1.1949999999999998 0.40500000000000003 0
1.1949999999999998 0.46750000000000003 0
1.1949999999999998 0.53000000000000003 0
1.1949999999999998 0.65500000000000003 0
1.1949999999999998 0.78000000000000003 0
1.3199999999999998 -0.96999999999999997 0
1.3199999999999998 -0.71999999999999997 0
1.3199999999999998 -0.59499999999999997 0
1.3199999999999998 -0.46999999999999997 0
1.3199999999999998 -0.34499999999999997 0
1.3199999999999998 -0.21999999999999997 0
1.3199999999999998 -0.094999999999999973 0
1.3199999999999998 0.030000000000000027 0
1.3199999999999998 0.15500000000000003 0
1.3199999999999998 0.28000000000000003 0
1.3199999999999998 0.40500000000000003 0
1.3199999999999998 0.53000000000000003 0
1.3199999999999998 0.65500000000000003 0
1.3199999999999998 0.78000000000000003 0
1.3199999999999998 1.03 0
1.5699999999999998 -1.97 0
1.5699999999999998 -1.47 0
1.5699999999999998 -0.96999999999999997 0
1.5699999999999998 -0.71999999999999997 0
1.5699999999999998 -0.46999999999999997 0
1.5699999999999998 -0.21999999999999997 0
1.5699999999999998 0.030000000000000027 0
1.5699999999999998 0.28000000000000003 0
1.5699999999999998 0.53000000000000003 0
1.5699999999999998 0.78000000000000003 0
1.5699999999999998 1.03 0
1.5699999999999998 1.53 0
1.5699999999999998 2.0300000000000002 0
2.0700000000000003 -1.97 0
2.0700000000000003 -1.47 0
2.0700000000000003 -0.96999999999999997 0
2.0700000000000003 -0.46999999999999997 0
2.0700000000000003 0.030000000000000027 0
2.0700000000000003 0.53000000000000003 0
2.0700000000000003 1.03 0
2.0700000000000003 1.53 0
2.0700000000000003 2.0300000000000002 0
CELLS 476 2684
4 0 9 10 1
4 9 96 97 10
4 1 10 11 2
6 10 97 98 99 22 11
5 96 241 242 181 97
5 241 321 322 289 242
5 2 11 12 13 3
5 3 13 14 15 4
5 321 405 406 363 322
5 405 541 542 463 406
4 541 638 639 542
4 638 651 652 639
6 542 639 640 623 544 543
4 639 652 653 640
4 97 181 182 98
5 181 242 243 215 182
6 98 182 183 184 147 99
5 242 289 290 273 243
5 640 653 654 642 641
5 289 322 323 311 290
5 642 654 655 644 643
5 4 15 16 17 5
5 5 17 18 19 6
4 11 22 23 12
6 22 99 100 101 37 23
5 12 23 24 25 13
4 6 19 20 7
6 19 36 114 115 116 20
4 7 20 21 8
4 20 116 117 21
5 13 25 26 27 14
5 116 196 253 254 117
5 14 27 28 29 15
5 253 296 329 330 254
5 644 655 656 646 645
5 646 656 657 648 647
5 329 370 417 418 330
5 417 478 561 562 418
6 559 637 648 649 561 560
4 648 657 658 649
4 561 649 650 562
4 649 658 659 650
5 322 363 364 343 323
5 363 406 407 379 364
5 406 463 464 435 407
4 463 542 543 464
6 464 543 544 501 466 465
4 182 215 216 183
4 215 243 244 216
5 183 216 217 205 184
6 216 244 245 246 235 217
6 544 623 624 602 546 545
4 623 640 641 624
5 624 641 642 626 625
5 243 273 274 257 244
5 626 642 643 628 627
5 273 290 291 281 274
5 628 643 644 630 629
5 290 311 312 307 291
5 311 323 324 317 312
5 15 29 30 31 16
5 16 31 32 33 17
5 17 33 34 35 18
4 18 35 36 19
6 35 57 112 113 114 36
4 23 37 38 24
5 37 101 102 103 38
4 24 38 39 25
6 38 103 104 105 70 39
6 114 158 193 194 195 115
4 115 195 196 116
5 195 224 252 253 196
5 25 39 40 41 26
5 252 280 295 296 253
5 26 41 42 43 27
5 295 316 328 329 296
5 27 43 44 45 28
5 28 45 46 47 29
4 99 147 148 100
6 147 184 185 186 167 148
6 100 148 149 150 131 101
5 630 644 645 632 631
5 632 645 646 634 633
5 634 646 647 636 635
6 557 622 636 637 559 558
4 636 647 648 637
5 328 348 369 370 329
5 369 386 416 417 370
6 475 512 559 560 477 476
5 416 444 477 478 417
4 477 560 561 478
5 323 343 344 339 324
5 343 364 365 349 344
5 364 379 380 373 365
5 379 407 408 397 380
4 407 435 436 408
4 435 464 465 436
6 408 436 437 421 410 409
5 436 465 466 447 437
6 466 501 502 485 468 467
4 501 544 545 502
6 502 545 546 521 504 503
5 546 602 603 548 547
4 602 624 625 603
6 548 603 604 580 550 549
4 603 625 626 604
5 604 626 627 606 605
5 606 627 628 608 607
4 244 257 258 245
5 608 628 629 610 609
4 257 274 275 258
5 259 255 246 245 258
5 610 629 630 612 611
5 263 259 258 275 276
4 274 281 282 275
5 292 287 282 281 291
4 283 276 275 282
3 287 283 282
5 298 292 291 307 308
4 313 308 307 312
4 318 313 312 317
4 325 318 317 324
5 29 47 48 49 30
5 30 49 50 51 31
5 31 51 52 53 32
5 32 53 54 55 33
4 33 55 56 34
6 55 79 108 109 110 56
4 34 56 57 35
5 56 110 111 112 57
6 112 138 155 156 157 113
4 113 157 158 114
6 157 174 191 192 193 158
5 193 212 222 223 194
6 222 238 249 250 251 223
4 194 223 224 195
4 223 251 252 224
5 251 262 279 280 252
5 279 286 294 295 280
4 39 70 71 40
5 106 92 71 70 105
5 294 310 315 316 295
4 40 71 72 41
5 315 320 327 328 316
5 89 85 72 71 92
4 41 72 73 42
4 85 80 73 72
5 74 67 43 42 73
3 80 74 73
5 65 63 44 43 67
4 63 61 45 44
4 61 59 46 45
4 59 58 47 46
4 148 167 168 149
4 167 186 187 168
4 149 168 169 150
6 177 175 169 168 187 188
4 184 205 206 185
4 205 217 218 206
4 185 206 207 186
5 219 214 207 206 218
5 236 230 218 217 235
4 247 236 235 246
4 225 219 218 230
5 208 197 187 186 207
3 214 208 207
3 197 188 187
4 101 131 132 102
4 131 150 151 132
4 102 132 133 103
5 152 143 133 132 151
5 170 161 151 150 169
3 175 170 169
3 161 152 151
5 134 127 104 103 133
4 141 134 133 143
4 127 121 105 104
6 509 528 557 558 511 510
6 473 492 511 512 475 474
4 511 558 559 512
3 255 247 246
5 612 630 631 614 613
5 614 631 632 616 615
5 616 632 633 618 617
5 618 633 634 620 619
6 553 589 620 621 555 554
4 620 634 635 621
5 555 621 622 557 556
4 621 635 636 622
3 121 106 105
5 327 342 347 348 328
5 347 352 368 369 348
5 368 378 385 386 369
5 385 402 415 416 386
6 413 424 442 443 415 414
5 442 454 475 476 443
4 415 443 444 416
4 443 476 477 444
4 340 325 324 339
4 345 340 339 344
4 350 345 344 349
5 361 350 349 365 366
5 372 366 365 373 374
4 373 380 381 374
3 375 372 374
4 382 375 374 381
4 380 397 398 381
4 397 408 409 398
5 395 382 381 398 399
5 404 399 398 409 410
3 411 404 410
4 422 411 410 421
5 429 422 421 437 438
4 433 429 438 439
4 437 447 448 438
4 447 466 467 448
5 445 439 438 448 449
4 448 467 468 449
3 450 445 449
5 462 450 449 468 469
3 470 462 469
4 468 485 486 469
4 485 502 503 486
6 481 470 469 486 487 484
4 486 503 504 487
3 488 484 487
5 498 488 487 504 505
3 506 498 505
4 504 521 522 505
4 521 546 547 522
5 516 506 505 522 523
4 522 547 548 523
4 517 516 523 524
5 532 524 523 548 549
4 537 532 549 550
3 551 537 550
5 566 551 550 580 581
4 580 604 605 581
5 569 566 581 582 573
4 581 605 606 582
4 578 573 582 583
4 582 606 607 583
3 584 578 583
5 591 584 583 607 608
5 593 591 608 609 595
4 597 595 609 610
4 599 597 610 611
4 601 599 611 612
4 58 60 48 47
4 60 62 49 48
4 62 64 50 49
5 66 68 51 50 64
5 68 75 76 52 51
3 75 81 76
4 52 76 77 53
4 81 86 77 76
4 53 77 78 54
5 90 93 78 77 86
4 54 78 79 55
5 93 107 108 79 78
3 107 122 108
4 122 128 109 108
5 128 135 136 110 109
4 142 144 136 135
4 110 136 137 111
5 144 153 154 137 136
4 111 137 138 112
4 137 154 155 138
3 153 162 154
5 162 171 172 155 154
3 171 176 172
4 155 172 173 156
6 178 189 190 173 172 176
4 156 173 174 157
4 173 190 191 174
3 189 198 190
5 198 209 210 191 190
3 209 213 210
4 191 210 211 192
5 213 220 221 211 210
4 192 211 212 193
4 211 221 222 212
4 226 229 221 220
5 229 237 238 222 221
4 237 248 249 238
3 248 256 249
5 256 260 261 250 249
5 264 277 278 261 260
4 250 261 262 251
4 261 278 279 262
4 277 284 285 278
3 284 288 285
4 278 285 286 279
5 288 293 294 286 285
5 297 309 310 294 293
4 309 314 315 310
4 314 319 320 315
4 319 326 327 320
3 538 552 553
3 403 412 413
4 531 538 553 554
4 518 525 526 515
5 525 531 554 555 526
3 497 507 508
3 483 489 490
5 489 497 508 509 490
5 507 515 526 527 508
4 526 555 556 527
4 508 527 528 509
4 527 556 557 528
3 461 471 472
3 446 451 452
5 451 461 472 473 452
4 434 440 441 430
4 412 423 424 413
5 423 430 441 442 424
5 440 446 452 453 441
4 452 473 474 453
4 441 453 454 442
4 453 474 475 454
6 482 483 490 491 472 471
4 490 509 510 491
4 472 491 492 473
4 491 510 511 492
4 600 601 612 613
4 598 600 613 614
4 596 598 614 615
5 594 596 615 616 592
3 579 585 586
5 585 592 616 617 586
4 574 579 586 587
4 586 617 618 587
5 570 574 587 588 567
4 587 618 619 588
5 552 567 588 589 553
4 588 619 620 589
4 326 341 342 327
4 341 346 347 342
4 346 351 352 347
5 362 367 368 352 351
3 371 376 377
4 376 383 384 377
5 367 371 377 378 368
4 377 384 385 378
5 396 400 401 384 383
5 400 403 413 414 401
4 384 401 402 385
4 401 414 415 402
4 118 91 94 123
4 123 94 129 139
4 139 129 163 165
4 165 163 201 203
4 203 201 233 239
4 239 233 269 271
4 271 269 303 305
4 305 303 333 334
4 334 333 355 353
4 353 355 389 387
4 387 389 425 419
4 419 425 457 455
4 455 457 495 493
4 493 495 529 519
4 519 529 564 535
4 535 564 568 563
4 563 568 565 536
4 536 565 530 520
4 520 530 496 494
4 494 496 458 456
4 456 458 426 420
4 420 426 390 388
4 388 390 356 354
4 354 356 336 335
4 335 336 304 306
4 306 304 270 272
4 272 270 234 240
4 240 234 202 204
4 204 202 164 166
4 166 164 130 140
4 140 130 95 124
4 124 95 91 118
4 91 84 87 94
4 94 87 125 129
4 129 125 159 163
4 163 159 199 201
4 201 199 231 233
4 233 231 267 269
4 269 267 302 303
4 303 302 332 333
4 333 332 357 355
4 355 357 391 389
4 389 391 427 425
4 425 427 459 457
4 457 459 499 495
4 495 499 533 529
4 529 533 571 564
4 564 571 575 568
4 568 575 572 565
4 565 572 534 530
4 530 534 500 496
4 496 500 460 458
4 458 460 428 426
4 426 428 392 390
4 390 392 358 356
4 356 358 337 336
4 336 337 301 304
4 304 301 268 270
4 270 268 232 234
4 234 232 200 202
4 202 200 160 164
4 164 160 126 130
4 130 126 88 95
4 95 88 84 91
4 84 69 82 87
4 87 82 119 125
4 125 119 145 159
4 159 145 179 199
4 199 179 227 231
4 231 227 265 267
4 267 265 300 302
4 302 300 331 332
4 332 331 359 357
4 357 359 393 391
4 391 393 431 427
4 427 431 479 459
4 459 479 513 499
4 499 513 539 533
4 533 539 576 571
4 571 576 590 575
4 575 590 577 572
4 572 577 540 534
4 534 540 514 500
4 500 514 480 460
4 460 480 432 428
4 428 432 394 392
4 392 394 360 358
4 358 360 338 337
4 337 338 299 301
4 301 299 266 268
4 268 266 228 232
4 232 228 180 200
4 200 180 146 160
4 160 146 120 126
4 126 120 83 88
4 88 83 69 84
7 69 58 59 61 63 65 82
8 82 65 67 74 80 85 89 119
9 119 89 92 106 121 127 134 141 145
9 145 141 143 152 161 170 175 177 179
9 179 177 188 197 208 214 219 225 227
9 227 225 230 236 247 255 259 263 265
8 265 263 276 283 287 292 298 300
7 300 298 308 313 318 325 331
7 331 325 340 345 350 361 359
8 359 361 366 372 375 382 395 393
9 393 395 399 404 411 422 429 433 431
9 431 433 439 445 450 462 470 481 479
9 479 481 484 488 498 506 516 517 513
9 513 517 524 532 537 551 566 569 539
8 539 569 573 578 584 591 593 576
7 576 593 595 597 599 601 590
7 590 601 600 598 596 594 577
8 577 594 592 585 579 574 570 540
9 540 570 567 552 538 531 525 518 514
9 514 518 515 507 497 489 483 482 480
9 480 482 471 461 451 446 440 434 432
9 432 434 430 423 412 403 400 396 394
8 394 396 383 376 371 367 362 360
7 360 362 351 346 341 326 338
7 338 326 319 314 309 297 299
8 299 297 293 288 284 277 264 266
9 266 264 260 256 248 237 229 226 228
9 228 226 220 213 209 198 189 178 180
9 180 178 176 171 162 153 144 142 146
9 146 142 135 128 122 107 93 90 120
8 120 90 86 81 75 68 66 83
7 83 66 64 62 60 58 69
CELL_TYPES 476
7
7
7
7
7
7
7
7
7
7
7
7
7
7
7
7
7
7
7
7
7
7
7
7
7
7
7
7
7
7
7
7
7
7
7
7
7
7
7
7
7
7
7
7
7
7
7
7
7
7
7
7
7
7
7
7
7
7
7
7
7
7
7
7
7
7
7
7
7
7
7
7
7
7
7
7
7
7
7
7
7
7
7
7
7
7
7
7
7
7
7
7
7
7
7
7
7
7
7
7
7
7
7
7
7
7
7
7
7
7
7
7
7
7
7
7
7
7
7
7
7
7
7
7
7
7
7
7
7
7
7
7
7
7
7
7
7
7
7
7
7
7
7
7
7
7
7
7
7
7
7
7
7
7
7
7
7
7
7
7
7
7
7
7
7
7
7
7
7
7
7
7
7
7
7
7
7
7
7
7
7
7
7
7
7
7
7
7
7
7
7
7
7
7
7
7
7
7
7
7
7
7
7
7
7
7
7
7
7
7
7
7
7
7
7
7
7
7
7
7
7
7
7
7
7
7
7
7
7
7
7
7
7
7
7
7
7
7
7
7
7
7
7
7
7
7
7
7
7
7
7
7
7
7
7
7
7
7
7
7
7
7
7
7
7
7
7
7
7
7
7
7
7
7
7
7
7
7
7
7
7
7
7
7
7
7
7
7
7
7
7
7
7
7
7
7
7
7
7
7
7
7
7
7
7
7
7
7
7
7
7
7
7
7
7
7
7
7
7
7
7
7
7
7
7
7
7
7
7
7
7
7
7
7
7
7
7
7
7
7
7
7
7
7
7
7
7
7
7
7
7
7
7
7
7
7
7
7
7
7
7
7
7
7
7
7
7
7
7
7
7
7
7
7
7
7
7
7
7
7
7
7
7
7
7
7
7
7
7
7
7
7
7
7
7
7
7
7
7
7
7
7
7
7
7
7
7
7
7
7
7
7
7
7
7
7
7
7
7
7
7
7
7
7
7
7
7
7
7
7
7
7
7
7
7
7
7
7
7
7
7
7
7
7
7
7
7
7
7
7
7
7
7
7
7
7
7
7
7
7
7
7
7
7
7
7
7
7
7
7
7
7
7
7
7
7
CELL_DATA 476
SCALARS hybrid_kind int 1
LOOKUP_TABLE default
2
2
2
2
2
2
2
2
2
2
2
2
2
2
2
2
2
2
2
2
2
2
2
2
2
2
2
2
2
2
2
2
2
2
2
2
2
2
2
2
2
2
2
2
2
2
2
2
2
2
2
2
2
2
2
2
2
2
2
2
2
2
2
2
2
2
2
2
2
2
2
2
2
2
2
2
2
2
2
2
2
2
2
2
2
2
2
2
2
2
2
2
2
2
2
2
2
2
2
2
2
2
2
2
2
2
2
2
2
2
2
1
2
1
2
1
1
1
1
1
1
1
2
2
2
2
2
2
2
2
2
2
2
2
2
2
2
2
2
2
1
2
2
2
1
2
1
1
1
1
1
1
1
2
2
2
1
2
2
2
1
1
1
1
1
1
1
2
2
2
1
1
1
1
1
1
1
2
2
2
1
2
2
2
2
2
2
2
2
1
2
2
2
2
2
2
2
2
1
1
1
1
1
2
1
1
2
2
1
1
1
1
1
1
2
2
1
2
1
1
1
2
2
1
2
1
1
1
2
2
1
2
1
1
1
1
1
2
1
2
1
2
1
1
1
1
1
1
1
1
1
1
1
1
2
1
2
1
2
1
1
1
1
1
2
1
2
2
1
1
1
2
1
2
2
1
1
1
2
1
2
2
1
1
1
1
1
1
2
2
1
1
2
1
1
1
1
1
1
1
1
1
1
1
1
1
1
2
2
2
1
1
1
1
1
1
1
2
2
2
1
2
2
2
1
1
1
1
1
1
1
2
1
2
1
2
1
1
1
1
1
1
1
2
1
1
2
2
0
0
0
0
0
0
0
0
0
0
0
0
0
0
0
0
0
0
0
0
0
0
0
0
0
0
0
0
0
0
0
0
0
0
0
0
0
0
0
0
0
0
0
0
0
0
0
0
0
0
0
0
0
0
0
0
0
0
0
0
0
0
0
0
0
0
0
0
0
0
0
0
0
0
0
0
0
0
0
0
0
0
0
0
0
0
0
0
0
0
0
0
0
0
0
0
0
0
0
0
0
0
0
0
0
0
0
0
0
0
0
0
0
0
0
0
0
0
0
0
0
0
0
0
0
0
0
0
SCALARS layer_index int 1
LOOKUP_TABLE default
-1
-1
-1
-1
-1
-1
-1
-1
-1
-1
-1
-1
-1
-1
-1
-1
-1
-1
-1
-1
-1
-1
-1
-1
-1
-1
-1
-1
-1
-1
-1
-1
-1
-1
-1
-1
-1
-1
-1
-1
-1
-1
-1
-1
-1
-1
-1
-1
-1
-1
-1
-1
-1
-1
-1
-1
-1
-1
-1
-1
-1
-1
-1
-1
-1
-1
-1
-1
-1
-1
-1
-1
-1
-1
-1
-1
-1
-1
-1
-1
-1
-1
-1
-1
-1
-1
-1
-1
-1
-1
-1
-1
-1
-1
-1
-1
-1
-1
-1
-1
-1
-1
-1
-1
-1
-1
-1
-1
-1
-1
-1
-1
-1
-1
-1
-1
-1
-1
-1
-1
-1
-1
-1
-1
-1
-1
-1
-1
-1
-1
-1
-1
-1
-1
-1
-1
-1
-1
-1
-1
-1
-1
-1
-1
-1
-1
-1
-1
-1
-1
-1
-1
-1
-1
-1
-1
-1
-1
-1
-1
-1
-1
-1
-1
-1
-1
-1
-1
-1
-1
-1
-1
-1
-1
-1
-1
-1
-1
-1
-1
-1
-1
-1
-1
-1
-1
-1
-1
-1
-1
-1
-1
-1
-1
-1
-1
-1
-1
-1
-1
-1
-1
-1
-1
-1
-1
-1
-1
-1
-1
-1
-1
-1
-1
-1
-1
-1
-1
-1
-1
-1
-1
-1
-1
-1
-1
-1
-1
-1
-1
-1
-1
-1
-1
-1
-1
-1
-1
-1
-1
-1
-1
-1
-1
-1
-1
-1
-1
-1
-1
-1
-1
-1
-1
-1
-1
-1
-1
-1
-1
-1
-1
-1
-1
-1
-1
-1
-1
-1
-1
-1
-1
-1
-1
-1
-1
-1
-1
-1
-1
-1
-1
-1
-1
-1
-1
-1
-1
-1
-1
-1
-1
-1
-1
-1
-1
-1
-1
-1
-1
-1
-1
-1
-1
-1
-1
-1
-1
-1
-1
-1
-1
-1
-1
-1
-1
-1
-1
-1
-1
-1
-1
-1
-1
-1
-1
-1
-1
-1
-1
-1
-1
-1
-1
-1
-1
-1
-1
-1
-1
-1
-1
-1
-1
-1
-1
-1
-1
0
0
0
0
0
0
0
0
0
0
0
0
0
0
0
0
0
0
0
0
0
0
0
0
0
0
0
0
0
0
0
0
1
1
1
1
1
1
1
1
1
1
1
1
1
1
1
1
1
1
1
1
1
1
1
1
1
1
1
1
1
1
1
1
2
2
2
2
2
2
2
2
2
2
2
2
2
2
2
2
2
2
2
2
2
2
2
2
2
2
2
2
2
2
2
2
3
3
3
3
3
3
3
3
3
3
3
3
3
3
3
3
3
3
3
3
3
3
3
3
3
3
3
3
3
3
3
3
SCALARS geometry_area double 1
LOOKUP_TABLE default
0.25
0.25
0.25
0.25
0.25
0.25
0.25
0.25
0.25
0.25
0.25
0.25000000000000022
0.25
0.25000000000000022
0.0625
0.0625
0.0625
0.0625
0.25000000000000022
0.0625
0.25000000000000022
0.25
0.25
0.0625
0.0625
0.0625
0.25
0.25
0.25000000000000011
0.25000000000000011
0.0625
0.25000000000000011
0.0625
0.25000000000000011
0.25000000000000022
0.25000000000000022
0.25000000000000011
0.25000000000000011
0.25
0.25000000000000022
0.25000000000000011
0.25000000000000033
0.0625
0.0625
0.0625
0.0625
0.0625
0.015625
0.015625
0.015625
0.015625
0.0625
0.0625
0.0625
0.015625
0.0625
0.015625
0.0625
0.015625
0.015625
0.0625
0.0625
0.0625
0.0625
0.0625
0.015625
0.015625
0.015625
0.015625
0.0625
0.0625
0.0625
0.015625
0.0625
0.015625
0.0625
0.015625
0.015625
0.015625
0.015625
0.015625
0.0625
0.0625
0.0625
0.0625
0.0625
0.0625
0.0625
0.0625
0.0625
0.0625
0.015625
0.015625
0.015625
0.015625
0.015625
0.015625
0.015625
0.015625
0.015625
0.015625
0.015625
0.015625
0.015625
0.015625
0.015625
0.015625
0.015625
0.00390625
0.015625
0.00390625
0.0036572968369935231
0.015625
0.0021198179156192067
0.00390625
0.0035914633458367525
0.00091370233123498623
4.3541002556129091e-05
0.0025340524289407407
0.0020318632902761036
0.0016471312459073184
0.0012623992015385263
0.015625
0.015625
0.015625
0.015625
0.015625
0.015625
0.015625
0.015625
0.015625
0.015625
0.015625
0.015625
0.015625
0.015625
0.015625
0.015625
0.015625
0.00390625
0.0036572968369935231
0.015625
0.00390625
0.015625
0.0021198179156192145
0.00390625
0.00091370233123499664
0.0035914633458367551
4.3541002556131029e-05
0.0025340524289407494
0.0020318632902761175
0.0016471312459073253
0.0012623992015385332
0.00390625
0.00390625
0.00390625
0.0018765008044023508
0.00390625
0.00390625
0.00390625
0.0030090107831426869
0.0037715520129298582
0.0021122955727223697
0.00044157780509136057
0.0024084069166994551
0.00010164945435679001
1.7798474733746461e-06
0.00390625
0.00390625
0.00390625
0.0030090107831426847
0.0024084069166994582
1.779847473374741e-06
0.0001016494543567893
0.0037715520129298578
0.00044157780509135927
0.0021122955727223731
0.015625
0.015625
0.015625
0.00027331461094370993
0.015625
0.015625
0.015625
0.015625
0.015625
0.015625
0.015625
0.015625
0.00027331461094371172
0.015625
0.015625
0.015625
0.015625
0.015625
0.015625
0.015625
0.015625
0.0012623992015385194
0.0016471312459073115
0.0020318632902761036
0.0025340524289407347
0.0035914633458367451
0.00390625
4.3541002556128237e-05
0.00091370233123498623
0.00390625
0.00390625
0.002119817915619202
0.0036572968369935161
0.00027331461094370484
0.0021122955727223627
0.0037715520129298543
0.00044157780509135195
0.00390625
0.00390625
0.0030090107831426752
0.00390625
0.00010164945435678524
0.0024084069166994369
1.77984747337413e-06
0.00390625
0.00390625
0.0018765008044023315
0.00390625
1.7798474733740146e-06
0.0024084069166994335
0.00010164945435678294
0.00390625
0.00390625
0.0030090107831426656
0.00390625
0.00044157780509134279
0.0037715520129298487
0.0021122955727223489
0.00027331461094370213
0.0036572968369935135
0.00390625
0.0021198179156191994
0.00390625
0.00091370233123497929
0.00390625
4.3541002556125215e-05
0.0035914633458367421
0.0025340524289407251
0.0020318632902760897
0.0016471312459072976
0.0012623992015385055
0.0012623992015385332
0.0016471312459073253
0.0020318632902761175
0.0025340524289407499
0.0035914633458367555
4.3541002556131171e-05
0.00390625
0.00091370233123499664
0.00390625
0.002119817915619215
0.00390625
0.003657296836993524
0.0002733146109437127
0.0021122955727223766
0.0037715520129298595
0.00044157780509136203
0.00390625
0.0030090107831426895
0.00390625
0.00390625
0.00010164945435679001
0.0024084069166994608
1.7798474733749515e-06
0.00390625
0.001876500804402358
0.00390625
0.00390625
1.7798474733748566e-06
0.0024084069166994582
0.0001016494543567893
0.00390625
0.0030090107831426847
0.00390625
0.00390625
0.00044157780509135656
0.0037715520129298569
0.0021122955727223697
0.00027331461094371091
0.0036572968369935257
0.0021198179156192167
0.00390625
0.00390625
0.00091370233123499317
4.3541002556129376e-05
0.00390625
0.0035914633458367529
0.0025340524289407407
0.0020318632902761036
0.0016471312459073184
0.0012623992015385263
0.00027331461094370262
0.0002733146109437076
0.0021122955727223558
0.00044157780509134468
0.0037715520129298508
0.00010164945435678453
1.7798474733742251e-06
0.0024084069166994395
0.0030090107831426704
0.00390625
0.00390625
0.00390625
1.7798474733742251e-06
0.00010164945435678453
0.00240840691669944
0.00044157780509134826
0.0021122955727223627
0.0037715520129298526
0.0030090107831426704
0.00390625
0.00390625
0.00390625
0.0018765008044023368
0.00390625
0.00390625
0.00390625
0.0012623992015385055
0.0016471312459072976
0.0020318632902760897
0.002534052428940726
4.3541002556125357e-05
0.0035914633458367425
0.00091370233123497929
0.00390625
0.0021198179156192002
0.00390625
0.0036572968369935144
0.00390625
0.0012623992015385194
0.0016471312459073115
0.0020318632902761036
0.0025340524289407347
4.3541002556128522e-05
0.00091370233123498623
0.0035914633458367456
0.00390625
0.0021198179156192063
0.0036572968369935187
0.00390625
0.00390625
0.0039600821745233283
0.0039600821745257725
0.0039600821745268688
0.0039600821745266364
0.0039600821745266346
0.0039600821745268654
0.0039600821745257725
0.0039600821745233283
0.0039600821745233283
0.0039600821745257725
0.0039600821745268671
0.0039600821745266373
0.0039600821745266364
0.0039600821745268671
0.0039600821745257725
0.0039600821745233283
0.0039600821745233283
0.0039600821745257725
0.0039600821745268654
0.0039600821745266381
0.0039600821745266381
0.0039600821745268671
0.0039600821745257725
0.0039600821745233283
0.0039600821745233283
0.0039600821745257725
0.0039600821745268636
0.0039600821745266346
0.0039600821745266381
0.0039600821745268671
0.0039600821745257725
0.0039600821745233283
0.0048561055313735705
0.0048561055313745636
0.0048561055313772871
0.0048561055313783774
0.0048561055313783835
0.0048561055313772871
0.0048561055313745627
0.0048561055313735583
0.0048561055313735592
0.0048561055313745636
0.0048561055313772871
0.0048561055313783782
0.0048561055313783765
0.0048561055313772871
0.0048561055313745636
0.0048561055313735592
0.0048561055313735592
0.0048561055313745636
0.0048561055313772854
0.00485610553137838
0.0048561055313783782
0.0048561055313772854
0.0048561055313745627
0.0048561055313735592
0.0048561055313735601
0.0048561055313745636
0.0048561055313772871
0.0048561055313783835
0.0048561055313783791
0.0048561055313772854
0.0048561055313745636
0.0048561055313735705
0.0059770966052498688
0.0059770966052483214
0.0059770966052536557
0.0059770966052568857
0.0059770966052568857
0.0059770966052536548
0.0059770966052483231
0.0059770966052498688
0.0059770966052498688
0.0059770966052483231
0.0059770966052536557
0.0059770966052568866
0.0059770966052568857
0.0059770966052536557
0.005977096605248311
0.0059770966052498584
0.0059770966052498575
0.005977096605248311
0.0059770966052536539
0.0059770966052568944
0.0059770966052568944
0.0059770966052536548
0.005977096605248311
0.0059770966052498584
0.0059770966052498584
0.0059770966052483101
0.0059770966052536539
0.0059770966052568866
0.0059770966052568857
0.0059770966052536539
0.0059770966052483223
0.0059770966052498696
0.0073881846796461032
0.0073881846796402797
0.0073881846796496429
0.0073881846796563285
0.0073881846796563259
0.0073881846796496325
0.0073881846796402702
0.0073881846796461266
0.0073881846796461266
0.0073881846796402693
0.0073881846796496325
0.0073881846796563268
0.0073881846796563407
0.0073881846796496412
0.007388184679640291
0.00738818467964615
0.00738818467964615
0.007388184679640291
0.0073881846796496412
0.0073881846796563233
0.0073881846796563233
0.0073881846796496394
0.0073881846796402927
0.0073881846796461518
0.0073881846796461509
0.007388184679640291
0.0073881846796496412
0.0073881846796563294
0.0073881846796563242
0.0073881846796496429
0.0073881846796402788
0.0073881846796461032
