# vtk DataFile Version 3.0
cartmesh2d H4-2 conformal hybrid mesh
ASCII
DATASET UNSTRUCTURED_GRID
POINTS 685 double
-2.7999999999999998 -1.8 0
-2.7999999999999998 -1.3500000000000001 0
-2.7999999999999998 -0.90000000000000002 0
-2.7999999999999998 -0.67500000000000004 0
-2.7999999999999998 -0.45000000000000001 0
-2.7999999999999998 -0.22500000000000001 0
-2.7999999999999998 0 0
-2.7999999999999998 0.22500000000000001 0
-2.7999999999999998 0.45000000000000001 0
-2.7999999999999998 0.67500000000000004 0
-2.7999999999999998 0.90000000000000002 0
-2.7999999999999998 1.3500000000000001 0
-2.7999999999999998 1.8 0
-2.4499999999999997 -0.90000000000000002 0
-2.4499999999999997 -0.67500000000000004 0
-2.4499999999999997 -0.45000000000000001 0
-2.4499999999999997 -0.22500000000000001 0
-2.4499999999999997 0 0
-2.4499999999999997 0.22500000000000001 0
-2.4499999999999997 0.45000000000000001 0
-2.4499999999999997 0.67500000000000004 0
-2.4499999999999997 0.90000000000000002 0
-2.0999999999999996 -1.8 0
-2.0999999999999996 -1.3500000000000001 0
-2.0999999999999996 -1.125 0
-2.0999999999999996 -0.90000000000000002 0
-2.0999999999999996 -0.78749999999999998 0
-2.0999999999999996 -0.67500000000000004 0
-2.0999999999999996 -0.5625 0
-2.0999999999999996 -0.45000000000000001 0
-2.0999999999999996 -0.33750000000000002 0
-2.0999999999999996 -0.22500000000000001 0
-2.0999999999999996 -0.1125 0
-2.0999999999999996 0 0
-2.0999999999999996 0.1125 0
-2.0999999999999996 0.22500000000000001 0
-2.0999999999999996 0.33750000000000002 0
-2.0999999999999996 0.45000000000000001 0
-2.0999999999999996 0.5625 0
-2.0999999999999996 0.67500000000000004 0
-2.0999999999999996 0.78749999999999998 0
-2.0999999999999996 0.90000000000000002 0
-2.0999999999999996 1.125 0
-2.0999999999999996 1.3500000000000001 0
-2.0999999999999996 1.8 0
-1.9249999999999998 -0.90000000000000002 0
-1.9249999999999998 -0.78749999999999998 0
-1.9249999999999998 -0.67500000000000004 0
-1.9249999999999998 -0.5625 0
-1.9249999999999998 -0.50624999999999998 0
-1.9249999999999998 -0.45000000000000001 0
-1.9249999999999998 -0.39374999999999999 0
-1.9249999999999998 -0.33750000000000002 0
-1.9249999999999998 -0.28125 0
-1.9249999999999998 -0.22500000000000001 0
-1.9249999999999998 -0.16875000000000001 0
-1.9249999999999998 -0.1125 0
-1.9249999999999998 -0.056250000000000001 0
-1.9249999999999998 0 0
-1.9249999999999998 0.056250000000000001 0
-1.9249999999999998 0.1125 0
-1.9249999999999998 0.16875000000000001 0
-1.9249999999999998 0.22500000000000001 0
-1.9249999999999998 0.28125 0
-1.9249999999999998 0.33750000000000002 0
-1.9249999999999998 0.39374999999999999 0
-1.9249999999999998 0.45000000000000001 0
-1.9249999999999998 0.50624999999999998 0
-1.9249999999999998 0.5625 0
-1.9249999999999998 0.67500000000000004 0
-1.9249999999999998 0.78749999999999998 0
-1.9249999999999998 0.90000000000000002 0
-1.8522377217019435 8.9863201502988344e-09 0
-1.8522377210189613 0 0
-1.8479625855483286 0.056250000000000001 0
-1.8479625843693386 -0.056250000000000001 0
-1.8436874487117316 0.1125 0
-1.8436874477197158 -0.1125 0
-1.8394123118751344 0.16875000000000001 0
-1.8394123110700931 -0.16875000000000001 0
-1.8374999999999999 -0.5625 0
-1.8374999999999999 -0.50624999999999998 0
-1.8374999999999999 -0.45000000000000001 0
-1.8374999999999999 -0.39374999999999999 0
-1.8374999999999999 -0.33750000000000002 0
-1.8374999999999999 -0.28125 0
-1.8374999999999999 -0.22500000000000001 0
-1.8374999999999999 -0.19391118349158012 0
-1.8374999999999999 0.19391119298346091 0
-1.8374999999999999 0.22500000000000001 0
-1.8374999999999999 0.28125 0
-1.8374999999999999 0.33750000000000002 0
-1.8374999999999999 0.39374999999999999 0
-1.8374999999999999 0.45000000000000001 0
-1.8374999999999999 0.50624999999999998 0
-1.8374999999999999 0.5625 0
-1.8351371750385375 0.22500000000000001 0
-1.8351371744204703 -0.22500000000000001 0
-1.8323430098370563 8.9534451614521216e-09 0
-1.8308620382019405 0.28125 0
-1.8308620377708476 -0.28125 0
-1.8265869013653433 0.33750000000000002 0
-1.8265869011212248 -0.33750000000000002 0
-1.8223117645287463 0.39374999999999999 0
-1.822311764471602 -0.39374999999999999 0
-1.8200833794272937 -0.42306991864012161 0
-1.8200833793810434 0.42306991871821947 0
-1.8150432603893285 8.9248582146288942e-09 0
-1.8041350959776687 -0.45000000000000001 0
-1.8041350959776687 0.45000000000000001 0
-1.8006539903107794 -0.4169474466349925 0
-1.8006539902821435 0.41694744668334682 0
-1.8 8.9000000000000003e-09 0
-1.7837588693398974 -0.4116235579348802 0
-1.7837588693265785 0.4116235579573706 0
-1.770823241770725 -0.50624999999999998 0
-1.770823241770725 0.50624999999999998 0
-1.7690674598 -0.40699408949999999 0
-1.7690674598 0.40699408949999999 0
-1.75 -1.3500000000000001 0
-1.75 -1.125 0
-1.75 -0.90000000000000002 0
-1.75 -0.78749999999999998 0
-1.75 -0.73125000000000007 0
-1.75 -0.67500000000000004 0
-1.75 -0.61875000000000002 0
-1.75 -0.5625 0
-1.75 -0.54141187788067147 0
-1.75 0.54141187788067147 0
-1.75 0.5625 0
-1.75 0.61875000000000002 0
-1.75 0.67500000000000004 0
-1.75 0.73125000000000007 0
-1.75 0.78749999999999998 0
-1.75 0.90000000000000002 0
-1.75 1.125 0
-1.75 1.3500000000000001 0
-1.7375113875637813 -0.5625 0
-1.7375113875637813 0.5625 0
-1.7138210936865226 -0.60250314789796477 0
-1.7138210936865226 0.60250314789796477 0
-1.6990698973477389 -0.58848113532350588 0
-1.6990698973477389 0.58848113532350588 0
-1.6893100049553889 -0.61875000000000002 0
-1.6893100049553889 0.61875000000000002 0
-1.6862427700966227 -0.57628808091093298 0
-1.6862427700966227 0.57628808091093298 0
-1.6750887463999999 -0.56568542489999996 0
-1.6750887463999999 0.56568542489999996 0
-1.6624999999999999 -0.78749999999999998 0
-1.6624999999999999 -0.73125000000000007 0
-1.6624999999999999 -0.67500000000000004 0
-1.6624999999999999 -0.63652065842088745 0
-1.6624999999999999 0.63652065842088745 0
-1.6624999999999999 0.67500000000000004 0
-1.6624999999999999 0.73125000000000007 0
-1.6624999999999999 0.78749999999999998 0
-1.604447489283596 -0.67500000000000004 0
-1.604447489283596 0.67500000000000004 0
-1.575 -0.90000000000000002 0
-1.575 -0.78749999999999998 0
-1.575 -0.73125000000000007 0
-1.575 -0.69451888014501628 0
-1.575 0.69451888014501628 0
-1.575 0.73125000000000007 0
-1.575 0.78749999999999998 0
-1.575 0.90000000000000002 0
-1.5359246367439379 -0.72041946965445591 0
-1.5359246367439379 0.72041946965445591 0
-1.5274274688461387 -0.70225205675783453 0
-1.5274274688461387 0.70225205675783453 0
-1.5200386271958786 -0.68645430641294625 0
-1.5200386271958786 0.68645430641294625 0
-1.5136135475000001 -0.67271713219999996 0
-1.5136135475000001 0.67271713219999996 0
-1.4995815856717103 -0.73125000000000007 0
-1.4995815856717103 0.73125000000000007 0
-1.4874999999999998 -0.78749999999999998 0
-1.4874999999999998 -0.73485041263403306 0
-1.4874999999999998 0.73485041263403306 0
-1.4874999999999998 0.78749999999999998 0
-1.3999999999999999 -1.8 0
-1.3999999999999999 -1.3500000000000001 0
-1.3999999999999999 -1.125 0
-1.3999999999999999 -1.0125 0
-1.3999999999999999 -0.90000000000000002 0
-1.3999999999999999 -0.84375 0
-1.3999999999999999 -0.78749999999999998 0
-1.3999999999999999 -0.76092613762893579 0
-1.3999999999999999 0.76092613762893579 0
-1.3999999999999999 0.78749999999999998 0
-1.3999999999999999 0.84375 0
-1.3999999999999999 0.90000000000000002 0
-1.3999999999999999 1.0125 0
-1.3999999999999999 1.125 0
-1.3999999999999999 1.3500000000000001 0
-1.3999999999999999 1.8 0
-1.3125 -0.90000000000000002 0
-1.3125 -0.84375 0
-1.3125 -0.78749999999999998 0
-1.3125 -0.78700186262383864 0
-1.3125 0.78700186262383864 0
-1.3125 0.78749999999999998 0
-1.3125 0.84375 0
-1.3125 0.90000000000000002 0
-1.31082844454286 -0.78749999999999998 0
-1.31082844454286 0.78749999999999998 0
-1.2833350138346642 -0.7956932701521523 0
-1.2833350138346642 0.7956932701521523 0
-1.2793197904425566 -0.77619020065698408 0
-1.2793197904425566 0.77619020065698408 0
-1.275828291840724 -0.7592310097916205 0
-1.275828291840724 0.7592310097916205 0
-1.2727922061000001 -0.74448388730000004 0
-1.2727922061000001 0.74448388730000004 0
-1.2249999999999999 -1.125 0
-1.2249999999999999 -1.0125 0
-1.2249999999999999 -0.90000000000000002 0
-1.2249999999999999 -0.84375 0
-1.2249999999999999 -0.80251729419684659 0
-1.2249999999999999 0.80251729419684648 0
-1.2249999999999999 0.84375 0
-1.2249999999999999 0.90000000000000002 0
-1.2249999999999999 1.0125 0
-1.2249999999999999 1.125 0
-1.1375 -0.90000000000000002 0
-1.1375 -0.84375 0
-1.1375 -0.81275303538657317 0
-1.1375 0.81275303538657306 0
-1.1375 0.84375 0
-1.1375 0.90000000000000002 0
-1.0499999999999998 -1.3500000000000001 0
-1.0499999999999998 -1.125 0
-1.0499999999999998 -1.0125 0
-1.0499999999999998 -0.90000000000000002 0
-1.0499999999999998 -0.84375 0
-1.0499999999999998 -0.82298877657629976 0
-1.0499999999999998 0.82298877657629976 0
-1.0499999999999998 0.84375 0
-1.0499999999999998 0.90000000000000002 0
-1.0499999999999998 1.0125 0
-1.0499999999999998 1.125 0
-1.0499999999999998 1.3500000000000001 0
-0.96249999999999991 -0.90000000000000002 0
-0.96249999999999991 -0.84375 0
-0.96249999999999991 -0.83322451776602635 0
-0.96249999999999991 0.83322451776602635 0
-0.96249999999999991 0.84375 0
-0.96249999999999991 0.90000000000000002 0
-0.91916241403760468 -0.83829414420829618 0
-0.91916241402123933 0.83829414421021053 0
-0.91785773294459327 -0.81847399574790114 0
-0.9178577329344606 0.81847399574908641 0
-0.91672322764632241 -0.80123908404320987 0
-0.91672322764160963 0.8012390840437611 0
-0.91573670129999996 -0.78625220429999998 0
-0.91573670129999996 0.78625220429999998 0
-0.875 -1.125 0
-0.875 -1.0125 0
-0.875 -0.90000000000000002 0
-0.875 -0.84375 0
-0.875 -0.83895714686083067 0
-0.875 0.83895714683462497 0
-0.875 0.84375 0
-0.875 0.90000000000000002 0
-0.875 1.0125 0
-0.875 1.125 0
-0.78749999999999998 -0.90000000000000002 0
-0.78749999999999998 -0.84375 0
-0.78749999999999998 -0.84027076916524923 0
-0.78749999999999998 0.84027076908381537 0
-0.78749999999999998 0.84375 0
-0.78749999999999998 0.90000000000000002 0
-0.69999999999999996 -1.8 0
-0.69999999999999996 -1.3500000000000001 0
-0.69999999999999996 -1.125 0
-0.69999999999999996 -1.0125 0
-0.69999999999999996 -0.90000000000000002 0
-0.69999999999999996 -0.84375 0
-0.69999999999999996 -0.84158439146966779 0
-0.69999999999999996 0.84158439133300578 0
-0.69999999999999996 0.84375 0
-0.69999999999999996 0.90000000000000002 0
-0.69999999999999996 1.0125 0
-0.69999999999999996 1.125 0
-0.69999999999999996 1.3500000000000001 0
-0.69999999999999996 1.8 0
-0.61249999999999993 -0.90000000000000002 0
-0.61249999999999993 -0.84375 0
-0.61249999999999993 -0.84289801377408646 0
-0.61249999999999993 0.84289801358219629 0
-0.61249999999999993 0.84375 0
-0.61249999999999993 0.90000000000000002 0
-0.5557494450522964 -0.84375 0
-0.55574942988460163 0.84375 0
-0.52499999999999991 -1.125 0
-0.52499999999999991 -1.0125 0
-0.52499999999999991 -0.90000000000000002 0
-0.52499999999999991 -0.84421163607850502 0
-0.52499999999999991 0.8442116358313867 0
-0.52499999999999991 0.90000000000000002 0
-0.52499999999999991 1.0125 0
-0.52499999999999991 1.125 0
-0.4375 -0.90000000000000002 0
-0.4375 -0.84552525838292358 0
-0.4375 0.8455252580805771 0
-0.4375 0.90000000000000002 0
-0.34999999999999998 -1.3500000000000001 0
-0.34999999999999998 -1.125 0
-0.34999999999999998 -1.0125 0
-0.34999999999999998 -0.90000000000000002 0
-0.34999999999999998 -0.84683888068734225 0
-0.34999999999999998 0.84683888032976751 0
-0.34999999999999998 0.90000000000000002 0
-0.34999999999999998 1.0125 0
-0.34999999999999998 1.125 0
-0.34999999999999998 1.3500000000000001 0
-0.26249999999999996 -0.90000000000000002 0
-0.26249999999999996 -0.84815250299176081 0
-0.26249999999999996 0.84815250257895802 0
-0.26249999999999996 0.90000000000000002 0
-0.17499999999999999 -1.125 0
-0.17499999999999999 -1.0125 0
-0.17499999999999999 -0.90000000000000002 0
-0.17499999999999999 -0.84946612529617938 0
-0.17499999999999999 0.84946612482814843 0
-0.17499999999999999 0.90000000000000002 0
-0.17499999999999999 1.0125 0
-0.17499999999999999 1.125 0
-0.087499999999999994 -0.90000000000000002 0
-0.087499999999999994 -0.85077974760059805 0
-0.087499999999999994 0.85077974707733883 0
-0.087499999999999994 0.90000000000000002 0
-2.4420833691654954e-08 -0.85209336953839088 0
-2.4412899189937552e-08 -0.83225363412744147 0
-2.4405999623226769e-08 -0.81500169029183323 0
-2.44e-08 -0.80000000000000004 0
0 -1.8 0
0 -1.3500000000000001 0
0 -1.125 0
0 -1.0125 0
0 -0.90000000000000002 0
0 -0.85209336917176515 0
0 0.85209336932652924 0
0 0.90000000000000002 0
0 1.0125 0
0 1.125 0
0 1.3500000000000001 0
0 1.8 0
1.4100000000000001e-08 0.80000000000000004 0
1.4103466995384119e-08 0.81500169029183323 0
1.4107454040075856e-08 0.83225363412744147 0
1.4112039092850637e-08 0.85209336953839088 0
0.087499999999999994 -0.90000000000000002 0
0.087499999999999994 -0.85077974693735003 0
0.087499999999999994 0.85077974746060925 0
0.087499999999999994 0.90000000000000002 0
0.17499999999999999 -1.125 0
0.17499999999999999 -1.0125 0
0.17499999999999999 -0.90000000000000002 0
0.17499999999999999 -0.84946612470293492 0
0.17499999999999999 0.84946612517096598 0
0.17499999999999999 0.90000000000000002 0
0.17499999999999999 1.0125 0
0.17499999999999999 1.125 0
0.26249999999999996 -0.90000000000000002 0
0.26249999999999996 -0.84815250246851981 0
0.26249999999999996 0.8481525028813226 0
0.26249999999999996 0.90000000000000002 0
0.34999999999999998 -1.3500000000000001 0
0.34999999999999998 -1.125 0
0.34999999999999998 -1.0125 0
0.34999999999999998 -0.90000000000000002 0
0.34999999999999998 -0.84683888023410481 0
0.34999999999999998 0.84683888059167933 0
0.34999999999999998 0.90000000000000002 0
0.34999999999999998 1.0125 0
0.34999999999999998 1.125 0
0.34999999999999998 1.3500000000000001 0
0.4375 -0.90000000000000002 0
0.4375 -0.84552525799968969 0
0.4375 0.84552525830203606 0
0.4375 0.90000000000000002 0
0.52499999999999991 -1.125 0
0.52499999999999991 -1.0125 0
0.52499999999999991 -0.90000000000000002 0
0.52499999999999991 -0.84421163576527458 0
0.52499999999999991 0.8442116360123928 0
0.52499999999999991 0.90000000000000002 0
0.52499999999999991 1.0125 0
0.52499999999999991 1.125 0
0.55574942582675524 -0.84375 0
0.55574944099444534 0.84375 0
0.61249999999999993 -0.90000000000000002 0
0.61249999999999993 -0.84375 0
0.61249999999999993 -0.84289801353085947 0
0.61249999999999993 0.84289801372274953 0
0.61249999999999993 0.84375 0
0.61249999999999993 0.90000000000000002 0
0.69999999999999996 -1.8 0
0.69999999999999996 -1.3500000000000001 0
0.69999999999999996 -1.125 0
0.69999999999999996 -1.0125 0
0.69999999999999996 -0.90000000000000002 0
0.69999999999999996 -0.84375 0
0.69999999999999996 -0.84158439129644436 0
0.69999999999999996 0.84158439143310626 0
0.69999999999999996 0.84375 0
0.69999999999999996 0.90000000000000002 0
0.69999999999999996 1.0125 0
0.69999999999999996 1.125 0
0.69999999999999996 1.3500000000000001 0
0.69999999999999996 1.8 0
0.78749999999999998 -0.90000000000000002 0
0.78749999999999998 -0.84375 0
0.78749999999999998 -0.84027076906202924 0
0.78749999999999998 0.84027076914346299 0
0.78749999999999998 0.84375 0
0.78749999999999998 0.90000000000000002 0
0.875 -1.125 0
0.875 -1.0125 0
0.875 -0.90000000000000002 0
0.875 -0.84375 0
0.875 -0.83895714682761413 0
0.875 0.83895714685381972 0
0.875 0.84375 0
0.875 0.90000000000000002 0
0.875 1.0125 0
0.875 1.125 0
0.91573670129999996 -0.78625220429999998 0
0.91573670129999996 0.78625220429999998 0
0.91672322764034875 -0.80123908404390864 0
0.91672322764506153 0.80123908404335731 0
0.91785773293174988 -0.8184739957494036 0
0.91785773294188244 0.81847399574821822 0
0.91916241401686116 -0.83829414421072279 0
0.9191624140332264 0.83829414420880832 0
0.96249999999999991 -0.90000000000000002 0
0.96249999999999991 -0.84375 0
0.96249999999999991 -0.83322451776602646 0
0.96249999999999991 0.83322451776602635 0
0.96249999999999991 0.84375 0
0.96249999999999991 0.90000000000000002 0
1.0499999999999998 -1.3500000000000001 0
1.0499999999999998 -1.125 0
1.0499999999999998 -1.0125 0
1.0499999999999998 -0.90000000000000002 0
1.0499999999999998 -0.84375 0
1.0499999999999998 -0.82298877657629976 0
1.0499999999999998 0.82298877657629976 0
1.0499999999999998 0.84375 0
1.0499999999999998 0.90000000000000002 0
1.0499999999999998 1.0125 0
1.0499999999999998 1.125 0
1.0499999999999998 1.3500000000000001 0
1.1375 -0.90000000000000002 0
1.1375 -0.84375 0
1.1375 -0.81275303538657317 0
1.1375 0.81275303538657317 0
1.1375 0.84375 0
1.1375 0.90000000000000002 0
1.2249999999999999 -1.125 0
1.2249999999999999 -1.0125 0
1.2249999999999999 -0.90000000000000002 0
1.2249999999999999 -0.84375 0
1.2249999999999999 -0.80251729419684659 0
1.2249999999999999 0.80251729419684659 0
1.2249999999999999 0.84375 0
1.2249999999999999 0.90000000000000002 0
1.2249999999999999 1.0125 0
1.2249999999999999 1.125 0
1.2727922061000001 -0.74448388730000004 0
1.2727922061000001 0.74448388730000004 0
1.275828291840724 -0.7592310097916205 0
1.275828291840724 0.7592310097916205 0
1.2793197904425566 -0.77619020065698408 0
1.2793197904425566 0.77619020065698408 0
1.2833350138346642 -0.7956932701521523 0
1.2833350138346642 0.7956932701521523 0
1.31082844454286 -0.78749999999999998 0
1.31082844454286 0.78749999999999998 0
1.3125 -0.90000000000000002 0
1.3125 -0.84375 0
1.3125 -0.78749999999999998 0
1.3125 -0.78700186262383864 0
1.3125 0.78700186262383864 0
1.3125 0.78749999999999998 0
1.3125 0.84375 0
1.3125 0.90000000000000002 0
1.3999999999999999 -1.8 0
1.3999999999999999 -1.3500000000000001 0
1.3999999999999999 -1.125 0
1.3999999999999999 -1.0125 0
1.3999999999999999 -0.90000000000000002 0
1.3999999999999999 -0.84375 0
1.3999999999999999 -0.78749999999999998 0
1.3999999999999999 -0.76092613762893579 0
1.3999999999999999 0.76092613762893579 0
1.3999999999999999 0.78749999999999998 0
1.3999999999999999 0.84375 0
1.3999999999999999 0.90000000000000002 0
1.3999999999999999 1.0125 0
1.3999999999999999 1.125 0
1.3999999999999999 1.3500000000000001 0
1.3999999999999999 1.8 0
1.4874999999999998 -0.78749999999999998 0
1.4874999999999998 -0.73485041263403306 0
1.4874999999999998 0.73485041263403306 0
1.4874999999999998 0.78749999999999998 0
1.4995815856717103 -0.73125000000000007 0
1.4995815856717103 0.73125000000000007 0
1.5136135475000001 -0.67271713219999996 0
1.5136135475000001 0.67271713219999996 0
1.5200386271958786 -0.68645430641294625 0
1.5200386271958786 0.68645430641294625 0
1.5274274688461387 -0.70225205675783453 0
1.5274274688461387 0.70225205675783453 0
1.5359246367439379 -0.72041946965445591 0
1.5359246367439379 0.72041946965445591 0
1.575 -0.90000000000000002 0
1.575 -0.78749999999999998 0
1.575 -0.73125000000000007 0
1.575 -0.69451888014501628 0
1.575 0.69451888014501628 0
1.575 0.73125000000000007 0
1.575 0.78749999999999998 0
1.575 0.90000000000000002 0
1.604447489283596 -0.67500000000000004 0
1.604447489283596 0.67500000000000004 0
1.6624999999999999 -0.78749999999999998 0
1.6624999999999999 -0.73125000000000007 0
1.6624999999999999 -0.67500000000000004 0
1.6624999999999999 -0.63652065842088745 0
1.6624999999999999 0.63652065842088745 0
1.6624999999999999 0.67500000000000004 0
1.6624999999999999 0.73125000000000007 0
1.6624999999999999 0.78749999999999998 0
1.6750887463999999 -0.56568542489999996 0
1.6750887463999999 0.56568542489999996 0
1.6862427700966227 -0.57628808091093298 0
1.6862427700966227 0.57628808091093298 0
1.6893100049553889 -0.61875000000000002 0
1.6893100049553889 0.61875000000000002 0
1.6990698973477389 -0.58848113532350588 0
1.6990698973477389 0.58848113532350588 0
1.7138210936865226 -0.60250314789796477 0
1.7138210936865226 0.60250314789796477 0
1.7375113875637815 -0.5625 0
1.7375113875637815 0.5625 0
1.75 -1.3500000000000001 0
1.75 -1.125 0
1.75 -0.90000000000000002 0
1.75 -0.78749999999999998 0
1.75 -0.73125000000000007 0
1.75 -0.67500000000000004 0
1.75 -0.61875000000000002 0
1.75 -0.5625 0
1.75 -0.54141187788067158 0
1.75 0.54141187788067158 0
1.75 0.5625 0
1.75 0.61875000000000002 0
1.75 0.67500000000000004 0
1.75 0.73125000000000007 0
1.75 0.78749999999999998 0
1.75 0.90000000000000002 0
1.75 1.125 0
1.75 1.3500000000000001 0
1.7690674598 -0.40699408949999999 0
1.7690674598 0.40699408949999999 0
1.7708232417707253 -0.50624999999999998 0
1.7708232417707253 0.50624999999999998 0
1.7837588693332378 -0.41162355794612543 0
1.7837588693332378 0.41162355794612543 0
1.8 0 0
1.8006539902964616 -0.41694744665916966 0
1.8006539902964616 0.41694744665916966 0
1.804135095977669 -0.45000000000000001 0
1.804135095977669 0.45000000000000001 0
1.8150432603893285 0 0
1.8200833794041686 -0.42306991867917054 0
1.8200833794041686 0.42306991867917054 0
1.8223117645001743 -0.39374999999999999 0
1.8223117645001743 0.39374999999999999 0
1.826586901243284 -0.33750000000000002 0
1.826586901243284 0.33750000000000002 0
1.830862037986394 -0.28125 0
1.830862037986394 0.28125 0
1.8323430098370563 0 0
1.8351371747295038 -0.22500000000000001 0
1.8351371747295038 0.22500000000000001 0
1.8374999999999999 -0.5625 0
1.8374999999999999 -0.50624999999999998 0
1.8374999999999999 -0.45000000000000001 0
1.8374999999999999 -0.39374999999999999 0
1.8374999999999999 -0.33750000000000002 0
1.8374999999999999 -0.28125 0
1.8374999999999999 -0.22500000000000001 0
1.8374999999999999 -0.1939111882375196 0
1.8374999999999999 0.1939111882375196 0
1.8374999999999999 0.22500000000000001 0
1.8374999999999999 0.28125 0
1.8374999999999999 0.33750000000000002 0
1.8374999999999999 0.39374999999999999 0
1.8374999999999999 0.45000000000000001 0
1.8374999999999999 0.50624999999999998 0
1.8374999999999999 0.5625 0
1.8394123114726137 -0.16875000000000001 0
1.8394123114726137 0.16875000000000001 0
1.8436874482157235 -0.1125 0
1.8436874482157235 0.1125 0
1.8479625849588335 -0.056250000000000001 0
1.8479625849588335 0.056250000000000001 0
1.8522377217019432 0 0
1.9249999999999998 -0.90000000000000002 0
1.9249999999999998 -0.78749999999999998 0
1.9249999999999998 -0.67500000000000004 0
1.9249999999999998 -0.5625 0
1.9249999999999998 -0.50624999999999998 0
1.9249999999999998 -0.45000000000000001 0
1.9249999999999998 -0.39374999999999999 0
1.9249999999999998 -0.33750000000000002 0
1.9249999999999998 -0.28125 0
1.9249999999999998 -0.22500000000000001 0
1.9249999999999998 -0.16875000000000001 0
1.9249999999999998 -0.1125 0
1.9249999999999998 -0.056250000000000001 0
1.9249999999999998 0 0
1.9249999999999998 0.056250000000000001 0
1.9249999999999998 0.1125 0
1.9249999999999998 0.16875000000000001 0
1.9249999999999998 0.22500000000000001 0
1.9249999999999998 0.28125 0
1.9249999999999998 0.33750000000000002 0
1.9249999999999998 0.39374999999999999 0
1.9249999999999998 0.45000000000000001 0
1.9249999999999998 0.50624999999999998 0
1.9249999999999998 0.5625 0
1.9249999999999998 0.67500000000000004 0
1.9249999999999998 0.78749999999999998 0
1.9249999999999998 0.90000000000000002 0
2.0999999999999996 -1.8 0
2.0999999999999996 -1.3500000000000001 0
2.0999999999999996 -1.125 0
2.0999999999999996 -0.90000000000000002 0
2.0999999999999996 -0.78749999999999998 0
2.0999999999999996 -0.67500000000000004 0
2.0999999999999996 -0.5625 0
2.0999999999999996 -0.45000000000000001 0
2.0999999999999996 -0.33750000000000002 0
2.0999999999999996 -0.22500000000000001 0
2.0999999999999996 -0.1125 0
2.0999999999999996 0 0
2.0999999999999996 0.1125 0
2.0999999999999996 0.22500000000000001 0
2.0999999999999996 0.33750000000000002 0
2.0999999999999996 0.45000000000000001 0
2.0999999999999996 0.5625 0
2.0999999999999996 0.67500000000000004 0
2.0999999999999996 0.78749999999999998 0
2.0999999999999996 0.90000000000000002 0
2.0999999999999996 1.125 0
2.0999999999999996 1.3500000000000001 0
2.0999999999999996 1.8 0
2.4499999999999997 -0.90000000000000002 0
2.4499999999999997 -0.67500000000000004 0
2.4499999999999997 -0.45000000000000001 0
2.4499999999999997 -0.22500000000000001 0
2.4499999999999997 0 0
2.4499999999999997 0.22500000000000001 0
2.4499999999999997 0.45000000000000001 0
2.4499999999999997 0.67500000000000004 0
2.4499999999999997 0.90000000000000002 0
2.7999999999999998 -1.8 0
2.7999999999999998 -1.3500000000000001 0
2.7999999999999998 -0.90000000000000002 0
2.7999999999999998 -0.67500000000000004 0
2.7999999999999998 -0.45000000000000001 0
2.7999999999999998 -0.22500000000000001 0
2.7999999999999998 0 0
2.7999999999999998 0.22500000000000001 0
2.7999999999999998 0.45000000000000001 0
2.7999999999999998 0.67500000000000004 0
2.7999999999999998 0.90000000000000002 0
2.7999999999999998 1.3500000000000001 0
2.7999999999999998 1.8 0
CELLS 496 2794
4 0 22 23 1
5 22 181 182 119 23
6 1 23 24 25 13 2
5 181 273 274 231 182
5 273 337 338 307 274
4 23 119 120 24
4 119 182 183 120
5 24 120 121 45 25
6 120 183 184 185 159 121
5 337 399 400 369 338
5 399 489 490 443 400
5 489 640 641 549 490
4 640 672 673 641
6 641 673 674 663 643 642
5 182 231 232 215 183
5 231 274 275 257 232
5 274 307 308 295 275
5 307 338 339 321 308
4 2 13 14 3
5 13 25 26 27 14
4 3 14 15 4
5 14 27 28 29 15
6 10 21 41 42 43 11
4 4 15 16 5
5 15 29 30 31 16
4 11 43 44 12
4 5 16 17 6
5 43 136 195 196 44
5 16 31 32 33 17
5 195 242 285 286 196
5 285 316 347 348 286
5 347 378 411 412 348
5 411 454 503 504 412
6 659 671 682 683 661 660
5 503 566 661 662 504
4 661 683 684 662
5 338 369 370 357 339
5 369 400 401 383 370
5 400 443 444 419 401
5 443 490 491 461 444
4 490 549 550 491
4 549 641 642 550
6 491 550 551 519 493 492
5 550 642 643 613 551
4 183 215 216 184
4 215 232 233 216
5 184 216 217 197 185
5 216 233 234 225 217
4 232 257 258 233
4 257 275 276 258
5 233 258 259 243 234
5 258 276 277 267 259
5 643 663 664 645 644
4 663 674 675 664
5 645 664 665 647 646
4 664 675 676 665
4 275 295 296 276
4 295 308 309 296
5 276 296 297 287 277
5 296 309 310 303 297
5 647 665 666 649 648
4 308 321 322 309
4 665 676 677 666
4 321 339 340 322
5 649 666 667 651 650
5 309 322 323 317 310
4 666 677 678 667
5 322 340 341 329 323
4 6 17 18 7
5 17 33 34 35 18
4 7 18 19 8
5 18 35 36 37 19
4 8 19 20 9
5 19 37 38 39 20
4 9 20 21 10
5 20 39 40 41 21
4 25 45 46 26
4 45 121 122 46
4 26 46 47 27
5 46 122 123 124 47
5 121 159 160 149 122
6 159 185 186 187 177 160
4 27 47 48 28
6 47 124 125 126 80 48
5 28 48 49 50 29
5 41 71 134 135 42
6 134 166 192 193 194 135
4 42 135 136 43
4 135 194 195 136
5 29 50 51 52 30
5 194 224 241 242 195
5 30 52 53 54 31
5 241 266 284 285 242
5 284 302 315 316 285
5 315 328 346 347 316
5 31 54 55 56 32
5 32 56 57 58 33
5 651 667 668 653 652
4 667 678 679 668
5 653 668 669 655 654
4 668 679 680 669
5 655 669 670 657 656
4 669 680 681 670
5 657 670 671 659 658
4 670 681 682 671
5 346 364 377 378 347
5 377 390 410 411 378
5 410 428 453 454 411
5 453 470 502 503 454
6 500 526 564 565 502 501
5 564 639 659 660 565
4 502 565 566 503
4 565 660 661 566
4 339 357 358 340
4 357 370 371 358
5 340 358 359 353 341
5 358 371 372 365 359
4 370 383 384 371
4 383 401 402 384
5 371 384 385 379 372
5 384 402 403 393 385
4 401 419 420 402
4 419 444 445 420
5 402 420 421 413 403
5 420 445 446 437 421
4 444 461 462 445
4 461 491 492 462
5 445 462 463 455 446
5 462 492 493 481 463
6 493 519 520 505 495 494
5 519 551 552 529 520
4 551 613 614 552
4 613 643 644 614
5 552 614 615 554 553
4 614 644 645 615
6 554 615 616 590 556 555
4 615 645 646 616
5 616 646 647 618 617
5 618 647 648 620 619
5 620 648 649 622 621
5 622 649 650 624 623
5 624 650 651 626 625
5 33 58 59 60 34
5 34 60 61 62 35
5 35 62 63 64 36
5 36 64 65 66 37
5 37 66 67 68 38
4 38 68 69 39
6 68 95 129 130 131 69
4 39 69 70 40
5 69 131 132 133 70
4 40 70 71 41
4 70 133 134 71
5 133 156 165 166 134
6 165 180 190 191 192 166
4 122 149 150 123
4 149 160 161 150
4 123 150 151 124
5 162 157 151 150 161
5 178 175 161 160 177
4 188 178 177 187
4 167 162 161 175
4 48 80 81 49
5 127 115 81 80 126
4 49 81 82 50
4 115 108 82 81
5 152 143 125 124 151
3 157 152 151
5 139 137 126 125 143
3 137 127 126
5 192 204 222 223 193
5 222 230 239 240 223
4 193 223 224 194
4 223 240 241 224
5 239 248 264 265 240
4 50 82 83 51
5 264 272 282 283 265
5 105 104 83 82 108
4 240 265 266 241
4 51 83 84 52
4 265 283 284 266
4 104 102 84 83
4 52 84 85 53
4 102 100 85 84
4 53 85 86 54
4 100 97 86 85
5 282 292 300 301 283
5 300 306 313 314 301
4 283 301 302 284
4 301 314 315 302
5 313 320 326 327 314
5 326 332 344 345 327
4 314 327 328 315
4 327 345 346 328
5 87 79 55 54 86
3 97 87 86
4 79 77 56 55
4 77 75 57 56
4 75 73 58 57
4 185 197 198 186
4 197 217 218 198
4 186 198 199 187
6 207 205 199 198 218 219
4 217 225 226 218
4 225 234 235 226
4 227 219 218 226
4 236 227 226 235
4 200 188 187 199
3 205 200 199
4 234 243 244 235
4 243 259 260 244
4 245 236 235 244
5 249 245 244 260 261
4 259 267 268 260
4 267 277 278 268
4 269 261 260 268
4 279 269 268 278
4 277 287 288 278
5 298 293 288 287 297
4 289 279 278 288
3 293 289 288
4 304 298 297 303
5 626 651 652 628 627
4 311 304 303 310
5 628 652 653 630 629
5 630 653 654 632 631
5 632 654 655 634 633
4 318 311 310 317
4 324 318 317 323
4 330 324 323 329
5 333 330 329 341 342
5 634 655 656 636 635
6 559 605 636 637 561 560
4 636 656 657 637
6 498 508 525 526 500 499
5 525 536 563 564 526
5 561 637 638 563 562
4 637 657 658 638
4 563 638 639 564
4 638 658 659 639
5 344 356 362 363 345
5 362 368 375 376 363
4 345 363 364 346
4 363 376 377 364
5 375 382 388 389 376
5 388 398 408 409 389
4 376 389 390 377
4 389 409 410 390
5 408 418 426 427 409
5 426 442 451 452 427
4 409 427 428 410
4 427 452 453 428
5 451 460 468 469 452
5 468 488 500 501 469
4 452 469 470 453
4 469 501 502 470
4 354 342 341 353
4 360 354 353 359
4 366 360 359 365
4 373 366 365 372
4 380 373 372 379
4 386 380 379 385
5 391 386 385 393 394
4 393 403 404 394
3 395 391 394
4 405 395 394 404
4 403 413 414 404
4 413 421 422 414
4 415 405 404 414
4 423 415 414 422
4 421 437 438 422
4 437 446 447 438
5 435 423 422 438 439
4 448 439 438 447
4 446 455 456 447
4 455 463 464 456
4 457 448 447 456
4 465 457 456 464
4 463 481 482 464
4 481 493 494 482
6 477 465 464 482 483 479
4 482 494 495 483
3 484 479 483
4 496 484 483 495
4 506 496 495 505
5 509 506 505 520 521
4 517 509 521 522
4 520 529 530 521
4 529 552 553 530
5 527 522 521 530 531
4 530 553 554 531
3 532 527 531
5 541 532 531 554 555
5 545 541 555 556 547
3 557 547 556
5 569 557 556 590 591
4 590 616 617 591
4 576 569 591 592
4 591 617 618 592
5 579 576 592 593 581
4 592 618 619 593
4 583 581 593 594
4 593 619 620 594
4 585 583 594 595
4 594 620 621 595
4 588 585 595 596
4 595 621 622 596
3 597 588 596
5 606 597 596 622 623
4 608 606 623 624
4 610 608 624 625
4 612 610 625 626
5 73 72 74 59 58
4 74 76 60 59
4 76 78 61 60
5 78 88 89 62 61
3 88 96 89
4 62 89 90 63
4 96 99 90 89
4 63 90 91 64
4 99 101 91 90
4 64 91 92 65
4 101 103 92 91
4 65 92 93 66
5 106 109 93 92 103
4 66 93 94 67
4 109 116 94 93
4 67 94 95 68
5 116 128 129 95 94
3 128 138 129
5 140 144 130 129 138
5 144 153 154 131 130
3 153 158 154
4 131 154 155 132
5 158 163 164 155 154
4 132 155 156 133
4 155 164 165 156
4 168 176 164 163
5 176 179 180 165 164
4 179 189 190 180
4 189 201 202 190
3 201 206 202
4 190 202 203 191
6 208 220 221 203 202 206
4 191 203 204 192
4 203 221 222 204
4 220 228 229 221
4 228 237 238 229
4 221 229 230 222
4 229 238 239 230
4 237 246 247 238
5 250 262 263 247 246
4 238 247 248 239
4 247 263 264 248
4 262 270 271 263
4 270 280 281 271
4 263 271 272 264
4 271 281 282 272
4 280 290 291 281
3 290 294 291
4 281 291 292 282
5 294 299 300 292 291
4 299 305 306 300
4 305 312 313 306
4 312 319 320 313
4 319 325 326 320
4 325 331 332 326
4 331 343 344 332
5 352 355 356 344 343
4 355 361 362 356
4 361 367 368 362
4 367 374 375 368
4 374 381 382 375
4 381 387 388 382
3 392 396 397
4 396 406 407 397
5 387 392 397 398 388
4 397 407 408 398
4 406 416 417 407
4 416 424 425 417
4 407 417 418 408
4 417 425 426 418
5 436 440 441 425 424
4 440 449 450 441
4 425 441 442 426
4 441 450 451 442
3 480 485 486
4 485 497 498 486
4 449 458 459 450
4 458 466 467 459
4 450 459 460 451
4 459 467 468 460
6 478 480 486 487 467 466
4 486 498 499 487
4 467 487 488 468
4 487 499 500 488
4 611 612 626 627
4 609 611 627 628
4 607 609 628 629
3 589 598 599
5 598 607 629 630 599
4 586 589 599 600
4 599 630 631 600
4 584 586 600 601
4 600 631 632 601
4 582 584 601 602
4 601 632 633 602
5 580 582 602 603 577
4 602 633 634 603
3 548 558 559
5 546 548 559 560 542
3 528 533 534
5 533 542 560 561 534
4 570 577 603 604
4 603 634 635 604
5 558 570 604 605 559
4 604 635 636 605
4 518 523 524 510
4 497 507 508 498
5 507 510 524 525 508
5 523 528 534 535 524
4 534 561 562 535
4 524 535 536 525
4 535 562 563 536
4 112 107 113 117
4 117 113 145 147
4 147 145 171 173
4 173 171 211 213
4 213 211 253 255
4 255 253 335 336
4 336 335 431 429
4 429 431 473 471
4 471 473 513 511
4 511 513 539 537
4 537 539 571 567
4 567 571 578 573
4 573 578 572 568
4 568 572 540 538
4 538 540 514 512
4 512 514 474 472
4 472 474 432 430
4 430 432 350 349
4 349 350 254 256
4 256 254 212 214
4 214 212 172 174
4 174 172 146 148
4 148 146 114 118
4 118 114 107 112
4 107 98 110 113
4 113 110 141 145
4 145 141 169 171
4 171 169 209 211
4 211 209 251 253
4 253 251 334 335
4 335 334 433 431
4 431 433 475 473
4 473 475 515 513
4 513 515 543 539
4 539 543 574 571
4 571 574 587 578
4 578 587 575 572
4 572 575 544 540
4 540 544 516 514
4 514 516 476 474
4 474 476 434 432
4 432 434 351 350
4 350 351 252 254
4 254 252 210 212
4 212 210 170 172
4 172 170 142 146
4 146 142 111 114
4 114 111 98 107
13 98 72 73 75 77 79 87 97 100 102 104 105 110
8 110 105 108 115 127 137 139 141
8 141 139 143 152 157 162 167 169
9 169 167 175 178 188 200 205 207 209
8 209 207 219 227 236 245 249 251
15 251 249 261 269 279 289 293 298 304 311 318 324 330 333 334
16 334 333 342 354 360 366 373 380 386 391 395 405 415 423 435 433
8 433 435 439 448 457 465 477 475
9 475 477 479 484 496 506 509 517 515
8 515 517 522 527 532 541 545 543
8 543 545 547 557 569 576 579 574
12 574 579 581 583 585 588 597 606 608 610 612 587
12 587 612 611 609 607 598 589 586 584 582 580 575
8 575 580 577 570 558 548 546 544
8 544 546 542 533 528 523 518 516
9 516 518 510 507 497 485 480 478 476
8 476 478 466 458 449 440 436 434
15 434 436 424 416 406 396 392 387 381 374 367 361 355 352 351
16 351 352 343 331 325 319 312 305 299 294 290 280 270 262 250 252
8 252 250 246 237 228 220 208 210
9 210 208 206 201 189 179 176 168 170
8 170 168 163 158 153 144 140 142
8 142 140 138 128 116 109 106 111
12 111 106 103 101 99 96 88 78 76 74 72 98
CELL_TYPES 496
7
7
7
7
7
7
7
7
7
7
7
7
7
7
7
7
7
7
7
7
7
7
7
7
7
7
7
7
7
7
7
7
7
7
7
7
7
7
7
7
7
7
7
7
7
7
7
7
7
7
7
7
7
7
7
7
7
7
7
7
7
7
7
7
7
7
7
7
7
7
7
7
7
7
7
7
7
7
7
7
7
7
7
7
7
7
7
7
7
7
7
7
7
7
7
7
7
7
7
7
7
7
7
7
7
7
7
7
7
7
7
7
7
7
7
7
7
7
7
7
7
7
7
7
7
7
7
7
7
7
7
7
7
7
7
7
7
7
7
7
7
7
7
7
7
7
7
7
7
7
7
7
7
7
7
7
7
7
7
7
7
7
7
7
7
7
7
7
7
7
7
7
7
7
7
7
7
7
7
7
7
7
7
7
7
7
7
7
7
7
7
7
7
7
7
7
7
7
7
7
7
7
7
7
7
7
7
7
7
7
7
7
7
7
7
7
7
7
7
7
7
7
7
7
7
7
7
7
7
7
7
7
7
7
7
7
7
7
7
7
7
7
7
7
7
7
7
7
7
7
7
7
7
7
7
7
7
7
7
7
7
7
7
7
7
7
7
7
7
7
7
7
7
7
7
7
7
7
7
7
7
7
7
7
7
7
7
7
7
7
7
7
7
7
7
7
7
7
7
7
7
7
7
7
7
7
7
7
7
7
7
7
7
7
7
7
7
7
7
7
7
7
7
7
7
7
7
7
7
7
7
7
7
7
7
7
7
7
7
7
7
7
7
7
7
7
7
7
7
7
7
7
7
7
7
7
7
7
7
7
7
7
7
7
7
7
7
7
7
7
7
7
7
7
7
7
7
7
7
7
7
7
7
7
7
7
7
7
7
7
7
7
7
7
7
7
7
7
7
7
7
7
7
7
7
7
7
7
7
7
7
7
7
7
7
7
7
7
7
7
7
7
7
7
7
7
7
7
7
7
7
7
7
7
7
7
7
7
7
7
7
7
7
7
7
7
7
7
7
7
7
7
7
7
7
7
7
7
7
7
7
7
7
7
7
7
7
7
7
7
7
7
7
7
7
7
7
7
7
7
7
7
7
7
7
7
7
7
7
7
7
7
7
7
7
7
CELL_DATA 496
SCALARS hybrid_kind int 1
LOOKUP_TABLE default
2
2
2
2
2
2
2
2
2
2
2
2
2
2
2
2
2
2
2
2
2
2
2
2
2
2
2
2
2
2
2
2
2
2
2
2
2
2
2
2
2
2
2
2
2
2
2
2
2
2
2
2
2
2
2
2
2
2
2
2
2
2
2
2
2
2
2
2
2
2
2
2
2
2
2
2
2
2
2
2
2
2
2
2
2
2
2
2
2
2
2
2
2
2
2
2
2
2
2
2
2
2
2
2
2
2
2
2
2
2
2
2
2
2
2
2
2
2
2
2
2
2
2
2
2
2
2
2
2
2
2
2
2
2
2
2
2
2
2
2
2
2
2
2
2
2
2
2
2
2
2
2
2
2
2
2
2
2
1
1
1
1
2
1
2
1
1
1
1
1
2
2
2
2
2
2
2
1
2
2
2
1
2
1
2
1
2
2
2
2
2
2
2
2
1
1
1
1
1
2
2
2
1
2
2
1
1
1
1
2
2
1
1
2
2
1
1
2
1
1
1
1
2
1
2
2
2
1
1
1
1
2
2
2
2
2
2
2
2
2
2
2
2
2
2
2
2
2
2
2
2
2
2
2
2
2
1
1
1
1
1
1
1
2
1
1
2
2
1
1
2
2
1
1
2
2
1
1
2
2
1
2
1
1
1
1
1
2
2
1
2
1
1
1
1
1
2
1
2
1
2
1
2
1
2
1
2
1
1
1
1
1
1
1
1
1
1
2
1
2
1
2
1
2
1
2
1
2
1
1
1
1
1
2
1
2
2
1
1
1
1
1
2
1
2
2
1
1
2
2
1
1
2
2
1
1
2
2
1
1
2
1
1
1
1
1
1
1
1
1
1
1
1
1
1
1
1
2
1
1
2
2
1
1
2
2
1
1
1
1
2
2
1
2
2
2
1
1
1
1
1
1
2
1
2
1
2
1
2
1
1
1
1
1
2
1
2
1
1
1
1
2
2
2
0
0
0
0
0
0
0
0
0
0
0
0
0
0
0
0
0
0
0
0
0
0
0
0
0
0
0
0
0
0
0
0
0
0
0
0
0
0
0
0
0
0
0
0
0
0
0
0
0
0
0
0
0
0
0
0
0
0
0
0
0
0
0
0
0
0
0
0
0
0
0
0
SCALARS layer_index int 1
LOOKUP_TABLE default
-1
-1
-1
-1
-1
-1
-1
-1
-1
-1
-1
-1
-1
-1
-1
-1
-1
-1
-1
-1
-1
-1
-1
-1
-1
-1
-1
-1
-1
-1
-1
-1
-1
-1
-1
-1
-1
-1
-1
-1
-1
-1
-1
-1
-1
-1
-1
-1
-1
-1
-1
-1
-1
-1
-1
-1
-1
-1
-1
-1
-1
-1
-1
-1
-1
-1
-1
-1
-1
-1
-1
-1
-1
-1
-1
-1
-1
-1
-1
-1
-1
-1
-1
-1
-1
-1
-1
-1
-1
-1
-1
-1
-1
-1
-1
-1
-1
-1
-1
-1
-1
-1
-1
-1
-1
-1
-1
-1
-1
-1
-1
-1
-1
-1
-1
-1
-1
-1
-1
-1
-1
-1
-1
-1
-1
-1
-1
-1
-1
-1
-1
-1
-1
-1
-1
-1
-1
-1
-1
-1
-1
-1
-1
-1
-1
-1
-1
-1
-1
-1
-1
-1
-1
-1
-1
-1
-1
-1
-1
-1
-1
-1
-1
-1
-1
-1
-1
-1
-1
-1
-1
-1
-1
-1
-1
-1
-1
-1
-1
-1
-1
-1
-1
-1
-1
-1
-1
-1
-1
-1
-1
-1
-1
-1
-1
-1
-1
-1
-1
-1
-1
-1
-1
-1
-1
-1
-1
-1
-1
-1
-1
-1
-1
-1
-1
-1
-1
-1
-1
-1
-1
-1
-1
-1
-1
-1
-1
-1
-1
-1
-1
-1
-1
-1
-1
-1
-1
-1
-1
-1
-1
-1
-1
-1
-1
-1
-1
-1
-1
-1
-1
-1
-1
-1
-1
-1
-1
-1
-1
-1
-1
-1
-1
-1
-1
-1
-1
-1
-1
-1
-1
-1
-1
-1
-1
-1
-1
-1
-1
-1
-1
-1
-1
-1
-1
-1
-1
-1
-1
-1
-1
-1
-1
-1
-1
-1
-1
-1
-1
-1
-1
-1
-1
-1
-1
-1
-1
-1
-1
-1
-1
-1
-1
-1
-1
-1
-1
-1
-1
-1
-1
-1
-1
-1
-1
-1
-1
-1
-1
-1
-1
-1
-1
-1
-1
-1
-1
-1
-1
-1
-1
-1
-1
-1
-1
-1
-1
-1
-1
-1
-1
-1
-1
-1
-1
-1
-1
-1
-1
-1
-1
-1
-1
-1
-1
-1
-1
-1
-1
-1
-1
-1
-1
-1
-1
-1
-1
-1
-1
-1
-1
-1
-1
-1
-1
-1
-1
-1
-1
-1
-1
-1
-1
-1
-1
-1
-1
-1
-1
-1
-1
-1
-1
-1
-1
-1
-1
-1
-1
-1
-1
-1
-1
-1
-1
-1
-1
-1
-1
-1
-1
-1
-1
-1
0
0
0
0
0
0
0
0
0
0
0
0
0
0
0
0
0
0
0
0
0
0
0
0
1
1
1
1
1
1
1
1
1
1
1
1
1
1
1
1
1
1
1
1
1
1
1
1
2
2
2
2
2
2
2
2
2
2
2
2
2
2
2
2
2
2
2
2
2
2
2
2
SCALARS geometry_area double 1
LOOKUP_TABLE default
0.31500000000000006
0.31499999999999984
0.31500000000000011
0.31499999999999995
0.31499999999999995
0.078749999999999945
0.078750000000000056
0.078749999999999917
0.078750000000000014
0.31499999999999995
0.31499999999999995
0.31499999999999984
0.31500000000000006
0.31500000000000011
0.078750000000000056
0.078750000000000001
0.078750000000000028
0.078750000000000028
0.078750000000000014
0.078750000000000014
0.078750000000000028
0.078750000000000028
0.31500000000000011
0.078750000000000028
0.078750000000000028
0.31500000000000006
0.078750000000000028
0.31499999999999984
0.078750000000000028
0.31499999999999995
0.31499999999999995
0.31499999999999995
0.31499999999999995
0.31500000000000011
0.31499999999999984
0.31500000000000006
0.078750000000000028
0.078750000000000028
0.078750000000000001
0.078750000000000056
0.078750000000000056
0.078749999999999945
0.078750000000000014
0.078749999999999917
0.019687500000000014
0.019687500000000014
0.019687499999999993
0.019687499999999993
0.019687499999999986
0.019687500000000014
0.019687499999999969
0.019687499999999993
0.078750000000000014
0.078750000000000014
0.078750000000000028
0.078750000000000028
0.019687500000000014
0.0196875
0.019687499999999993
0.019687499999999979
0.078750000000000028
0.019687500000000007
0.078750000000000028
0.019687500000000007
0.078750000000000028
0.019687499999999986
0.078750000000000028
0.019687499999999986
0.078750000000000028
0.078750000000000028
0.078750000000000028
0.078750000000000028
0.078750000000000028
0.078750000000000028
0.078750000000000014
0.078750000000000014
0.019687499999999986
0.019687499999999986
0.019687499999999969
0.019687499999999969
0.019687500000000014
0.019687500000000014
0.019687499999999986
0.019687499999999986
0.019687499999999979
0.078749999999999917
0.078750000000000014
0.078749999999999945
0.078750000000000056
0.019687499999999979
0.078750000000000056
0.019687499999999983
0.078750000000000001
0.078750000000000028
0.078750000000000028
0.019687499999999979
0.019687499999999979
0.078750000000000028
0.078750000000000028
0.078750000000000028
0.078750000000000028
0.078750000000000028
0.078750000000000028
0.078750000000000014
0.078750000000000014
0.078750000000000028
0.078750000000000028
0.078750000000000001
0.078750000000000056
0.078750000000000014
0.078749999999999917
0.078750000000000056
0.078749999999999945
0.019687500000000007
0.019687500000000007
0.019687499999999986
0.019687499999999986
0.0196875
0.019687500000000014
0.019687499999999979
0.019687499999999993
0.019687500000000014
0.019687499999999986
0.019687499999999993
0.019687499999999969
0.019687500000000014
0.019687500000000014
0.019687499999999993
0.019687499999999993
0.019687500000000014
0.019687500000000014
0.019687499999999986
0.019687499999999986
0.019687499999999969
0.019687499999999969
0.019687499999999986
0.019687499999999986
0.019687499999999979
0.019687499999999979
0.019687499999999983
0.019687499999999979
0.019687499999999979
0.019687499999999979
0.019687499999999979
0.019687499999999983
0.019687499999999979
0.019687499999999979
0.019687499999999986
0.019687499999999986
0.019687499999999969
0.019687499999999969
0.019687499999999986
0.019687499999999986
0.019687500000000014
0.019687500000000014
0.004921875
0.004921874999999987
0.0049218750000000096
0.0046344839930509158
0.0049001256531542112
0.0034660259259951072
0.0011260516380654046
0.0049218749999999966
0.0045557828578890311
0.0049218749999999922
0.0028136717508264186
0.0046836592798377508
0.0011169111946907986
0.0017603343320112866
0.00013168069207797231
0.019687499999999993
0.019687499999999993
0.019687500000000014
0.019687500000000014
0.019687499999999969
0.0049218749999999966
0.019687499999999993
0.0011617611585401338
0.019687499999999986
0.0049218749999999922
0.019687500000000014
0.0007341000302017401
0.0049218749999999966
0.00049362359366046053
0.0049218749999999948
0.0002531471571191802
0.019687499999999993
0.019687499999999979
0.019687500000000014
0.0196875
0.019687499999999986
0.019687499999999986
0.019687500000000007
0.019687500000000007
0.0048978169951361976
3.6728725441698362e-05
0.0046940692840366158
0.0044535928474953353
0.0042131164109540549
0.0049218749999999966
0.0049218750000000096
0.0049218749999999966
0.0041322501511945357
0.0049218749999999966
0.0049218750000000096
0.0031600480807253825
0.0022644207266243124
0.0011843999889411152
4.1633212476394913e-07
0.0049218749999999966
0.0049218749999999966
0.0013687933725232311
0.00057260016881900504
0.0049218750000000035
0.0049218750000000035
0.0003619036738590043
0.00024696172222238029
0.0049218750000000035
0.0049147774733849289
0.00013201977058575139
2.4175345564196366e-05
0.0048240108673124954
0.019687499999999979
0.0047090689156758722
0.019687499999999979
0.019687499999999983
0.019687499999999979
0.0045941269640392439
0.0044791850124026172
0.0043642430607659898
0.0042493011091293692
0.019687499999999979
0.019687499999999986
0.019687499999999986
0.019687500000000014
0.019687500000000014
0.019687499999999969
0.019687499999999969
0.019687499999999986
0.019687499999999986
0.019687499999999986
0.019687499999999986
0.019687500000000007
0.019687500000000007
0.019687499999999979
0.019687499999999993
0.0196875
0.019687500000000014
0.019687499999999993
0.019687499999999969
0.019687500000000014
0.019687499999999986
0.019687499999999993
0.019687499999999993
0.019687500000000014
0.019687500000000014
0.0042493011702262121
0.0043642431157375344
0.0044791850612488559
0.0045941270067601757
0.0047090689522714937
0.00482401089778281
0.0049147774826383593
0.0049218750000000035
2.417536065578028e-05
0.00013201978880545768
0.0049218750000000035
0.0049218750000000035
0.00024696173431678009
0.00036190367982810246
0.0049218749999999966
0.0049218749999999966
0.00057260016950575702
0.0013687933725232263
0.0049218750000000096
0.0049218749999999966
0.0022644207266243124
0.0031600480807253825
0.0049218750000000096
0.0049218749999999966
0.0041322501511945357
0.0049218749999999966
4.1633212476394913e-07
0.001184399988941115
0.0034660259259951072
0.0049001256531542112
0.0011260516380654046
0.004921874999999987
0.004921875
0.0046344839930509158
0.0049218750000000096
0.0011169111946907986
0.0046836592798377517
0.0017603343320112821
0.00013168069207796927
0.0045557828578890267
0.0049218749999999966
0.0028136717508264056
0.0049218749999999922
0.001161761158416765
0.0049218749999999966
0.00073410002596522878
0.0049218749999999922
0.00049362358416529968
0.0049218749999999966
0.00025314714236536955
0.0049218749999999948
3.6728715031043148e-05
0.004897816985534393
0.0046940692587655059
0.0044535928169655743
0.0042131163751656462
0.0042131163393772202
0.004453592786435796
0.0046940692334943822
0.0048978169759325823
3.6728704620383787e-05
0.0049218749999999948
0.00025314712761155263
0.0049218749999999966
0.00049362357467013873
0.0049218749999999922
0.00073410002172872397
0.0049218749999999966
0.0011617611582934121
0.0049218749999999922
0.0028136717508264186
0.0049218749999999966
0.0045557828578890311
0.00013168069207797231
0.0017603343320112864
0.0046836592798377517
0.0011169111946907986
0.0049218750000000096
0.0046344839930509158
0.004921875
0.004921874999999987
0.0011260516380654046
0.0049001256531542112
0.0034660259259951072
0.001184399988941115
4.1633212476394913e-07
0.0049218749999999966
0.0041322501511945392
0.0049218749999999966
0.0049218750000000096
0.003160048080725392
0.0022644207266243172
0.0049218749999999966
0.0049218750000000096
0.0013687933725232311
0.00057260016936081372
0.0049218749999999966
0.0049218749999999966
0.00036190367856823525
0.00024696173176407476
0.0049218750000000035
0.0049218750000000035
0.0001320197849599095
2.4175357470468162e-05
0.0049218750000000035
0.004914777480685281
0.0048240108913515812
0.0047090689445474267
0.0045941269977432609
0.0044791850509390933
0.0043642431041349336
0.0042493011573307739
0.0042493011220248048
0.0043642430723685854
0.0044791850227123746
0.0045941269730561691
0.004709068923399954
0.0048240108737437337
2.4175348749512841e-05
0.00013201977443130927
0.0049147774753380115
0.0049218750000000035
0.00024696172477509527
0.00036190367511888127
0.0049218750000000035
0.0049218750000000035
0.00057260016896395832
0.0013687933725232311
0.0049218749999999966
0.0049218749999999966
4.1633212476394913e-07
0.0011843999889411152
0.0022644207266243124
0.0031600480807253825
0.0049218750000000096
0.0049218749999999966
0.0041322501511945357
0.0049218749999999966
0.0049218750000000096
0.0049218749999999966
0.0042131163751656445
0.0044535928169655761
0.0046940692587655059
3.6728715031043148e-05
0.0048978169855343921
0.00025314714236536955
0.0049218749999999948
0.00049362358416529968
0.0049218749999999966
0.00073410002596522878
0.0049218749999999922
0.001161761158416765
0.0049218749999999966
0.00013168069207796927
0.0017603343320112823
0.0011169111946907986
0.0046836592798377508
0.0028136717508264056
0.0049218749999999922
0.0045557828578890259
0.0049218749999999966
0.0011260516380654046
0.0034660259259951072
0.0049001256531542112
0.0046344839930509158
0.0049218750000000096
0.004921874999999987
0.004921875
0.0061573393481298821
0.0028185362665514935
0.0029484511161666895
0.0037958339413131847
0.0054078299707586725
0.013744997797119997
0.013744998529082618
0.0054078299708037771
0.0037958339413131856
0.0029484511161666886
0.002818536266453473
0.006157339214915767
0.006157339214915767
0.002818536266453473
0.0029484511161666895
0.0037958339413131847
0.0054078299707681823
0.013744997951612086
0.013744998374590478
0.0054078299707942465
0.0037958339413131856
0.0029484511161666886
0.002818536266355468
0.0061573390817016953
0.0071670355431004591
0.0033700483598722193
0.00349592595410718
0.0044307849229648609
0.0062572701460208401
0.015825043425979866
0.015825044267848455
0.0062572701461842571
0.0044307849229648609
0.0034959259541071817
0.0033700483595171548
0.0071670353896619091
0.0071670353896619091
0.0033700483595171544
0.00349592595410718
0.0044307849229648609
0.006257270146055335
0.015825043603669348
0.015825044090158967
0.0062572701461497612
0.0044307849229648609
0.0034959259541071817
0.0033700483591620574
0.0071670352362232679
0.0083559518992287769
0.0040458032253925264
0.0041594513302299959
0.0051821267765359133
0.0072464670292589827
0.018222996346040358
0.018222997314336686
0.0072464670295943924
0.0051821267765359141
0.0041594513302299959
0.0040458032246636876
0.0083559517224538662
0.0083559517224538644
0.0040458032246636876
0.0041594513302299959
0.0051821267765359133
0.0072464670293297777
0.018222996550414379
0.018222997109962662
0.0072464670295235983
0.0051821267765359141
0.0041594513302299959
0.0040458032239348452
0.0083559515456790492
