# vtk DataFile Version 3.0
cartmesh2d deterministic topology export
ASCII
DATASET UNSTRUCTURED_GRID
POINTS 991 double
-2.7999999999999998 -1.8 0
-2.7999999999999998 -1.3500000000000001 0
-2.7999999999999998 -1.125 0
-2.7999999999999998 -0.90000000000000002 0
-2.7999999999999998 -0.67500000000000004 0
-2.7999999999999998 -0.5625 0
-2.7999999999999998 -0.45000000000000001 0
-2.7999999999999998 -0.33750000000000002 0
-2.7999999999999998 -0.22500000000000001 0
-2.7999999999999998 -0.1125 0
-2.7999999999999998 0 0
-2.7999999999999998 0.1125 0
-2.7999999999999998 0.22500000000000001 0
-2.7999999999999998 0.33750000000000002 0
-2.7999999999999998 0.45000000000000001 0
-2.7999999999999998 0.5625 0
-2.7999999999999998 0.67500000000000004 0
-2.7999999999999998 0.90000000000000002 0
-2.7999999999999998 1.125 0
-2.7999999999999998 1.3500000000000001 0
-2.7999999999999998 1.8 0
-2.625 -0.67500000000000004 0
-2.625 -0.5625 0
-2.625 -0.45000000000000001 0
-2.625 -0.33750000000000002 0
-2.625 -0.22500000000000001 0
-2.625 -0.1125 0
-2.625 0 0
-2.625 0.1125 0
-2.625 0.22500000000000001 0
-2.625 0.33750000000000002 0
-2.625 0.45000000000000001 0
-2.625 0.5625 0
-2.625 0.67500000000000004 0
-2.4499999999999997 -1.3500000000000001 0
-2.4499999999999997 -1.125 0
-2.4499999999999997 -1.0125 0
-2.4499999999999997 -0.90000000000000002 0
-2.4499999999999997 -0.78749999999999998 0
-2.4499999999999997 -0.67500000000000004 0
-2.4499999999999997 -0.61875000000000002 0
-2.4499999999999997 -0.5625 0
-2.4499999999999997 -0.50624999999999998 0
-2.4499999999999997 -0.45000000000000001 0
-2.4499999999999997 -0.39374999999999999 0
-2.4499999999999997 -0.33750000000000002 0
-2.4499999999999997 -0.28125 0
-2.4499999999999997 -0.22500000000000001 0
-2.4499999999999997 -0.16875000000000001 0
-2.4499999999999997 -0.1125 0
-2.4499999999999997 -0.056250000000000001 0
-2.4499999999999997 0 0
-2.4499999999999997 0.056250000000000001 0
-2.4499999999999997 0.1125 0
-2.4499999999999997 0.16875000000000001 0
-2.4499999999999997 0.22500000000000001 0
-2.4499999999999997 0.28125 0
-2.4499999999999997 0.33750000000000002 0
-2.4499999999999997 0.39374999999999999 0
-2.4499999999999997 0.45000000000000001 0
-2.4499999999999997 0.50624999999999998 0
-2.4499999999999997 0.5625 0
-2.4499999999999997 0.61875000000000002 0
-2.4499999999999997 0.67500000000000004 0
-2.4499999999999997 0.78749999999999998 0
-2.4499999999999997 0.90000000000000002 0
-2.4499999999999997 1.0125 0
-2.4499999999999997 1.125 0
-2.4499999999999997 1.3500000000000001 0
-2.3624999999999998 -0.67500000000000004 0
-2.3624999999999998 -0.61875000000000002 0
-2.3624999999999998 -0.5625 0
-2.3624999999999998 -0.50624999999999998 0
-2.3624999999999998 -0.45000000000000001 0
-2.3624999999999998 -0.39374999999999999 0
-2.3624999999999998 -0.33750000000000002 0
-2.3624999999999998 -0.28125 0
-2.3624999999999998 -0.22500000000000001 0
-2.3624999999999998 -0.16875000000000001 0
-2.3624999999999998 -0.1125 0
-2.3624999999999998 -0.056250000000000001 0
-2.3624999999999998 0 0
-2.3624999999999998 0.056250000000000001 0
-2.3624999999999998 0.1125 0
-2.3624999999999998 0.16875000000000001 0
-2.3624999999999998 0.22500000000000001 0
-2.3624999999999998 0.28125 0
-2.3624999999999998 0.33750000000000002 0
-2.3624999999999998 0.39374999999999999 0
-2.3624999999999998 0.45000000000000001 0
-2.3624999999999998 0.50624999999999998 0
-2.3624999999999998 0.5625 0
-2.3624999999999998 0.61875000000000002 0
-2.3624999999999998 0.67500000000000004 0
-2.3208352828295302 9.7606535359888923e-09 0
-2.320835282087697 0 0
-2.3165601467347661 0.056250000000000001 0
-2.3165601454380735 -0.056250000000000001 0
-2.3122850098981691 0.1125 0
-2.3122850087884506 -0.1125 0
-2.3100566587709217 -0.14181945777617005 0
-2.3100566586556375 0.14181947261181874 0
-2.3080098730615717 0.16875000000000001 0
-2.3080098721388271 -0.16875000000000001 0
-2.3037347362249743 0.22500000000000001 0
-2.3037347354892037 -0.22500000000000001 0
-2.2994595993883769 0.28125 0
-2.2994595988395807 -0.28125 0
-2.2992780347123132 -0.28363892531299362 0
-2.2992780344817447 0.28363893546298391 0
-2.2951844625517794 0.33750000000000002 0
-2.2951844621899573 -0.33750000000000002 0
-2.2909093257151825 0.39374999999999999 0
-2.2909093255403339 -0.39374999999999999 0
-2.2884994106537047 -0.42545839284981724 0
-2.2884994103078524 0.42545839831414911 0
-2.2866341888907109 -0.45000000000000001 0
-2.2866341888785851 0.45000000000000001 0
-2.2823590522410875 -0.50624999999999998 0
-2.2823590520419876 0.50624999999999998 0
-2.2780839155914645 -0.5625 0
-2.2780839152053907 0.5625 0
-2.2777207865950961 -0.56727786038664085 0
-2.2777207861339597 0.56727786116531431 0
-2.2749999999999999 -1.125 0
-2.2749999999999999 -1.0125 0
-2.2749999999999999 -0.90000000000000002 0
-2.2749999999999999 -0.84375 0
-2.2749999999999999 -0.78749999999999998 0
-2.2749999999999999 -0.73125000000000007 0
-2.2749999999999999 -0.67500000000000004 0
-2.2749999999999999 -0.61875000000000002 0
-2.2749999999999999 -0.57187214820452714 0
-2.2749999999999999 0.57187214820453103 0
-2.2749999999999999 0.61875000000000002 0
-2.2749999999999999 0.67500000000000004 0
-2.2749999999999999 0.73125000000000007 0
-2.2749999999999999 0.78749999999999998 0
-2.2749999999999999 0.84375 0
-2.2749999999999999 0.90000000000000002 0
-2.2749999999999999 1.0125 0
-2.2749999999999999 1.125 0
-2.2472384326303043 0.61875000000000002 0
-2.2472384326303021 -0.61875000000000002 0
-2.2236078229054028 -0.65865236594961252 0
-2.2236078225595506 0.65865236653361769 0
-2.2139265784233606 0.67500000000000004 0
-2.2139265784233588 -0.67500000000000004 0
-2.1875 -0.90000000000000002 0
-2.1875 -0.84375 0
-2.1875 -0.78749999999999998 0
-2.1875 -0.73125000000000007 0
-2.1875 0.73125000000000007 0
-2.1875 0.78749999999999998 0
-2.1875 0.84375 0
-2.1875 0.90000000000000002 0
-2.1806147242164164 0.73125000000000007 0
-2.1806147242164156 -0.73125000000000007 0
-2.1694948592157095 -0.75002687151258429 0
-2.1694948589851411 0.75002687190192097 0
-2.1646360957870012 9.5025424074255396e-09 0
-2.1473028700094727 0.78749999999999998 0
-2.1473028700094718 -0.78749999999999998 0
-2.1449055399964152 -0.25960426848429602 0
-2.1449055398349941 0.25960427825941257 0
-2.1251749842058287 -0.51920854647113446 0
-2.1251749838829874 0.51920854701628272 0
-2.1153818955260157 -0.84140137707555596 0
-2.1153818954107315 0.84140137727022435 0
-2.113991015802529 0.84375 0
-2.1139910158025286 -0.84375 0
-2.0999999999999996 -1.8 0
-2.0999999999999996 -1.575 0
-2.0999999999999996 -1.3500000000000001 0
-2.0999999999999996 -1.2375 0
-2.0999999999999996 -1.125 0
-2.0999999999999996 -1.0687500000000001 0
-2.0999999999999996 -1.0125 0
-2.0999999999999996 -0.95625000000000004 0
-2.0999999999999996 -0.90000000000000002 0
-2.0999999999999996 0.90000000000000002 0
-2.0999999999999996 0.95625000000000004 0
-2.0999999999999996 1.0125 0
-2.0999999999999996 1.0687500000000001 0
-2.0999999999999996 1.125 0
-2.0999999999999996 1.2375 0
-2.0999999999999996 1.3500000000000001 0
-2.0999999999999996 1.575 0
-2.0999999999999996 1.8 0
-2.0806791615955849 -0.90000000000000002 0
-2.0806791615955849 0.90000000000000002 0
-2.061268931836322 -0.93277588263852773 0
-2.061268931836322 0.93277588263852773 0
-2.035313984996109 -0.67094675876473731 0
-2.0353139848346884 0.67094675903731138 0
-2.0258543069035313 -0.95625000000000004 0
-2.0258543069035313 0.95625000000000004 0
-2.0124999999999997 -1.125 0
-2.0124999999999997 -1.0687500000000001 0
-2.0124999999999997 -1.0125 0
-2.0124999999999997 -0.96510172631729252 0
-2.0124999999999997 0.96510172631729252 0
-2.0124999999999997 1.0125 0
-2.0124999999999997 1.0687500000000001 0
-2.0124999999999997 1.125 0
-2.0084369087444722 9.244431278862187e-09 0
-1.9799681661948791 -0.9866650235758283 0
-1.9799681661948791 0.9866650235758283 0
-1.9726291818165613 -0.47113923255562801 0
-1.9726291816320154 0.47113923286725112 0
-1.9454529857863889 -0.82268497105834004 0
-1.9454529857863889 0.82268497105834004 0
-1.9409917912317383 -1.0125 0
-1.9409917912317383 1.0125 0
-1.9249999999999998 -1.3500000000000001 0
-1.9249999999999998 -1.2375 0
-1.9249999999999998 -1.1812500000000001 0
-1.9249999999999998 -1.125 0
-1.9249999999999998 -1.0687500000000001 0
-1.9249999999999998 -1.0230999480414209 0
-1.9249999999999998 1.0230999480414209 0
-1.9249999999999998 1.0687500000000001 0
-1.9249999999999998 1.125 0
-1.9249999999999998 1.1812500000000001 0
-1.9249999999999998 1.2375 0
-1.9249999999999998 1.3500000000000001 0
-1.8986674005534363 -1.0405541645131291 0
-1.8986674005534363 1.0405541645131291 0
-1.8561292755599448 -1.0687500000000001 0
-1.8561292755599448 1.0687500000000001 0
-1.8522377217019435 8.9863201502988344e-09 0
-1.8374999999999999 -1.2375 0
-1.8374999999999999 -1.1812500000000001 0
-1.8374999999999999 -1.125 0
-1.8374999999999999 -1.0810981697655495 0
-1.8374999999999999 1.0810981697655495 0
-1.8374999999999999 1.125 0
-1.8374999999999999 1.1812500000000001 0
-1.8374999999999999 1.2375 0
-1.8323430098370563 8.9534451614521216e-09 0
-1.8296370397364559 -0.71259405947815246 0
-1.8296370397364559 0.71259405947815246 0
-1.8200833794272937 -0.42306991864012161 0
-1.8200833793810434 0.42306991871821947 0
-1.8173666349119932 -1.0944433054504299 0
-1.8173666349119932 1.0944433054504299 0
-1.8150432603893285 8.9248582146288942e-09 0
-1.8074025554407009 -0.91418987926748962 0
-1.8074025554407009 0.91418987926748962 0
-1.8006539903107794 -0.4169474466349925 0
-1.8006539902821435 0.41694744668334682 0
-1.8 8.9000000000000003e-09 0
-1.7837588693398974 -0.4116235579348802 0
-1.7837588693265785 0.4116235579573706 0
-1.7712667598881515 -1.125 0
-1.7712667598881515 1.125 0
-1.7690674598 -0.40699408949999999 0
-1.7690674598 0.40699408949999999 0
-1.75 -1.8 0
-1.75 -1.575 0
-1.75 -1.4625000000000001 0
-1.75 -1.3500000000000001 0
-1.75 -1.2375 0
-1.75 -1.1812500000000001 0
-1.75 -1.1390963914896779 0
-1.75 1.1390963914896779 0
-1.75 1.1812500000000001 0
-1.75 1.2375 0
-1.75 1.3500000000000001 0
-1.75 1.4625000000000001 0
-1.75 1.575 0
-1.75 1.8 0
-1.7360658692705502 -1.1483324463877307 0
-1.7360658692705502 1.1483324463877307 0
-1.7138210936865226 -0.60250314789796477 0
-1.7138210936865226 0.60250314789796477 0
-1.6990698973477389 -0.58848113532350588 0
-1.6990698973477389 0.58848113532350588 0
-1.6862427700966227 -0.57628808091093298 0
-1.6862427700966227 0.57628808091093298 0
-1.6750887463999999 -0.56568542489999996 0
-1.6750887463999999 0.56568542489999996 0
-1.6693521250950127 -1.0056947874766391 0
-1.6693521250950127 1.0056947874766391 0
-1.6624999999999999 -1.2375 0
-1.6624999999999999 -1.1812500000000001 0
-1.6624999999999999 -1.1702556849718442 0
-1.6624999999999999 1.1702556849718442 0
-1.6624999999999999 1.1812500000000001 0
-1.6624999999999999 1.2375 0
-1.6465266731174673 -1.1750158687323313 0
-1.6465266731174673 1.1750158687323313 0
-1.6026383809194753 -0.8630571285655475 0
-1.6026383809194753 0.8630571285655475 0
-1.575 -1.575 0
-1.575 -1.4625000000000001 0
-1.575 -1.3500000000000001 0
-1.575 -1.29375 0
-1.575 -1.2375 0
-1.575 -1.1963314099667481 0
-1.575 1.1963314099667481 0
-1.575 1.2375 0
-1.575 1.29375 0
-1.575 1.3500000000000001 0
-1.575 1.4625000000000001 0
-1.575 1.575 0
-1.5569874769643848 -1.201699291076932 0
-1.5569874769643848 1.201699291076932 0
-1.5359246367439379 -0.72041946965445591 0
-1.5359246367439379 0.72041946965445591 0
-1.5274274688461387 -0.70225205675783453 0
-1.5274274688461387 0.70225205675783453 0
-1.5200386271958786 -0.68645430641294625 0
-1.5200386271958786 0.68645430641294625 0
-1.5136135475000001 -0.67271713219999996 0
-1.5136135475000001 0.67271713219999996 0
-1.5078682597393569 -1.0538183173523894 0
-1.5078682597393569 1.0538183173523894 0
-1.4874999999999998 -1.3500000000000001 0
-1.4874999999999998 -1.29375 0
-1.4874999999999998 -1.2375 0
-1.4874999999999998 -1.2224071349616523 0
-1.4874999999999998 1.2224071349616523 0
-1.4874999999999998 1.2375 0
-1.4874999999999998 1.29375 0
-1.4874999999999998 1.3500000000000001 0
-1.4674482808113019 -1.2283827134215326 0
-1.4674482808113019 1.2283827134215326 0
-1.3999999999999999 -1.8 0
-1.3999999999999999 -1.575 0
-1.3999999999999999 -1.4625000000000001 0
-1.3999999999999999 -1.3500000000000001 0
-1.3999999999999999 -1.29375 0
-1.3999999999999999 -1.2484828599565563 0
-1.3999999999999999 1.2484828599565563 0
-1.3999999999999999 1.29375 0
-1.3999999999999999 1.3500000000000001 0
-1.3999999999999999 1.4625000000000001 0
-1.3999999999999999 1.575 0
-1.3999999999999999 1.8 0
-1.3779090846582189 -1.2550661357661332 0
-1.3779090846582189 1.2550661357661332 0
-1.3463843943837006 -1.1019418472281397 0
-1.3463843943837006 1.1019418472281397 0
-1.3148597041091825 -0.94881755869014595 0
-1.3148597041091825 0.94881755869014595 0
-1.3125 -1.3500000000000001 0
-1.3125 -1.29375 0
-1.3125 -1.2627176839034864 0
-1.3125 1.2627176839034866 0
-1.3125 1.29375 0
-1.3125 1.3500000000000001 0
-1.2833350138346642 -0.7956932701521523 0
-1.2833350138346642 0.7956932701521523 0
-1.2793197904425566 -0.77619020065698408 0
-1.2793197904425566 0.77619020065698408 0
-1.275828291840724 -0.7592310097916205 0
-1.275828291840724 0.7592310097916205 0
-1.2727922061000001 -0.74448388730000004 0
-1.2727922061000001 0.74448388730000004 0
-1.2709049909250512 -1.2675834638769206 0
-1.2709049908842589 1.2675834638816925 0
-1.2249999999999999 -1.575 0
-1.2249999999999999 -1.4625000000000001 0
-1.2249999999999999 -1.3500000000000001 0
-1.2249999999999999 -1.29375 0
-1.2249999999999999 -1.2729534250932126 0
-1.2249999999999999 1.2729534250932126 0
-1.2249999999999999 1.29375 0
-1.2249999999999999 1.3500000000000001 0
-1.2249999999999999 1.4625000000000001 0
-1.2249999999999999 1.575 0
-1.1639008971918836 -1.2801007919877083 0
-1.1639008971102991 1.2801007919972518 0
-1.1430168361066337 -1.1257317637185469 0
-1.1430168360495168 1.1257317637252284 0
-1.1375 -1.3500000000000001 0
-1.1375 -1.29375 0
-1.1375 -1.2831891662829391 0
-1.1375 1.2831891662829387 0
-1.1375 1.29375 0
-1.1375 1.3500000000000001 0
-1.0568968034587161 -1.2926181200984956 0
-1.0568968033363388 1.2926181201128109 0
-1.0499999999999998 -1.8 0
-1.0499999999999998 -1.575 0
-1.0499999999999998 -1.4625000000000001 0
-1.0499999999999998 -1.3500000000000001 0
-1.0499999999999998 -1.2934249074726651 0
-1.0499999999999998 1.2934249074726647 0
-1.0499999999999998 1.3500000000000001 0
-1.0499999999999998 1.4625000000000001 0
-1.0499999999999998 1.575 0
-1.0499999999999998 1.8 0
-0.96249999999999991 -1.3500000000000001 0
-0.96249999999999991 -1.3036606486623912 0
-0.96249999999999991 1.3036606486623907 0
-0.96249999999999991 1.3500000000000001 0
-0.94989270972554818 -1.305135448209283 0
-0.94989270956237903 1.3051354482283701 0
-0.93964927782956698 -1.1495216802089541 0
-0.93964927771533246 1.1495216802223169 0
-0.92940584593358588 -0.99390791220862518 0
-0.9294058458682859 0.99390791221626373 0
-0.91916241403760468 -0.83829414420829618 0
-0.91916241402123933 0.83829414421021053 0
-0.91785773294459327 -0.81847399574790114 0
-0.9178577329344606 0.81847399574908641 0
-0.91672322764632241 -0.80123908404320987 0
-0.91672322764160963 0.8012390840437611 0
-0.91573670129999996 -0.78625220429999998 0
-0.91573670129999996 0.78625220429999998 0
-0.875 -1.575 0
-0.875 -1.4625000000000001 0
-0.875 -1.3500000000000001 0
-0.875 -1.3062597994542409 0
-0.875 1.3062597994236078 0
-0.875 1.3500000000000001 0
-0.875 1.4625000000000001 0
-0.875 1.575 0
-0.78749999999999998 -1.3500000000000001 0
-0.78749999999999998 -1.3075734217586594 0
-0.78749999999999998 1.3075734216727983 0
-0.78749999999999998 1.3500000000000001 0
-0.71241953844609163 -1.3087005916892109 0
-0.71241952861677527 1.3087005917035264 0
-0.69999999999999996 -1.8 0
-0.69999999999999996 -1.575 0
-0.69999999999999996 -1.4625000000000001 0
-0.69999999999999996 -1.3500000000000001 0
-0.69999999999999996 -1.308887044063078 0
-0.69999999999999996 1.3088870439219886 0
-0.69999999999999996 1.3500000000000001 0
-0.69999999999999996 1.4625000000000001 0
-0.69999999999999996 1.575 0
-0.69999999999999996 1.8 0
-0.61249999999999993 -1.3500000000000001 0
-0.61249999999999993 -1.3102006663674965 0
-0.61249999999999993 1.3102006661711791 0
-0.61249999999999993 1.3500000000000001 0
-0.52499999999999991 -1.575 0
-0.52499999999999991 -1.4625000000000001 0
-0.52499999999999991 -1.3500000000000001 0
-0.52499999999999991 -1.3115142886719151 0
-0.52499999999999991 1.3115142884203694 0
-0.52499999999999991 1.3500000000000001 0
-0.52499999999999991 1.4625000000000001 0
-0.52499999999999991 1.575 0
-0.47494636716663508 -1.3122657351691389 0
-0.47494634767117144 1.3122657351786824 0
-0.46982465118749644 -1.1565750757372073 0
-0.46982463176564765 1.1565750757438886 0
-0.4375 -1.3500000000000001 0
-0.4375 -1.3128279109763337 0
-0.4375 1.3128279106695597 0
-0.4375 1.3500000000000001 0
-0.34999999999999998 -1.8 0
-0.34999999999999998 -1.575 0
-0.34999999999999998 -1.4625000000000001 0
-0.34999999999999998 -1.3500000000000001 0
-0.34999999999999998 -1.3141415332807522 0
-0.34999999999999998 1.3141415329187502 0
-0.34999999999999998 1.3500000000000001 0
-0.34999999999999998 1.4625000000000001 0
-0.34999999999999998 1.575 0
-0.34999999999999998 1.8 0
-0.26249999999999996 -1.3500000000000001 0
-0.26249999999999996 -1.3154551555851708 0
-0.26249999999999996 1.3154551551679405 0
-0.26249999999999996 1.3500000000000001 0
-0.23747319588717852 -1.3158308786490669 0
-0.2374731667255677 1.3158308786538386 0
-0.17499999999999999 -1.575 0
-0.17499999999999999 -1.4625000000000001 0
-0.17499999999999999 -1.3500000000000001 0
-0.17499999999999999 -1.3167687778895893 0
-0.17499999999999999 1.3167687774171311 0
-0.17499999999999999 1.3500000000000001 0
-0.17499999999999999 1.4625000000000001 0
-0.17499999999999999 1.575 0
-0.087499999999999994 -1.3500000000000001 0
-0.087499999999999994 -1.3180824001940077 0
-0.087499999999999994 1.3180823996663216 0
-0.087499999999999994 1.3500000000000001 0
-2.4607721955168811e-08 -1.3193960221289949 0
-2.454542586733086e-08 -1.1636284712654603 0
-2.4483129779492905e-08 -1.0078609204019255 0
-2.4420833691654954e-08 -0.85209336953839088 0
-2.4412899189937552e-08 -0.83225363412744147 0
-2.4405999623226769e-08 -0.81500169029183323 0
-2.44e-08 -0.80000000000000004 0
0 -1.8 0
0 -1.575 0
0 -1.4625000000000001 0
0 -1.3500000000000001 0
0 -1.3193960217595635 0
0 1.3193960219155119 0
0 1.3500000000000001 0
0 1.4625000000000001 0
0 1.575 0
0 1.8 0
1.4100000000000001e-08 0.80000000000000004 0
1.4103466995384119e-08 0.81500169029183323 0
1.4107454040075856e-08 0.83225363412744147 0
1.4112039141471354e-08 0.85209336953839088 0
1.414803811020979e-08 1.0078609204019255 0
1.4184037078948227e-08 1.1636284712654603 0
1.4220036037571049e-08 1.3193960221289949 0
0.087499999999999994 -1.3500000000000001 0
0.087499999999999994 -1.3180823995251483 0
0.087499999999999994 1.3180824000528346 0
0.087499999999999994 1.3500000000000001 0
0.17499999999999999 -1.575 0
0.17499999999999999 -1.4625000000000001 0
0.17499999999999999 -1.3500000000000001 0
0.17499999999999999 -1.3167687772907333 0
0.17499999999999999 1.3167687777631916 0
0.17499999999999999 1.3500000000000001 0
0.17499999999999999 1.4625000000000001 0
0.17499999999999999 1.575 0
0.23747315892389007 -1.3158308786551154 0
0.23747318808550077 1.3158308786503436 0
0.26249999999999996 -1.3500000000000001 0
0.26249999999999996 -1.3154551550563183 0
0.26249999999999996 1.3154551554735483 0
0.26249999999999996 1.3500000000000001 0
0.34999999999999998 -1.8 0
0.34999999999999998 -1.575 0
0.34999999999999998 -1.4625000000000001 0
0.34999999999999998 -1.3500000000000001 0
0.34999999999999998 -1.3141415328219033 0
0.34999999999999998 1.314141533183905 0
0.34999999999999998 1.3500000000000001 0
0.34999999999999998 1.4625000000000001 0
0.34999999999999998 1.575 0
0.34999999999999998 1.8 0
0.4375 -1.3500000000000001 0
0.4375 -1.312827910587488 0
0.4375 1.312827910894262 0
0.4375 1.3500000000000001 0
0.46982462656967261 -1.1565750757456763 0
0.46982464599152129 1.1565750757389948 0
0.4749463424555021 -1.3122657351812359 0
0.47494636195096557 1.3122657351716924 0
0.52499999999999991 -1.575 0
0.52499999999999991 -1.4625000000000001 0
0.52499999999999991 -1.3500000000000001 0
0.52499999999999991 -1.311514288353073 0
0.52499999999999991 1.3115142886046187 0
0.52499999999999991 1.3500000000000001 0
0.52499999999999991 1.4625000000000001 0
0.52499999999999991 1.575 0
0.61249999999999993 -1.3500000000000001 0
0.61249999999999993 -1.310200666118658 0
0.61249999999999993 1.3102006663149757 0
0.61249999999999993 1.3500000000000001 0
0.69999999999999996 -1.8 0
0.69999999999999996 -1.575 0
0.69999999999999996 -1.4625000000000001 0
0.69999999999999996 -1.3500000000000001 0
0.69999999999999996 -1.3088870438842428 0
0.69999999999999996 1.3088870440253324 0
0.69999999999999996 1.3500000000000001 0
0.69999999999999996 1.4625000000000001 0
0.69999999999999996 1.575 0
0.69999999999999996 1.8 0
0.712419525987114 -1.3087005917073564 0
0.71241953581643036 1.3087005916930412 0
0.78749999999999998 -1.3500000000000001 0
0.78749999999999998 -1.3075734216498278 0
0.78749999999999998 1.3075734217356891 0
0.78749999999999998 1.3500000000000001 0
0.875 -1.575 0
0.875 -1.4625000000000001 0
0.875 -1.3500000000000001 0
0.875 -1.3062597994154128 0
0.875 1.3062597994460459 0
0.875 1.3500000000000001 0
0.875 1.4625000000000001 0
0.875 1.575 0
0.91573670129999996 -0.78625220429999998 0
0.91573670129999996 0.78625220429999998 0
0.91672322764034875 -0.80123908404390864 0
0.91672322764506153 0.80123908404335731 0
0.91785773293174988 -0.8184739957494036 0
0.91785773294188244 0.81847399574821822 0
0.91916241401686116 -0.83829414421072279 0
0.9191624140332264 0.83829414420880832 0
0.92940584585081609 -0.99390791221830754 0
0.92940584591611597 0.99390791221066888 0
0.93964927768477113 -1.1495216802258923 0
0.93964927779900553 1.1495216802125294 0
0.94989270951872606 -1.3051354482334769 0
0.9498927096818951 1.3051354482143898 0
0.96249999999999991 -1.3500000000000001 0
0.96249999999999991 -1.303660648662391 0
0.96249999999999991 1.3036606486623914 0
0.96249999999999991 1.3500000000000001 0
1.0499999999999998 -1.8 0
1.0499999999999998 -1.575 0
1.0499999999999998 -1.4625000000000001 0
1.0499999999999998 -1.3500000000000001 0
1.0499999999999998 -1.2934249074726649 0
1.0499999999999998 1.2934249074726651 0
1.0499999999999998 1.3500000000000001 0
1.0499999999999998 1.4625000000000001 0
1.0499999999999998 1.575 0
1.0499999999999998 1.8 0
1.0568968033035993 -1.2926181201166411 0
1.056896803425976 1.2926181201023257 0
1.1375 -1.3500000000000001 0
1.1375 -1.29375 0
1.1375 -1.2831891662829389 0
1.1375 1.2831891662829389 0
1.1375 1.29375 0
1.1375 1.3500000000000001 0
1.1430168360342359 -1.1257317637270159 0
1.1430168360913531 1.1257317637203346 0
1.1639008970884726 -1.2801007919998051 0
1.1639008971700571 1.2801007919902614 0
1.2249999999999999 -1.575 0
1.2249999999999999 -1.4625000000000001 0
1.2249999999999999 -1.3500000000000001 0
1.2249999999999999 -1.29375 0
1.2249999999999999 -1.2729534250932126 0
1.2249999999999999 1.2729534250932129 0
1.2249999999999999 1.29375 0
1.2249999999999999 1.3500000000000001 0
1.2249999999999999 1.4625000000000001 0
1.2249999999999999 1.575 0
1.2709049908733456 -1.2675834638829693 0
1.2709049909141379 1.2675834638781975 0
1.2727922061000001 -0.74448388730000004 0
1.2727922061000001 0.74448388730000004 0
1.275828291840724 -0.7592310097916205 0
1.275828291840724 0.7592310097916205 0
1.2793197904425566 -0.77619020065698408 0
1.2793197904425566 0.77619020065698408 0
1.2833350138346642 -0.7956932701521523 0
1.2833350138346642 0.7956932701521523 0
1.3125 -1.3500000000000001 0
1.3125 -1.29375 0
1.3125 -1.2627176839034866 0
1.3125 1.2627176839034866 0
1.3125 1.29375 0
1.3125 1.3500000000000001 0
1.3148597041091825 -0.94881755869014595 0
1.3148597041091825 0.94881755869014595 0
1.3463843943837006 -1.1019418472281397 0
1.3463843943837006 1.1019418472281397 0
1.3779090846582189 -1.2550661357661332 0
1.3779090846582189 1.2550661357661332 0
1.3999999999999999 -1.8 0
1.3999999999999999 -1.575 0
1.3999999999999999 -1.4625000000000001 0
1.3999999999999999 -1.3500000000000001 0
1.3999999999999999 -1.29375 0
1.3999999999999999 -1.2484828599565563 0
1.3999999999999999 1.2484828599565563 0
1.3999999999999999 1.29375 0
1.3999999999999999 1.3500000000000001 0
1.3999999999999999 1.4625000000000001 0
1.3999999999999999 1.575 0
1.3999999999999999 1.8 0
1.4674482808113019 -1.2283827134215326 0
1.4674482808113019 1.2283827134215326 0
1.4874999999999998 -1.3500000000000001 0
1.4874999999999998 -1.29375 0
1.4874999999999998 -1.2375 0
1.4874999999999998 -1.2224071349616523 0
1.4874999999999998 1.2224071349616523 0
1.4874999999999998 1.2375 0
1.4874999999999998 1.29375 0
1.4874999999999998 1.3500000000000001 0
1.5078682597393569 -1.0538183173523894 0
1.5078682597393569 1.0538183173523894 0
1.5136135475000001 -0.67271713219999996 0
1.5136135475000001 0.67271713219999996 0
1.5200386271958786 -0.68645430641294625 0
1.5200386271958786 0.68645430641294625 0
1.5274274688461387 -0.70225205675783453 0
1.5274274688461387 0.70225205675783453 0
1.5359246367439379 -0.72041946965445591 0
1.5359246367439379 0.72041946965445591 0
1.5569874769643848 -1.201699291076932 0
1.5569874769643848 1.201699291076932 0
1.575 -1.575 0
1.575 -1.4625000000000001 0
1.575 -1.3500000000000001 0
1.575 -1.29375 0
1.575 -1.2375 0
1.575 -1.1963314099667481 0
1.575 1.1963314099667481 0
1.575 1.2375 0
1.575 1.29375 0
1.575 1.3500000000000001 0
1.575 1.4625000000000001 0
1.575 1.575 0
1.6026383809194753 -0.8630571285655475 0
1.6026383809194753 0.8630571285655475 0
1.6465266731174673 -1.1750158687323313 0
1.6465266731174673 1.1750158687323313 0
1.6624999999999999 -1.2375 0
1.6624999999999999 -1.1812500000000001 0
1.6624999999999999 -1.1702556849718442 0
1.6624999999999999 1.1702556849718442 0
1.6624999999999999 1.1812500000000001 0
1.6624999999999999 1.2375 0
1.6693521250950127 -1.0056947874766391 0
1.6693521250950127 1.0056947874766391 0
1.6750887463999999 -0.56568542489999996 0
1.6750887463999999 0.56568542489999996 0
1.6862427700966227 -0.57628808091093298 0
1.6862427700966227 0.57628808091093298 0
1.6990698973477389 -0.58848113532350588 0
1.6990698973477389 0.58848113532350588 0
1.7138210936865226 -0.60250314789796477 0
1.7138210936865226 0.60250314789796477 0
1.7360658692705502 -1.1483324463877307 0
1.7360658692705502 1.1483324463877307 0
1.75 -1.8 0
1.75 -1.575 0
1.75 -1.4625000000000001 0
1.75 -1.3500000000000001 0
1.75 -1.2375 0
1.75 -1.1812500000000001 0
1.75 -1.1390963914896779 0
1.75 1.1390963914896779 0
1.75 1.1812500000000001 0
1.75 1.2375 0
1.75 1.3500000000000001 0
1.75 1.4625000000000001 0
1.75 1.575 0
1.75 1.8 0
1.7690674598 -0.40699408949999999 0
1.7690674598 0.40699408949999999 0
1.7712667598881515 -1.125 0
1.7712667598881515 1.125 0
1.7837588693332378 -0.41162355794612543 0
1.7837588693332378 0.41162355794612543 0
1.8 0 0
1.8006539902964616 -0.41694744665916966 0
1.8006539902964616 0.41694744665916966 0
1.8074025554407009 -0.91418987926748962 0
1.8074025554407009 0.91418987926748962 0
1.8150432603893285 0 0
1.8173666349119932 -1.0944433054504299 0
1.8173666349119932 1.0944433054504299 0
1.8200833794041686 -0.42306991867917054 0
1.8200833794041686 0.42306991867917054 0
1.8296370397364559 -0.71259405947815246 0
1.8296370397364559 0.71259405947815246 0
1.8323430098370563 0 0
1.8374999999999999 -1.2375 0
1.8374999999999999 -1.1812500000000001 0
1.8374999999999999 -1.125 0
1.8374999999999999 -1.0810981697655495 0
1.8374999999999999 1.0810981697655495 0
1.8374999999999999 1.125 0
1.8374999999999999 1.1812500000000001 0
1.8374999999999999 1.2375 0
1.8522377217019432 0 0
1.8561292755599448 -1.0687500000000001 0
1.8561292755599448 1.0687500000000001 0
1.8986674005534363 -1.0405541645131291 0
1.8986674005534363 1.0405541645131291 0
1.9249999999999998 -1.3500000000000001 0
1.9249999999999998 -1.2375 0
1.9249999999999998 -1.1812500000000001 0
1.9249999999999998 -1.125 0
1.9249999999999998 -1.0687500000000001 0
1.9249999999999998 -1.0230999480414209 0
1.9249999999999998 1.0230999480414209 0
1.9249999999999998 1.0687500000000001 0
1.9249999999999998 1.125 0
1.9249999999999998 1.1812500000000001 0
1.9249999999999998 1.2375 0
1.9249999999999998 1.3500000000000001 0
1.9409917912317383 -1.0125 0
1.9409917912317383 1.0125 0
1.9454529857863889 -0.82268497105834004 0
1.9454529857863889 0.82268497105834004 0
1.9726291817242885 -0.47113923271143954 0
1.9726291817242885 0.47113923271143954 0
1.9799681661948791 -0.9866650235758283 0
1.9799681661948791 0.9866650235758283 0
2.0084369087444705 0 0
2.0124999999999997 -1.125 0
2.0124999999999997 -1.0687500000000001 0
2.0124999999999997 -1.0125 0
2.0124999999999997 -0.96510172631729252 0
2.0124999999999997 0.96510172631729252 0
2.0124999999999997 1.0125 0
2.0124999999999997 1.0687500000000001 0
2.0124999999999997 1.125 0
2.0258543069035313 -0.95625000000000004 0
2.0258543069035313 0.95625000000000004 0
2.0353139849153985 -0.6709467589010244 0
2.0353139849153985 0.6709467589010244 0
2.061268931836322 -0.93277588263852773 0
2.061268931836322 0.93277588263852773 0
2.0806791615955849 -0.90000000000000002 0
2.0806791615955849 0.90000000000000002 0
2.0999999999999996 -1.8 0
2.0999999999999996 -1.575 0
2.0999999999999996 -1.3500000000000001 0
2.0999999999999996 -1.2375 0
2.0999999999999996 -1.125 0
2.0999999999999996 -1.0687500000000001 0
2.0999999999999996 -1.0125 0
2.0999999999999996 -0.95625000000000004 0
2.0999999999999996 -0.90000000000000002 0
2.0999999999999996 0.90000000000000002 0
2.0999999999999996 0.95625000000000004 0
2.0999999999999996 1.0125 0
2.0999999999999996 1.0687500000000001 0
2.0999999999999996 1.125 0
2.0999999999999996 1.2375 0
2.0999999999999996 1.3500000000000001 0
2.0999999999999996 1.575 0
2.0999999999999996 1.8 0
2.113991015802529 -0.84375 0
2.113991015802529 0.84375 0
2.1153818954683739 -0.84140137717289021 0
2.1153818954683739 0.84140137717289021 0
2.1251749840444081 -0.51920854674370864 0
2.1251749840444081 0.51920854674370864 0
2.1449055399157029 -0.25960427337185432 0
2.1449055399157029 0.25960427337185432 0
2.1473028700094727 -0.78749999999999998 0
2.1473028700094727 0.78749999999999998 0
2.1646360957869977 0 0
2.1694948591004253 -0.75002687170725268 0
2.1694948591004253 0.75002687170725268 0
2.180614724216416 -0.73125000000000007 0
2.180614724216416 0.73125000000000007 0
2.1875 -0.90000000000000002 0
2.1875 -0.84375 0
2.1875 -0.78749999999999998 0
2.1875 -0.73125000000000007 0
2.1875 0.73125000000000007 0
2.1875 0.78749999999999998 0
2.1875 0.84375 0
2.1875 0.90000000000000002 0
2.2139265784233597 -0.67500000000000004 0
2.2139265784233597 0.67500000000000004 0
2.2236078227324767 -0.65865236624161505 0
2.2236078227324767 0.65865236624161505 0
2.2472384326303034 -0.61875000000000002 0
2.2472384326303034 0.61875000000000002 0
2.2749999999999999 -1.125 0
2.2749999999999999 -1.0125 0
2.2749999999999999 -0.90000000000000002 0
2.2749999999999999 -0.84375 0
2.2749999999999999 -0.78749999999999998 0
2.2749999999999999 -0.73125000000000007 0
2.2749999999999999 -0.67500000000000004 0
2.2749999999999999 -0.61875000000000002 0
2.2749999999999999 -0.57187214820452947 0
2.2749999999999999 0.57187214820452947 0
2.2749999999999999 0.61875000000000002 0
2.2749999999999999 0.67500000000000004 0
2.2749999999999999 0.73125000000000007 0
2.2749999999999999 0.78749999999999998 0
2.2749999999999999 0.84375 0
2.2749999999999999 0.90000000000000002 0
2.2749999999999999 1.0125 0
2.2749999999999999 1.125 0
2.2777207863645281 -0.56727786077597764 0
2.2777207863645281 0.56727786077597764 0
2.2780839153984278 -0.5625 0
2.2780839153984278 0.5625 0
2.2823590521415373 -0.50624999999999998 0
2.2823590521415373 0.50624999999999998 0
2.2866341888846469 -0.45000000000000001 0
2.2866341888846469 0.45000000000000001 0
2.2884994104807772 -0.42545839558198323 0
2.2884994104807772 0.42545839558198323 0
2.2909093256277568 -0.39374999999999999 0
2.2909093256277568 0.39374999999999999 0
2.2951844623708668 -0.33750000000000002 0
2.2951844623708668 0.33750000000000002 0
2.2992780345970267 -0.28363893038798882 0
2.2992780345970267 0.28363893038798882 0
2.2994595991139763 -0.28125 0
2.2994595991139763 0.28125 0
2.3037347358570859 -0.22500000000000001 0
2.3037347358570859 0.22500000000000001 0
2.3080098726001954 -0.16875000000000001 0
2.3080098726001954 0.16875000000000001 0
2.3100566587132754 -0.14181946519399441 0
2.3100566587132754 0.14181946519399441 0
2.3122850093433054 -0.1125 0
2.3122850093433054 0.1125 0
2.3165601460864149 -0.056250000000000001 0
2.3165601460864149 0.056250000000000001 0
2.3208352828295249 0 0
2.3624999999999998 -0.67500000000000004 0
2.3624999999999998 -0.61875000000000002 0
2.3624999999999998 -0.5625 0
2.3624999999999998 -0.50624999999999998 0
2.3624999999999998 -0.45000000000000001 0
2.3624999999999998 -0.39374999999999999 0
2.3624999999999998 -0.33750000000000002 0
2.3624999999999998 -0.28125 0
2.3624999999999998 -0.22500000000000001 0
2.3624999999999998 -0.16875000000000001 0
2.3624999999999998 -0.1125 0
2.3624999999999998 -0.056250000000000001 0
2.3624999999999998 0 0
2.3624999999999998 0.056250000000000001 0
2.3624999999999998 0.1125 0
2.3624999999999998 0.16875000000000001 0
2.3624999999999998 0.22500000000000001 0
2.3624999999999998 0.28125 0
2.3624999999999998 0.33750000000000002 0
2.3624999999999998 0.39374999999999999 0
2.3624999999999998 0.45000000000000001 0
2.3624999999999998 0.50624999999999998 0
2.3624999999999998 0.5625 0
2.3624999999999998 0.61875000000000002 0
2.3624999999999998 0.67500000000000004 0
2.4499999999999997 -1.3500000000000001 0
2.4499999999999997 -1.125 0
2.4499999999999997 -1.0125 0
2.4499999999999997 -0.90000000000000002 0
2.4499999999999997 -0.78749999999999998 0
2.4499999999999997 -0.67500000000000004 0
2.4499999999999997 -0.61875000000000002 0
2.4499999999999997 -0.5625 0
2.4499999999999997 -0.50624999999999998 0
2.4499999999999997 -0.45000000000000001 0
2.4499999999999997 -0.39374999999999999 0
2.4499999999999997 -0.33750000000000002 0
2.4499999999999997 -0.28125 0
2.4499999999999997 -0.22500000000000001 0
2.4499999999999997 -0.16875000000000001 0
2.4499999999999997 -0.1125 0
2.4499999999999997 -0.056250000000000001 0
2.4499999999999997 0 0
2.4499999999999997 0.056250000000000001 0
2.4499999999999997 0.1125 0
2.4499999999999997 0.16875000000000001 0
2.4499999999999997 0.22500000000000001 0
2.4499999999999997 0.28125 0
2.4499999999999997 0.33750000000000002 0
2.4499999999999997 0.39374999999999999 0
2.4499999999999997 0.45000000000000001 0
2.4499999999999997 0.50624999999999998 0
2.4499999999999997 0.5625 0
2.4499999999999997 0.61875000000000002 0
2.4499999999999997 0.67500000000000004 0
2.4499999999999997 0.78749999999999998 0
2.4499999999999997 0.90000000000000002 0
2.4499999999999997 1.0125 0
2.4499999999999997 1.125 0
2.4499999999999997 1.3500000000000001 0
2.625 -0.67500000000000004 0
2.625 -0.5625 0
2.625 -0.45000000000000001 0
2.625 -0.33750000000000002 0
2.625 -0.22500000000000001 0
2.625 -0.1125 0
2.625 0 0
2.625 0.1125 0
2.625 0.22500000000000001 0
2.625 0.33750000000000002 0
2.625 0.45000000000000001 0
2.625 0.5625 0
2.625 0.67500000000000004 0
2.7999999999999998 -1.8 0
2.7999999999999998 -1.3500000000000001 0
2.7999999999999998 -1.125 0
2.7999999999999998 -0.90000000000000002 0
2.7999999999999998 -0.67500000000000004 0
2.7999999999999998 -0.5625 0
2.7999999999999998 -0.45000000000000001 0
2.7999999999999998 -0.33750000000000002 0
2.7999999999999998 -0.22500000000000001 0
2.7999999999999998 -0.1125 0
2.7999999999999998 0 0
2.7999999999999998 0.1125 0
2.7999999999999998 0.22500000000000001 0
2.7999999999999998 0.33750000000000002 0
2.7999999999999998 0.45000000000000001 0
2.7999999999999998 0.5625 0
2.7999999999999998 0.67500000000000004 0
2.7999999999999998 0.90000000000000002 0
2.7999999999999998 1.125 0
2.7999999999999998 1.3500000000000001 0
2.7999999999999998 1.8 0
CELLS 703 3999
6 0 171 172 173 34 1
4 171 258 259 172
5 258 328 329 294 259
6 172 259 260 261 214 173
4 1 34 35 2
6 34 173 174 175 124 35
5 2 35 36 37 3
5 328 384 385 362 329
5 384 426 427 412 385
5 426 456 457 440 427
6 803 970 971 922 805 804
5 456 491 492 472 457
4 259 294 295 260
4 294 329 330 295
4 260 295 296 261
5 295 330 331 318 296
6 3 37 38 39 21 4
6 19 68 186 187 188 20
4 35 124 125 36
5 124 175 176 177 125
4 36 125 126 37
6 125 177 178 179 148 126
4 173 214 215 174
5 214 261 262 231 215
6 174 215 216 217 197 175
6 261 296 297 298 284 262
6 818 956 989 990 820 819
5 491 526 527 512 492
5 526 556 557 544 527
5 556 598 599 572 557
5 598 652 653 620 599
4 329 362 363 330
4 362 385 386 363
5 330 363 364 346 331
5 363 386 387 376 364
4 385 412 413 386
4 412 427 428 413
5 386 413 414 394 387
5 413 428 429 420 414
5 652 720 721 686 653
4 720 803 804 721
6 721 804 805 766 723 722
4 427 440 441 428
4 440 457 458 441
5 428 441 442 436 429
5 441 458 459 452 442
6 805 922 923 850 807 806
4 457 472 473 458
4 922 971 972 923
4 472 492 493 473
5 458 473 474 466 459
5 923 972 973 925 924
5 473 493 494 480 474
6 925 973 974 957 927 926
5 37 126 127 128 38
6 38 128 129 130 69 39
4 4 21 22 5
5 21 39 40 41 22
6 16 33 63 64 65 17
4 5 22 23 6
5 22 41 42 43 23
5 17 65 66 67 18
4 6 23 24 7
5 23 43 44 45 24
4 18 67 68 19
4 7 24 25 8
6 67 141 184 185 186 68
5 24 45 46 47 25
4 8 25 26 9
5 25 47 48 49 26
4 9 26 27 10
5 26 49 50 51 27
6 186 225 268 269 270 187
4 187 270 271 188
5 270 305 338 339 271
5 338 371 392 393 339
5 392 419 434 435 393
5 434 447 464 465 435
5 464 479 499 500 465
4 215 231 232 216
4 231 262 263 232
4 216 232 233 217
5 232 263 264 254 233
4 296 318 319 297
4 318 331 332 319
4 297 319 320 298
6 319 332 333 326 321 320
4 262 284 285 263
6 284 298 299 290 286 285
4 263 285 286 272
3 272 264 263
5 298 320 321 306 299
6 951 969 986 987 953 952
4 175 197 198 176
4 197 217 218 198
4 176 198 199 177
5 198 218 219 212 199
5 217 233 234 228 218
4 233 254 244 234
4 218 228 226 219
5 177 199 200 195 178
4 199 212 206 200
5 499 519 534 535 500
3 178 195 191
4 191 189 179 178
5 534 551 564 565 535
5 564 579 606 607 565
5 606 629 662 663 607
5 953 987 988 955 954
6 816 867 955 956 818 817
4 955 988 989 956
6 730 777 818 819 732 731
5 662 697 732 733 663
4 732 819 820 733
4 492 512 513 493
4 512 527 528 513
5 493 513 514 508 494
5 513 528 529 522 514
4 527 544 545 528
4 544 557 558 545
5 528 545 546 536 529
5 545 558 559 552 546
4 557 572 573 558
4 572 599 600 573
5 558 573 574 568 559
5 573 600 601 594 574
4 599 620 621 600
4 620 653 654 621
5 600 621 622 610 601
5 621 654 655 640 622
4 653 686 687 654
4 686 721 722 687
5 654 687 688 666 655
4 687 722 723 688
6 688 723 724 702 690 689
5 723 766 767 753 724
4 766 805 806 767
6 767 806 807 787 769 768
5 807 850 851 809 808
4 850 923 924 851
6 809 851 852 836 811 810
4 851 924 925 852
4 331 346 347 332
4 346 364 365 347
3 347 348 340
4 340 333 332 347
5 347 365 366 360 348
4 364 376 377 365
6 376 387 388 382 378 377
5 365 377 378 372 366
4 387 394 395 388
3 414 415 398
4 398 395 394 414
4 414 420 421 415
5 420 429 430 424 421
4 429 436 437 430
4 436 442 443 437
5 442 452 453 448 443
4 452 459 460 453
4 459 466 467 460
5 852 925 926 854 853
5 466 474 475 470 467
6 854 926 927 897 856 855
4 474 480 481 475
4 480 494 495 484
3 484 481 480
5 927 957 958 929 928
4 957 974 975 958
5 929 958 959 931 930
4 958 975 976 959
5 931 959 960 933 932
4 959 976 977 960
5 933 960 961 935 934
4 960 977 978 961
5 935 961 962 937 936
4 961 978 979 962
5 937 962 963 939 938
4 962 979 980 963
4 10 27 28 11
5 27 51 52 53 28
4 11 28 29 12
5 28 53 54 55 29
4 12 29 30 13
5 29 55 56 57 30
4 13 30 31 14
5 30 57 58 59 31
4 126 148 149 127
5 148 179 189 170 149
4 127 149 150 128
5 149 170 167 162 150
4 128 150 151 129
5 150 162 158 157 151
5 129 151 157 147 130
4 14 31 32 15
5 31 59 60 61 32
4 15 32 33 16
5 32 61 62 63 33
6 63 93 135 136 137 64
5 64 137 138 139 65
4 39 69 70 40
4 69 130 131 70
4 40 70 71 41
4 70 131 132 122
4 122 120 71 70
5 130 147 144 143 131
3 131 143 132
4 41 71 72 42
4 71 120 118 72
4 42 72 73 43
4 72 118 116 73
4 65 139 140 66
6 139 155 180 181 182 140
4 66 140 141 67
5 140 182 183 184 141
4 43 73 74 44
5 73 116 114 113 74
4 44 74 75 45
4 74 113 111 75
6 184 204 222 223 224 185
4 45 75 76 46
5 75 111 108 107 76
4 185 224 225 186
4 46 76 77 47
5 224 238 267 268 225
4 76 107 105 77
6 267 289 301 302 303 268
4 47 77 78 48
4 77 105 103 78
4 48 78 79 49
5 78 103 100 99 79
4 268 303 304 269
5 303 325 336 337 304
4 269 304 305 270
4 304 337 338 305
4 49 79 80 50
4 79 99 97 80
4 50 80 81 51
4 80 97 95 81
5 336 351 369 370 337
5 369 381 390 391 370
4 337 370 371 338
4 370 391 392 371
5 390 397 417 418 391
5 417 423 432 433 418
4 391 418 419 392
4 418 433 434 419
5 432 439 445 446 433
5 445 455 462 463 446
4 433 446 447 434
4 446 463 464 447
5 462 469 477 478 463
5 477 483 497 498 478
4 463 478 479 464
4 478 498 499 479
5 939 963 964 941 940
4 963 980 981 964
5 941 964 965 943 942
4 964 981 982 965
5 943 965 966 945 944
4 965 982 983 966
5 945 966 967 947 946
4 966 983 984 967
5 947 967 968 949 948
4 967 984 985 968
5 949 968 969 951 950
4 968 985 986 969
6 861 921 951 952 863 862
5 863 952 953 865 864
5 497 511 517 518 498
5 517 525 532 533 518
4 498 518 519 499
4 518 533 534 519
5 532 539 549 550 533
5 549 555 562 563 550
4 533 550 551 534
4 550 563 564 551
5 562 571 577 578 563
5 577 597 604 605 578
4 563 578 579 564
4 578 605 606 579
5 604 615 627 628 605
5 627 645 660 661 628
4 605 628 629 606
4 628 661 662 629
6 693 707 729 730 695 694
6 774 794 816 817 776 775
5 729 760 776 777 730
4 776 817 818 777
6 812 843 865 866 814 813
4 865 953 954 866
5 814 866 867 816 815
4 866 954 955 867
5 660 673 695 696 661
4 695 730 731 696
4 661 696 697 662
4 696 731 732 697
4 494 508 509 495
4 508 514 515 509
5 514 522 523 520 515
4 522 529 530 523
4 529 536 537 530
5 536 546 547 542 537
4 546 552 553 547
4 552 559 560 553
5 559 568 569 566 560
4 568 574 575 569
4 574 594 595 592
3 592 575 574
4 594 601 602 595
6 601 610 611 612 608 602
4 610 622 623 611
5 611 623 624 618 612
4 622 640 641 623
4 640 655 656 641
5 623 641 642 630 624
4 641 656 657 650
3 650 642 641
4 655 666 667 656
4 666 688 689 667
6 656 667 668 669 664 657
4 667 689 690 668
5 668 690 691 684 669
6 690 702 703 704 700 691
4 702 724 725 703
3 725 726 718
4 718 704 703 725
4 724 753 754 725
4 753 767 768 754
5 725 754 755 736 726
4 754 768 769 755
4 736 755 756 746
5 755 769 770 762 756
4 762 770 771 764
4 769 787 788 770
4 787 807 808 788
5 770 788 789 778 771
4 788 808 809 789
4 778 789 790 784
5 789 809 810 795 790
4 810 811 801 799
3 799 795 810
5 801 811 836 837 821
4 836 852 853 837
5 821 837 838 829 823
4 837 853 854 838
5 829 838 839 834 832
4 838 854 855 839
5 834 839 855 856 844
5 844 856 857 848 846
3 848 857 858
4 856 897 898 857
4 897 927 928 898
4 898 899 870 868
4 868 858 857 898
4 898 928 929 899
4 870 899 900 872
4 899 929 930 900
4 872 900 901 874
4 900 930 931 901
5 874 901 902 878 876
4 901 931 932 902
4 878 902 903 880
4 902 932 933 903
5 880 903 904 884 882
4 903 933 934 904
4 884 904 905 886
4 904 934 935 905
4 886 905 906 888
4 905 935 936 906
5 888 906 907 892 890
4 906 936 937 907
4 892 907 908 894
4 907 937 938 908
4 894 908 909 896
4 908 938 939 909
4 51 81 82 52
3 94 96 82
4 82 81 95 94
4 52 82 83 53
4 82 96 98 83
4 53 83 84 54
5 83 98 101 102 84
4 54 84 85 55
4 84 102 104 85
4 55 85 86 56
4 85 104 106 86
4 56 86 87 57
5 86 106 109 110 87
4 57 87 88 58
4 87 110 112 88
4 58 88 89 59
5 88 112 115 117 89
4 59 89 90 60
4 89 117 119 90
4 60 90 91 61
4 90 119 121 91
4 61 91 92 62
4 123 133 134 92
4 92 91 121 123
4 62 92 93 63
4 92 134 135 93
3 133 142 134
5 134 142 145 146 135
5 135 146 156 152 136
4 136 152 153 137
5 152 156 159 161 153
4 137 153 154 138
5 153 161 168 169 154
4 138 154 155 139
5 154 169 190 180 155
3 192 196 181
4 181 180 190 192
5 181 196 201 202 182
4 201 207 213 202
4 182 202 203 183
5 202 213 220 221 203
4 183 203 204 184
4 203 221 222 204
4 220 227 229 221
5 221 229 235 236 222
4 235 245 255 236
4 222 236 237 223
5 236 255 265 266 237
4 223 237 238 224
4 237 266 267 238
4 273 287 288 266
3 266 265 273
6 287 291 300 301 289 288
4 266 288 289 267
5 300 307 322 323 301
6 322 327 334 335 324 323
4 301 323 324 302
4 302 324 325 303
4 324 335 336 325
3 341 349 350
4 350 335 334 341
5 349 361 367 368 350
4 335 350 351 336
4 350 368 369 351
5 367 373 379 380 368
6 379 383 389 390 381 380
4 368 380 381 369
4 389 396 397 390
3 399 416 417
4 417 397 396 399
4 416 422 423 417
5 422 425 431 432 423
4 431 438 439 432
4 438 444 445 439
5 444 449 454 455 445
4 454 461 462 455
4 461 468 469 462
5 468 471 476 477 469
4 476 482 483 477
4 482 496 497 483
4 895 896 909 910
4 909 939 940 910
4 893 895 910 911
4 910 940 941 911
5 889 891 893 911 912
4 911 941 942 912
4 887 889 912 913
4 912 942 943 913
4 885 887 913 914
4 913 943 944 914
5 881 883 885 914 915
4 914 944 945 915
4 879 881 915 916
4 915 945 946 916
5 875 877 879 916 917
4 916 946 947 917
5 802 822 842 843 812
4 873 875 917 918
4 917 947 948 918
4 871 873 918 919
4 918 948 949 919
3 849 859 860
5 845 847 849 860 861
4 869 871 919 920
4 920 860 859 869
4 919 949 950 920
4 860 920 921 861
4 920 950 951 921
5 835 845 861 862 840
5 830 833 835 840 841
4 840 862 863 841
5 822 824 830 841 842
4 841 863 864 842
4 842 864 865 843
3 507 510 511
4 511 497 496 507
4 510 516 517 511
5 516 521 524 525 517
4 524 531 532 525
4 531 538 539 532
5 538 543 548 549 539
4 548 554 555 549
4 554 561 562 555
5 561 567 570 571 562
4 570 576 577 571
4 596 603 604 597
4 593 596 597 577
3 577 576 593
6 603 609 613 614 615 604
5 613 619 625 626 614
4 614 626 627 615
5 625 631 643 644 626
4 651 658 659 644
3 644 643 651
4 626 644 645 627
4 644 659 660 645
4 800 802 812 813
3 813 796 800
4 779 785 791 792
5 791 796 813 814 792
4 763 765 772 773
4 737 747 757 758
5 757 763 773 774 758
5 772 779 792 793 773
4 792 814 815 793
4 773 793 794 774
4 793 815 816 794
6 658 665 670 671 672 659
5 670 685 692 693 671
6 692 701 705 706 707 693
3 719 727 728
4 728 706 705 719
4 706 728 729 707
4 671 693 694 672
4 659 672 673 660
4 672 694 695 673
5 727 737 758 759 728
4 758 774 775 759
4 728 759 760 729
4 759 775 776 760
4 230 205 208 242
4 242 208 240 274
4 274 240 292 308
4 308 292 344 352
4 352 344 402 404
4 404 402 486 487
4 487 486 588 586
4 586 588 646 638
4 638 646 698 682
4 682 698 750 716
4 716 750 782 748
4 748 782 786 761
4 761 786 783 749
4 749 783 751 717
4 717 751 699 683
4 683 699 647 639
4 639 647 589 587
4 587 589 505 504
4 504 505 403 405
4 405 403 345 353
4 353 345 293 309
4 309 293 241 275
4 275 241 209 243
4 243 209 205 230
5 205 160 163 165 208
5 208 165 193 210 240
5 240 210 247 282 292
5 292 282 316 342 344
5 344 342 374 400 402
5 402 400 450 485 486
5 486 485 540 590 588
5 588 590 616 648 646
5 646 648 674 708 698
5 698 708 743 780 750
5 750 780 797 825 782
5 782 825 827 831 786
5 786 831 828 826 783
5 783 826 798 781 751
5 751 781 744 709 699
5 699 709 675 649 647
5 647 649 617 591 589
5 589 591 541 506 505
5 505 506 451 401 403
5 403 401 375 343 345
5 345 343 317 283 293
5 293 283 248 211 241
5 241 211 194 166 209
5 209 166 164 160 205
11 160 94 95 97 99 100 103 105 107 108 163
10 163 108 111 113 114 116 118 120 122 165
9 165 122 132 143 144 147 157 158 193
8 193 158 162 167 170 189 191 210
9 210 191 195 200 206 212 219 226 247
9 247 226 228 234 244 254 264 272 282
7 282 272 286 290 299 306 316
7 316 306 321 326 333 340 342
7 342 340 348 360 366 372 374
8 374 372 378 382 388 395 398 400
10 400 398 415 421 424 430 437 443 448 450
10 450 448 453 460 467 470 475 481 484 485
11 485 484 495 509 515 520 523 530 537 542 540
10 540 542 547 553 560 566 569 575 592 590
8 590 592 595 602 608 612 618 616
7 616 618 624 630 642 650 648
7 648 650 657 664 669 684 674
7 674 684 691 700 704 718 708
9 708 718 726 736 746 756 762 764 743
9 743 764 771 778 784 790 795 799 780
8 780 799 801 821 823 829 832 797
9 797 832 834 844 846 848 858 868 825
10 825 868 870 872 874 876 878 880 882 827
10 827 882 884 886 888 890 892 894 896 831
10 831 896 895 893 891 889 887 885 883 828
10 828 883 881 879 877 875 873 871 869 826
9 826 869 859 849 847 845 835 833 798
8 798 833 830 824 822 802 800 781
9 781 800 796 791 785 779 772 765 744
9 744 765 763 757 747 737 727 719 709
7 709 719 705 701 692 685 675
7 675 685 670 665 658 651 649
7 649 651 643 631 625 619 617
8 617 619 613 609 603 596 593 591
10 591 593 576 570 567 561 554 548 543 541
10 541 543 538 531 524 521 516 510 507 506
11 506 507 496 482 476 471 468 461 454 449 451
10 451 449 444 438 431 425 422 416 399 401
8 401 399 396 389 383 379 373 375
7 375 373 367 361 349 341 343
7 343 341 334 327 322 307 317
7 317 307 300 291 287 273 283
9 283 273 265 255 245 235 229 227 248
9 248 227 220 213 207 201 196 192 211
8 211 192 190 169 168 161 159 194
9 194 159 156 146 145 142 133 123 166
10 166 123 121 119 117 115 112 110 109 164
10 164 109 106 104 102 101 98 96 94 160
4 251 246 252 256
4 256 252 278 280
4 280 278 312 314
4 314 312 356 358
4 358 356 408 410
4 410 408 489 490
4 490 489 582 580
4 580 582 634 632
4 632 634 678 676
4 676 678 712 710
4 710 712 738 734
4 734 738 745 740
4 740 745 739 735
4 735 739 713 711
4 711 713 679 677
4 677 679 635 633
4 633 635 583 581
4 581 583 502 501
4 501 502 409 411
4 411 409 357 359
4 359 357 313 315
4 315 313 279 281
4 281 279 253 257
4 257 253 246 251
4 246 239 249 252
4 252 249 276 278
4 278 276 310 312
4 312 310 354 356
4 356 354 406 408
4 408 406 488 489
4 489 488 584 582
4 582 584 636 634
4 634 636 680 678
4 678 680 714 712
4 712 714 741 738
4 738 741 752 745
4 745 752 742 739
4 739 742 715 713
4 713 715 681 679
4 679 681 637 635
4 635 637 585 583
4 583 585 503 502
4 502 503 407 409
4 409 407 355 357
4 357 355 311 313
4 313 311 277 279
4 279 277 250 253
4 253 250 239 246
4 239 230 242 249
4 249 242 274 276
4 276 274 308 310
4 310 308 352 354
4 354 352 404 406
4 406 404 487 488
4 488 487 586 584
4 584 586 638 636
4 636 638 682 680
4 680 682 716 714
4 714 716 748 741
4 741 748 761 752
4 752 761 749 742
4 742 749 717 715
4 715 717 683 681
4 681 683 639 637
4 637 639 587 585
4 585 587 504 503
4 503 504 405 407
4 407 405 353 355
4 355 353 309 311
4 311 309 275 277
4 277 275 243 250
4 250 243 230 239
CELL_TYPES 703
7
7
7
7
7
7
7
7
7
7
7
7
7
7
7
7
7
7
7
7
7
7
7
7
7
7
7
7
7
7
7
7
7
7
7
7
7
7
7
7
7
7
7
7
7
7
7
7
7
7
7
7
7
7
7
7
7
7
7
7
7
7
7
7
7
7
7
7
7
7
7
7
7
7
7
7
7
7
7
7
7
7
7
7
7
7
7
7
7
7
7
7
7
7
7
7
7
7
7
7
7
7
7
7
7
7
7
7
7
7
7
7
7
7
7
7
7
7
7
7
7
7
7
7
7
7
7
7
7
7
7
7
7
7
7
7
7
7
7
7
7
7
7
7
7
7
7
7
7
7
7
7
7
7
7
7
7
7
7
7
7
7
7
7
7
7
7
7
7
7
7
7
7
7
7
7
7
7
7
7
7
7
7
7
7
7
7
7
7
7
7
7
7
7
7
7
7
7
7
7
7
7
7
7
7
7
7
7
7
7
7
7
7
7
7
7
7
7
7
7
7
7
7
7
7
7
7
7
7
7
7
7
7
7
7
7
7
7
7
7
7
7
7
7
7
7
7
7
7
7
7
7
7
7
7
7
7
7
7
7
7
7
7
7
7
7
7
7
7
7
7
7
7
7
7
7
7
7
7
7
7
7
7
7
7
7
7
7
7
7
7
7
7
7
7
7
7
7
7
7
7
7
7
7
7
7
7
7
7
7
7
7
7
7
7
7
7
7
7
7
7
7
7
7
7
7
7
7
7
7
7
7
7
7
7
7
7
7
7
7
7
7
7
7
7
7
7
7
7
7
7
7
7
7
7
7
7
7
7
7
7
7
7
7
7
7
7
7
7
7
7
7
7
7
7
7
7
7
7
7
7
7
7
7
7
7
7
7
7
7
7
7
7
7
7
7
7
7
7
7
7
7
7
7
7
7
7
7
7
7
7
7
7
7
7
7
7
7
7
7
7
7
7
7
7
7
7
7
7
7
7
7
7
7
7
7
7
7
7
7
7
7
7
7
7
7
7
7
7
7
7
7
7
7
7
7
7
7
7
7
7
7
7
7
7
7
7
7
7
7
7
7
7
7
7
7
7
7
7
7
7
7
7
7
7
7
7
7
7
7
7
7
7
7
7
7
7
7
7
7
7
7
7
7
7
7
7
7
7
7
7
7
7
7
7
7
7
7
7
7
7
7
7
7
7
7
7
7
7
7
7
7
7
7
7
7
7
7
7
7
7
7
7
7
7
7
7
7
7
7
7
7
7
7
7
7
7
7
7
7
7
7
7
7
7
7
7
7
7
7
7
7
7
7
7
7
7
7
7
7
7
7
7
7
7
7
7
7
7
7
7
7
7
7
7
7
7
7
7
7
7
7
7
7
7
7
7
7
7
7
7
7
7
7
7
7
7
7
7
7
7
7
7
7
7
7
7
7
7
7
7
7
7
7
7
7
7
7
7
7
7
7
7
7
7
7
7
7
7
7
7
7
7
7
7
7
7
7
7
7
7
7
7
7
7
7
7
7
7
7
7
7
7
7
7
7
7
7
7
7
7
7
7
7
7
7
7
7
7
7
7
7
7
7
7
7
7
7
7
7
7
7
7
CELL_DATA 703
SCALARS geometry_area double 1
LOOKUP_TABLE default
0.31500000000000006
0.078749999999999945
0.078750000000000056
0.078749999999999876
0.078750000000000056
0.078750000000000056
0.078750000000000014
0.078750000000000056
0.078750000000000001
0.078750000000000028
0.31500000000000006
0.078750000000000028
0.019687499999999972
0.019687499999999972
0.019687500000000014
0.019687500000000014
0.078750000000000014
0.31500000000000006
0.019687499999999986
0.019687500000000038
0.019687499999999969
0.019687500000000017
0.019687499999999986
0.019687499999999986
0.019687499999999986
0.019687500000000014
0.31500000000000006
0.078750000000000028
0.078750000000000028
0.078750000000000001
0.078750000000000056
0.019687499999999972
0.019687499999999972
0.019687500000000014
0.019687500000000014
0.019687499999999948
0.019687499999999972
0.019687499999999986
0.019687500000000014
0.078750000000000056
0.078749999999999945
0.078749999999999876
0.019687499999999972
0.019687499999999962
0.019687500000000014
0.0196875
0.078750000000000056
0.019687499999999969
0.078750000000000056
0.019687499999999969
0.019687500000000007
0.078750000000000014
0.019687500000000007
0.078750000000000014
0.019687499999999986
0.019687499999999969
0.019687499999999986
0.019687500000000038
0.078750000000000014
0.019687499999999979
0.019687500000000028
0.078750000000000014
0.019687499999999979
0.019687500000000028
0.078750000000000056
0.019687499999999983
0.078750000000000056
0.019687500000000031
0.019687499999999979
0.019687500000000031
0.019687499999999979
0.019687500000000031
0.078749999999999876
0.078749999999999945
0.078750000000000056
0.078750000000000056
0.078750000000000001
0.078750000000000028
0.078750000000000028
0.004921874999999987
0.004921874999999987
0.004921875000000007
0.0047719827134498254
0.0049218750000000191
0.004921875000000007
0.004921875
0.0051016877223283644
0.004921875
0.004743064596436585
0.0018445461415770741
0.00029368694585043935
0.0024614386593824877
0.078750000000000014
0.004921874999999987
0.004921874999999987
0.004921875000000007
0.0048371189219271679
0.0048068562713882868
0.0014538802316339822
0.0015719760745567511
0.0048627706650663915
0.0016946828248791184
0.078750000000000028
0.0008702523507971027
0.0014059400581139636
0.078750000000000028
0.078750000000000001
0.078750000000000056
0.078750000000000014
0.078750000000000056
0.078750000000000056
0.078749999999999876
0.078750000000000056
0.078749999999999945
0.019687499999999969
0.019687499999999969
0.019687500000000007
0.019687500000000007
0.019687499999999962
0.019687499999999972
0.0196875
0.019687500000000014
0.019687499999999972
0.019687499999999948
0.019687500000000014
0.019687499999999986
0.019687499999999972
0.019687499999999972
0.019687500000000014
0.019687500000000014
0.019687499999999972
0.019687499999999972
0.019687500000000014
0.019687500000000014
0.019687500000000014
0.019687499999999986
0.019687499999999986
0.019687499999999986
0.019687500000000038
0.019687499999999986
0.019687500000000017
0.019687499999999969
0.004921875000000007
0.0049218750000000191
0.0010148976953487333
0.0021924153394637961
0.0022675139813944181
0.004921875000000007
0.0053981342731923296
0.001371886627293356
0.0045025069190912891
0.0016379110714054047
0.002254930967565392
0.003769796571935621
0.003654854620298997
0.003539912668662373
0.0034249707170257489
0.0033100287653891206
0.0031950868137525009
0.0030801448621158765
0.019687499999999986
0.0029652029104792507
0.019687499999999969
0.0028502609588426375
0.0013389244084035718
0.0013963945988024569
0.019687500000000038
0.019687499999999986
0.019687500000000028
0.019687499999999979
0.019687500000000028
0.019687499999999979
0.019687500000000031
0.019687499999999983
0.019687500000000031
0.019687499999999979
0.019687500000000031
0.019687499999999979
0.019687499999999979
0.019687500000000031
0.019687499999999979
0.019687500000000031
0.019687499999999983
0.019687500000000031
0.019687499999999979
0.019687500000000028
0.0049218749999999966
0.0050717762606780617
0.0049218749999999966
0.0031979844615374897
0.004921874999999987
0.001324192662396915
0.0043722758632563424
0.019687499999999979
0.019687500000000028
0.019687499999999986
0.019687500000000038
0.019687499999999969
0.019687499999999986
0.0049218749999999966
0.0049218749999999966
0.0049218749999999966
0.0023156784234704764
0.0025860795098583528
0.0024984840641157826
0.00065070132038336497
0.0049218749999999966
0.0046281665297094668
0.0049218749999999922
0.0043876900931681577
0.019687499999999969
0.019687500000000017
0.019687499999999986
0.019687500000000038
0.0049218749999999966
0.0041472136566268573
0.0049218749999999922
0.0039067372200855474
0.019687499999999986
0.0049218749999999966
0.003666260783544234
0.019687499999999986
0.0049218749999999948
0.019687499999999986
0.0034257843470029271
0.019687500000000014
0.0049218749999999948
0.003185307910461622
0.0049218749999999957
0.0029448314739203051
0.019687500000000014
0.019687500000000014
0.019687499999999972
0.019687499999999972
0.0049218749999999948
0.0027043550373789999
0.0049218749999999948
0.0024638786008376948
0.019687500000000014
0.019687500000000014
0.019687499999999972
0.019687499999999972
0.019687499999999986
0.019687500000000014
0.019687499999999948
0.019687499999999972
0.019687500000000014
0.0196875
0.019687499999999972
0.019687499999999962
0.019687500000000007
0.019687500000000007
0.019687499999999969
0.019687499999999969
0.019687500000000031
0.019687499999999979
0.019687500000000031
0.019687499999999979
0.019687500000000031
0.019687499999999983
0.019687500000000028
0.019687499999999979
0.019687500000000028
0.019687499999999979
0.019687500000000038
0.019687499999999986
0.019687499999999969
0.019687499999999986
0.019687500000000007
0.019687500000000007
0.019687499999999969
0.019687499999999969
0.0196875
0.019687500000000014
0.019687499999999962
0.019687499999999972
0.019687500000000014
0.019687499999999986
0.019687499999999972
0.019687499999999948
0.019687500000000014
0.019687500000000014
0.019687499999999972
0.019687499999999972
0.019687500000000014
0.019687499999999986
0.019687499999999986
0.019687499999999986
0.019687500000000017
0.019687499999999969
0.019687500000000038
0.019687499999999986
0.019687500000000014
0.019687500000000014
0.019687499999999972
0.019687499999999972
0.0027353190687938677
0.00285026101430519
0.0029652029598165016
0.0030801449053278161
0.0031950868508391385
0.0033100287963504565
0.0034249707418617737
0.003539912687373096
0.0036548546328844184
0.0037697965783957312
0.0022549309712989081
0.0016379110683361533
0.0045025069190913081
0.0053981342731923496
0.004921875000000007
0.0013718866272933658
0.0049218750000000191
0.004921875000000007
0.0022675139813944081
0.0021924153394637961
0.0010148976953487261
0.004921875000000007
0.0049218750000000191
0.0051016877223283644
0.004921875
0.0024614386593824877
0.004743064596436585
0.004921875
0.00029368694585043935
0.0018445461415770741
0.004921874999999987
0.004921874999999987
0.0047719827134498263
0.004921875000000007
0.0014538802316339822
0.0048068562713882868
0.0015719760745567511
0.004921874999999987
0.004921874999999987
0.0048371189219271679
0.004921875000000007
0.0016946828248791184
0.0048627706650663923
0.0014059400581139638
0.0008702523507971027
0.0050717762606780487
0.0049218749999999966
0.0031979844615374516
0.0049218749999999966
0.0013241926623968772
0.004921874999999987
0.0043722758632563042
0.0024984840641157201
0.00065070132038330143
0.0049218749999999966
0.0049218749999999966
0.0025860795332373729
0.0023156784010327221
0.0049218749999999966
0.0046281665379384728
0.0049218749999999966
0.0043876900961385568
0.0049218749999999922
0.0041472136543386374
0.0049218749999999966
0.0039067372125386971
0.0049218749999999922
0.0036662607707387777
0.0049218749999999966
0.0034257843289388643
0.0049218749999999948
0.0031853078871389535
0.0049218749999999948
0.0029448314453390306
0.0049218749999999957
0.0027043550035391068
0.0049218749999999948
0.002463878561739183
0.0049218749999999948
0.0049218749999999948
0.0012920581488832037
0.0011718203737568955
0.0049218749999999948
0.0027043549696986885
0.0049218749999999957
0.0029448314167572808
0.0049218749999999948
0.0031853078638158848
0.0049218749999999948
0.0034257843108744896
0.0049218749999999966
0.0036662607579330958
0.0049218749999999922
0.0039067372049916846
0.0049218749999999966
0.0041472136520502804
0.0049218749999999922
0.0043876900991088805
0.0049218749999999966
0.0046281665461674771
0.0049218749999999966
0.0023156783785949638
0.0025860795566164016
0.0049218749999999966
0.0049218749999999966
0.00065070132038325904
0.0024984840641156698
0.0043722758632562669
0.004921874999999987
0.0013241926623968649
0.0049218749999999966
0.003197984461537452
0.0049218749999999966
0.0050717762606780487
0.0008702523507971027
0.0014059400581139638
0.0048627706650663915
0.0016946828248791184
0.004921875000000007
0.0048371189219271679
0.004921874999999987
0.004921874999999987
0.0015719760745567511
0.0048068562713882868
0.0014538802316339822
0.004921875000000007
0.0047719827134498263
0.004921874999999987
0.004921874999999987
0.0018445461415770741
0.00029368694585043935
0.004743064596436585
0.004921875
0.0024614386593824877
0.0051016877223283644
0.004921875
0.0049218750000000191
0.004921875000000007
0.0010148976953487261
0.0021924153394637961
0.0022675139813944081
0.004921875000000007
0.0049218750000000191
0.0013718866272933753
0.0053981342731923686
0.004921875000000007
0.0045025069190913281
0.0016379110689839754
0.0022549309705109069
0.0037697965770322399
0.0036548546302280797
0.0035399126834239191
0.0034249707366197585
0.003310028789815604
0.0031950868430114473
0.0030801448962072871
0.0029652029494031244
0.0028502610025989555
0.0027353190557947949
0.002463878561739183
0.0049218749999999948
0.0027043550035391068
0.0049218749999999948
0.0029448314453390306
0.0049218749999999957
0.0031853078871389535
0.0049218749999999948
0.0034257843289388643
0.0049218749999999948
0.0036662607707387777
0.0049218749999999966
0.0039067372125386971
0.0049218749999999922
0.0041472136543386374
0.0049218749999999966
0.0050717762606780495
0.0043876900961385568
0.0049218749999999922
0.0046281665379384728
0.0049218749999999966
0.00065070132038330143
0.0024984840641157201
0.0025860795332373729
0.0023156784010327225
0.0049218749999999966
0.0049218749999999966
0.0049218749999999966
0.0043722758632563042
0.0013241926623968772
0.004921874999999987
0.0031979844615374516
0.0049218749999999966
0.0049218749999999966
0.0013963947707537787
0.0013389242494513138
0.0028502609705488621
0.0029652029208926374
0.0030801448712364254
0.0031950868215802016
0.003310028771923974
0.0034249707222677541
0.0035399126726115308
0.0036548546229553166
0.0037697965732991024
0.0045025069190912795
0.0022549309683533958
0.0016379110707575803
0.0053981342731923392
0.001371886627293356
0.004921875000000007
0.0022675139813943986
0.0021924153394637961
0.0010148976953487261
0.0049218750000000191
0.004921875000000007
0.0014059400581139636
0.0008702523507971027
0.0016946828248791184
0.0048627706650663915
0.0015719760745567511
0.0014538802316339822
0.0048068562713882868
0.0048371189219271679
0.004921875000000007
0.004921874999999987
0.004921874999999987
0.0051016877223283644
0.0024614386593824877
0.004743064596436585
0.00029368694585043935
0.0018445461415770741
0.004921875
0.004921875
0.004921875000000007
0.0049218750000000191
0.0047719827134498254
0.004921875000000007
0.004921874999999987
0.004921874999999987
0.069837372646425991
0.038093097790922528
0.037828942719612763
0.043910032843503359
0.058775228417700595
0.14397347142192835
0.14397347902978805
0.058775228425816645
0.043910032843503352
0.037828942719612763
0.038093097773286441
0.069837371246600805
0.069837371246600805
0.038093097773286441
0.037828942719612763
0.043910032843503359
0.058775228419413648
0.14397347302768568
0.14397347742403072
0.058775228424103619
0.043910032843503352
0.037828942719612763
0.03809309775565034
0.069837369846776381
0.077345760441094064
0.049319811166592543
0.047004081217536152
0.049628919437433736
0.062112386035102177
0.14556906571110864
0.14556907332869495
0.062112386052944696
0.049628919437433729
0.047004081217536159
0.049319811127820912
0.077345759020133131
0.077345759020133131
0.049319811127820912
0.047004081217536152
0.049628919437433736
0.062112386038868178
0.14556906731891889
0.14556907172088468
0.062112386049178792
0.049628919437433729
0.047004081217536159
0.049319811089049356
0.077345757599173282
0.042427074117881061
0.042427074117880874
0.030273262271131252
0.030273262271131321
0.028089609857729743
0.028089609857729778
0.027673903015681942
0.027673903015682105
0.032724771826251907
0.032724771826251858
0.073582330000144386
0.07358233000014433
0.073582333813800832
0.07358233381380086
0.032724771840036346
0.032724771840036401
0.027673903015682105
0.027673903015681938
0.028089609857729778
0.028089609857729743
0.030273262241177781
0.030273262241177767
0.042427073396832847
0.042427073396832736
0.042427073396832729
0.042427073396832847
0.030273262241177771
0.030273262241177781
0.028089609857729743
0.028089609857729778
0.027673903015681942
0.027673903015682105
0.032724771829161343
0.032724771829161281
0.07358233080507609
0.073582330805075993
0.073582333008869183
0.073582333008869266
0.032724771837126895
0.03272477183712693
0.027673903015682105
0.027673903015681938
0.028089609857729778
0.028089609857729743
0.030273262211224207
0.030273262211224214
0.042427072675785125
0.042427072675785188
0.0061573393481298821
0.0028185362665514935
0.0029484511161666895
0.0037958339413131847
0.0054078299707586725
0.013744997797119997
0.013744998529082618
0.0054078299708037771
0.0037958339413131856
0.0029484511161666886
0.002818536266453473
0.006157339214915767
0.006157339214915767
0.002818536266453473
0.0029484511161666895
0.0037958339413131847
0.0054078299707681823
0.013744997951612086
0.013744998374590478
0.0054078299707942465
0.0037958339413131856
0.0029484511161666886
0.002818536266355468
0.0061573390817016953
0.0071670355431004591
0.0033700483598722193
0.00349592595410718
0.0044307849229648609
0.0062572701460208401
0.015825043425979866
0.015825044267848455
0.0062572701461842571
0.0044307849229648609
0.0034959259541071817
0.0033700483595171548
0.0071670353896619091
0.0071670353896619091
0.0033700483595171544
0.00349592595410718
0.0044307849229648609
0.006257270146055335
0.015825043603669348
0.015825044090158967
0.0062572701461497612
0.0044307849229648609
0.0034959259541071817
0.0033700483591620574
0.0071670352362232679
0.0083559518992287769
0.0040458032253925264
0.0041594513302299959
0.0051821267765359133
0.0072464670292589827
0.018222996346040358
0.018222997314336686
0.0072464670295943924
0.0051821267765359141
0.0041594513302299959
0.0040458032246636876
0.0083559517224538662
0.0083559517224538644
0.0040458032246636876
0.0041594513302299959
0.0051821267765359133
0.0072464670293297777
0.018222996550414379
0.018222997109962662
0.0072464670295235983
0.0051821267765359141
0.0041594513302299959
0.0040458032239348452
0.0083559515456790492
SCALARS source_id unsigned_long 1
LOOKUP_TABLE default
0
1
2
3
4
5
6
7
8
9
10
11
12
13
14
15
16
17
18
19
20
21
22
23
24
25
26
27
28
29
30
31
32
33
34
35
36
37
38
39
40
41
42
43
44
45
46
47
48
49
50
51
52
53
54
55
56
57
58
59
60
61
62
63
64
65
66
67
68
69
70
71
72
73
74
75
76
77
78
79
80
81
82
83
84
85
86
87
88
89
90
91
92
93
94
95
96
97
98
99
100
101
102
103
104
105
106
107
108
109
110
111
112
113
114
115
116
117
118
119
120
121
122
123
124
125
126
127
128
129
130
131
132
133
134
135
136
137
138
139
140
141
142
143
144
145
146
147
148
149
150
151
152
153
154
155
156
157
158
159
160
161
162
163
164
165
166
167
168
169
170
171
172
173
174
175
176
177
178
179
180
181
182
183
184
185
186
187
188
189
190
191
192
193
194
195
196
197
198
199
200
201
202
203
204
205
206
207
208
209
210
211
212
213
214
215
216
217
218
219
220
221
222
223
224
225
226
227
228
229
230
231
232
233
234
235
236
237
238
239
240
241
242
243
244
245
246
247
248
249
250
251
252
253
254
255
256
257
258
259
260
261
262
263
264
265
266
267
268
269
270
271
272
273
274
275
276
277
278
279
280
281
282
283
284
285
286
287
288
289
290
291
292
293
294
295
296
297
298
299
300
301
302
303
304
305
306
307
308
309
310
311
312
313
314
315
316
317
318
319
320
321
322
323
324
325
326
327
328
329
330
331
332
333
334
335
336
337
338
339
340
341
342
343
344
345
346
347
348
349
350
351
352
353
354
355
356
357
358
359
360
361
362
363
364
365
366
367
368
369
370
371
372
373
374
375
376
377
378
379
380
381
382
383
384
385
386
387
388
389
390
391
392
393
394
395
396
397
398
399
400
401
402
403
404
405
406
407
408
409
410
411
412
413
414
415
416
417
418
419
420
421
422
423
424
425
426
427
428
429
430
431
432
433
434
435
436
437
438
439
440
441
442
443
444
445
446
447
448
449
450
451
452
453
454
455
456
457
458
459
460
461
462
463
464
465
466
467
468
469
470
471
472
473
474
475
476
477
478
479
480
481
482
483
484
485
486
487
488
489
490
491
492
493
494
495
496
497
498
499
500
501
502
503
504
505
506
507
508
509
510
511
512
513
514
515
516
517
518
519
520
521
522
523
524
525
526
527
528
529
530
531
532
533
534
535
536
537
538
539
540
541
542
543
544
545
546
547
548
549
550
551
552
553
554
555
556
557
558
559
560
561
562
563
564
565
566
567
568
569
570
571
572
573
574
575
576
577
578
579
580
581
582
583
584
585
586
587
588
589
590
591
592
593
594
595
596
597
598
599
600
601
602
603
604
605
606
607
608
609
610
611
612
613
614
615
616
617
618
619
620
621
622
623
624
625
626
627
628
629
630
631
632
633
634
635
636
637
638
639
640
641
642
643
644
645
646
647
648
649
650
651
652
653
654
655
656
657
658
659
660
661
662
663
664
665
666
667
668
669
670
671
672
673
674
675
676
677
678
679
680
681
682
683
684
685
686
687
688
689
690
691
692
693
694
695
696
697
698
699
700
701
702
