0
SECTION
2
HEADER
9
$ACADVER
1
AC1027
9
$INSUNITS
70
4
0
ENDSEC
0
SECTION
2
ENTITIES
0
SPLINE
100
AcDbEntity
8
wall_airfoil
100
AcDbSpline
210
0
220
0
230
1
70
8
71
3
72
8
73
4
74
0
40
0
40
0
40
0
40
0
40
1
40
1
40
1
40
1
10
0
20
0
30
0
10
250
20
180
30
0
10
750
20
100
30
0
10
1000
20
0
30
0
0
SPLINE
100
AcDbEntity
8
wall_airfoil
100
AcDbSpline
210
0
220
0
230
1
70
8
71
3
72
8
73
4
74
0
40
0
40
0
40
0
40
0
40
1
40
1
40
1
40
1
10
1000
20
0
30
0
10
750
20
-80
30
0
10
250
20
-120
30
0
10
0
20
0
30
0
0
ENDSEC
0
EOF
