# vtk DataFile Version 3.0
cartmesh2d H4-1 boundary-layer strip
ASCII
DATASET UNSTRUCTURED_GRID
POINTS 160 double
-0.93000000000000005 0.029999999999999999 0
-0.910785280403 -0.16509032201599999 0
-0.85387953251100002 -0.35268343236499999 0
-0.76146961230300003 -0.52557023302000005 0
-0.63710678118700004 -0.67710678118699996 0
-0.48557023302000002 -0.80146961230299996 0
-0.31268343236500001 -0.89387953251100005 0
-0.12509032201600001 -0.95078528040300003 0
0.070000000000000007 -0.96999999999999997 0
0.26509032201600002 -0.95078528040300003 0
0.45268343236500003 -0.89387953251100005 0
0.62557023302000003 -0.80146961230299996 0
0.77710678118700005 -0.67710678118699996 0
0.90146961230300005 -0.52557023302000005 0
0.99387953251100003 -0.35268343236499999 0
1.050785280403 -0.16509032201599999 0
1.0700000000000001 0.029999999999999999 0
1.050785280403 0.22509032201599999 0
0.99387953251100003 0.41268343236499999 0
0.90146961230300005 0.58557023302 0
0.77710678118700005 0.73710678118700002 0
0.62557023302000003 0.86146961230300001 0
0.45268343236500003 0.95387953251099999 0
0.26509032201600002 1.010785280403 0
0.070000000000000007 1.03 0
-0.12509032201600001 1.010785280403 0
-0.31268343236500001 0.95387953251099999 0
-0.48557023302000002 0.86146961230300001 0
-0.63710678118700004 0.73710678118700002 0
-0.76146961230300003 0.58557023302 0
-0.85387953251100002 0.41268343236499999 0
-0.910785280403 0.22509032201599999 0
-0.95009677144752869 0.029999999999999999 0
-0.93049589802235777 -0.16901100762919652 0
-0.87244652832093894 -0.36037413384195444 0
-0.77817946706703722 -0.53673540101600725 0
-0.65131734455750223 -0.69131734455750216 0
-0.49673540101600716 -0.81817946706703715 0
-0.32037413384195446 -0.91244652832093898 0
-0.12901100762919654 -0.97049589802235781 0
0.070000000000000007 -0.99009677144752861 0
0.26901100762919655 -0.97049589802235781 0
0.46037413384195447 -0.91244652832093898 0
0.63673540101600723 -0.81817946706703715 0
0.79131734455750224 -0.69131734455750216 0
0.91817946706703724 -0.53673540101600725 0
1.012446528320939 -0.36037413384195444 0
1.0704958980223578 -0.16901100762919652 0
1.0900967714475287 0.029999999999999999 0
1.0704958980223578 0.22901100762919652 0
1.012446528320939 0.42037413384195443 0
0.91817946706703724 0.59673540101600719 0
0.79131734455750224 0.75131734455750221 0
0.63673540101600723 0.8781794670670372 0
0.46037413384195447 0.97244652832093892 0
0.26901100762919655 1.0304958980223577 0
0.070000000000000007 1.0500967714475287 0
-0.12901100762919654 1.0304958980223577 0
-0.32037413384195446 0.97244652832093892 0
-0.49673540101600716 0.8781794670670372 0
-0.65131734455750223 0.75131734455750221 0
-0.77817946706703722 0.59673540101600719 0
-0.87244652832093894 0.42037413384195443 0
-0.93049589802235777 0.22901100762919652 0
-0.97421289718456316 0.029999999999999999 0
-0.95414863916558723 -0.17371583036503238 0
-0.89472692329286552 -0.36960297561429978 0
-0.79823129278388183 -0.5501336026112158 0
-0.66837002060210493 -0.70837002060210486 0
-0.51013360261121576 -0.83823129278388175 0
-0.3296029756142998 -0.93472692329286555 0
-0.13371583036503237 -0.99414863916558727 0
0.070000000000000007 -1.014212897184563 0
0.27371583036503239 -0.99414863916558727 0
0.46960297561429981 -0.93472692329286555 0
0.65013360261121578 -0.83823129278388175 0
0.80837002060210494 -0.70837002060210486 0
0.93823129278388184 -0.5501336026112158 0
1.0347269232928655 -0.36960297561429978 0
1.0941486391655872 -0.17371583036503238 0
1.1142128971845631 0.029999999999999999 0
1.0941486391655872 0.23371583036503238 0
1.0347269232928655 0.42960297561429978 0
0.93823129278388184 0.61013360261121574 0
0.80837002060210494 0.76837002060210491 0
0.65013360261121578 0.89823129278388181 0
0.46960297561429981 0.99472692329286549 0
0.27371583036503239 1.0541486391655872 0
0.070000000000000007 1.074212897184563 0
-0.1337158303650324 1.0541486391655872 0
-0.3296029756142998 0.99472692329286549 0
-0.51013360261121576 0.89823129278388181 0
-0.66837002060210493 0.76837002060210491 0
-0.79823129278388183 0.61013360261121574 0
-0.89472692329286552 0.42960297561429978 0
-0.95414863916558723 0.23371583036503238 0
-1.0031522480690045 0.029999999999999999 0
-0.98253192853746252 -0.1793616176480354 0
-0.92146339725917759 -0.38067758574111421 0
-0.82229348364409538 -0.56621144452546612 0
-0.68883323185562806 -0.72883323185562809 0
-0.52621144452546609 -0.8622934836440953 0
-0.34067758574111423 -0.96146339725917762 0
-0.1393616176480354 -1.0225319285374626 0
0.070000000000000007 -1.0431522480690043 0
0.27936161764803541 -1.0225319285374626 0
0.48067758574111424 -0.96146339725917762 0
0.6662114445254661 -0.8622934836440953 0
0.82883323185562807 -0.72883323185562809 0
0.96229348364409539 -0.56621144452546612 0
1.0614633972591776 -0.38067758574111421 0
1.1225319285374624 -0.1793616176480354 0
1.1431522480690044 0.029999999999999999 0
1.1225319285374624 0.2393616176480354 0
1.0614633972591776 0.44067758574111421 0
0.96229348364409539 0.62621144452546607 0
0.82883323185562818 0.78883323185562815 0
0.6662114445254661 0.92229348364409536 0
0.48067758574111424 1.0214633972591776 0
0.27936161764803541 1.0825319285374624 0
0.070000000000000007 1.1031522480690044 0
-0.13936161764803542 1.0825319285374624 0
-0.34067758574111423 1.0214633972591776 0
-0.52621144452546609 0.92229348364409536 0
-0.68883323185562806 0.78883323185562815 0
-0.82229348364409538 0.62621144452546607 0
-0.92146339725917759 0.44067758574111421 0
-0.98253192853746252 0.2393616176480354 0
-1.0378794691303339 0.029999999999999999 0
-1.0165918757837127 -0.18613656238763901 0
-0.953547166018752 -0.39396711789329147 0
-0.85116811267635151 -0.58550485482256642 0
-0.7133890853598559 -0.75338908535985594 0
-0.54550485482256639 -0.89116811267635143 0
-0.35396711789329149 -0.99354716601875193 0
-0.146136562387639 -1.0565918757837127 0
0.070000000000000007 -1.0778794691303339 0
0.28613656238763902 -1.0565918757837127 0
0.49396711789329151 -0.99354716601875193 0
0.6855048548225664 -0.89116811267635143 0
0.85338908535985591 -0.75338908535985594 0
0.99116811267635163 -0.58550485482256642 0
1.0935471660187519 -0.39396711789329147 0
1.1565918757837128 -0.18613656238763901 0
1.177879469130334 0.029999999999999999 0
1.1565918757837128 0.24613656238763901 0
1.0935471660187519 0.45396711789329147 0
0.99116811267635163 0.64550485482256637 0
0.85338908535985591 0.81338908535985588 0
0.6855048548225664 0.9511681126763516 0
0.49396711789329151 1.0535471660187519 0
0.28613656238763907 1.1165918757837128 0
0.070000000000000007 1.137879469130334 0
-0.14613656238763903 1.1165918757837128 0
-0.35396711789329149 1.0535471660187519 0
-0.54550485482256639 0.9511681126763516 0
-0.7133890853598559 0.81338908535985588 0
-0.85116811267635151 0.64550485482256637 0
-0.953547166018752 0.45396711789329147 0
-1.0165918757837127 0.24613656238763901 0
CELLS 128 640
4 0 32 33 1
4 1 33 34 2
4 2 34 35 3
4 3 35 36 4
4 4 36 37 5
4 5 37 38 6
4 6 38 39 7
4 7 39 40 8
4 8 40 41 9
4 9 41 42 10
4 10 42 43 11
4 11 43 44 12
4 12 44 45 13
4 13 45 46 14
4 14 46 47 15
4 15 47 48 16
4 16 48 49 17
4 17 49 50 18
4 18 50 51 19
4 19 51 52 20
4 20 52 53 21
4 21 53 54 22
4 22 54 55 23
4 23 55 56 24
4 24 56 57 25
4 25 57 58 26
4 26 58 59 27
4 27 59 60 28
4 28 60 61 29
4 29 61 62 30
4 30 62 63 31
4 31 63 32 0
4 32 64 65 33
4 33 65 66 34
4 34 66 67 35
4 35 67 68 36
4 36 68 69 37
4 37 69 70 38
4 38 70 71 39
4 39 71 72 40
4 40 72 73 41
4 41 73 74 42
4 42 74 75 43
4 43 75 76 44
4 44 76 77 45
4 45 77 78 46
4 46 78 79 47
4 47 79 80 48
4 48 80 81 49
4 49 81 82 50
4 50 82 83 51
4 51 83 84 52
4 52 84 85 53
4 53 85 86 54
4 54 86 87 55
4 55 87 88 56
4 56 88 89 57
4 57 89 90 58
4 58 90 91 59
4 59 91 92 60
4 60 92 93 61
4 61 93 94 62
4 62 94 95 63
4 63 95 64 32
4 64 96 97 65
4 65 97 98 66
4 66 98 99 67
4 67 99 100 68
4 68 100 101 69
4 69 101 102 70
4 70 102 103 71
4 71 103 104 72
4 72 104 105 73
4 73 105 106 74
4 74 106 107 75
4 75 107 108 76
4 76 108 109 77
4 77 109 110 78
4 78 110 111 79
4 79 111 112 80
4 80 112 113 81
4 81 113 114 82
4 82 114 115 83
4 83 115 116 84
4 84 116 117 85
4 85 117 118 86
4 86 118 119 87
4 87 119 120 88
4 88 120 121 89
4 89 121 122 90
4 90 122 123 91
4 91 123 124 92
4 92 124 125 93
4 93 125 126 94
4 94 126 127 95
4 95 127 96 64
4 96 128 129 97
4 97 129 130 98
4 98 130 131 99
4 99 131 132 100
4 100 132 133 101
4 101 133 134 102
4 102 134 135 103
4 103 135 136 104
4 104 136 137 105
4 105 137 138 106
4 106 138 139 107
4 107 139 140 108
4 108 140 141 109
4 109 141 142 110
4 110 142 143 111
4 111 143 144 112
4 112 144 145 113
4 113 145 146 114
4 114 146 147 115
4 115 147 148 116
4 116 148 149 117
4 117 149 150 118
4 118 150 151 119
4 119 151 152 120
4 120 152 153 121
4 121 153 154 122
4 122 154 155 123
4 123 155 156 124
4 124 156 157 125
4 125 157 158 126
4 126 158 159 127
4 127 159 128 96
CELL_TYPES 128
9
9
9
9
9
9
9
9
9
9
9
9
9
9
9
9
9
9
9
9
9
9
9
9
9
9
9
9
9
9
9
9
9
9
9
9
9
9
9
9
9
9
9
9
9
9
9
9
9
9
9
9
9
9
9
9
9
9
9
9
9
9
9
9
9
9
9
9
9
9
9
9
9
9
9
9
9
9
9
9
9
9
9
9
9
9
9
9
9
9
9
9
9
9
9
9
9
9
9
9
9
9
9
9
9
9
9
9
9
9
9
9
9
9
9
9
9
9
9
9
9
9
9
9
9
9
9
9
CELL_DATA 128
SCALARS layer_index int 1
LOOKUP_TABLE default
0
0
0
0
0
0
0
0
0
0
0
0
0
0
0
0
0
0
0
0
0
0
0
0
0
0
0
0
0
0
0
0
1
1
1
1
1
1
1
1
1
1
1
1
1
1
1
1
1
1
1
1
1
1
1
1
1
1
1
1
1
1
1
1
2
2
2
2
2
2
2
2
2
2
2
2
2
2
2
2
2
2
2
2
2
2
2
2
2
2
2
2
2
2
2
2
3
3
3
3
3
3
3
3
3
3
3
3
3
3
3
3
3
3
3
3
3
3
3
3
3
3
3
3
3
3
3
3
SCALARS wall_segment int 1
LOOKUP_TABLE default
0
1
2
3
4
5
6
7
8
9
10
11
12
13
14
15
16
17
18
19
20
21
22
23
24
25
26
27
28
29
30
31
0
1
2
3
4
5
6
7
8
9
10
11
12
13
14
15
16
17
18
19
20
21
22
23
24
25
26
27
28
29
30
31
0
1
2
3
4
5
6
7
8
9
10
11
12
13
14
15
16
17
18
19
20
21
22
23
24
25
26
27
28
29
30
31
0
1
2
3
4
5
6
7
8
9
10
11
12
13
14
15
16
17
18
19
20
21
22
23
24
25
26
27
28
29
30
31
SCALARS cell_area double 1
LOOKUP_TABLE default
0.0039600821745233283
0.0039600821745257725
0.0039600821745268688
0.0039600821745266364
0.0039600821745266346
0.0039600821745268654
0.0039600821745257725
0.0039600821745233283
0.0039600821745233283
0.0039600821745257725
0.0039600821745268671
0.0039600821745266373
0.0039600821745266364
0.0039600821745268671
0.0039600821745257725
0.0039600821745233283
0.0039600821745233283
0.0039600821745257725
0.0039600821745268654
0.0039600821745266381
0.0039600821745266381
0.0039600821745268671
0.0039600821745257725
0.0039600821745233283
0.0039600821745233283
0.0039600821745257725
0.0039600821745268636
0.0039600821745266346
0.0039600821745266381
0.0039600821745268671
0.0039600821745257725
0.0039600821745233283
0.0048561055313735705
0.0048561055313745636
0.0048561055313772871
0.0048561055313783774
0.0048561055313783835
0.0048561055313772871
0.0048561055313745627
0.0048561055313735583
0.0048561055313735592
0.0048561055313745636
0.0048561055313772871
0.0048561055313783782
0.0048561055313783765
0.0048561055313772871
0.0048561055313745636
0.0048561055313735592
0.0048561055313735592
0.0048561055313745636
0.0048561055313772854
0.00485610553137838
0.0048561055313783782
0.0048561055313772854
0.0048561055313745627
0.0048561055313735592
0.0048561055313735601
0.0048561055313745636
0.0048561055313772871
0.0048561055313783835
0.0048561055313783791
0.0048561055313772854
0.0048561055313745636
0.0048561055313735705
0.0059770966052498688
0.0059770966052483214
0.0059770966052536557
0.0059770966052568857
0.0059770966052568857
0.0059770966052536548
0.0059770966052483231
0.0059770966052498688
0.0059770966052498688
0.0059770966052483231
0.0059770966052536557
0.0059770966052568866
0.0059770966052568857
0.0059770966052536557
0.005977096605248311
0.0059770966052498584
0.0059770966052498575
0.005977096605248311
0.0059770966052536539
0.0059770966052568944
0.0059770966052568944
0.0059770966052536548
0.005977096605248311
0.0059770966052498584
0.0059770966052498584
0.0059770966052483101
0.0059770966052536539
0.0059770966052568866
0.0059770966052568857
0.0059770966052536539
0.0059770966052483223
0.0059770966052498696
0.0073881846796461032
0.0073881846796402797
0.0073881846796496429
0.0073881846796563285
0.0073881846796563259
0.0073881846796496325
0.0073881846796402702
0.0073881846796461266
0.0073881846796461266
0.0073881846796402693
0.0073881846796496325
0.0073881846796563268
0.0073881846796563407
0.0073881846796496412
0.007388184679640291
0.00738818467964615
0.00738818467964615
0.007388184679640291
0.0073881846796496412
0.0073881846796563233
0.0073881846796563233
0.0073881846796496394
0.0073881846796402927
0.0073881846796461518
0.0073881846796461509
0.007388184679640291
0.0073881846796496412
0.0073881846796563294
0.0073881846796563242
0.0073881846796496429
0.0073881846796402788
0.0073881846796461032
