# vtk DataFile Version 3.0
cartmesh2d H4-1 boundary-layer strip
ASCII
DATASET UNSTRUCTURED_GRID
POINTS 16 double
0 0 0
2 0 0
2 1 0
0 1 0
-0.040000000000000001 -0.040000000000000001 0
2.04 -0.040000000000000001 0
2.04 1.04 0
-0.040000000000000001 1.04 0
-0.089999999999999983 -0.089999999999999983 0
2.0899999999999999 -0.089999999999999983 0
2.0899999999999999 1.0900000000000001 0
-0.089999999999999983 1.0900000000000001 0
-0.15250000000000002 -0.15250000000000002 0
2.1524999999999999 -0.15250000000000002 0
2.1524999999999999 1.1525000000000001 0
-0.15250000000000002 1.1525000000000001 0
CELLS 12 60
4 0 4 5 1
4 1 5 6 2
4 2 6 7 3
4 3 7 4 0
4 4 8 9 5
4 5 9 10 6
4 6 10 11 7
4 7 11 8 4
4 8 12 13 9
4 9 13 14 10
4 10 14 15 11
4 11 15 12 8
CELL_TYPES 12
9
9
9
9
9
9
9
9
9
9
9
9
CELL_DATA 12
SCALARS layer_index int 1
LOOKUP_TABLE default
0
0
0
0
1
1
1
1
2
2
2
2
SCALARS wall_segment int 1
LOOKUP_TABLE default
0
1
2
3
0
1
2
3
0
1
2
3
SCALARS cell_area double 1
LOOKUP_TABLE default
0.081600000000000006
0.04160000000000004
0.081600000000000075
0.041599999999999998
0.10649999999999996
0.0564999999999998
0.10650000000000009
0.056499999999999988
0.14015625000000007
0.07765625000000001
0.14015624999999998
0.077656250000000066
