0
SECTION
2
HEADER
9
$ACADVER
1
AC1027
9
$INSUNITS
70
4
0
ENDSEC
0
SECTION
2
ENTITIES
0
SPLINE
100
AcDbEntity
8
wall_spline
100
AcDbSpline
210
0
220
0
230
1
70
8
71
3
72
8
73
4
74
0
40
0
40
0
40
0
40
0
40
1
40
1
40
1
40
1
10
500
20
0
30
0
10
500
20
276.1423749153967
30
0
10
276.1423749153967
20
500
30
0
10
0
20
500
30
0
0
SPLINE
100
AcDbEntity
8
wall_spline
100
AcDbSpline
210
0
220
0
230
1
70
8
71
3
72
8
73
4
74
0
40
0
40
0
40
0
40
0
40
1
40
1
40
1
40
1
10
0
20
500
30
0
10
-276.1423749153967
20
500
30
0
10
-500
20
276.1423749153967
30
0
10
-500
20
0
30
0
0
SPLINE
100
AcDbEntity
8
wall_spline
100
AcDbSpline
210
0
220
0
230
1
70
8
71
3
72
8
73
4
74
0
40
0
40
0
40
0
40
0
40
1
40
1
40
1
40
1
10
-500
20
0
30
0
10
-500
20
-276.1423749153967
30
0
10
-276.1423749153967
20
-500
30
0
10
0
20
-500
30
0
0
SPLINE
100
AcDbEntity
8
wall_spline
100
AcDbSpline
210
0
220
0
230
1
70
8
71
3
72
8
73
4
74
0
40
0
40
0
40
0
40
0
40
1
40
1
40
1
40
1
10
0
20
-500
30
0
10
276.1423749153967
20
-500
30
0
10
500
20
-276.1423749153967
30
0
10
500
20
0
30
0
0
ENDSEC
0
EOF
