# vtk DataFile Version 3.0
cartmesh2d deterministic topology export
ASCII
DATASET UNSTRUCTURED_GRID
POINTS 959 double
-1 -1 0
-1 -0.625 0
-1 -0.25 0
-1 0.125 0
-1 0.5 0
-1 0.875 0
-1 1.25 0
-1 1.625 0
-1 2 0
-0.47499999999999998 -1 0
-0.47499999999999998 -0.625 0
-0.47499999999999998 -0.4375 0
-0.47499999999999998 -0.25 0
-0.47499999999999998 -0.0625 0
-0.47499999999999998 0.125 0
-0.47499999999999998 0.3125 0
-0.47499999999999998 0.5 0
-0.47499999999999998 0.6875 0
-0.47499999999999998 0.875 0
-0.47499999999999998 1.0625 0
-0.47499999999999998 1.25 0
-0.47499999999999998 1.4375 0
-0.47499999999999998 1.625 0
-0.47499999999999998 2 0
-0.21249999999999997 -0.625 0
-0.21249999999999997 -0.4375 0
-0.21249999999999997 -0.25 0
-0.21249999999999997 -0.15625 0
-0.21249999999999997 -0.0625 0
-0.21249999999999997 0.03125 0
-0.21249999999999997 0.125 0
-0.21249999999999997 0.21875 0
-0.21249999999999997 0.3125 0
-0.21249999999999997 0.40625 0
-0.21249999999999997 0.5 0
-0.21249999999999997 0.59375 0
-0.21249999999999997 0.6875 0
-0.21249999999999997 0.78125 0
-0.21249999999999997 0.875 0
-0.21249999999999997 0.96875 0
-0.21249999999999997 1.0625 0
-0.21249999999999997 1.15625 0
-0.21249999999999997 1.25 0
-0.21249999999999997 1.4375 0
-0.21249999999999997 1.625 0
-0.081249999999999961 -0.25 0
-0.081249999999999961 -0.15625 0
-0.081249999999999961 -0.0625 0
-0.081249999999999961 -0.015625 0
-0.081249999999999961 0.03125 0
-0.081249999999999961 0.078125 0
-0.081249999999999961 0.125 0
-0.081249999999999961 0.171875 0
-0.081249999999999961 0.21875 0
-0.081249999999999961 0.265625 0
-0.081249999999999961 0.3125 0
-0.081249999999999961 0.359375 0
-0.081249999999999961 0.40625 0
-0.081249999999999961 0.453125 0
-0.081249999999999961 0.5 0
-0.081249999999999961 0.546875 0
-0.081249999999999961 0.59375 0
-0.081249999999999961 0.640625 0
-0.081249999999999961 0.6875 0
-0.081249999999999961 0.734375 0
-0.081249999999999961 0.78125 0
-0.081249999999999961 0.828125 0
-0.081249999999999961 0.875 0
-0.081249999999999961 0.921875 0
-0.081249999999999961 0.96875 0
-0.081249999999999961 1.015625 0
-0.081249999999999961 1.0625 0
-0.081249999999999961 1.15625 0
-0.081249999999999961 1.25 0
-0.015624999999999958 -0.0625 0
-0.015624999999999958 -0.015625 0
-0.015624999999999958 0.0078125 0
-0.015624999999999958 0.03125 0
-0.015624999999999958 0.0546875 0
-0.015624999999999958 0.078125 0
-0.015624999999999958 0.1015625 0
-0.015624999999999958 0.125 0
-0.015624999999999958 0.1484375 0
-0.015624999999999958 0.171875 0
-0.015624999999999958 0.1953125 0
-0.015624999999999958 0.21875 0
-0.015624999999999958 0.2421875 0
-0.015624999999999958 0.265625 0
-0.015624999999999958 0.2890625 0
-0.015624999999999958 0.3125 0
-0.015624999999999958 0.3359375 0
-0.015624999999999958 0.359375 0
-0.015624999999999958 0.3828125 0
-0.015624999999999958 0.40625 0
-0.015624999999999958 0.4296875 0
-0.015624999999999958 0.453125 0
-0.015624999999999958 0.4765625 0
-0.015624999999999958 0.5 0
-0.015624999999999958 0.5234375 0
-0.015624999999999958 0.546875 0
-0.015624999999999958 0.5703125 0
-0.015624999999999958 0.59375 0
-0.015624999999999958 0.6171875 0
-0.015624999999999958 0.640625 0
-0.015624999999999958 0.6640625 0
-0.015624999999999958 0.6875 0
-0.015624999999999958 0.7109375 0
-0.015624999999999958 0.734375 0
-0.015624999999999958 0.7578125 0
-0.015624999999999958 0.78125 0
-0.015624999999999958 0.8046875 0
-0.015624999999999958 0.828125 0
-0.015624999999999958 0.8515625 0
-0.015624999999999958 0.875 0
-0.015624999999999958 0.8984375 0
-0.015624999999999958 0.921875 0
-0.015624999999999958 0.9453125 0
-0.015624999999999958 0.96875 0
-0.015624999999999958 0.9921875 0
-0.015624999999999958 1.015625 0
-0.015624999999999958 1.0625 0
0 0 0
0 0.0078125 0
0 0.03125 0
0 0.0546875 0
0 0.078125 0
0 0.1015625 0
0 0.125 0
0 0.1484375 0
0 0.171875 0
0 0.1953125 0
0 0.21875 0
0 0.2421875 0
0 0.265625 0
0 0.2890625 0
0 0.3125 0
0 0.3359375 0
0 0.359375 0
0 0.3828125 0
0 0.40625 0
0 0.4296875 0
0 0.453125 0
0 0.4765625 0
0 0.5 0
0 0.5234375 0
0 0.546875 0
0 0.5703125 0
0 0.59375 0
0 0.6171875 0
0 0.640625 0
0 0.6640625 0
0 0.6875 0
0 0.7109375 0
0 0.734375 0
0 0.7578125 0
0 0.78125 0
0 0.8046875 0
0 0.828125 0
0 0.8515625 0
0 0.875 0
0 0.8984375 0
0 0.921875 0
0 0.9453125 0
0 0.96875 0
0 0.9921875 0
0 1 0
0.017187500000000043 -0.015625 0
0.017187500000000043 0 0
0.017187500000000043 1 0
0.017187500000000043 1.015625 0
0.050000000000000044 -1 0
0.050000000000000044 -0.625 0
0.050000000000000044 -0.4375 0
0.050000000000000044 -0.25 0
0.050000000000000044 -0.15625 0
0.050000000000000044 -0.0625 0
0.050000000000000044 -0.015625 0
0.050000000000000044 0 0
0.050000000000000044 1 0
0.050000000000000044 1.015625 0
0.050000000000000044 1.0625 0
0.050000000000000044 1.15625 0
0.050000000000000044 1.25 0
0.050000000000000044 1.4375 0
0.050000000000000044 1.625 0
0.050000000000000044 2 0
0.082812500000000039 -0.015625 0
0.082812500000000039 0 0
0.082812500000000039 1 0
0.082812500000000039 1.015625 0
0.11562500000000005 -0.0625 0
0.11562500000000005 -0.015625 0
0.11562500000000005 0 0
0.11562500000000005 1 0
0.11562500000000005 1.015625 0
0.11562500000000005 1.0625 0
0.14843750000000006 -0.015625 0
0.14843750000000006 0 0
0.14843750000000006 1 0
0.14843750000000006 1.015625 0
0.18125000000000005 -0.25 0
0.18125000000000005 -0.15625 0
0.18125000000000005 -0.0625 0
0.18125000000000005 -0.015625 0
0.18125000000000005 0 0
0.18125000000000005 1 0
0.18125000000000005 1.015625 0
0.18125000000000005 1.0625 0
0.18125000000000005 1.15625 0
0.18125000000000005 1.25 0
0.21406250000000004 -0.015625 0
0.21406250000000004 0 0
0.21406250000000004 1 0
0.21406250000000004 1.015625 0
0.24687500000000007 -0.0625 0
0.24687500000000007 -0.015625 0
0.24687500000000007 0 0
0.24687500000000007 1 0
0.24687500000000007 1.015625 0
0.24687500000000007 1.0625 0
0.27968750000000003 -0.015625 0
0.27968750000000003 0 0
0.27968750000000003 1 0
0.27968750000000003 1.015625 0
0.31250000000000006 -0.625 0
0.31250000000000006 -0.4375 0
0.31250000000000006 -0.25 0
0.31250000000000006 -0.15625 0
0.31250000000000006 -0.0625 0
0.31250000000000006 -0.015625 0
0.31250000000000006 0 0
0.31250000000000006 1 0
0.31250000000000006 1.015625 0
0.31250000000000006 1.0625 0
0.31250000000000006 1.15625 0
0.31250000000000006 1.25 0
0.31250000000000006 1.4375 0
0.31250000000000006 1.625 0
0.34531250000000008 -0.015625 0
0.34531250000000008 0 0
0.34531250000000008 1 0
0.34531250000000008 1.015625 0
0.37812500000000004 -0.0625 0
0.37812500000000004 -0.015625 0
0.37812500000000004 0 0
0.37812500000000004 1 0
0.37812500000000004 1.015625 0
0.37812500000000004 1.0625 0
0.41093750000000007 -0.015625 0
0.41093750000000007 0 0
0.41093750000000007 1 0
0.41093750000000007 1.015625 0
0.44375000000000009 -0.25 0
0.44375000000000009 -0.15625 0
0.44375000000000009 -0.0625 0
0.44375000000000009 -0.015625 0
0.44375000000000009 0 0
0.44375000000000009 1 0
0.44375000000000009 1.015625 0
0.44375000000000009 1.0625 0
0.44375000000000009 1.15625 0
0.44375000000000009 1.25 0
0.47656250000000006 -0.015625 0
0.47656250000000006 0 0
0.47656250000000006 1 0
0.47656250000000006 1.015625 0
0.50937500000000002 -0.0625 0
0.50937500000000002 -0.015625 0
0.50937500000000002 0 0
0.50937500000000002 1 0
0.50937500000000002 1.015625 0
0.50937500000000002 1.0625 0
0.54218750000000004 -0.015625 0
0.54218750000000004 0 0
0.54218750000000004 1 0
0.54218750000000004 1.015625 0
0.57500000000000007 -1 0
0.57500000000000007 -0.625 0
0.57500000000000007 -0.4375 0
0.57500000000000007 -0.25 0
0.57500000000000007 -0.15625 0
0.57500000000000007 -0.0625 0
0.57500000000000007 -0.015625 0
0.57500000000000007 0 0
0.57500000000000007 1 0
0.57500000000000007 1.015625 0
0.57500000000000007 1.0625 0
0.57500000000000007 1.15625 0
0.57500000000000007 1.25 0
0.57500000000000007 1.4375 0
0.57500000000000007 1.625 0
0.57500000000000007 2 0
0.60781250000000009 -0.015625 0
0.60781250000000009 0 0
0.60781250000000009 1 0
0.60781250000000009 1.015625 0
0.64062500000000011 -0.0625 0
0.64062500000000011 -0.015625 0
0.64062500000000011 0 0
0.64062500000000011 1 0
0.64062500000000011 1.015625 0
0.64062500000000011 1.0625 0
0.67343750000000002 -0.015625 0
0.67343750000000002 0 0
0.67343750000000002 1 0
0.67343750000000002 1.015625 0
0.70625000000000004 -0.25 0
0.70625000000000004 -0.15625 0
0.70625000000000004 -0.0625 0
0.70625000000000004 -0.015625 0
0.70625000000000004 0 0
0.70625000000000004 1 0
0.70625000000000004 1.015625 0
0.70625000000000004 1.0625 0
0.70625000000000004 1.15625 0
0.70625000000000004 1.25 0
0.73906250000000007 -0.015625 0
0.73906250000000007 0 0
0.73906250000000007 1 0
0.73906250000000007 1.015625 0
0.77187500000000009 -0.0625 0
0.77187500000000009 -0.015625 0
0.77187500000000009 0 0
0.77187500000000009 1 0
0.77187500000000009 1.015625 0
0.77187500000000009 1.0625 0
0.80468750000000011 -0.015625 0
0.80468750000000011 0 0
0.80468750000000011 1 0
0.80468750000000011 1.015625 0
0.83750000000000013 -0.625 0
0.83750000000000013 -0.4375 0
0.83750000000000013 -0.25 0
0.83750000000000013 -0.15625 0
0.83750000000000013 -0.0625 0
0.83750000000000013 -0.015625 0
0.83750000000000013 0 0
0.83750000000000013 1 0
0.83750000000000013 1.015625 0
0.83750000000000013 1.0625 0
0.83750000000000013 1.15625 0
0.83750000000000013 1.25 0
0.83750000000000013 1.4375 0
0.83750000000000013 1.625 0
0.87031250000000004 -0.015625 0
0.87031250000000004 0 0
0.87031250000000004 1 0
0.87031250000000004 1.015625 0
0.90312500000000007 -0.0625 0
0.90312500000000007 -0.015625 0
0.90312500000000007 0 0
0.90312500000000007 1 0
0.90312500000000007 1.015625 0
0.90312500000000007 1.0625 0
0.93593750000000009 -0.015625 0
0.93593750000000009 0 0
0.93593750000000009 1 0
0.93593750000000009 1.015625 0
0.96875000000000011 -0.25 0
0.96875000000000011 -0.15625 0
0.96875000000000011 -0.0625 0
0.96875000000000011 -0.015625 0
0.96875000000000011 0 0
0.96875000000000011 1 0
0.96875000000000011 1.015625 0
0.96875000000000011 1.0625 0
0.96875000000000011 1.15625 0
0.96875000000000011 1.25 0
1 0 0
1 0.0078125 0
1 0.03125 0
1 0.0546875 0
1 0.078125 0
1 0.1015625 0
1 0.125 0
1 0.1484375 0
1 0.171875 0
1 0.1953125 0
1 0.21875 0
1 0.2421875 0
1 0.265625 0
1 0.2890625 0
1 0.3125 0
1 0.3359375 0
1 0.359375 0
1 0.3828125 0
1 0.40625 0
1 0.4296875 0
1 0.453125 0
1 0.4765625 0
1 0.5 0
1 0.5234375 0
1 0.546875 0
1 0.5703125 0
1 0.59375 0
1 0.6171875 0
1 0.640625 0
1 0.6640625 0
1 0.6875 0
1 0.7109375 0
1 0.734375 0
1 0.7578125 0
1 0.78125 0
1 0.8046875 0
1 0.828125 0
1 0.8515625 0
1 0.875 0
1 0.8984375 0
1 0.921875 0
1 0.9453125 0
1 0.96875 0
1 0.9921875 0
1 1 0
1.0015625000000001 -0.015625 0
1.0015625000000001 0.9921875 0
1.0015625000000001 1.015625 0
1.034375 -0.0625 0
1.034375 -0.015625 0
1.034375 0.0078125 0
1.034375 0.03125 0
1.034375 0.0546875 0
1.034375 0.078125 0
1.034375 0.1015625 0
1.034375 0.125 0
1.034375 0.1484375 0
1.034375 0.171875 0
1.034375 0.1953125 0
1.034375 0.21875 0
1.034375 0.2421875 0
1.034375 0.265625 0
1.034375 0.2890625 0
1.034375 0.3125 0
1.034375 0.3359375 0
1.034375 0.359375 0
1.034375 0.3828125 0
1.034375 0.40625 0
1.034375 0.4296875 0
1.034375 0.453125 0
1.034375 0.4765625 0
1.034375 0.5 0
1.034375 0.5234375 0
1.034375 0.546875 0
1.034375 0.5703125 0
1.034375 0.59375 0
1.034375 0.6171875 0
1.034375 0.640625 0
1.034375 0.6640625 0
1.034375 0.6875 0
1.034375 0.7109375 0
1.034375 0.734375 0
1.034375 0.7578125 0
1.034375 0.78125 0
1.034375 0.8046875 0
1.034375 0.828125 0
1.034375 0.8515625 0
1.034375 0.875 0
1.034375 0.8984375 0
1.034375 0.921875 0
1.034375 0.9453125 0
1.034375 0.96875 0
1.034375 0.9921875 0
1.034375 1.015625 0
1.034375 1.0625 0
1.1000000000000001 -1 0
1.1000000000000001 -0.625 0
1.1000000000000001 -0.4375 0
1.1000000000000001 -0.25 0
1.1000000000000001 -0.15625 0
1.1000000000000001 -0.0625 0
1.1000000000000001 -0.015625 0
1.1000000000000001 0.03125 0
1.1000000000000001 0.078125 0
1.1000000000000001 0.125 0
1.1000000000000001 0.171875 0
1.1000000000000001 0.21875 0
1.1000000000000001 0.265625 0
1.1000000000000001 0.3125 0
1.1000000000000001 0.359375 0
1.1000000000000001 0.40625 0
1.1000000000000001 0.453125 0
1.1000000000000001 0.5 0
1.1000000000000001 0.546875 0
1.1000000000000001 0.59375 0
1.1000000000000001 0.640625 0
1.1000000000000001 0.6875 0
1.1000000000000001 0.734375 0
1.1000000000000001 0.78125 0
1.1000000000000001 0.828125 0
1.1000000000000001 0.875 0
1.1000000000000001 0.921875 0
1.1000000000000001 0.96875 0
1.1000000000000001 1.015625 0
1.1000000000000001 1.0625 0
1.1000000000000001 1.15625 0
1.1000000000000001 1.25 0
1.1000000000000001 1.4375 0
1.1000000000000001 1.625 0
1.1000000000000001 2 0
1.1656250000000001 -0.0625 0
1.1656250000000001 -0.015625 0
1.1656250000000001 0.0078125 0
1.1656250000000001 0.03125 0
1.1656250000000001 0.0546875 0
1.1656250000000001 0.078125 0
1.1656250000000001 0.1015625 0
1.1656250000000001 0.125 0
1.1656250000000001 0.1484375 0
1.1656250000000001 0.171875 0
1.1656250000000001 0.1953125 0
1.1656250000000001 0.21875 0
1.1656250000000001 0.2421875 0
1.1656250000000001 0.265625 0
1.1656250000000001 0.2890625 0
1.1656250000000001 0.3125 0
1.1656250000000001 0.3359375 0
1.1656250000000001 0.359375 0
1.1656250000000001 0.3828125 0
1.1656250000000001 0.40625 0
1.1656250000000001 0.4296875 0
1.1656250000000001 0.453125 0
1.1656250000000001 0.4765625 0
1.1656250000000001 0.5 0
1.1656250000000001 0.5234375 0
1.1656250000000001 0.546875 0
1.1656250000000001 0.5703125 0
1.1656250000000001 0.59375 0
1.1656250000000001 0.6171875 0
1.1656250000000001 0.640625 0
1.1656250000000001 0.6640625 0
1.1656250000000001 0.6875 0
1.1656250000000001 0.7109375 0
1.1656250000000001 0.734375 0
1.1656250000000001 0.7578125 0
1.1656250000000001 0.78125 0
1.1656250000000001 0.8046875 0
1.1656250000000001 0.828125 0
1.1656250000000001 0.8515625 0
1.1656250000000001 0.875 0
1.1656250000000001 0.8984375 0
1.1656250000000001 0.921875 0
1.1656250000000001 0.9453125 0
1.1656250000000001 0.96875 0
1.1656250000000001 1.015625 0
1.1656250000000001 1.0625 0
1.1984375 -0.015625 0
1.1984375 0.0078125 0
1.2 0 0
1.2 0.0078125 0
1.2 0.03125 0
1.2 0.0546875 0
1.2 0.078125 0
1.2 0.1015625 0
1.2 0.125 0
1.2 0.1484375 0
1.2 0.171875 0
1.2 0.1953125 0
1.2 0.21875 0
1.2 0.2421875 0
1.2 0.265625 0
1.2 0.2890625 0
1.2 0.3125 0
1.2 0.3359375 0
1.2 0.359375 0
1.2 0.3828125 0
1.2 0.40625 0
1.2 0.4296875 0
1.2 0.453125 0
1.2 0.4765625 0
1.2 0.5 0
1.2 0.5234375 0
1.2 0.546875 0
1.2 0.5703125 0
1.2 0.59375 0
1.2 0.6171875 0
1.2 0.640625 0
1.2 0.6640625 0
1.2 0.6875 0
1.2 0.7109375 0
1.2 0.734375 0
1.2 0.7578125 0
1.2 0.78125 0
1.2 0.8046875 0
1.2 0.828125 0
1.2 0.8515625 0
1.2 0.875 0
1.2 0.8984375 0
1.2 0.921875 0
1.2 0.9453125 0
1.2 0.96875 0
1.2 0.9921875 0
1.2 1 0
1.2312500000000002 -0.25 0
1.2312500000000002 -0.15625 0
1.2312500000000002 -0.0625 0
1.2312500000000002 -0.015625 0
1.2312500000000002 0 0
1.2312500000000002 1 0
1.2312500000000002 1.015625 0
1.2312500000000002 1.0625 0
1.2312500000000002 1.15625 0
1.2312500000000002 1.25 0
1.2640625000000001 -0.015625 0
1.2640625000000001 0 0
1.2640625000000001 1 0
1.2640625000000001 1.015625 0
1.296875 -0.0625 0
1.296875 -0.015625 0
1.296875 0 0
1.296875 1 0
1.296875 1.015625 0
1.296875 1.0625 0
1.3296875000000001 -0.015625 0
1.3296875000000001 0 0
1.3296875000000001 1 0
1.3296875000000001 1.015625 0
1.3625 -0.625 0
1.3625 -0.4375 0
1.3625 -0.25 0
1.3625 -0.15625 0
1.3625 -0.0625 0
1.3625 -0.015625 0
1.3625 0 0
1.3625 1 0
1.3625 1.015625 0
1.3625 1.0625 0
1.3625 1.15625 0
1.3625 1.25 0
1.3625 1.4375 0
1.3625 1.625 0
1.3953125000000002 -0.015625 0
1.3953125000000002 0 0
1.3953125000000002 1 0
1.3953125000000002 1.015625 0
1.4281250000000001 -0.0625 0
1.4281250000000001 -0.015625 0
1.4281250000000001 0 0
1.4281250000000001 1 0
1.4281250000000001 1.015625 0
1.4281250000000001 1.0625 0
1.4609375 -0.015625 0
1.4609375 0 0
1.4609375 1 0
1.4609375 1.015625 0
1.4937500000000001 -0.25 0
1.4937500000000001 -0.15625 0
1.4937500000000001 -0.0625 0
1.4937500000000001 -0.015625 0
1.4937500000000001 0 0
1.4937500000000001 1 0
1.4937500000000001 1.015625 0
1.4937500000000001 1.0625 0
1.4937500000000001 1.15625 0
1.4937500000000001 1.25 0
1.5265625 -0.015625 0
1.5265625 0 0
1.5265625 1 0
1.5265625 1.015625 0
1.5593750000000002 -0.0625 0
1.5593750000000002 -0.015625 0
1.5593750000000002 0 0
1.5593750000000002 1 0
1.5593750000000002 1.015625 0
1.5593750000000002 1.0625 0
1.5921875000000001 -0.015625 0
1.5921875000000001 0 0
1.5921875000000001 1 0
1.5921875000000001 1.015625 0
1.625 -1 0
1.625 -0.625 0
1.625 -0.4375 0
1.625 -0.25 0
1.625 -0.15625 0
1.625 -0.0625 0
1.625 -0.015625 0
1.625 0 0
1.625 1 0
1.625 1.015625 0
1.625 1.0625 0
1.625 1.15625 0
1.625 1.25 0
1.625 1.4375 0
1.625 1.625 0
1.625 2 0
1.6578125000000001 -0.015625 0
1.6578125000000001 0 0
1.6578125000000001 1 0
1.6578125000000001 1.015625 0
1.690625 -0.0625 0
1.690625 -0.015625 0
1.690625 0 0
1.690625 1 0
1.690625 1.015625 0
1.690625 1.0625 0
1.7234375000000002 -0.015625 0
1.7234375000000002 0 0
1.7234375000000002 1 0
1.7234375000000002 1.015625 0
1.7562500000000001 -0.25 0
1.7562500000000001 -0.15625 0
1.7562500000000001 -0.0625 0
1.7562500000000001 -0.015625 0
1.7562500000000001 0 0
1.7562500000000001 1 0
1.7562500000000001 1.015625 0
1.7562500000000001 1.0625 0
1.7562500000000001 1.15625 0
1.7562500000000001 1.25 0
1.7890625000000002 -0.015625 0
1.7890625000000002 0 0
1.7890625000000002 1 0
1.7890625000000002 1.015625 0
1.8218750000000001 -0.0625 0
1.8218750000000001 -0.015625 0
1.8218750000000001 0 0
1.8218750000000001 1 0
1.8218750000000001 1.015625 0
1.8218750000000001 1.0625 0
1.8546875 -0.015625 0
1.8546875 0 0
1.8546875 1 0
1.8546875 1.015625 0
1.8875000000000002 -0.625 0
1.8875000000000002 -0.4375 0
1.8875000000000002 -0.25 0
1.8875000000000002 -0.15625 0
1.8875000000000002 -0.0625 0
1.8875000000000002 -0.015625 0
1.8875000000000002 0 0
1.8875000000000002 1 0
1.8875000000000002 1.015625 0
1.8875000000000002 1.0625 0
1.8875000000000002 1.15625 0
1.8875000000000002 1.25 0
1.8875000000000002 1.4375 0
1.8875000000000002 1.625 0
1.9203125000000001 -0.015625 0
1.9203125000000001 0 0
1.9203125000000001 1 0
1.9203125000000001 1.015625 0
1.9531250000000002 -0.0625 0
1.9531250000000002 -0.015625 0
1.9531250000000002 0 0
1.9531250000000002 1 0
1.9531250000000002 1.015625 0
1.9531250000000002 1.0625 0
1.9859375000000001 -0.015625 0
1.9859375000000001 0 0
1.9859375000000001 1 0
1.9859375000000001 1.015625 0
2.0187500000000003 -0.25 0
2.0187500000000003 -0.15625 0
2.0187500000000003 -0.0625 0
2.0187500000000003 -0.015625 0
2.0187500000000003 0 0
2.0187500000000003 1 0
2.0187500000000003 1.015625 0
2.0187500000000003 1.0625 0
2.0187500000000003 1.15625 0
2.0187500000000003 1.25 0
2.0515625000000002 -0.015625 0
2.0515625000000002 0 0
2.0515625000000002 1 0
2.0515625000000002 1.015625 0
2.0843750000000001 -0.0625 0
2.0843750000000001 -0.015625 0
2.0843750000000001 0 0
2.0843750000000001 1 0
2.0843750000000001 1.015625 0
2.0843750000000001 1.0625 0
2.1171875 -0.015625 0
2.1171875 0 0
2.1171875 1 0
2.1171875 1.015625 0
2.1500000000000004 -1 0
2.1500000000000004 -0.625 0
2.1500000000000004 -0.4375 0
2.1500000000000004 -0.25 0
2.1500000000000004 -0.15625 0
2.1500000000000004 -0.0625 0
2.1500000000000004 -0.015625 0
2.1500000000000004 0 0
2.1500000000000004 1 0
2.1500000000000004 1.015625 0
2.1500000000000004 1.0625 0
2.1500000000000004 1.15625 0
2.1500000000000004 1.25 0
2.1500000000000004 1.4375 0
2.1500000000000004 1.625 0
2.1500000000000004 2 0
2.1828125000000003 -0.015625 0
2.1828125000000003 0 0
2.1828125000000003 1 0
2.1828125000000003 1.015625 0
2.2000000000000002 0 0
2.2000000000000002 0.0078125 0
2.2000000000000002 0.03125 0
2.2000000000000002 0.0546875 0
2.2000000000000002 0.078125 0
2.2000000000000002 0.1015625 0
2.2000000000000002 0.125 0
2.2000000000000002 0.1484375 0
2.2000000000000002 0.171875 0
2.2000000000000002 0.1953125 0
2.2000000000000002 0.21875 0
2.2000000000000002 0.2421875 0
2.2000000000000002 0.265625 0
2.2000000000000002 0.2890625 0
2.2000000000000002 0.3125 0
2.2000000000000002 0.3359375 0
2.2000000000000002 0.359375 0
2.2000000000000002 0.3828125 0
2.2000000000000002 0.40625 0
2.2000000000000002 0.4296875 0
2.2000000000000002 0.453125 0
2.2000000000000002 0.4765625 0
2.2000000000000002 0.5 0
2.2000000000000002 0.5234375 0
2.2000000000000002 0.546875 0
2.2000000000000002 0.5703125 0
2.2000000000000002 0.59375 0
2.2000000000000002 0.6171875 0
2.2000000000000002 0.640625 0
2.2000000000000002 0.6640625 0
2.2000000000000002 0.6875 0
2.2000000000000002 0.7109375 0
2.2000000000000002 0.734375 0
2.2000000000000002 0.7578125 0
2.2000000000000002 0.78125 0
2.2000000000000002 0.8046875 0
2.2000000000000002 0.828125 0
2.2000000000000002 0.8515625 0
2.2000000000000002 0.875 0
2.2000000000000002 0.8984375 0
2.2000000000000002 0.921875 0
2.2000000000000002 0.9453125 0
2.2000000000000002 0.96875 0
2.2000000000000002 0.9921875 0
2.2000000000000002 1 0
2.2156250000000002 -0.0625 0
2.2156250000000002 -0.015625 0
2.2156250000000002 0.0078125 0
2.2156250000000002 0.03125 0
2.2156250000000002 0.0546875 0
2.2156250000000002 0.078125 0
2.2156250000000002 0.1015625 0
2.2156250000000002 0.125 0
2.2156250000000002 0.1484375 0
2.2156250000000002 0.171875 0
2.2156250000000002 0.1953125 0
2.2156250000000002 0.21875 0
2.2156250000000002 0.2421875 0
2.2156250000000002 0.265625 0
2.2156250000000002 0.2890625 0
2.2156250000000002 0.3125 0
2.2156250000000002 0.3359375 0
2.2156250000000002 0.359375 0
2.2156250000000002 0.3828125 0
2.2156250000000002 0.40625 0
2.2156250000000002 0.4296875 0
2.2156250000000002 0.453125 0
2.2156250000000002 0.4765625 0
2.2156250000000002 0.5 0
2.2156250000000002 0.5234375 0
2.2156250000000002 0.546875 0
2.2156250000000002 0.5703125 0
2.2156250000000002 0.59375 0
2.2156250000000002 0.6171875 0
2.2156250000000002 0.640625 0
2.2156250000000002 0.6640625 0
2.2156250000000002 0.6875 0
2.2156250000000002 0.7109375 0
2.2156250000000002 0.734375 0
2.2156250000000002 0.7578125 0
2.2156250000000002 0.78125 0
2.2156250000000002 0.8046875 0
2.2156250000000002 0.828125 0
2.2156250000000002 0.8515625 0
2.2156250000000002 0.875 0
2.2156250000000002 0.8984375 0
2.2156250000000002 0.921875 0
2.2156250000000002 0.9453125 0
2.2156250000000002 0.96875 0
2.2156250000000002 0.9921875 0
2.2156250000000002 1.015625 0
2.2156250000000002 1.0625 0
2.28125 -0.25 0
2.28125 -0.15625 0
2.28125 -0.0625 0
2.28125 -0.015625 0
2.28125 0.03125 0
2.28125 0.078125 0
2.28125 0.125 0
2.28125 0.171875 0
2.28125 0.21875 0
2.28125 0.265625 0
2.28125 0.3125 0
2.28125 0.359375 0
2.28125 0.40625 0
2.28125 0.453125 0
2.28125 0.5 0
2.28125 0.546875 0
2.28125 0.59375 0
2.28125 0.640625 0
2.28125 0.6875 0
2.28125 0.734375 0
2.28125 0.78125 0
2.28125 0.828125 0
2.28125 0.875 0
2.28125 0.921875 0
2.28125 0.96875 0
2.28125 1.015625 0
2.28125 1.0625 0
2.28125 1.15625 0
2.28125 1.25 0
2.4125000000000001 -0.625 0
2.4125000000000001 -0.4375 0
2.4125000000000001 -0.25 0
2.4125000000000001 -0.15625 0
2.4125000000000001 -0.0625 0
2.4125000000000001 0.03125 0
2.4125000000000001 0.125 0
2.4125000000000001 0.21875 0
2.4125000000000001 0.3125 0
2.4125000000000001 0.40625 0
2.4125000000000001 0.5 0
2.4125000000000001 0.59375 0
2.4125000000000001 0.6875 0
2.4125000000000001 0.78125 0
2.4125000000000001 0.875 0
2.4125000000000001 0.96875 0
2.4125000000000001 1.0625 0
2.4125000000000001 1.15625 0
2.4125000000000001 1.25 0
2.4125000000000001 1.4375 0
2.4125000000000001 1.625 0
2.6750000000000003 -1 0
2.6750000000000003 -0.625 0
2.6750000000000003 -0.4375 0
2.6750000000000003 -0.25 0
2.6750000000000003 -0.0625 0
2.6750000000000003 0.125 0
2.6750000000000003 0.3125 0
2.6750000000000003 0.5 0
2.6750000000000003 0.6875 0
2.6750000000000003 0.875 0
2.6750000000000003 1.0625 0
2.6750000000000003 1.25 0
2.6750000000000003 1.4375 0
2.6750000000000003 1.625 0
2.6750000000000003 2 0
3.2000000000000002 -1 0
3.2000000000000002 -0.625 0
3.2000000000000002 -0.25 0
3.2000000000000002 0.125 0
3.2000000000000002 0.5 0
3.2000000000000002 0.875 0
3.2000000000000002 1.25 0
3.2000000000000002 1.625 0
3.2000000000000002 2 0
CELLS 931 4381
4 0 9 10 1
4 9 170 171 24
3 24 10 9
3 1 10 11
4 11 12 2 1
4 170 276 277 224
3 224 171 170
4 276 463 464 330
3 330 277 276
3 2 12 13
4 13 14 3 2
3 3 14 15
4 15 16 4 3
4 10 24 25 11
4 24 171 172 25
4 11 25 26 12
4 25 172 173 45
3 45 26 25
4 463 667 668 615
3 615 464 463
4 667 773 774 721
3 721 668 667
3 935 936 914
4 914 774 773 935
4 935 950 951 936
4 951 952 938 937
3 937 936 951
4 171 224 225 172
4 224 277 278 225
4 172 225 226 200
3 200 173 172
4 225 278 279 252
3 252 226 225
4 277 330 331 278
4 952 953 940 939
3 939 938 952
4 330 464 465 331
3 331 332 306
4 306 279 278 331
4 953 954 942 941
3 941 940 953
4 331 465 466 358
3 358 332 331
3 4 16 17
4 17 18 5 4
3 5 18 19
4 19 20 6 5
3 12 26 27
4 27 28 13 12
3 13 28 29
4 29 30 14 13
3 6 20 21
4 21 22 7 6
4 7 22 23 8
3 44 184 185
4 185 23 22 44
3 14 30 31
4 31 32 15 14
3 237 290 291
4 291 185 184 237
3 15 32 33
4 33 34 16 15
4 343 496 497 291
3 291 290 343
4 954 955 944 943
3 943 942 954
4 955 956 946 945
3 945 944 955
3 628 681 682
4 682 497 496 628
3 734 787 788
4 788 682 681 734
4 956 957 948 947
3 947 946 956
3 934 948 949
4 949 788 787 934
4 948 957 958 949
4 464 615 616 465
4 615 668 669 616
4 465 616 617 591
3 591 466 465
4 616 669 670 643
3 643 617 616
4 668 721 722 669
4 721 774 775 722
4 669 722 723 697
3 697 670 669
4 722 775 776 749
3 749 723 722
4 774 914 915 775
4 914 936 937 915
3 915 916 885
4 885 776 775 915
4 915 937 938 916
4 938 939 918 917
3 917 916 938
4 939 940 920 919
3 919 918 939
4 940 941 922 921
3 921 920 940
4 941 942 924 923
3 923 922 941
3 16 34 35
4 35 36 17 16
3 17 36 37
4 37 38 18 17
3 18 38 39
4 39 40 19 18
3 19 40 41
4 41 42 20 19
4 26 45 46 27
4 45 173 174 46
4 27 46 47 28
4 46 174 175 74
3 74 47 46
3 28 47 48
4 48 49 29 28
3 29 49 50
4 50 51 30 29
4 20 42 43 21
3 73 182 183
4 183 43 42 73
4 21 43 44 22
4 43 183 184 44
3 209 235 236
4 236 183 182 209
4 261 288 289 236
3 236 235 261
4 183 236 237 184
4 236 289 290 237
3 315 341 342
4 342 289 288 315
3 30 51 52
4 52 53 31 30
3 367 494 495
4 495 342 341 367
4 289 342 343 290
3 31 53 54
4 54 55 32 31
4 342 495 496 343
3 32 55 56
4 56 57 33 32
3 33 57 58
4 58 59 34 33
4 173 200 201 174
4 200 226 227 201
4 174 201 202 190
3 190 175 174
4 201 227 228 214
3 214 202 201
4 226 252 253 227
4 252 279 280 253
3 253 254 242
4 242 228 227 253
3 280 281 266
4 266 254 253 280
4 279 306 307 280
4 942 943 926 925
3 925 924 942
4 306 332 333 307
4 280 307 308 296
3 296 281 280
4 943 944 928 927
3 927 926 943
4 307 333 334 320
3 320 308 307
4 332 358 359 333
4 358 466 467 359
3 359 360 348
4 348 334 333 359
3 467 468 416
4 416 360 359 467
4 944 945 930 929
3 929 928 944
4 945 946 932 931
3 931 930 945
4 600 626 627 495
3 495 494 600
4 652 679 680 627
3 627 626 652
4 495 627 628 496
4 627 680 681 628
3 706 732 733
4 733 680 679 706
3 758 785 786
4 786 733 732 758
4 680 733 734 681
4 733 786 787 734
3 913 932 933
4 933 786 785 913
4 932 946 947 933
4 786 933 934 787
4 933 947 948 934
4 466 591 592 467
4 591 617 618 592
4 467 592 593 498
3 498 468 467
3 618 619 605
4 605 593 592 618
4 617 643 644 618
4 643 670 671 644
4 618 644 645 633
3 633 619 618
4 644 671 672 657
3 657 645 644
4 670 697 698 671
4 697 723 724 698
4 671 698 699 687
3 687 672 671
4 698 724 725 711
3 711 699 698
4 723 749 750 724
4 749 776 777 750
4 724 750 751 739
3 739 725 724
3 777 778 763
4 763 751 750 777
4 776 885 886 777
4 885 916 917 886
4 777 886 887 838
3 838 778 777
4 886 917 918 887
4 918 919 889 888
3 888 887 918
4 919 920 891 890
3 890 889 919
4 920 921 893 892
3 892 891 920
4 921 922 895 894
3 894 893 921
4 922 923 897 896
3 896 895 922
4 923 924 899 898
3 898 897 923
3 34 59 60
4 60 61 35 34
3 35 61 62
4 62 63 36 35
3 36 63 64
4 64 65 37 36
3 37 65 66
4 66 67 38 37
3 38 67 68
4 68 69 39 38
3 39 69 70
4 70 71 40 39
4 40 71 72 41
3 120 180 181
4 181 72 71 120
4 41 72 73 42
4 72 181 182 73
3 195 207 208
4 208 181 180 195
4 219 233 234 208
3 208 207 219
4 181 208 209 182
4 208 234 235 209
3 247 259 260
4 260 234 233 247
3 271 286 287
4 287 260 259 271
4 234 260 261 235
4 260 287 288 261
4 47 74 75 48
4 74 175 176 166
3 166 75 74
3 48 75 76
4 76 77 49 48
4 301 313 314 287
3 287 286 301
3 325 339 340
4 340 314 313 325
4 287 314 315 288
4 314 340 341 315
3 353 365 366
4 366 340 339 353
3 49 77 78
4 78 79 50 49
3 462 492 493
4 493 366 365 462
4 340 366 367 341
3 50 79 80
4 80 81 51 50
4 366 493 494 367
3 51 81 82
4 82 83 52 51
3 52 83 84
4 84 85 53 52
3 53 85 86
4 86 87 54 53
3 54 87 88
4 88 89 55 54
3 55 89 90
4 90 91 56 55
3 56 91 92
4 92 93 57 56
3 57 93 94
4 94 95 58 57
3 58 95 96
4 96 97 59 58
3 190 191 186
4 186 176 175 190
4 190 202 203 196
3 196 191 190
3 214 215 210
4 210 203 202 214
3 228 229 220
4 220 215 214 228
3 543 598 599
4 599 493 492 543
3 610 624 625
4 625 599 598 610
4 493 599 600 494
4 599 625 626 600
3 638 650 651
4 651 625 624 638
4 662 677 678 651
3 651 650 662
4 625 651 652 626
4 651 678 679 652
4 228 242 243 238
3 238 229 228
4 242 254 255 248
3 248 243 242
4 254 266 267 262
3 262 255 254
4 266 281 282 272
3 272 267 266
3 692 704 705
4 705 678 677 692
3 716 730 731
4 731 705 704 716
4 678 705 706 679
4 705 731 732 706
3 744 756 757
4 757 731 730 744
3 768 783 784
4 784 757 756 768
4 731 757 758 732
4 757 784 785 758
4 924 925 901 900
3 900 899 924
4 925 926 903 902
3 902 901 925
4 926 927 905 904
3 904 903 926
4 927 928 907 906
3 906 905 927
4 281 296 297 292
3 292 282 281
4 928 929 909 908
3 908 907 928
3 308 309 302
4 302 297 296 308
4 929 930 911 910
3 910 909 929
4 308 320 321 316
3 316 309 308
4 320 334 335 326
3 326 321 320
3 884 911 912
4 912 784 783 884
4 911 930 931 912
4 784 912 913 785
4 912 931 932 913
3 348 349 344
4 344 335 334 348
4 348 360 361 354
3 354 349 348
4 360 416 417 413
3 413 361 360
4 416 468 469 417
4 469 470 419 418
3 418 417 469
4 470 471 421 420
3 420 419 470
4 471 472 423 422
3 422 421 471
4 472 473 425 424
3 424 423 472
4 473 474 427 426
3 426 425 473
4 474 475 429 428
3 428 427 474
4 475 476 431 430
3 430 429 475
4 476 477 433 432
3 432 431 476
4 477 478 435 434
3 434 433 477
4 478 479 437 436
3 436 435 478
4 479 480 439 438
3 438 437 479
4 468 498 499 469
3 499 498 593
3 593 594 544
4 499 593 544 500
3 544 545 500
3 469 499 500
4 500 501 470 469
4 593 605 606 601
3 601 594 593
4 605 619 620 611
3 611 606 605
3 470 501 502
4 502 503 471 470
3 471 503 504
4 504 505 472 471
4 619 633 634 629
3 629 620 619
3 645 646 639
4 639 634 633 645
3 657 658 653
4 653 646 645 657
4 657 672 673 663
3 663 658 657
4 672 687 688 683
3 683 673 672
4 687 699 700 693
3 693 688 687
4 699 711 712 707
3 707 700 699
3 725 726 717
4 717 712 711 725
3 739 740 735
4 735 726 725 739
3 751 752 745
4 745 740 739 751
4 751 763 764 759
3 759 752 751
3 778 779 769
4 769 764 763 778
3 472 505 506
4 506 507 473 472
3 473 507 508
4 508 509 474 473
3 474 509 510
4 510 511 475 474
3 475 511 512
4 512 513 476 475
3 476 513 514
4 514 515 477 476
3 477 515 516
4 516 517 478 477
3 478 517 518
4 518 519 479 478
3 479 519 520
4 520 521 480 479
4 778 838 839 789
3 789 779 778
4 838 887 888 839
4 888 889 841 840
3 840 839 888
4 889 890 843 842
3 842 841 889
4 890 891 845 844
3 844 843 890
4 891 892 847 846
3 846 845 891
4 892 893 849 848
3 848 847 892
4 893 894 851 850
3 850 849 893
4 894 895 853 852
3 852 851 894
4 895 896 855 854
3 854 853 895
4 896 897 857 856
3 856 855 896
4 897 898 859 858
3 858 857 897
4 898 899 861 860
3 860 859 898
3 59 97 98
4 98 99 60 59
3 60 99 100
4 100 101 61 60
3 61 101 102
4 102 103 62 61
3 62 103 104
4 104 105 63 62
3 63 105 106
4 106 107 64 63
3 64 107 108
4 108 109 65 64
3 65 109 110
4 110 111 66 65
3 66 111 112
4 112 113 67 66
3 67 113 114
4 114 115 68 67
3 68 115 116
4 116 117 69 68
3 69 117 118
4 118 119 70 69
4 70 119 120 71
3 169 179 180
4 180 120 119 169
4 480 481 441 440
3 440 439 480
4 481 482 443 442
3 442 441 481
4 482 483 445 444
3 444 443 482
4 483 484 447 446
3 446 445 483
4 484 485 449 448
3 448 447 484
4 485 486 451 450
3 450 449 485
4 486 487 453 452
3 452 451 486
4 487 488 455 454
3 454 453 487
3 189 194 195
4 195 180 179 189
4 199 206 207 195
3 195 194 199
3 213 218 219
4 219 207 206 213
3 223 232 233
4 233 219 218 223
4 241 246 247 233
3 233 232 241
3 251 258 259
4 259 247 246 251
3 265 270 271
4 271 259 258 265
3 275 285 286
4 286 271 270 275
3 295 300 301
4 301 286 285 295
3 305 312 313
4 313 301 300 305
3 319 324 325
4 325 313 312 319
3 329 338 339
4 339 325 324 329
4 488 489 457 456
3 456 455 488
4 489 490 459 458
3 458 457 489
3 347 352 353
4 353 339 338 347
3 357 364 365
4 365 353 352 357
4 75 166 167 121
4 121 122 76 75
4 490 491 461 460
3 460 459 490
4 166 176 177 167
4 415 461 462 365
3 365 364 415
4 76 122 123 77
4 461 491 492 462
4 77 123 124 78
4 78 124 125 79
4 79 125 126 80
4 80 126 127 81
4 81 127 128 82
4 82 128 129 83
4 83 129 130 84
4 84 130 131 85
4 85 131 132 86
4 86 132 133 87
4 87 133 134 88
4 88 134 135 89
4 89 135 136 90
4 90 136 137 91
4 91 137 138 92
4 92 138 139 93
4 93 139 140 94
4 94 140 141 95
4 95 141 142 96
4 96 142 143 97
3 480 521 522
4 522 523 481 480
3 481 523 524
4 524 525 482 481
3 482 525 526
4 526 527 483 482
3 483 527 528
4 528 529 484 483
3 484 529 530
4 530 531 485 484
3 485 531 532
4 532 533 486 485
3 486 533 534
4 534 535 487 486
3 487 535 536
4 536 537 488 487
3 488 537 538
4 538 539 489 488
3 489 539 540
4 540 541 490 489
4 490 541 542 491
4 542 597 598 543
4 541 588 589 542
4 542 590 596 597
3 589 590 542
4 176 186 187 177
4 186 191 192 187
4 491 542 543 492
4 191 196 197 192
4 196 203 204 197
3 604 609 610
4 610 598 597 604
4 614 623 624 610
3 610 609 614
4 203 210 211 204
4 210 215 216 211
4 632 637 638 624
3 624 623 632
3 642 649 650
4 650 638 637 642
4 215 220 221 216
4 220 229 230 221
3 656 661 662
4 662 650 649 656
3 666 676 677
4 677 662 661 666
4 229 238 239 230
4 238 243 244 239
4 686 691 692 677
3 677 676 686
4 696 703 704 692
3 692 691 696
4 243 248 249 244
4 248 255 256 249
4 710 715 716 704
3 704 703 710
3 720 729 730
4 730 716 715 720
4 255 262 263 256
4 262 267 268 263
3 738 743 744
4 744 730 729 738
3 748 755 756
4 756 744 743 748
4 267 272 273 268
4 272 282 283 273
3 762 767 768
4 768 756 755 762
3 772 782 783
4 783 768 767 772
4 899 900 863 862
3 862 861 899
4 900 901 865 864
3 864 863 900
4 901 902 867 866
3 866 865 901
4 902 903 869 868
3 868 867 902
4 903 904 871 870
3 870 869 903
4 904 905 873 872
3 872 871 904
4 905 906 875 874
3 874 873 905
4 906 907 877 876
3 876 875 906
4 907 908 879 878
3 878 877 907
4 908 909 881 880
3 880 879 908
4 282 292 293 283
4 909 910 883 882
3 882 881 909
4 292 297 298 293
3 792 883 884
4 884 783 782 792
4 883 910 911 884
4 297 302 303 298
4 302 309 310 303
4 309 316 317 310
4 316 321 322 317
4 321 326 327 322
4 326 335 336 327
4 335 344 345 336
4 344 349 350 345
4 349 354 355 350
4 354 361 362 355
4 369 418 419 370
5 368 413 417 418 369
4 361 413 368 362
4 370 419 420 371
4 371 420 421 372
4 372 421 422 373
4 373 422 423 374
4 374 423 424 375
4 375 424 425 376
4 376 425 426 377
4 377 426 427 378
4 378 427 428 379
4 379 428 429 380
4 380 429 430 381
4 381 430 431 382
4 382 431 432 383
4 383 432 433 384
4 384 433 434 385
4 385 434 435 386
4 386 435 436 387
4 387 436 437 388
4 388 437 438 389
4 389 438 439 390
4 544 594 595 546
4 546 547 545 544
4 545 547 548 501
3 501 500 545
4 594 601 602 595
4 601 606 607 602
4 606 611 612 607
4 611 620 621 612
4 501 548 549 502
4 502 549 550 503
4 503 550 551 504
4 504 551 552 505
4 620 629 630 621
4 629 634 635 630
4 634 639 640 635
4 639 646 647 640
4 646 653 654 647
4 653 658 659 654
4 658 663 664 659
4 663 673 674 664
4 673 683 684 674
4 683 688 689 684
4 688 693 694 689
4 693 700 701 694
4 700 707 708 701
4 707 712 713 708
4 712 717 718 713
4 717 726 727 718
4 726 735 736 727
4 735 740 741 736
4 740 745 746 741
4 745 752 753 746
4 752 759 760 753
4 759 764 765 760
4 764 769 770 765
4 769 779 780 770
4 505 552 553 506
4 506 553 554 507
4 507 554 555 508
4 508 555 556 509
4 509 556 557 510
4 510 557 558 511
4 511 558 559 512
4 512 559 560 513
4 513 560 561 514
4 514 561 562 515
4 515 562 563 516
4 516 563 564 517
4 517 564 565 518
4 518 565 566 519
4 519 566 567 520
4 520 567 568 521
4 779 789 790 780
4 839 840 794 793
4 793 790 789 839
4 794 840 841 795
4 795 841 842 796
4 796 842 843 797
4 797 843 844 798
4 798 844 845 799
4 799 845 846 800
4 800 846 847 801
4 801 847 848 802
4 802 848 849 803
4 803 849 850 804
4 804 850 851 805
4 805 851 852 806
4 806 852 853 807
4 807 853 854 808
4 808 854 855 809
4 809 855 856 810
4 810 856 857 811
4 811 857 858 812
4 812 858 859 813
4 813 859 860 814
4 814 860 861 815
4 97 143 144 98
4 98 144 145 99
4 99 145 146 100
4 100 146 147 101
4 101 147 148 102
4 102 148 149 103
4 103 149 150 104
4 104 150 151 105
4 105 151 152 106
4 106 152 153 107
4 107 153 154 108
4 108 154 155 109
4 109 155 156 110
4 110 156 157 111
4 111 157 158 112
4 112 158 159 113
4 113 159 160 114
4 114 160 161 115
4 115 161 162 116
4 116 162 163 117
4 117 163 164 118
4 165 168 169 119
4 119 118 164 165
4 168 178 179 169
4 390 439 440 391
4 391 440 441 392
4 392 441 442 393
4 393 442 443 394
4 394 443 444 395
4 395 444 445 396
4 396 445 446 397
4 397 446 447 398
4 398 447 448 399
4 399 448 449 400
4 400 449 450 401
4 401 450 451 402
4 402 451 452 403
4 403 452 453 404
4 404 453 454 405
4 405 454 455 406
4 178 188 189 179
4 188 193 194 189
4 193 198 199 194
4 198 205 206 199
4 205 212 213 206
4 212 217 218 213
4 217 222 223 218
4 222 231 232 223
4 231 240 241 232
4 240 245 246 241
4 245 250 251 246
4 250 257 258 251
4 257 264 265 258
4 264 269 270 265
4 269 274 275 270
4 274 284 285 275
4 284 294 295 285
4 294 299 300 295
4 299 304 305 300
4 304 311 312 305
4 311 318 319 312
4 318 323 324 319
4 323 328 329 324
4 328 337 338 329
4 406 455 456 407
4 407 456 457 408
4 408 457 458 409
4 409 458 459 410
4 337 346 347 338
4 346 351 352 347
4 351 356 357 352
4 356 363 364 357
3 459 460 414
4 414 411 410 459
3 414 460 461
5 461 415 412 411 414
4 415 364 363 412
4 521 568 569 522
4 522 569 570 523
4 523 570 571 524
4 524 571 572 525
4 525 572 573 526
4 526 573 574 527
4 527 574 575 528
4 528 575 576 529
4 529 576 577 530
4 530 577 578 531
4 531 578 579 532
4 532 579 580 533
4 533 580 581 534
4 534 581 582 535
4 535 582 583 536
4 536 583 584 537
4 537 584 585 538
4 538 585 586 539
4 539 586 587 540
4 540 587 588 541
4 596 603 604 597
4 603 608 609 604
4 608 613 614 609
4 613 622 623 614
4 622 631 632 623
4 631 636 637 632
4 636 641 642 637
4 641 648 649 642
4 648 655 656 649
4 655 660 661 656
4 660 665 666 661
4 665 675 676 666
4 675 685 686 676
4 685 690 691 686
4 690 695 696 691
4 695 702 703 696
4 702 709 710 703
4 709 714 715 710
4 714 719 720 715
4 719 728 729 720
4 728 737 738 729
4 737 742 743 738
4 742 747 748 743
4 747 754 755 748
4 754 761 762 755
4 761 766 767 762
4 766 771 772 767
4 771 781 782 772
4 815 861 862 816
4 816 862 863 817
4 817 863 864 818
4 818 864 865 819
4 819 865 866 820
4 820 866 867 821
4 821 867 868 822
4 822 868 869 823
4 823 869 870 824
4 824 870 871 825
4 825 871 872 826
4 826 872 873 827
4 827 873 874 828
4 828 874 875 829
4 829 875 876 830
4 830 876 877 831
4 831 877 878 832
4 832 878 879 833
4 833 879 880 834
4 834 880 881 835
4 835 881 882 836
4 781 791 792 782
4 837 836 882 883
4 883 792 791 837
CELL_TYPES 931
7
7
7
7
7
7
7
7
7
7
7
7
7
7
7
7
7
7
7
7
7
7
7
7
7
7
7
7
7
7
7
7
7
7
7
7
7
7
7
7
7
7
7
7
7
7
7
7
7
7
7
7
7
7
7
7
7
7
7
7
7
7
7
7
7
7
7
7
7
7
7
7
7
7
7
7
7
7
7
7
7
7
7
7
7
7
7
7
7
7
7
7
7
7
7
7
7
7
7
7
7
7
7
7
7
7
7
7
7
7
7
7
7
7
7
7
7
7
7
7
7
7
7
7
7
7
7
7
7
7
7
7
7
7
7
7
7
7
7
7
7
7
7
7
7
7
7
7
7
7
7
7
7
7
7
7
7
7
7
7
7
7
7
7
7
7
7
7
7
7
7
7
7
7
7
7
7
7
7
7
7
7
7
7
7
7
7
7
7
7
7
7
7
7
7
7
7
7
7
7
7
7
7
7
7
7
7
7
7
7
7
7
7
7
7
7
7
7
7
7
7
7
7
7
7
7
7
7
7
7
7
7
7
7
7
7
7
7
7
7
7
7
7
7
7
7
7
7
7
7
7
7
7
7
7
7
7
7
7
7
7
7
7
7
7
7
7
7
7
7
7
7
7
7
7
7
7
7
7
7
7
7
7
7
7
7
7
7
7
7
7
7
7
7
7
7
7
7
7
7
7
7
7
7
7
7
7
7
7
7
7
7
7
7
7
7
7
7
7
7
7
7
7
7
7
7
7
7
7
7
7
7
7
7
7
7
7
7
7
7
7
7
7
7
7
7
7
7
7
7
7
7
7
7
7
7
7
7
7
7
7
7
7
7
7
7
7
7
7
7
7
7
7
7
7
7
7
7
7
7
7
7
7
7
7
7
7
7
7
7
7
7
7
7
7
7
7
7
7
7
7
7
7
7
7
7
7
7
7
7
7
7
7
7
7
7
7
7
7
7
7
7
7
7
7
7
7
7
7
7
7
7
7
7
7
7
7
7
7
7
7
7
7
7
7
7
7
7
7
7
7
7
7
7
7
7
7
7
7
7
7
7
7
7
7
7
7
7
7
7
7
7
7
7
7
7
7
7
7
7
7
7
7
7
7
7
7
7
7
7
7
7
7
7
7
7
7
7
7
7
7
7
7
7
7
7
7
7
7
7
7
7
7
7
7
7
7
7
7
7
7
7
7
7
7
7
7
7
7
7
7
7
7
7
7
7
7
7
7
7
7
7
7
7
7
7
7
7
7
7
7
7
7
7
7
7
7
7
7
7
7
7
7
7
7
7
7
7
7
7
7
7
7
7
7
7
7
7
7
7
7
7
7
7
7
7
7
7
7
7
7
7
7
7
7
7
7
7
7
7
7
7
7
7
7
7
7
7
7
7
7
7
7
7
7
7
7
7
7
7
7
7
7
7
7
7
7
7
7
7
7
7
7
7
7
7
7
7
7
7
7
7
7
7
7
7
7
7
7
7
7
7
7
7
7
7
7
7
7
7
7
7
7
7
7
7
7
7
7
7
7
7
7
7
7
7
7
7
7
7
7
7
7
7
7
7
7
7
7
7
7
7
7
7
7
7
7
7
7
7
7
7
7
7
7
7
7
7
7
7
7
7
7
7
7
7
7
7
7
7
7
7
7
7
7
7
7
7
7
7
7
7
7
7
7
7
7
7
7
7
7
7
7
7
7
7
7
7
7
7
7
7
7
7
7
7
7
7
7
7
7
7
7
7
7
7
7
7
7
7
7
7
7
7
7
7
7
7
7
7
7
7
7
7
7
7
7
7
7
7
7
7
7
7
7
7
7
7
7
7
7
7
7
7
7
7
7
7
7
7
7
7
7
7
7
7
7
7
7
7
7
7
7
7
7
7
7
7
7
7
7
7
7
7
7
7
7
7
7
7
7
7
7
7
7
7
7
7
7
7
7
7
7
7
7
7
7
7
7
7
7
7
7
7
7
7
7
7
7
7
7
7
7
7
7
7
7
7
7
7
7
7
7
7
7
7
7
7
7
7
7
7
7
7
7
7
7
7
7
7
7
7
7
7
7
7
7
7
7
7
7
7
7
7
7
7
7
7
7
7
7
7
7
7
7
7
7
7
7
7
7
CELL_DATA 931
SCALARS geometry_area double 1
LOOKUP_TABLE default
0.19687500000000002
0.14765625000000002
0.049218750000000006
0.049218750000000006
0.14765625000000002
0.14765625000000002
0.049218750000000006
0.14765624999999999
0.049218750000000012
0.049218750000000006
0.14765625000000002
0.049218750000000006
0.14765625000000002
0.049218750000000006
0.049218750000000006
0.049218750000000006
0.036914062500000004
0.012304687500000001
0.14765624999999999
0.049218749999999992
0.1476562500000001
0.049218750000000033
0.049218750000000033
0.14765624999999993
0.19687499999999997
0.14765624999999999
0.049218749999999992
0.049218750000000006
0.049218750000000006
0.036914062500000004
0.012304687500000001
0.036914062499999997
0.012304687500000003
0.049218750000000012
0.14765624999999999
0.049218749999999992
0.049218749999999992
0.012304687500000008
0.036914062500000004
0.14765624999999999
0.049218749999999992
0.036914062499999997
0.012304687499999998
0.049218750000000006
0.14765625000000002
0.049218750000000006
0.14765625000000002
0.012304687500000001
0.036914062500000004
0.012304687500000001
0.036914062500000004
0.049218750000000006
0.14765625000000002
0.19687500000000002
0.049218750000000006
0.14765625000000002
0.012304687500000001
0.036914062500000004
0.049218750000000006
0.14765625000000002
0.012304687500000001
0.036914062500000004
0.14765624999999999
0.049218750000000012
0.14765624999999999
0.049218749999999992
0.14765624999999999
0.049218749999999992
0.049218749999999992
0.14765624999999999
0.049218750000000033
0.1476562500000001
0.14765624999999999
0.049218749999999992
0.049218750000000033
0.14765624999999993
0.19687499999999997
0.049218749999999992
0.049218749999999992
0.036914062499999983
0.012304687500000008
0.036914062499999983
0.012304687500000008
0.049218750000000033
0.049218750000000033
0.036914062500000025
0.012304687500000008
0.036914062500000025
0.012304687500000008
0.04921874999999995
0.049218750000000033
0.012304687500000008
0.036914062499999942
0.049218750000000033
0.036914062500000025
0.012304687500000008
0.036914062500000025
0.012304687500000008
0.036914062500000025
0.012304687500000008
0.036914062500000025
0.012304687500000008
0.012304687500000001
0.036914062500000004
0.012304687500000001
0.036914062500000004
0.012304687500000001
0.036914062500000004
0.012304687500000001
0.036914062500000004
0.012304687500000001
0.012304687500000001
0.012304687500000001
0.009228515625000001
0.0030761718750000003
0.0030761718750000003
0.009228515625000001
0.0030761718750000003
0.009228515625000001
0.049218750000000006
0.012304687500000001
0.036914062500000004
0.049218750000000006
0.049218750000000006
0.012304687500000001
0.036914062500000004
0.036914062499999997
0.012304687500000003
0.049218750000000006
0.049218750000000006
0.012304687500000008
0.036914062500000004
0.0030761718750000003
0.009228515625000001
0.012304687499999998
0.036914062499999997
0.049218750000000012
0.0030761718750000003
0.009228515625000001
0.049218749999999992
0.0030761718750000003
0.009228515625000001
0.0030761718750000003
0.009228515625000001
0.012304687500000001
0.012304687500000001
0.009228515625000001
0.0030761718750000003
0.0092285156249999993
0.0030761718750000008
0.012304687500000003
0.012304687499999998
0.0030761718750000021
0.009228515625000001
0.0030761718750000021
0.0092285156249999958
0.012304687499999998
0.036914062500000025
0.012304687500000008
0.012304687500000008
0.0092285156249999958
0.0030761718750000021
0.036914062500000025
0.012304687500000008
0.0092285156250000062
0.0030761718750000021
0.012304687499999998
0.012304687499999998
0.0030761718750000021
0.0092285156249999958
0.0030761718750000021
0.0092285156249999958
0.036914062500000025
0.012304687500000008
0.036914062500000025
0.012304687500000008
0.036914062499999983
0.012304687500000008
0.036914062499999983
0.012304687500000008
0.049218749999999992
0.049218749999999992
0.012304687500000008
0.036914062500000025
0.012304687500000008
0.036914062500000025
0.049218750000000033
0.049218750000000033
0.012304687500000008
0.036914062499999942
0.049218750000000033
0.04921874999999995
0.049218750000000033
0.012304687500000008
0.012304687499999988
0.0092285156250000062
0.0030761718750000021
0.0030761718750000021
0.0092285156249999854
0.012304687500000008
0.012304687499999988
0.0092285156250000062
0.0030761718750000021
0.0092285156249999854
0.0030761718750000021
0.012304687500000008
0.012304687500000008
0.0092285156250000062
0.0030761718750000021
0.0092285156250000062
0.0030761718750000021
0.012304687500000008
0.012304687500000008
0.0092285156250000062
0.0030761718750000021
0.0030761718750000125
0.0092285156249999958
0.012304687499999967
0.012304687500000008
0.009228515624999975
0.0030761718749999917
0.012304687500000008
0.0092285156250000062
0.0030761718750000021
0.0092285156250000062
0.0030761718750000021
0.0092285156250000062
0.0030761718750000021
0.0092285156250000062
0.0030761718750000021
0.0092285156250000062
0.0030761718750000021
0.0092285156250000062
0.0030761718750000021
0.0030761718750000003
0.009228515625000001
0.0030761718750000003
0.009228515625000001
0.0030761718750000003
0.009228515625000001
0.0030761718750000003
0.009228515625000001
0.0030761718750000003
0.009228515625000001
0.0030761718750000003
0.009228515625000001
0.012304687500000001
0.0030761718750000003
0.009228515625000001
0.012304687500000001
0.012304687500000001
0.0030761718750000003
0.009228515625000001
0.0092285156249999993
0.0030761718750000008
0.012304687500000001
0.012304687500000001
0.0030761718750000021
0.009228515625000001
0.0030761718750000021
0.0092285156249999958
0.012304687500000003
0.012304687499999998
0.0030761718750000003
0.0023071289062500003
0.00076904296875000009
0.00076904296875000009
0.0023071289062500003
0.0092285156249999958
0.0030761718750000021
0.0030761718750000021
0.0092285156250000062
0.012304687499999998
0.012304687500000008
0.0030761718750000021
0.0092285156249999958
0.00076904296875000009
0.0023071289062500003
0.0030761718750000021
0.0092285156249999958
0.012304687499999998
0.00076904296875000009
0.0023071289062500003
0.012304687499999998
0.00076904296875000009
0.0023071289062500003
0.00076904296875000009
0.0023071289062500003
0.00076904296875000009
0.0023071289062500003
0.00076904296875000009
0.0023071289062500003
0.00076904296875000009
0.0023071289062500003
0.00076904296875000009
0.0023071289062500003
0.00076904296875000009
0.0023071289062500003
0.00076904296875000009
0.0023071289062500003
0.0007690429687500002
0.0023071289062499998
0.0023071289062499998
0.0007690429687500002
0.00076904296875000052
0.0023071289062500003
0.00076904296875000052
0.002307128906249999
0.0030761718750000021
0.0092285156250000062
0.0030761718750000021
0.0092285156249999854
0.012304687500000008
0.012304687499999988
0.0030761718750000021
0.0092285156250000062
0.0092285156249999854
0.0030761718750000021
0.012304687500000008
0.012304687499999988
0.002307128906249999
0.00076904296875000052
0.0023071289062500016
0.00076904296875000052
0.0023071289062499977
0.00076904296874999922
0.0023071289062500016
0.00076904296875000052
0.0030761718750000021
0.0092285156250000062
0.0030761718750000021
0.0092285156250000062
0.012304687500000008
0.012304687500000008
0.0030761718750000021
0.0092285156250000062
0.0030761718750000125
0.0092285156249999958
0.012304687500000008
0.012304687500000008
0.0092285156250000062
0.0030761718750000021
0.0092285156250000062
0.0030761718750000021
0.0092285156250000062
0.0030761718750000021
0.0092285156250000062
0.0030761718750000021
0.0023071289062500016
0.00076904296875000052
0.0092285156250000062
0.0030761718750000021
0.00076904296875000052
0.0023071289062499964
0.0092285156250000062
0.0030761718750000021
0.0023071289062500016
0.00076904296875000052
0.0023071289062500016
0.00076904296875000052
0.0030761718749999917
0.009228515624999975
0.012304687500000008
0.012304687499999967
0.012304687500000008
0.00076904296875000052
0.0023071289062499964
0.0023071289062500016
0.00076904296875000052
0.0023071289062499964
0.00076904296875000052
0.0030761718750000021
0.0023071289062500016
0.00076904296875000052
0.0023071289062500016
0.00076904296875000052
0.0023071289062500016
0.00076904296875000052
0.0023071289062500016
0.00076904296875000052
0.0023071289062500016
0.00076904296875000052
0.0023071289062500016
0.00076904296875000052
0.0023071289062500016
0.00076904296875000052
0.0023071289062500016
0.00076904296875000052
0.0023071289062500016
0.00076904296875000052
0.0023071289062500016
0.00076904296875000052
0.0023071289062500016
0.00076904296875000052
0.0030761718750000021
0.001538085937500001
0.00076904296875000312
0.0011535644531249969
0.00038452148437499896
0.00076904296875000052
0.0023071289062500016
0.0023071289062499938
0.00076904296874999792
0.002307128906249999
0.00076904296875000312
0.00076904296875000052
0.0023071289062500016
0.00076904296875000052
0.0023071289062500016
0.002307128906249999
0.00076904296875000312
0.00076904296875000312
0.002307128906249999
0.00076904296875000312
0.002307128906249999
0.0023071289062499938
0.00076904296874999792
0.002307128906249999
0.00076904296875000312
0.002307128906249999
0.00076904296875000312
0.002307128906249999
0.00076904296875000312
0.00076904296875000312
0.002307128906249999
0.00076904296875000312
0.002307128906249999
0.00076904296875000312
0.002307128906249999
0.0023071289062499938
0.00076904296874999792
0.00076904296875000833
0.0023071289062500042
0.00076904296875000052
0.0023071289062500016
0.00076904296875000052
0.0023071289062500016
0.00076904296875000052
0.0023071289062500016
0.00076904296875000052
0.0023071289062500016
0.00076904296875000052
0.0023071289062500016
0.00076904296875000052
0.0023071289062500016
0.00076904296875000052
0.0023071289062500016
0.00076904296875000052
0.0023071289062500016
0.0023071289062499938
0.00076904296874999792
0.0030761718749999917
0.0023071289062499938
0.00076904296874999792
0.0023071289062499938
0.00076904296874999792
0.0023071289062499938
0.00076904296874999792
0.0023071289062499938
0.00076904296874999792
0.0023071289062499938
0.00076904296874999792
0.0023071289062499938
0.00076904296874999792
0.0023071289062499938
0.00076904296874999792
0.0023071289062499938
0.00076904296874999792
0.0023071289062499938
0.00076904296874999792
0.0023071289062499938
0.00076904296874999792
0.0023071289062499938
0.00076904296874999792
0.00076904296875000009
0.0023071289062500003
0.00076904296875000009
0.0023071289062500003
0.00076904296875000009
0.0023071289062500003
0.00076904296875000009
0.0023071289062500003
0.00076904296875000009
0.0023071289062500003
0.00076904296875000009
0.0023071289062500003
0.00076904296875000009
0.0023071289062500003
0.00076904296875000009
0.0023071289062500003
0.00076904296875000009
0.0023071289062500003
0.00076904296875000009
0.0023071289062500003
0.00076904296875000009
0.0023071289062500003
0.0030761718750000003
0.00076904296875000009
0.0023071289062500003
0.0023071289062500016
0.00076904296875000052
0.0023071289062500016
0.00076904296875000052
0.0023071289062500016
0.00076904296875000052
0.0023071289062500016
0.00076904296875000052
0.0023071289062500016
0.00076904296875000052
0.0023071289062500016
0.00076904296875000052
0.0023071289062500016
0.00076904296875000052
0.0023071289062500016
0.00076904296875000052
0.0007690429687500002
0.0023071289062499998
0.0023071289062499998
0.0007690429687500002
0.00076904296875000052
0.0023071289062500003
0.00076904296875000052
0.002307128906249999
0.002307128906249999
0.00076904296875000052
0.00076904296875000052
0.0023071289062500016
0.00076904296874999922
0.0023071289062499977
0.00076904296875000052
0.0023071289062500016
0.00076904296875000052
0.0023071289062500016
0.00076904296875000052
0.0023071289062499964
0.00076904296875000052
0.0023071289062500016
0.00076904296875000052
0.0023071289062500016
0.0023071289062500016
0.00076904296875000052
0.0023071289062500016
0.00076904296875000052
0.00076904296875000052
0.0023071289062499964
0.00076904296875000052
0.0023071289062500016
0.00039062500000000035
0.00024414062499999935
0.0023071289062500016
0.00076904296875000052
0.00051269531250000002
0.0023071289062499964
0.00076904296875000052
0.00036621093749999902
0.0030761718750000021
0.00036621093749999902
0.00036621093749999902
0.00036621093749999902
0.00036621093749999902
0.00036621093749999902
0.00036621093749999902
0.00036621093749999902
0.00036621093749999902
0.00036621093749999902
0.00036621093749999902
0.00036621093749999902
0.00036621093749999902
0.00036621093749999902
0.00036621093749999902
0.00036621093749999902
0.00036621093749999902
0.00036621093749999902
0.00036621093749999902
0.00036621093749999902
0.00036621093749999902
0.00076904296875000052
0.0023071289062500016
0.00076904296875000052
0.0023071289062500016
0.00076904296875000052
0.0023071289062500016
0.00076904296875000052
0.0023071289062500016
0.00076904296875000052
0.0023071289062500016
0.00076904296875000052
0.0023071289062500016
0.00076904296875000052
0.0023071289062500016
0.00076904296875000052
0.0023071289062500016
0.00076904296875000052
0.0023071289062500016
0.00076904296875000052
0.0023071289062500016
0.0030761718750000021
0.0030761718750000021
0.0012084960937499938
0.00075683593750000208
0.00013427734374999931
0.00051269531249999991
0.00051269531250000013
0.0030761718750000021
0.00051269531250000013
0.00051269531249999991
0.00076904296874999792
0.0023071289062499938
0.002307128906249999
0.00076904296875000312
0.00051269531249999991
0.00051269531250000035
0.002307128906249999
0.00076904296875000312
0.00076904296875000312
0.002307128906249999
0.00051269531249999948
0.00051269531250000035
0.00076904296875000312
0.002307128906249999
0.00076904296874999792
0.0023071289062499938
0.00051269531250000035
0.00051269531249999948
0.002307128906249999
0.00076904296875000312
0.002307128906249999
0.00076904296875000312
0.00051269531250000035
0.00051269531250000035
0.002307128906249999
0.00076904296875000312
0.00076904296875000312
0.002307128906249999
0.00051269531249999948
0.00051269531249999948
0.00076904296875000312
0.002307128906249999
0.00076904296875000312
0.002307128906249999
0.00051269531250000035
0.00051269531250000035
0.00076904296874999792
0.0023071289062499938
0.00076904296875000833
0.0023071289062500042
0.0023071289062499938
0.00076904296874999792
0.0023071289062499938
0.00076904296874999792
0.0023071289062499938
0.00076904296874999792
0.0023071289062499938
0.00076904296874999792
0.0023071289062499938
0.00076904296874999792
0.0023071289062499938
0.00076904296874999792
0.0023071289062499938
0.00076904296874999792
0.0023071289062499938
0.00076904296874999792
0.0023071289062499938
0.00076904296874999792
0.0023071289062499938
0.00076904296874999792
0.00051269531250000035
0.0023071289062499938
0.00076904296874999792
0.00051269531250000035
0.00076904296874999792
0.0023071289062499938
0.0030761718749999917
0.00051269531249999861
0.00051269531250000035
0.00051269531250000035
0.00051269531250000035
0.00051269531250000035
0.00051269531250000035
0.00051269531249999861
0.00051269531250000035
0.00051269531250000035
0.00051269531250000035
0.00080566406250000104
0.00079345703125
0.00050048828124999931
0.00080566406250000104
0.00080566406250000104
0.00080566406250000104
0.00080566406250000104
0.00080566406250000104
0.00080566406250000104
0.00080566406250000104
0.00080566406250000104
0.00080566406250000104
0.00080566406250000104
0.00080566406250000104
0.00080566406250000104
0.00080566406250000104
0.00080566406250000104
0.00080566406250000104
0.00080566406250000104
0.00080566406250000104
0.00080566406250000104
0.00080566406250000104
0.00080566406250000104
0.00050048828125000278
2.4414062499998612e-05
0.00042114257812499688
0.00038452148437499896
0.00051269531249999861
0.00051269531249999861
0.00051269531250000208
0.00051269531249999861
0.00080566406249999584
0.00080566406249999584
0.00080566406249999584
0.00080566406249999584
0.00051269531250000208
0.00051269531249999861
0.00051269531249999861
0.00051269531250000208
0.00051269531249999861
0.00051269531250000208
0.00051269531249999861
0.00051269531249999861
0.00051269531250000208
0.00051269531249999861
0.00051269531250000208
0.00051269531249999861
0.00051269531250000208
0.00051269531249999861
0.00051269531249999861
0.00051269531250000208
0.00051269531249999861
0.00051269531250000208
0.00051269531249999861
0.00051269531250000208
0.00051269531249999861
0.00051269531249999861
0.00051269531249999861
0.00051269531250000555
0.00080566406249999584
0.00080566406249999584
0.00080566406249999584
0.00080566406249999584
0.00080566406249999584
0.00080566406249999584
0.00080566406249999584
0.00080566406249999584
0.00080566406249999584
0.00080566406249999584
0.00080566406249999584
0.00080566406249999584
0.00080566406249999584
0.00080566406249999584
0.00080566406249999584
0.00080566406249999584
0.00051269531249999861
0.000244140625
0.00039062499999999861
0.0003662109375
0.0003662109375
0.0003662109375
0.0003662109375
0.0003662109375
0.0003662109375
0.0003662109375
0.0003662109375
0.0003662109375
0.0003662109375
0.0003662109375
0.0003662109375
0.0003662109375
0.0003662109375
0.0003662109375
0.0003662109375
0.0003662109375
0.0003662109375
0.0003662109375
0.0003662109375
0.0003662109375
0.00036621093749999902
0.00036621093749999902
0.00036621093749999902
0.00036621093749999902
0.00036621093749999902
0.00036621093749999902
0.00036621093749999902
0.00036621093749999902
0.00036621093749999902
0.00036621093749999902
0.00036621093749999902
0.00036621093749999902
0.00036621093749999902
0.00036621093749999902
0.00036621093749999902
0.00036621093749999902
0.00036621093749999902
0.00036621093749999902
0.00036621093749999902
0.00036621093749999902
0.00036621093749999902
0.00039062500000000035
0.00024414062499999935
0.00051269531250000002
0.00080566406250000104
0.00080566406250000104
0.00080566406250000104
0.00080566406250000104
0.00080566406250000104
0.00080566406250000104
0.00080566406250000104
0.00080566406250000104
0.00080566406250000104
0.00080566406250000104
0.00080566406250000104
0.00080566406250000104
0.00080566406250000104
0.00080566406250000104
0.00080566406250000104
0.00080566406250000104
0.00051269531249999991
0.00051269531250000013
0.00051269531250000013
0.00051269531249999991
0.00051269531249999991
0.00051269531250000035
0.00051269531249999948
0.00051269531250000035
0.00051269531250000035
0.00051269531249999948
0.00051269531250000035
0.00051269531250000035
0.00051269531249999948
0.00051269531249999948
0.00051269531250000035
0.00051269531250000035
0.00051269531250000035
0.00051269531250000035
0.00051269531249999861
0.00051269531250000035
0.00051269531250000035
0.00051269531250000035
0.00051269531250000035
0.00051269531250000035
0.00080566406250000104
0.00080566406250000104
0.00080566406250000104
0.00080566406250000104
0.00051269531249999861
0.00051269531250000035
0.00051269531250000035
0.00051269531250000035
0.00038452148437499896
0.00042114257812500208
0.00038452148437499896
0.00040893554687500104
0.00050048828124999931
0.00080566406249999584
0.00080566406249999584
0.00080566406249999584
0.00080566406249999584
0.00080566406249999584
0.00080566406249999584
0.00080566406249999584
0.00080566406249999584
0.00080566406249999584
0.00080566406249999584
0.00080566406249999584
0.00080566406249999584
0.00080566406249999584
0.00080566406249999584
0.00080566406249999584
0.00080566406249999584
0.00080566406249999584
0.00080566406249999584
0.00080566406249999584
0.00080566406249999584
0.00051269531249999861
0.00051269531249999861
0.00051269531250000208
0.00051269531249999861
0.00051269531250000208
0.00051269531249999861
0.00051269531249999861
0.00051269531250000208
0.00051269531249999861
0.00051269531250000208
0.00051269531249999861
0.00051269531249999861
0.00051269531250000208
0.00051269531249999861
0.00051269531250000208
0.00051269531249999861
0.00051269531250000208
0.00051269531249999861
0.00051269531249999861
0.00051269531250000208
0.00051269531249999861
0.00051269531250000208
0.00051269531249999861
0.00051269531250000208
0.00051269531249999861
0.00051269531249999861
0.00051269531249999861
0.00051269531250000555
0.0003662109375
0.0003662109375
0.0003662109375
0.0003662109375
0.0003662109375
0.0003662109375
0.0003662109375
0.0003662109375
0.0003662109375
0.0003662109375
0.0003662109375
0.0003662109375
0.0003662109375
0.0003662109375
0.0003662109375
0.0003662109375
0.0003662109375
0.0003662109375
0.0003662109375
0.0003662109375
0.0003662109375
0.00051269531249999861
0.000244140625
0.00039062499999999861
SCALARS source_id unsigned_long 1
LOOKUP_TABLE default
0
1
2
3
4
5
6
7
8
9
10
11
12
13
14
15
16
17
18
19
20
21
22
23
24
25
26
27
28
29
30
31
32
33
34
35
36
37
38
39
40
41
42
43
44
45
46
47
48
49
50
51
52
53
54
55
56
57
58
59
60
61
62
63
64
65
66
67
68
69
70
71
72
73
74
75
76
77
78
79
80
81
82
83
84
85
86
87
88
89
90
91
92
93
94
95
96
97
98
99
100
101
102
103
104
105
106
107
108
109
110
111
112
113
114
115
116
117
118
119
120
121
122
123
124
125
126
127
128
129
130
131
132
133
134
135
136
137
138
139
140
141
142
143
144
145
146
147
148
149
150
151
152
153
154
155
156
157
158
159
160
161
162
163
164
165
166
167
168
169
170
171
172
173
174
175
176
177
178
179
180
181
182
183
184
185
186
187
188
189
190
191
192
193
194
195
196
197
198
199
200
201
202
203
204
205
206
207
208
209
210
211
212
213
214
215
216
217
218
219
220
221
222
223
224
225
226
227
228
229
230
231
232
233
234
235
236
237
238
239
240
241
242
243
244
245
246
247
248
249
250
251
252
253
254
255
256
257
258
259
260
261
262
263
264
265
266
267
268
269
270
271
272
273
274
275
276
277
278
279
280
281
282
283
284
285
286
287
288
289
290
291
292
293
294
295
296
297
298
299
300
301
302
303
304
305
306
307
308
309
310
311
312
313
314
315
316
317
318
319
320
321
322
323
324
325
326
327
328
329
330
331
332
333
334
335
336
337
338
339
340
341
342
343
344
345
346
347
348
349
350
351
352
353
354
355
356
357
358
359
360
361
362
363
364
365
366
367
368
369
370
371
372
373
374
375
376
377
378
379
380
381
382
383
384
385
386
387
388
389
390
391
392
393
394
395
396
397
398
399
400
401
402
403
404
405
406
407
408
409
410
411
412
413
414
415
416
417
418
419
420
421
422
423
424
425
426
427
428
429
430
431
432
433
434
435
436
437
438
439
440
441
442
443
444
445
446
447
448
449
450
451
452
453
454
455
456
457
458
459
460
461
462
463
464
465
466
467
468
469
470
471
472
473
474
475
476
477
478
479
480
481
482
483
484
485
486
487
488
489
490
491
492
493
494
495
496
497
498
499
500
501
502
503
504
505
506
507
508
509
510
511
512
513
514
515
516
517
518
519
520
521
522
523
524
525
526
527
528
529
530
531
532
533
534
535
536
537
538
539
540
541
542
543
544
545
546
547
548
549
550
551
552
553
554
555
556
557
558
559
560
561
562
563
564
565
566
567
568
569
570
571
572
573
574
575
576
577
578
579
580
581
582
583
584
585
586
587
588
589
590
591
592
593
594
595
596
597
598
599
600
601
602
603
604
605
606
607
608
609
610
611
612
613
614
615
616
617
618
619
620
621
622
623
624
625
626
627
628
629
630
631
632
633
634
635
636
637
638
639
640
641
642
643
644
645
646
647
648
649
650
651
652
653
654
655
656
657
658
659
660
661
662
663
664
665
666
667
668
669
670
671
672
673
674
675
676
677
678
679
680
681
682
683
684
685
686
687
688
689
690
691
692
693
694
695
696
697
698
699
700
701
702
703
704
705
706
707
708
709
710
711
712
713
714
715
716
717
718
719
720
721
722
723
724
725
726
727
728
729
730
731
732
733
734
735
736
737
738
739
740
741
742
743
744
745
746
747
748
749
750
751
752
753
754
755
756
757
758
759
760
761
762
763
764
765
766
767
768
769
770
771
772
773
774
775
776
777
778
779
780
781
782
783
784
785
786
787
788
789
790
791
792
793
794
795
796
797
798
799
800
801
802
803
804
805
806
807
808
809
810
811
812
813
814
815
816
817
818
819
820
821
822
823
824
825
826
827
828
829
830
831
832
833
834
835
836
837
838
839
840
841
842
843
844
845
846
847
848
849
850
851
852
853
854
855
856
857
858
859
860
861
862
863
864
865
866
867
868
869
870
871
872
873
874
875
876
877
878
879
880
881
882
883
884
885
886
887
888
889
890
891
892
893
894
895
896
897
898
899
900
901
902
903
904
905
906
907
908
909
910
911
912
913
914
915
916
917
918
919
920
921
922
923
924
925
926
927
928
929
930
