# vtk DataFile Version 3.0
cartmesh2d deterministic topology export
ASCII
DATASET UNSTRUCTURED_GRID
POINTS 738 double
-1 -1 0
-1 -0.73750000000000004 0
-1 -0.47499999999999998 0
-1 -0.21249999999999997 0
-1 -0.081249999999999961 0
-1 0.050000000000000044 0
-1 0.18125000000000005 0
-1 0.31250000000000006 0
-1 0.57500000000000007 0
-1 0.83750000000000013 0
-1 1.1000000000000001 0
-0.6875 -0.21249999999999997 0
-0.6875 -0.081249999999999961 0
-0.6875 0.050000000000000044 0
-0.6875 0.18125000000000005 0
-0.6875 0.31250000000000006 0
-0.375 -1 0
-0.375 -0.73750000000000004 0
-0.375 -0.47499999999999998 0
-0.375 -0.34375 0
-0.375 -0.21249999999999997 0
-0.375 -0.081249999999999961 0
-0.375 -0.015624999999999958 0
-0.375 0.050000000000000044 0
-0.375 0.11562500000000005 0
-0.375 0.18125000000000005 0
-0.375 0.31250000000000006 0
-0.375 0.44375000000000009 0
-0.375 0.57500000000000007 0
-0.375 0.83750000000000013 0
-0.375 1.1000000000000001 0
-0.21875 -0.081249999999999961 0
-0.21875 -0.015624999999999958 0
-0.21875 0.017187500000000043 0
-0.21875 0.050000000000000044 0
-0.21875 0.11562500000000005 0
-0.21875 0.18125000000000005 0
-0.140625 -0.015624999999999958 0
-0.140625 0.017187500000000043 0
-0.140625 0.050000000000000044 0
-0.0625 -0.47499999999999998 0
-0.0625 -0.34375 0
-0.0625 -0.21249999999999997 0
-0.0625 -0.14687499999999998 0
-0.0625 -0.081249999999999961 0
-0.0625 -0.04843749999999996 0
-0.0625 -0.015624999999999958 0
-0.0625 0.00078125000000004233 0
-0.0625 0.017187500000000043 0
-0.0625 0.033593750000000047 0
-0.0625 0.050000000000000044 0
-0.0625 0.082812500000000039 0
-0.0625 0.11562500000000005 0
-0.0625 0.14843750000000006 0
-0.0625 0.18125000000000005 0
-0.0625 0.24687500000000007 0
-0.0625 0.31250000000000006 0
-0.0625 0.44375000000000009 0
-0.0625 0.57500000000000007 0
-0.0234375 -0.015624999999999958 0
-0.0234375 0.00078125000000004233 0
-0.0234375 0.017187500000000043 0
-0.0234375 0.033593750000000047 0
-0.0234375 0.050000000000000044 0
0 0 0
0.00039062500000001666 0.00078125000000004233 0
0.0085937500000000232 0.017187500000000043 0
0.015625 -0.081249999999999961 0
0.015625 -0.04843749999999996 0
0.015625 -0.015624999999999958 0
0.015625 0 0
0.015625 0.033593750000000047 0
0.015625 0.050000000000000044 0
0.015625 0.066406250000000042 0
0.015625 0.082812500000000039 0
0.015625 0.09921875000000005 0
0.015625 0.11562500000000005 0
0.015625 0.14843750000000006 0
0.015625 0.18125000000000005 0
0.016796875000000024 0.033593750000000047 0
0.025000000000000022 0.050000000000000044 0
0.033203125000000021 0.066406250000000042 0
0.041406250000000019 0.082812500000000039 0
0.049609375000000025 0.09921875000000005 0
0.049999999999999822 0.10000000000000001 0
0.0546875 -0.015624999999999958 0
0.0546875 0 0
0.0546875 0.099841101694915252 0
0.0546875 0.11562500000000005 0
0.09375 -0.21249999999999997 0
0.09375 -0.14687499999999998 0
0.09375 -0.081249999999999961 0
0.09375 -0.04843749999999996 0
0.09375 -0.015624999999999958 0
0.09375 0 0
0.09375 0.098516949152542374 0
0.09375 0.11562500000000005 0
0.09375 0.14843750000000006 0
0.09375 0.18125000000000005 0
0.09375 0.24687500000000007 0
0.09375 0.31250000000000006 0
0.1328125 -0.015624999999999958 0
0.1328125 0 0
0.1328125 0.097192796610169496 0
0.1328125 0.09921875000000005 0
0.1328125 0.11562500000000005 0
0.171875 -0.081249999999999961 0
0.171875 -0.04843749999999996 0
0.171875 -0.015624999999999958 0
0.171875 0 0
0.171875 0.095868644067796605 0
0.171875 0.09921875000000005 0
0.171875 0.11562500000000005 0
0.171875 0.14843750000000006 0
0.171875 0.18125000000000005 0
0.2109375 -0.015624999999999958 0
0.2109375 0 0
0.2109375 0.094544491525423727 0
0.2109375 0.09921875000000005 0
0.2109375 0.11562500000000005 0
0.25 -1 0
0.25 -0.73750000000000004 0
0.25 -0.47499999999999998 0
0.25 -0.34375 0
0.25 -0.21249999999999997 0
0.25 -0.14687499999999998 0
0.25 -0.081249999999999961 0
0.25 -0.04843749999999996 0
0.25 -0.015624999999999958 0
0.25 0 0
0.25 0.093220338983050849 0
0.25 0.09921875000000005 0
0.25 0.11562500000000005 0
0.25 0.14843750000000006 0
0.25 0.18125000000000005 0
0.25 0.24687500000000007 0
0.25 0.31250000000000006 0
0.25 0.44375000000000009 0
0.25 0.57500000000000007 0
0.25 0.83750000000000013 0
0.25 1.1000000000000001 0
0.2890625 -0.015624999999999958 0
0.2890625 0 0
0.2890625 0.091896186440677971 0
0.2890625 0.09921875000000005 0
0.2890625 0.11562500000000005 0
0.328125 -0.081249999999999961 0
0.328125 -0.04843749999999996 0
0.328125 -0.015624999999999958 0
0.328125 0 0
0.328125 0.090572033898305093 0
0.328125 0.09921875000000005 0
0.328125 0.11562500000000005 0
0.328125 0.14843750000000006 0
0.328125 0.18125000000000005 0
0.3671875 -0.015624999999999958 0
0.3671875 0 0
0.3671875 0.089247881355932202 0
0.3671875 0.09921875000000005 0
0.3671875 0.11562500000000005 0
0.40625 -0.21249999999999997 0
0.40625 -0.14687499999999998 0
0.40625 -0.081249999999999961 0
0.40625 -0.04843749999999996 0
0.40625 -0.015624999999999958 0
0.40625 0 0
0.40625 0.087923728813559324 0
0.40625 0.09921875000000005 0
0.40625 0.11562500000000005 0
0.40625 0.14843750000000006 0
0.40625 0.18125000000000005 0
0.40625 0.24687500000000007 0
0.40625 0.31250000000000006 0
0.4453125 -0.015624999999999958 0
0.4453125 0 0
0.4453125 0.086599576271186446 0
0.4453125 0.09921875000000005 0
0.4453125 0.11562500000000005 0
0.484375 -0.081249999999999961 0
0.484375 -0.04843749999999996 0
0.484375 -0.015624999999999958 0
0.484375 0 0
0.484375 0.085275423728813568 0
0.484375 0.09921875000000005 0
0.484375 0.11562500000000005 0
0.484375 0.14843750000000006 0
0.484375 0.18125000000000005 0
0.5234375 -0.015624999999999958 0
0.5234375 0 0
0.5234375 0.083951271186440676 0
0.5234375 0.09921875000000005 0
0.5234375 0.11562500000000005 0
0.5625 -0.47499999999999998 0
0.5625 -0.34375 0
0.5625 -0.21249999999999997 0
0.5625 -0.14687499999999998 0
0.5625 -0.081249999999999961 0
0.5625 -0.04843749999999996 0
0.5625 -0.015624999999999958 0
0.5625 0 0
0.5625 0.082627118644067798 0
0.5625 0.09921875000000005 0
0.5625 0.11562500000000005 0
0.5625 0.14843750000000006 0
0.5625 0.18125000000000005 0
0.5625 0.24687500000000007 0
0.5625 0.31250000000000006 0
0.5625 0.44375000000000009 0
0.5625 0.57500000000000007 0
0.6015625 -0.015624999999999958 0
0.6015625 0 0
0.6015625 0.081302966101694907 0
0.6015625 0.082812500000000039 0
0.640625 -0.081249999999999961 0
0.640625 -0.04843749999999996 0
0.640625 -0.015624999999999958 0
0.640625 0 0
0.640625 0.079978813559322029 0
0.640625 0.082812500000000039 0
0.640625 0.11562500000000005 0
0.6796875 -0.015624999999999958 0
0.6796875 0 0
0.6796875 0.078654661016949151 0
0.6796875 0.082812500000000039 0
0.71875 -0.21249999999999997 0
0.71875 -0.14687499999999998 0
0.71875 -0.081249999999999961 0
0.71875 -0.04843749999999996 0
0.71875 -0.015624999999999958 0
0.71875 0 0
0.71875 0.077330508474576273 0
0.71875 0.082812500000000039 0
0.71875 0.11562500000000005 0
0.71875 0.18125000000000005 0
0.7578125 -0.015624999999999958 0
0.7578125 0 0
0.7578125 0.076006355932203395 0
0.7578125 0.082812500000000039 0
0.796875 -0.081249999999999961 0
0.796875 -0.04843749999999996 0
0.796875 -0.015624999999999958 0
0.796875 0 0
0.796875 0.074682203389830504 0
0.796875 0.082812500000000039 0
0.796875 0.11562500000000005 0
0.8359375 -0.015624999999999958 0
0.8359375 0 0
0.8359375 0.073358050847457626 0
0.8359375 0.082812500000000039 0
0.875 -1 0
0.875 -0.73750000000000004 0
0.875 -0.47499999999999998 0
0.875 -0.34375 0
0.875 -0.21249999999999997 0
0.875 -0.14687499999999998 0
0.875 -0.081249999999999961 0
0.875 -0.04843749999999996 0
0.875 -0.015624999999999958 0
0.875 0 0
0.875 0.072033898305084748 0
0.875 0.082812500000000039 0
0.875 0.11562500000000005 0
0.875 0.18125000000000005 0
0.875 0.31250000000000006 0
0.875 0.44375000000000009 0
0.875 0.57500000000000007 0
0.875 0.83750000000000013 0
0.875 1.1000000000000001 0
0.9140625 -0.015624999999999958 0
0.9140625 0 0
0.9140625 0.07070974576271187 0
0.9140625 0.082812500000000039 0
0.953125 -0.081249999999999961 0
0.953125 -0.04843749999999996 0
0.953125 -0.015624999999999958 0
0.953125 0 0
0.953125 0.069385593220338979 0
0.953125 0.082812500000000039 0
0.953125 0.11562500000000005 0
0.9921875 -0.015624999999999958 0
0.9921875 0 0
0.9921875 0.068061440677966101 0
0.9921875 0.082812500000000039 0
1.03125 -0.21249999999999997 0
1.03125 -0.14687499999999998 0
1.03125 -0.081249999999999961 0
1.03125 -0.04843749999999996 0
1.03125 -0.015624999999999958 0
1.03125 0 0
1.03125 0.066737288135593223 0
1.03125 0.082812500000000039 0
1.03125 0.11562500000000005 0
1.03125 0.18125000000000005 0
1.0703125 -0.015624999999999958 0
1.0703125 0 0
1.0703125 0.065413135593220345 0
1.0703125 0.066406250000000042 0
1.0703125 0.082812500000000039 0
1.109375 -0.081249999999999961 0
1.109375 -0.04843749999999996 0
1.109375 -0.015624999999999958 0
1.109375 0 0
1.109375 0.064088983050847467 0
1.109375 0.066406250000000042 0
1.109375 0.082812500000000039 0
1.109375 0.11562500000000005 0
1.1484375 -0.015624999999999958 0
1.1484375 0 0
1.1484375 0.062764830508474576 0
1.1484375 0.066406250000000042 0
1.1484375 0.082812500000000039 0
1.1875 -0.47499999999999998 0
1.1875 -0.34375 0
1.1875 -0.21249999999999997 0
1.1875 -0.14687499999999998 0
1.1875 -0.081249999999999961 0
1.1875 -0.04843749999999996 0
1.1875 -0.015624999999999958 0
1.1875 0 0
1.1875 0.061440677966101691 0
1.1875 0.066406250000000042 0
1.1875 0.082812500000000039 0
1.1875 0.11562500000000005 0
1.1875 0.18125000000000005 0
1.1875 0.31250000000000006 0
1.2265625 -0.015624999999999958 0
1.2265625 0 0
1.2265625 0.060116525423728806 0
1.2265625 0.066406250000000042 0
1.2265625 0.082812500000000039 0
1.265625 -0.081249999999999961 0
1.265625 -0.04843749999999996 0
1.265625 -0.015624999999999958 0
1.265625 0 0
1.265625 0.058792372881355928 0
1.265625 0.066406250000000042 0
1.265625 0.082812500000000039 0
1.265625 0.11562500000000005 0
1.3046875 -0.015624999999999958 0
1.3046875 0 0
1.3046875 0.05746822033898305 0
1.3046875 0.066406250000000042 0
1.3046875 0.082812500000000039 0
1.34375 -0.21249999999999997 0
1.34375 -0.14687499999999998 0
1.34375 -0.081249999999999961 0
1.34375 -0.04843749999999996 0
1.34375 -0.015624999999999958 0
1.34375 0 0
1.34375 0.056144067796610166 0
1.34375 0.066406250000000042 0
1.34375 0.082812500000000039 0
1.34375 0.11562500000000005 0
1.34375 0.18125000000000005 0
1.3828125 -0.015624999999999958 0
1.3828125 0 0
1.3828125 0.054819915254237288 0
1.3828125 0.066406250000000042 0
1.3828125 0.082812500000000039 0
1.421875 -0.081249999999999961 0
1.421875 -0.04843749999999996 0
1.421875 -0.015624999999999958 0
1.421875 0 0
1.421875 0.053495762711864403 0
1.421875 0.066406250000000042 0
1.421875 0.082812500000000039 0
1.421875 0.11562500000000005 0
1.4609375 -0.015624999999999958 0
1.4609375 0 0
1.4609375 0.052171610169491525 0
1.4609375 0.066406250000000042 0
1.4609375 0.082812500000000039 0
1.5 -1 0
1.5 -0.73750000000000004 0
1.5 -0.47499999999999998 0
1.5 -0.34375 0
1.5 -0.21249999999999997 0
1.5 -0.14687499999999998 0
1.5 -0.081249999999999961 0
1.5 -0.04843749999999996 0
1.5 -0.015624999999999958 0
1.5 0 0
1.5 0.050847457627118647 0
1.5 0.066406250000000042 0
1.5 0.082812500000000039 0
1.5 0.11562500000000005 0
1.5 0.18125000000000005 0
1.5 0.31250000000000006 0
1.5 0.57500000000000007 0
1.5 0.83750000000000013 0
1.5 1.1000000000000001 0
1.5390625 -0.015624999999999958 0
1.5390625 0 0
1.5390625 0.049523305084745763 0
1.5390625 0.066406250000000042 0
1.5390625 0.082812500000000039 0
1.578125 -0.081249999999999961 0
1.578125 -0.04843749999999996 0
1.578125 -0.015624999999999958 0
1.578125 0 0
1.578125 0.048199152542372885 0
1.578125 0.050000000000000044 0
1.578125 0.066406250000000042 0
1.578125 0.082812500000000039 0
1.578125 0.11562500000000005 0
1.6171875 -0.015624999999999958 0
1.6171875 0 0
1.6171875 0.046875 0
1.6171875 0.050000000000000044 0
1.65625 -0.21249999999999997 0
1.65625 -0.14687499999999998 0
1.65625 -0.081249999999999961 0
1.65625 -0.04843749999999996 0
1.65625 -0.015624999999999958 0
1.65625 0 0
1.65625 0.045550847457627115 0
1.65625 0.050000000000000044 0
1.65625 0.082812500000000039 0
1.65625 0.11562500000000005 0
1.65625 0.18125000000000005 0
1.6953125 -0.015624999999999958 0
1.6953125 0 0
1.6953125 0.044226694915254237 0
1.6953125 0.050000000000000044 0
1.734375 -0.081249999999999961 0
1.734375 -0.04843749999999996 0
1.734375 -0.015624999999999958 0
1.734375 0 0
1.734375 0.042902542372881353 0
1.734375 0.050000000000000044 0
1.734375 0.082812500000000039 0
1.734375 0.11562500000000005 0
1.7734375 -0.015624999999999958 0
1.7734375 0 0
1.7734375 0.041578389830508475 0
1.7734375 0.050000000000000044 0
1.8125 -0.47499999999999998 0
1.8125 -0.34375 0
1.8125 -0.21249999999999997 0
1.8125 -0.14687499999999998 0
1.8125 -0.081249999999999961 0
1.8125 -0.04843749999999996 0
1.8125 -0.015624999999999958 0
1.8125 0 0
1.8125 0.040254237288135597 0
1.8125 0.050000000000000044 0
1.8125 0.082812500000000039 0
1.8125 0.11562500000000005 0
1.8125 0.18125000000000005 0
1.8125 0.31250000000000006 0
1.8515625 -0.015624999999999958 0
1.8515625 0 0
1.8515625 0.038930084745762712 0
1.8515625 0.050000000000000044 0
1.890625 -0.081249999999999961 0
1.890625 -0.04843749999999996 0
1.890625 -0.015624999999999958 0
1.890625 0 0
1.890625 0.037605932203389834 0
1.890625 0.050000000000000044 0
1.890625 0.082812500000000039 0
1.890625 0.11562500000000005 0
1.9296875 -0.015624999999999958 0
1.9296875 0 0
1.9296875 0.03628177966101695 0
1.9296875 0.050000000000000044 0
1.96875 -0.21249999999999997 0
1.96875 -0.14687499999999998 0
1.96875 -0.081249999999999961 0
1.96875 -0.04843749999999996 0
1.96875 -0.015624999999999958 0
1.96875 0 0
1.96875 0.034957627118644065 0
1.96875 0.050000000000000044 0
1.96875 0.082812500000000039 0
1.96875 0.11562500000000005 0
1.96875 0.18125000000000005 0
2.0078125 -0.015624999999999958 0
2.0078125 0 0
2.0078125 0.033633474576271187 0
2.0078125 0.050000000000000044 0
2.046875 -0.081249999999999961 0
2.046875 -0.04843749999999996 0
2.046875 -0.015624999999999958 0
2.046875 0 0
2.046875 0.032309322033898302 0
2.046875 0.033593750000000047 0
2.046875 0.050000000000000044 0
2.046875 0.082812500000000039 0
2.046875 0.11562500000000005 0
2.0859375 -0.015624999999999958 0
2.0859375 0 0
2.0859375 0.030985169491525424 0
2.0859375 0.033593750000000047 0
2.0859375 0.050000000000000044 0
2.125 -1 0
2.125 -0.73750000000000004 0
2.125 -0.47499999999999998 0
2.125 -0.34375 0
2.125 -0.21249999999999997 0
2.125 -0.14687499999999998 0
2.125 -0.081249999999999961 0
2.125 -0.04843749999999996 0
2.125 -0.015624999999999958 0
2.125 0 0
2.125 0.029661016949152543 0
2.125 0.033593750000000047 0
2.125 0.050000000000000044 0
2.125 0.082812500000000039 0
2.125 0.11562500000000005 0
2.125 0.18125000000000005 0
2.125 0.31250000000000006 0
2.125 0.57500000000000007 0
2.125 0.83750000000000013 0
2.125 1.1000000000000001 0
2.1640625 -0.015624999999999958 0
2.1640625 0 0
2.1640625 0.028336864406779662 0
2.1640625 0.033593750000000047 0
2.1640625 0.050000000000000044 0
2.203125 -0.081249999999999961 0
2.203125 -0.04843749999999996 0
2.203125 -0.015624999999999958 0
2.203125 0 0
2.203125 0.027012711864406781 0
2.203125 0.033593750000000047 0
2.203125 0.050000000000000044 0
2.203125 0.082812500000000039 0
2.203125 0.11562500000000005 0
2.2421875 -0.015624999999999958 0
2.2421875 0 0
2.2421875 0.025688559322033899 0
2.2421875 0.033593750000000047 0
2.2421875 0.050000000000000044 0
2.28125 -0.21249999999999997 0
2.28125 -0.14687499999999998 0
2.28125 -0.081249999999999961 0
2.28125 -0.04843749999999996 0
2.28125 -0.015624999999999958 0
2.28125 0 0
2.28125 0.024364406779661018 0
2.28125 0.033593750000000047 0
2.28125 0.050000000000000044 0
2.28125 0.082812500000000039 0
2.28125 0.11562500000000005 0
2.28125 0.18125000000000005 0
2.3203125 -0.015624999999999958 0
2.3203125 0 0
2.3203125 0.023040254237288137 0
2.3203125 0.033593750000000047 0
2.3203125 0.050000000000000044 0
2.359375 -0.081249999999999961 0
2.359375 -0.04843749999999996 0
2.359375 -0.015624999999999958 0
2.359375 0 0
2.359375 0.021716101694915252 0
2.359375 0.033593750000000047 0
2.359375 0.050000000000000044 0
2.359375 0.082812500000000039 0
2.359375 0.11562500000000005 0
2.3984375 -0.015624999999999958 0
2.3984375 0 0
2.3984375 0.020391949152542374 0
2.3984375 0.033593750000000047 0
2.3984375 0.050000000000000044 0
2.4375 -0.47499999999999998 0
2.4375 -0.34375 0
2.4375 -0.21249999999999997 0
2.4375 -0.14687499999999998 0
2.4375 -0.081249999999999961 0
2.4375 -0.04843749999999996 0
2.4375 -0.015624999999999958 0
2.4375 0 0
2.4375 0.019067796610169493 0
2.4375 0.033593750000000047 0
2.4375 0.050000000000000044 0
2.4375 0.082812500000000039 0
2.4375 0.11562500000000005 0
2.4375 0.18125000000000005 0
2.4375 0.31250000000000006 0
2.4765625 -0.015624999999999958 0
2.4765625 0 0
2.4765625 0.017743644067796611 0
2.4765625 0.033593750000000047 0
2.4765625 0.050000000000000044 0
2.515625 -0.081249999999999961 0
2.515625 -0.04843749999999996 0
2.515625 -0.015624999999999958 0
2.515625 0 0
2.515625 0.016419491525423727 0
2.515625 0.033593750000000047 0
2.515625 0.050000000000000044 0
2.515625 0.082812500000000039 0
2.515625 0.11562500000000005 0
2.5546875 -0.015624999999999958 0
2.5546875 0 0
2.5546875 0.015095338983050847 0
2.5546875 0.017187500000000043 0
2.59375 -0.21249999999999997 0
2.59375 -0.14687499999999998 0
2.59375 -0.081249999999999961 0
2.59375 -0.04843749999999996 0
2.59375 -0.015624999999999958 0
2.59375 0 0
2.59375 0.013771186440677966 0
2.59375 0.017187500000000043 0
2.59375 0.050000000000000044 0
2.59375 0.082812500000000039 0
2.59375 0.11562500000000005 0
2.59375 0.18125000000000005 0
2.6328125 -0.015624999999999958 0
2.6328125 0 0
2.6328125 0.012447033898305085 0
2.6328125 0.017187500000000043 0
2.671875 -0.081249999999999961 0
2.671875 -0.04843749999999996 0
2.671875 -0.015624999999999958 0
2.671875 0 0
2.671875 0.011122881355932203 0
2.671875 0.017187500000000043 0
2.671875 0.050000000000000044 0
2.7109375 -0.015624999999999958 0
2.7109375 0 0
2.7109375 0.0097987288135593219 0
2.7109375 0.017187500000000043 0
2.75 -1 0
2.75 -0.73750000000000004 0
2.75 -0.47499999999999998 0
2.75 -0.34375 0
2.75 -0.21249999999999997 0
2.75 -0.14687499999999998 0
2.75 -0.081249999999999961 0
2.75 -0.04843749999999996 0
2.75 -0.015624999999999958 0
2.75 0 0
2.75 0.0084745762711864406 0
2.75 0.017187500000000043 0
2.75 0.050000000000000044 0
2.75 0.11562500000000005 0
2.75 0.18125000000000005 0
2.75 0.31250000000000006 0
2.75 0.57500000000000007 0
2.75 0.83750000000000013 0
2.75 1.1000000000000001 0
2.7890625 -0.015624999999999958 0
2.7890625 0 0
2.7890625 0.0071504237288135585 0
2.7890625 0.017187500000000043 0
2.828125 -0.081249999999999961 0
2.828125 -0.04843749999999996 0
2.828125 -0.015624999999999958 0
2.828125 0 0
2.828125 0.0058262711864406781 0
2.828125 0.017187500000000043 0
2.828125 0.050000000000000044 0
2.8671875 -0.015624999999999958 0
2.8671875 0 0
2.8671875 0.0045021186440677968 0
2.8671875 0.017187500000000043 0
2.90625 -0.21249999999999997 0
2.90625 -0.14687499999999998 0
2.90625 -0.081249999999999961 0
2.90625 -0.04843749999999996 0
2.90625 -0.015624999999999958 0
2.90625 0 0
2.90625 0.0031779661016949155 0
2.90625 0.017187500000000043 0
2.90625 0.050000000000000044 0
2.90625 0.11562500000000005 0
2.90625 0.18125000000000005 0
2.9453125 -0.015624999999999958 0
2.9453125 0 0
2.9453125 0.0018538135593220339 0
2.9453125 0.017187500000000043 0
2.984375 -0.081249999999999961 0
2.984375 -0.04843749999999996 0
2.984375 -0.015624999999999958 0
2.984375 0 0
2.984375 0.00052966101694915254 0
2.984375 0.00078125000000004233 0
2.984375 0.017187500000000043 0
2.984375 0.050000000000000044 0
3 0 0
3.0234375 -0.015624999999999958 0
3.0234375 0.00078125000000004233 0
3.0234375 0.017187500000000043 0
3.0625 -0.47499999999999998 0
3.0625 -0.34375 0
3.0625 -0.21249999999999997 0
3.0625 -0.14687499999999998 0
3.0625 -0.081249999999999961 0
3.0625 -0.04843749999999996 0
3.0625 -0.015624999999999958 0
3.0625 0.00078125000000004233 0
3.0625 0.017187500000000043 0
3.0625 0.050000000000000044 0
3.0625 0.11562500000000005 0
3.0625 0.18125000000000005 0
3.0625 0.31250000000000006 0
3.140625 -0.015624999999999958 0
3.140625 0.017187500000000043 0
3.140625 0.050000000000000044 0
3.21875 -0.081249999999999961 0
3.21875 -0.015624999999999958 0
3.21875 0.017187500000000043 0
3.21875 0.050000000000000044 0
3.21875 0.11562500000000005 0
3.21875 0.18125000000000005 0
3.375 -1 0
3.375 -0.73750000000000004 0
3.375 -0.47499999999999998 0
3.375 -0.34375 0
3.375 -0.21249999999999997 0
3.375 -0.081249999999999961 0
3.375 -0.015624999999999958 0
3.375 0.050000000000000044 0
3.375 0.11562500000000005 0
3.375 0.18125000000000005 0
3.375 0.31250000000000006 0
3.375 0.57500000000000007 0
3.375 0.83750000000000013 0
3.375 1.1000000000000001 0
3.6875 -0.21249999999999997 0
3.6875 -0.081249999999999961 0
3.6875 0.050000000000000044 0
3.6875 0.18125000000000005 0
3.6875 0.31250000000000006 0
4 -1 0
4 -0.73750000000000004 0
4 -0.47499999999999998 0
4 -0.21249999999999997 0
4 -0.081249999999999961 0
4 0.050000000000000044 0
4 0.18125000000000005 0
4 0.31250000000000006 0
4 0.57500000000000007 0
4 0.83750000000000013 0
4 1.1000000000000001 0
CELLS 535 2882
4 0 16 17 1
4 16 120 121 17
4 1 17 18 2
5 17 121 122 40 18
4 120 249 250 121
4 249 372 373 250
5 121 250 251 192 122
5 250 373 374 311 251
6 2 18 19 20 11 3
4 372 495 496 373
4 495 625 626 496
5 373 496 497 436 374
5 496 626 627 565 497
4 625 708 709 626
4 708 727 728 709
5 626 709 710 686 627
4 709 728 729 710
6 710 729 730 722 712 711
6 7 15 26 27 28 8
4 18 40 41 19
4 40 122 123 41
4 19 41 42 20
6 263 324 387 388 265 264
5 41 123 124 89 42
4 8 28 29 9
4 3 11 12 4
5 28 58 138 139 29
4 11 20 21 12
4 9 29 30 10
4 4 12 13 5
4 29 139 140 30
5 12 21 22 23 13
5 138 208 265 266 139
6 20 42 43 44 31 21
4 265 388 389 266
4 139 266 267 140
4 266 389 390 267
4 122 192 193 123
4 192 251 252 193
5 387 449 511 512 388
5 123 193 194 160 124
5 511 579 640 641 512
5 193 252 253 224 194
4 251 311 312 252
4 311 374 375 312
5 640 698 718 719 641
5 252 312 313 283 253
5 718 726 734 735 719
5 312 375 376 343 313
4 388 512 513 389
4 512 641 642 513
4 389 513 514 390
4 513 642 643 514
4 641 719 720 642
4 719 735 736 720
4 642 720 721 643
4 720 736 737 721
4 374 436 437 375
4 436 497 498 437
5 375 437 438 409 376
5 437 498 499 466 438
4 497 565 566 498
4 565 627 628 566
5 498 566 567 534 499
5 566 628 629 598 567
4 627 686 687 628
4 686 710 711 687
5 628 687 688 659 629
4 687 711 712 688
6 688 712 713 702 690 689
4 712 722 723 713
4 722 730 731 723
5 713 723 724 715 714
4 723 731 732 724
4 5 13 14 6
5 13 23 24 25 14
4 6 14 15 7
4 14 25 26 15
6 25 36 54 55 56 26
4 26 56 57 27
5 56 100 136 137 57
4 27 57 58 28
4 57 137 138 58
6 204 233 262 263 206 205
5 262 292 323 324 263
5 323 353 386 387 324
5 136 172 206 207 137
4 206 263 264 207
4 137 207 208 138
4 207 264 265 208
4 42 89 90 43
4 89 124 125 90
5 43 90 91 67 44
5 90 125 126 106 91
4 21 31 32 22
6 31 44 45 46 37 32
5 22 32 33 34 23
5 386 419 448 449 387
5 448 476 510 511 449
5 510 545 578 579 511
5 578 609 639 640 579
5 639 669 697 698 640
5 697 707 717 718 698
5 715 724 725 717 716
4 724 732 733 725
4 717 725 726 718
4 725 733 734 726
4 124 160 161 125
4 160 194 195 161
5 125 161 162 146 126
5 161 195 196 178 162
4 194 224 225 195
4 224 253 254 225
5 195 225 226 213 196
5 225 254 255 238 226
4 253 283 284 254
4 283 313 314 284
5 254 284 285 272 255
5 284 314 315 298 285
4 313 343 344 314
4 343 376 377 344
5 314 344 345 330 315
5 344 377 378 359 345
4 376 409 410 377
4 409 438 439 410
5 377 410 411 396 378
5 410 439 440 424 411
4 438 466 467 439
4 466 499 500 467
5 439 467 468 454 440
5 467 500 501 481 468
4 499 534 535 500
4 534 567 568 535
5 500 535 536 520 501
5 535 568 569 551 536
4 567 598 599 568
4 598 629 630 599
5 568 599 600 585 569
5 599 630 631 614 600
4 629 659 660 630
4 659 688 689 660
5 630 660 661 648 631
5 660 689 690 674 661
6 690 702 703 699 692 691
4 702 713 714 703
5 703 714 715 705 704
4 23 34 35 24
6 34 39 50 51 52 35
4 24 35 36 25
5 35 52 53 54 36
5 54 78 98 99 55
5 98 114 134 135 99
4 55 99 100 56
4 99 135 136 100
6 202 219 232 233 204 203
5 232 244 261 262 233
5 134 154 170 171 135
5 170 186 204 205 171
4 135 171 172 136
4 171 205 206 172
5 261 278 291 292 262
5 291 305 322 323 292
5 322 337 352 353 323
5 352 366 385 386 353
4 32 37 38 33
5 37 46 47 48 38
4 33 38 39 34
5 38 48 49 50 39
4 44 67 68 45
4 67 91 92 68
5 45 68 69 59 46
5 68 92 93 85 69
4 91 106 107 92
4 106 126 127 107
5 92 107 108 101 93
5 107 127 128 115 108
5 385 404 418 419 386
5 418 431 447 448 419
5 447 461 475 476 448
5 475 489 509 510 476
5 509 528 544 545 510
5 544 559 577 578 545
6 606 620 637 638 608 607
5 577 593 608 609 578
4 608 638 639 609
5 637 654 667 668 638
5 667 681 695 696 668
4 638 668 669 639
4 668 696 697 669
5 695 701 705 706 696
4 705 715 716 706
4 696 706 707 697
4 706 716 717 707
4 126 146 147 127
4 146 162 163 147
5 127 147 148 141 128
5 147 163 164 155 148
4 162 178 179 163
4 178 196 197 179
5 163 179 180 173 164
5 179 197 198 187 180
4 196 213 214 197
4 213 226 227 214
5 197 214 215 209 198
5 214 227 228 220 215
4 226 238 239 227
4 238 255 256 239
5 227 239 240 234 228
5 239 256 257 245 240
4 255 272 273 256
4 272 285 286 273
5 256 273 274 268 257
5 273 286 287 279 274
4 285 298 299 286
4 298 315 316 299
5 286 299 300 293 287
5 299 316 317 306 300
4 315 330 331 316
4 330 345 346 331
5 316 331 332 325 317
5 331 346 347 338 332
4 345 359 360 346
4 359 378 379 360
5 346 360 361 354 347
5 360 379 380 367 361
4 378 396 397 379
4 396 411 412 397
5 379 397 398 391 380
5 397 412 413 405 398
4 411 424 425 412
4 424 440 441 425
5 412 425 426 420 413
5 425 441 442 432 426
4 440 454 455 441
4 454 468 469 455
5 441 455 456 450 442
5 455 469 470 462 456
4 468 481 482 469
4 481 501 502 482
5 469 482 483 477 470
5 482 502 503 490 483
4 501 520 521 502
4 520 536 537 521
5 502 521 522 515 503
5 521 537 538 529 522
4 536 551 552 537
4 551 569 570 552
5 537 552 553 546 538
5 552 570 571 560 553
4 569 585 586 570
4 585 600 601 586
5 570 586 587 580 571
5 586 601 602 594 587
4 600 614 615 601
4 614 631 632 615
5 601 615 616 610 602
5 615 632 633 621 616
7 589 596 597 605 606 591 590
5 605 613 619 620 606
5 619 624 636 637 620
4 631 648 649 632
4 648 661 662 649
5 632 649 650 644 633
5 649 662 663 655 650
4 661 674 675 662
4 674 690 691 675
5 662 675 676 670 663
5 675 691 692 683 676
5 636 647 653 654 637
5 653 658 666 667 654
5 666 673 680 681 667
5 680 685 694 695 681
5 692 699 700 694 693
4 699 703 704 700
4 694 700 701 695
4 700 704 705 701
6 50 63 72 73 74 51
5 51 74 75 76 52
4 52 76 77 53
5 76 88 96 97 77
4 53 77 78 54
4 77 97 98 78
5 96 105 112 113 97
5 112 119 132 133 113
4 97 113 114 98
4 113 133 134 114
5 132 145 152 153 133
5 152 159 168 169 153
4 133 153 154 134
4 153 169 170 154
5 168 177 184 185 169
5 184 191 202 203 185
4 169 185 186 170
4 185 203 204 186
7 200 211 212 218 219 202 201
5 218 223 231 232 219
5 231 237 243 244 232
5 243 248 260 261 244
5 260 271 277 278 261
5 277 282 290 291 278
5 290 297 304 305 291
5 304 310 321 322 305
5 321 329 336 337 322
5 336 342 351 352 337
5 351 358 365 366 352
5 365 371 384 385 366
4 46 59 60 47
6 59 69 70 64 65 60
4 47 60 61 48
4 60 65 66 61
4 69 85 86 70
4 85 93 94 86
4 48 61 62 49
5 61 66 79 71 62
4 49 62 63 50
4 62 71 72 63
4 71 79 80 72
4 93 101 102 94
4 101 108 109 102
4 108 115 116 109
4 115 128 129 116
6 401 408 416 417 403 402
5 384 395 403 404 385
4 403 417 418 404
5 416 423 429 430 417
5 429 435 445 446 430
4 417 430 431 418
4 430 446 447 431
5 445 453 459 460 446
5 459 465 473 474 460
4 446 460 461 447
4 460 474 475 461
5 473 480 487 488 474
5 487 494 507 508 488
4 474 488 489 475
4 488 508 509 489
5 507 519 526 527 508
5 526 533 542 543 527
4 508 527 528 509
4 527 543 544 528
5 542 550 557 558 543
5 557 564 575 576 558
4 543 558 559 544
4 558 576 577 559
5 575 584 591 592 576
4 591 606 607 592
4 576 592 593 577
4 592 607 608 593
4 128 141 142 129
4 141 148 149 142
4 148 155 156 149
4 155 164 165 156
4 164 173 174 165
4 173 180 181 174
4 180 187 188 181
4 187 198 199 188
4 198 209 210 199
4 209 215 216 210
4 215 220 221 216
4 220 228 229 221
4 228 234 235 229
4 234 240 241 235
4 240 245 246 241
4 245 257 258 246
4 257 268 269 258
4 268 274 275 269
4 274 279 280 275
4 279 287 288 280
4 287 293 294 288
4 293 300 301 294
4 300 306 307 301
4 306 317 318 307
4 317 325 326 318
4 325 332 333 326
4 332 338 339 333
4 338 347 348 339
4 347 354 355 348
4 354 361 362 355
4 361 367 368 362
4 367 380 381 368
4 380 391 392 381
4 391 398 399 392
4 398 405 406 399
4 405 413 414 406
4 382 393 394 383
5 393 400 401 402 394
4 400 407 408 401
4 407 415 416 408
4 413 420 421 414
4 420 426 427 421
4 426 432 433 427
4 432 442 443 433
4 415 422 423 416
4 422 428 429 423
4 428 434 435 429
4 434 444 445 435
4 442 450 451 443
4 450 456 457 451
4 456 462 463 457
4 462 470 471 463
4 444 452 453 445
4 452 458 459 453
4 458 464 465 459
4 464 472 473 465
4 470 477 478 471
4 477 483 484 478
4 483 490 491 484
4 490 503 504 491
5 479 485 486 487 480
4 472 479 480 473
4 485 492 493 486
4 492 505 506 493
4 486 493 494 487
4 493 506 507 494
4 503 515 516 504
4 515 522 523 516
4 522 529 530 523
4 529 538 539 530
4 505 517 518 506
4 517 524 525 518
4 506 518 519 507
4 518 525 526 519
4 524 531 532 525
4 531 540 541 532
4 525 532 533 526
4 532 541 542 533
4 538 546 547 539
4 546 553 554 547
4 553 560 561 554
4 560 571 572 561
4 540 548 549 541
4 548 555 556 549
4 541 549 550 542
4 549 556 557 550
4 555 562 563 556
4 562 573 574 563
4 556 563 564 557
4 563 574 575 564
4 571 580 581 572
4 580 587 588 581
4 582 589 590 583
4 587 594 595 588
4 594 602 603 595
4 596 604 605 597
4 573 582 583 574
4 574 583 584 575
4 583 590 591 584
4 602 610 611 603
4 610 616 617 611
4 604 612 613 605
4 612 618 619 613
4 616 621 622 617
4 621 633 634 622
4 618 623 624 619
4 623 635 636 624
4 633 644 645 634
4 644 650 651 645
4 635 646 647 636
4 646 652 653 647
4 650 655 656 651
4 655 663 664 656
4 652 657 658 653
4 657 665 666 658
4 663 670 671 664
4 670 676 677 671
5 672 678 679 680 673
4 665 672 673 666
7 676 683 684 679 678 682 677
4 683 692 693 684
4 679 684 685 680
4 684 693 694 685
4 72 80 81 73
4 73 81 82 74
4 74 82 83 75
4 87 95 96 88
6 75 83 84 87 88 76
5 95 103 104 105 96
4 103 110 111 104
4 104 111 112 105
4 110 117 118 111
4 117 130 131 118
4 111 118 119 112
4 118 131 132 119
4 130 143 144 131
4 143 150 151 144
4 131 144 145 132
4 144 151 152 145
4 150 157 158 151
4 157 166 167 158
4 151 158 159 152
4 158 167 168 159
4 189 200 201 190
4 166 175 176 167
4 175 182 183 176
4 167 176 177 168
4 176 183 184 177
4 182 189 190 183
4 183 190 191 184
4 190 201 202 191
4 211 217 218 212
4 217 222 223 218
4 222 230 231 223
4 230 236 237 231
4 236 242 243 237
4 242 247 248 243
4 247 259 260 248
4 259 270 271 260
4 270 276 277 271
4 276 281 282 277
4 281 289 290 282
5 289 295 296 297 290
4 295 302 303 296
4 296 303 304 297
4 302 308 309 303
4 308 319 320 309
4 303 309 310 304
4 309 320 321 310
4 319 327 328 320
4 327 334 335 328
4 320 328 329 321
4 328 335 336 329
4 334 340 341 335
4 340 349 350 341
4 335 341 342 336
4 341 350 351 342
4 349 356 357 350
4 356 363 364 357
4 350 357 358 351
4 357 364 365 358
4 363 369 370 364
4 369 382 383 370
4 364 370 371 365
4 370 383 384 371
4 383 394 395 384
4 394 402 403 395
CELL_TYPES 535
7
7
7
7
7
7
7
7
7
7
7
7
7
7
7
7
7
7
7
7
7
7
7
7
7
7
7
7
7
7
7
7
7
7
7
7
7
7
7
7
7
7
7
7
7
7
7
7
7
7
7
7
7
7
7
7
7
7
7
7
7
7
7
7
7
7
7
7
7
7
7
7
7
7
7
7
7
7
7
7
7
7
7
7
7
7
7
7
7
7
7
7
7
7
7
7
7
7
7
7
7
7
7
7
7
7
7
7
7
7
7
7
7
7
7
7
7
7
7
7
7
7
7
7
7
7
7
7
7
7
7
7
7
7
7
7
7
7
7
7
7
7
7
7
7
7
7
7
7
7
7
7
7
7
7
7
7
7
7
7
7
7
7
7
7
7
7
7
7
7
7
7
7
7
7
7
7
7
7
7
7
7
7
7
7
7
7
7
7
7
7
7
7
7
7
7
7
7
7
7
7
7
7
7
7
7
7
7
7
7
7
7
7
7
7
7
7
7
7
7
7
7
7
7
7
7
7
7
7
7
7
7
7
7
7
7
7
7
7
7
7
7
7
7
7
7
7
7
7
7
7
7
7
7
7
7
7
7
7
7
7
7
7
7
7
7
7
7
7
7
7
7
7
7
7
7
7
7
7
7
7
7
7
7
7
7
7
7
7
7
7
7
7
7
7
7
7
7
7
7
7
7
7
7
7
7
7
7
7
7
7
7
7
7
7
7
7
7
7
7
7
7
7
7
7
7
7
7
7
7
7
7
7
7
7
7
7
7
7
7
7
7
7
7
7
7
7
7
7
7
7
7
7
7
7
7
7
7
7
7
7
7
7
7
7
7
7
7
7
7
7
7
7
7
7
7
7
7
7
7
7
7
7
7
7
7
7
7
7
7
7
7
7
7
7
7
7
7
7
7
7
7
7
7
7
7
7
7
7
7
7
7
7
7
7
7
7
7
7
7
7
7
7
7
7
7
7
7
7
7
7
7
7
7
7
7
7
7
7
7
7
7
7
7
7
7
7
7
7
7
7
7
7
7
7
7
7
7
7
7
7
7
7
7
7
7
7
7
7
7
7
7
7
7
7
7
7
7
7
7
7
7
7
7
7
7
7
7
7
7
7
7
7
7
7
7
7
7
7
7
7
7
7
7
7
7
7
7
7
7
7
7
7
7
7
7
7
7
7
7
7
7
7
7
7
7
7
7
7
7
7
7
7
7
7
CELL_DATA 535
SCALARS geometry_area double 1
LOOKUP_TABLE default
0.16406249999999997
0.16406249999999997
0.16406250000000006
0.16406250000000006
0.16406249999999997
0.16406249999999997
0.16406250000000006
0.16406250000000006
0.1640625
0.16406249999999997
0.16406249999999997
0.16406250000000006
0.16406250000000006
0.16406249999999997
0.16406249999999997
0.16406250000000006
0.16406250000000006
0.1640625
0.1640625
0.041015624999999993
0.041015624999999993
0.041015625000000014
0.1640625
0.041015625000000014
0.16406250000000006
0.041015625
0.16406250000000006
0.041015625
0.16406249999999997
0.041015625
0.16406249999999997
0.041015625
0.16406250000000006
0.041015625
0.16406250000000006
0.16406249999999997
0.16406249999999997
0.041015624999999993
0.041015624999999993
0.1640625
0.041015625000000014
0.1640625
0.041015625000000014
0.041015624999999993
0.041015624999999993
0.1640625
0.041015625000000014
0.1640625
0.041015625000000014
0.16406250000000006
0.16406250000000006
0.16406249999999997
0.16406249999999997
0.16406250000000006
0.16406250000000006
0.16406249999999997
0.16406249999999997
0.041015624999999993
0.041015624999999993
0.041015625000000014
0.041015625000000014
0.041015624999999993
0.041015624999999993
0.041015625000000014
0.041015625000000014
0.041015624999999993
0.041015624999999993
0.041015625000000014
0.041015625000000014
0.041015625
0.041015625
0.041015625
0.041015625
0.041015625
0.041015625
0.041015625
0.041015625
0.041015625
0.041015625
0.041015625000000014
0.041015625000000014
0.041015624999999993
0.041015624999999993
0.041015625
0.041015625
0.041015625
0.041015625000000014
0.041015625000000014
0.041015624999999993
0.041015624999999993
0.010253906249999998
0.010253906249999998
0.010253906250000003
0.010253906250000003
0.01025390625
0.01025390625
0.01025390625
0.041015625
0.041015625
0.041015625
0.041015625
0.041015625
0.041015625
0.041015625
0.041015625
0.041015625
0.041015625
0.010253906249999998
0.010253906249999998
0.010253906250000003
0.010253906250000003
0.010253906249999998
0.010253906249999998
0.010253906250000003
0.010253906250000003
0.010253906249999998
0.010253906249999998
0.010253906250000003
0.010253906250000003
0.010253906249999998
0.010253906249999998
0.010253906250000003
0.010253906250000003
0.010253906249999998
0.010253906249999998
0.010253906250000003
0.010253906250000003
0.010253906249999998
0.010253906249999998
0.010253906250000003
0.010253906250000003
0.010253906249999998
0.010253906249999998
0.010253906250000003
0.010253906250000003
0.010253906249999998
0.010253906249999998
0.010253906250000003
0.010253906250000003
0.010253906249999998
0.010253906249999998
0.010253906250000003
0.010253906250000003
0.01025390625
0.01025390625
0.01025390625
0.01025390625
0.01025390625
0.01025390625
0.01025390625
0.010253906250000003
0.010253906250000003
0.010253906249999998
0.010253906249999998
0.01025390625
0.01025390625
0.010253906250000003
0.010253906250000003
0.010253906249999998
0.010253906249999998
0.01025390625
0.01025390625
0.01025390625
0.01025390625
0.0025634765625
0.0025634765625
0.0025634765625
0.0025634765625
0.0025634765625
0.0025634765625
0.0025634765625
0.0025634765625
0.0025634765625
0.0025634765625
0.0025634765625
0.0025634765625
0.01025390625
0.01025390625
0.01025390625
0.01025390625
0.01025390625
0.01025390625
0.01025390625
0.01025390625
0.01025390625
0.01025390625
0.01025390625
0.01025390625
0.01025390625
0.01025390625
0.01025390625
0.01025390625
0.01025390625
0.0025634765625
0.0025634765625
0.0025634765625
0.0025634765625
0.0025634765625
0.0025634765625
0.0025634765625
0.0025634765625
0.0025634765625
0.0025634765625
0.0025634765625
0.0025634765625
0.0025634765625
0.0025634765625
0.0025634765625
0.0025634765625
0.0025634765625
0.0025634765625
0.0025634765625
0.0025634765625
0.0025634765625
0.0025634765625
0.0025634765625
0.0025634765625
0.0025634765625
0.0025634765625
0.0025634765625
0.0025634765625
0.0025634765625
0.0025634765625
0.0025634765625
0.0025634765625
0.0025634765625
0.0025634765625
0.0025634765625
0.0025634765625
0.0025634765625
0.0025634765625
0.0025634765625
0.0025634765625
0.0025634765625
0.0025634765625
0.0025634765625
0.0025634765625
0.0025634765625
0.0025634765625
0.0025634765625
0.0025634765625
0.0025634765625
0.0025634765625
0.0025634765625
0.0025634765625
0.0025634765625
0.0025634765625
0.0025634765625
0.0025634765625
0.0025634765625
0.0025634765625
0.0025634765625
0.0025634765625
0.0025634765625
0.0025634765625
0.0025634765625
0.0025634765625
0.0026193392478813578
0.0025634765625
0.0025634765625
0.0025634765625
0.0025634765625
0.0025634765625
0.0025634765625
0.0025634765625
0.0025634765625
0.0025634765625
0.0025634765625
0.0025634765625
0.0025634765625
0.0025634765625
0.0025634765625
0.0025634765625
0.0025634765625
0.0025634765625
0.0025634765625
0.0025634765624999996
0.0025634765625000009
0.0025634765625000009
0.0025634765625000009
0.0025634765624999996
0.0025634765624999996
0.0025634765625000009
0.0025634765625000009
0.0025634765624999996
0.0025634765624999996
0.0025634765625000009
0.0025634765625000009
0.0025634765624999996
0.0025634765624999996
0.0025634765625000009
0.0025634765625000009
0.0025634765624999996
0.0025634765624999996
0.0025965803760593245
0.0025634765625000009
0.0025634765625000009
0.0025634765625000009
0.0025634765625000009
0.0025634765625000009
0.0025634765625000009
0.0025634765625000009
0.0025634765625000009
0.0025634765625000009
0.0025634765625000009
0.0025634765625000009
0.000640869140625
0.00062881469726562436
0.000640869140625
0.00045822143554687534
0.00061035156249999837
0.00061035156249999837
0.00064086914062500022
0.00059280395507812556
0.00064086914062499989
0.00064086914062499989
8.6517333984375351e-05
0.00061035156249999837
0.00061035156249999837
0.00061035156249999837
0.00061035156249999837
0.0025634765624999996
0.0025634765625000009
0.0025634765625000009
0.0025634765624999996
0.0025634765624999996
0.0025634765625000009
0.0025634765625000009
0.0025634765624999996
0.0025634765624999996
0.0025634765625000009
0.0025634765625000009
0.0025634765624999996
0.0025634765624999996
0.0025634765625000009
0.0025634765625000009
0.0025634765624999996
0.0025634765624999996
0.0025634765625000009
0.0025634765625000009
0.0025634765624999996
0.0025634765624999996
0.0025634765625000009
0.0025634765625000009
0.0025634765624999996
0.0025634765624999996
0.0025634765625000009
0.0025634765625000009
0.00061035156249999837
0.00061035156249999837
0.00061035156249999837
0.00061035156249999837
0.00061035156249999837
0.00061035156249999837
0.00061035156249999837
0.00061035156249999837
0.00061035156249999837
0.00061035156249999837
0.00061035156249999837
0.00061035156249999837
0.00061035156249999837
0.00061035156249999837
0.00061035156249999837
0.00061035156249999837
0.00061035156249999837
0.00061035156249999837
0.00061035156249999837
0.00061035156249999837
0.00061035156249999837
0.00061035156249999837
0.00061035156249999837
0.00061035156249999837
0.00061035156249999837
0.00061035156249999837
0.00061035156249999837
0.00061035156249999837
0.00061035156249999837
0.00061035156249999837
0.00061035156249999837
0.00061035156249999837
0.00061035156249999837
0.00061035156249999837
0.00061035156249999837
0.00061035156249999837
0.0006336276814088999
0.00068535239009534055
9.6207958156781329e-05
0.00014793266684322214
0.00061035156249999837
0.00061035156249999837
0.00061035156249999837
0.00061035156249999837
0.00019965737552966282
0.00025138208421610346
0.00030310679290254417
0.00035483150158898471
0.00061035156249999837
0.00061035156249999837
0.00061035156249999837
0.00061035156249999837
0.00040655621027542541
0.00045828091896186606
0.00051000562764830671
0.00056173033633474757
0.00061035156249999837
0.00061035156249999837
0.00061035156249999837
0.00061035156249999837
0.00066517975370762887
0.00061345504502118822
7.6035321769069681e-05
0.00012776003045551028
0.00064086914062499989
0.00064086914062499989
0.00061035156249999837
0.00061035156249999837
0.00061035156249999837
0.00061035156249999837
0.00017948473914195098
0.00023120944782839165
0.00064086914062499989
0.00064086914062499989
0.00028293415651483233
0.00033465886520127298
0.00064086914062499989
0.00064086914062499989
0.00061035156249999837
0.00061035156249999837
0.00061035156249999837
0.00061035156249999837
0.00038638357388771363
0.00043810828257415438
0.00064086914062499989
0.00064086914062499989
0.00048983299126059503
0.00054155769994703568
0.00064086914062499989
0.00064086914062499989
0.00061035156249999837
0.00061035156249999837
0.00064500711731991709
0.00061035156249999837
0.00061035156249999837
0.0001075873940677983
0.00059328240863347633
0.00064086914062499989
0.00064086914062499989
0.00061035156249999837
0.00061035156249999837
0.00015931210275423898
0.00021103681144067965
0.00061035156249999837
0.00061035156249999837
0.00026276152012712033
0.00031448622881356098
0.00061035156249999837
0.00061035156249999837
0.00036621093750000173
0.00041793564618644238
0.00061035156249999837
0.00061035156249999837
0.00046966035487288303
0.00052138506355932368
0.00061035156249999837
0.00061035156249999837
0.00062483448093220509
0.00057310977224576433
0.00063673116393008476
0.000640869140625
0.000640869140625
0.000640869140625
0.0002210998535156253
0.00035568237304687525
0.00049026489257812569
0.00064242088188559503
0.00063742686126191743
0.00069414559057203568
0.00010500115863347655
0.00064086914062499989
0.00015672586731991736
0.0002084505760063579
0.00064086914062499989
0.00064086914062499989
0.00026017528469279844
0.00031189999337923898
0.00064086914062499989
0.00064086914062499989
0.00036362470206567979
0.0004153494107521206
0.00064086914062499989
0.00064086914062499989
0.00062224824549788325
0.00046707411943856114
0.00051879882812500173
0.00064086914062499989
0.00064086914062499989
0.00057052353681144249
0.00064086914062499989
0.00064086914062499989
8.4828522245764492e-05
0.00013655323093220503
0.00018827793961864557
0.00024000264830508611
0.00029172735699152692
0.00034345206567796773
0.00039517677436440827
0.00044690148305084881
0.00049862619173728963
0.00055035090042373038
0.00060207560911017103
0.00065380031779661146
6.4655885858052166e-05
0.00064086914062499989
0.00011638059454449298
0.00016810530323093392
0.00064086914062499989
0.00064086914062499989
0.00021983001191737474
0.00027155472060381541
0.00064086914062499989
0.00064086914062499989
0.00032327942929025595
0.00037500413797669665
0.00064086914062499989
0.00064086914062499989
0.0004267288466631373
0.00047845355534957795
0.00064086914062499989
0.00064086914062499989
0.0005301782640360186
0.00058190297272245925
0.00064086914062499989
0.00064086914062499989
0.00064086914062499989
0.00064086914062499989
SCALARS source_id unsigned_long 1
LOOKUP_TABLE default
0
1
2
3
4
5
6
7
8
9
10
11
12
13
14
15
16
17
18
19
20
21
22
23
24
25
26
27
28
29
30
31
32
33
34
35
36
37
38
39
40
41
42
43
44
45
46
47
48
49
50
51
52
53
54
55
56
57
58
59
60
61
62
63
64
65
66
67
68
69
70
71
72
73
74
75
76
77
78
79
80
81
82
83
84
85
86
87
88
89
90
91
92
93
94
95
96
97
98
99
100
101
102
103
104
105
106
107
108
109
110
111
112
113
114
115
116
117
118
119
120
121
122
123
124
125
126
127
128
129
130
131
132
133
134
135
136
137
138
139
140
141
142
143
144
145
146
147
148
149
150
151
152
153
154
155
156
157
158
159
160
161
162
163
164
165
166
167
168
169
170
171
172
173
174
175
176
177
178
179
180
181
182
183
184
185
186
187
188
189
190
191
192
193
194
195
196
197
198
199
200
201
202
203
204
205
206
207
208
209
210
211
212
213
214
215
216
217
218
219
220
221
222
223
224
225
226
227
228
229
230
231
232
233
234
235
236
237
238
239
240
241
242
243
244
245
246
247
248
249
250
251
252
253
254
255
256
257
258
259
260
261
262
263
264
265
266
267
268
269
270
271
272
273
274
275
276
277
278
279
280
281
282
283
284
285
286
287
288
289
290
291
292
293
294
295
296
297
298
299
300
301
302
303
304
305
306
307
308
309
310
311
312
313
314
315
316
317
318
319
320
321
322
323
324
325
326
327
328
329
330
331
332
333
334
335
336
337
338
339
340
341
342
343
344
345
346
347
348
349
350
351
352
353
354
355
356
357
358
359
360
361
362
363
364
365
366
367
368
369
370
371
372
373
374
375
376
377
378
379
380
381
382
383
384
385
386
387
388
389
390
391
392
393
394
395
396
397
398
399
400
401
402
403
404
405
406
407
408
409
410
411
412
413
414
415
416
417
418
419
420
421
422
423
424
425
426
427
428
429
430
431
432
433
434
435
436
437
438
439
440
441
442
443
444
445
446
447
448
449
450
451
452
453
454
455
456
457
458
459
460
461
462
463
464
465
466
467
468
469
470
471
472
473
474
475
476
477
478
479
480
481
482
483
484
485
486
487
488
489
490
491
492
493
494
495
496
497
498
499
500
501
502
503
504
505
506
507
508
509
510
511
512
513
514
515
516
517
518
519
520
521
522
523
524
525
526
527
528
529
530
531
532
533
534
