# vtk DataFile Version 3.0
cartmesh2d deterministic topology export
ASCII
DATASET UNSTRUCTURED_GRID
POINTS 582 double
-1 -1 0
-1 -0.5 0
-1 0 0
-1 0.5 0
-1 1 0
-1 1.5 0
-1 2 0
-1 2.5 0
-1 3 0
-0.5 -1 0
-0.5 -0.5 0
-0.5 -0.25 0
-0.5 0 0
-0.5 0.25 0
-0.5 0.5 0
-0.5 0.75 0
-0.5 1 0
-0.5 1.25 0
-0.5 1.5 0
-0.5 1.75 0
-0.5 2 0
-0.5 2.25 0
-0.5 2.5 0
-0.5 3 0
-0.25 -0.5 0
-0.25 -0.25 0
-0.25 -0.125 0
-0.25 0 0
-0.25 0.125 0
-0.25 0.25 0
-0.25 0.375 0
-0.25 0.5 0
-0.25 0.625 0
-0.25 0.75 0
-0.25 0.875 0
-0.25 1 0
-0.25 1.125 0
-0.25 1.25 0
-0.25 1.375 0
-0.25 1.5 0
-0.25 1.625 0
-0.25 1.75 0
-0.25 1.875 0
-0.25 2 0
-0.25 2.125 0
-0.25 2.25 0
-0.25 2.5 0
-0.125 -0.25 0
-0.125 -0.125 0
-0.125 -0.0625 0
-0.125 0 0
-0.125 0.0625 0
-0.125 0.125 0
-0.125 0.1875 0
-0.125 0.25 0
-0.125 0.3125 0
-0.125 0.375 0
-0.125 0.4375 0
-0.125 0.5 0
-0.125 0.5625 0
-0.125 0.625 0
-0.125 0.6875 0
-0.125 0.75 0
-0.125 0.8125 0
-0.125 0.875 0
-0.125 0.9375 0
-0.125 1 0
-0.125 1.0625 0
-0.125 1.125 0
-0.125 1.1875 0
-0.125 1.25 0
-0.125 1.3125 0
-0.125 1.375 0
-0.125 1.4375 0
-0.125 1.5 0
-0.125 1.5625 0
-0.125 1.625 0
-0.125 1.6875 0
-0.125 1.75 0
-0.125 1.8125 0
-0.125 1.875 0
-0.125 1.9375 0
-0.125 2 0
-0.125 2.0625 0
-0.125 2.125 0
-0.125 2.25 0
-0.0625 -0.125 0
-0.0625 -0.0625 0
-0.0625 0 0
-0.0625 0.0625 0
-0.0625 0.125 0
-0.0625 0.1875 0
-0.0625 0.25 0
-0.0625 0.3125 0
-0.0625 0.375 0
-0.0625 0.4375 0
-0.0625 0.5 0
-0.0625 0.5625 0
-0.0625 0.625 0
-0.0625 0.6875 0
-0.0625 0.75 0
-0.0625 0.8125 0
-0.0625 0.875 0
-0.0625 0.9375 0
-0.0625 1 0
-0.0625 1.0625 0
-0.0625 1.125 0
-0.0625 1.1875 0
-0.0625 1.25 0
-0.0625 1.3125 0
-0.0625 1.375 0
-0.0625 1.4375 0
-0.0625 1.5 0
-0.0625 1.5625 0
-0.0625 1.625 0
-0.0625 1.6875 0
-0.0625 1.75 0
-0.0625 1.8125 0
-0.0625 1.875 0
-0.0625 1.9375 0
-0.0625 2 0
-0.0625 2.0625 0
-0.0625 2.125 0
0 -1 0
0 -0.5 0
0 -0.25 0
0 -0.125 0
0 -0.0625 0
0 0 0
0 0.0625 0
0 0.125 0
0 0.1875 0
0 0.25 0
0 0.3125 0
0 0.375 0
0 0.4375 0
0 0.5 0
0 0.5625 0
0 0.625 0
0 0.6875 0
0 0.75 0
0 0.8125 0
0 0.875 0
0 0.9375 0
0 1 0
0 1.0625 0
0 1.125 0
0 1.1875 0
0 1.25 0
0 1.3125 0
0 1.375 0
0 1.4375 0
0 1.5 0
0 1.5625 0
0 1.625 0
0 1.6875 0
0 1.75 0
0 1.8125 0
0 1.875 0
0 1.9375 0
0 2 0
0 2.0625 0
0 2.125 0
0 2.25 0
0 2.5 0
0 3 0
0.0625 -0.125 0
0.0625 -0.0625 0
0.0625 0 0
0.0625 2 0
0.0625 2.0625 0
0.0625 2.125 0
0.125 -0.25 0
0.125 -0.125 0
0.125 -0.0625 0
0.125 0 0
0.125 2 0
0.125 2.0625 0
0.125 2.125 0
0.125 2.25 0
0.1875 -0.125 0
0.1875 -0.0625 0
0.1875 0 0
0.1875 2 0
0.1875 2.0625 0
0.1875 2.125 0
0.25 -0.5 0
0.25 -0.25 0
0.25 -0.125 0
0.25 -0.0625 0
0.25 0 0
0.25 2 0
0.25 2.0625 0
0.25 2.125 0
0.25 2.25 0
0.25 2.5 0
0.3125 -0.125 0
0.3125 -0.0625 0
0.3125 0 0
0.3125 2 0
0.3125 2.0625 0
0.3125 2.125 0
0.375 -0.25 0
0.375 -0.125 0
0.375 -0.0625 0
0.375 0 0
0.375 2 0
0.375 2.0625 0
0.375 2.125 0
0.375 2.25 0
0.4375 -0.125 0
0.4375 -0.0625 0
0.4375 0 0
0.4375 2 0
0.4375 2.0625 0
0.4375 2.125 0
0.5 -1 0
0.5 -0.5 0
0.5 -0.25 0
0.5 -0.125 0
0.5 -0.0625 0
0.5 0 0
0.5 2 0
0.5 2.0625 0
0.5 2.125 0
0.5 2.25 0
0.5 2.5 0
0.5 3 0
0.5625 -0.125 0
0.5625 -0.0625 0
0.5625 0 0
0.5625 2 0
0.5625 2.0625 0
0.5625 2.125 0
0.625 -0.25 0
0.625 -0.125 0
0.625 -0.0625 0
0.625 0 0
0.625 2 0
0.625 2.0625 0
0.625 2.125 0
0.625 2.25 0
0.6875 -0.125 0
0.6875 -0.0625 0
0.6875 0 0
0.6875 2 0
0.6875 2.0625 0
0.6875 2.125 0
0.75 -0.5 0
0.75 -0.25 0
0.75 -0.125 0
0.75 -0.0625 0
0.75 0 0
0.75 2 0
0.75 2.0625 0
0.75 2.125 0
0.75 2.25 0
0.75 2.5 0
0.80000000000000004 0.80000000000000004 0
0.80000000000000004 0.8125 0
0.80000000000000004 0.875 0
0.80000000000000004 0.9375 0
0.80000000000000004 1 0
0.80000000000000004 1.0625 0
0.80000000000000004 1.125 0
0.80000000000000004 1.1875 0
0.80000000000000004 1.25 0
0.80000000000000004 1.3125 0
0.80000000000000004 1.375 0
0.80000000000000004 1.4375 0
0.80000000000000004 1.5 0
0.80000000000000004 1.5625 0
0.80000000000000004 1.625 0
0.80000000000000004 1.6875 0
0.80000000000000004 1.75 0
0.80000000000000004 1.8125 0
0.80000000000000004 1.875 0
0.80000000000000004 1.9375 0
0.80000000000000004 2 0
0.8125 -0.125 0
0.8125 -0.0625 0
0.8125 0 0
0.8125 0.8125 0
0.8125 0.875 0
0.8125 0.9375 0
0.8125 1 0
0.8125 1.0625 0
0.8125 1.125 0
0.8125 1.1875 0
0.8125 1.25 0
0.8125 1.3125 0
0.8125 1.375 0
0.8125 1.4375 0
0.8125 1.5 0
0.8125 1.5625 0
0.8125 1.625 0
0.8125 1.6875 0
0.8125 1.75 0
0.8125 1.8125 0
0.8125 1.875 0
0.8125 1.9375 0
0.8125 2 0
0.8125 2.0625 0
0.8125 2.125 0
0.875 -0.25 0
0.875 -0.125 0
0.875 -0.0625 0
0.875 0 0
0.875 0.80000000000000004 0
0.875 0.8125 0
0.875 0.875 0
0.875 0.9375 0
0.875 1 0
0.875 1.0625 0
0.875 1.125 0
0.875 1.1875 0
0.875 1.25 0
0.875 1.3125 0
0.875 1.375 0
0.875 1.4375 0
0.875 1.5 0
0.875 1.5625 0
0.875 1.625 0
0.875 1.6875 0
0.875 1.75 0
0.875 1.8125 0
0.875 1.875 0
0.875 1.9375 0
0.875 2 0
0.875 2.0625 0
0.875 2.125 0
0.875 2.25 0
0.9375 -0.125 0
0.9375 -0.0625 0
0.9375 0 0
0.9375 0.80000000000000004 0
0.9375 0.8125 0
0.9375 0.875 0
1 -1 0
1 -0.5 0
1 -0.25 0
1 -0.125 0
1 -0.0625 0
1 0 0
1 0.80000000000000004 0
1 0.8125 0
1 0.875 0
1 1 0
1 1.125 0
1 1.25 0
1 1.375 0
1 1.5 0
1 1.625 0
1 1.75 0
1 1.875 0
1 2 0
1 2.125 0
1 2.25 0
1 2.5 0
1 3 0
1.0625 -0.125 0
1.0625 -0.0625 0
1.0625 0 0
1.0625 0.80000000000000004 0
1.0625 0.8125 0
1.0625 0.875 0
1.125 -0.25 0
1.125 -0.125 0
1.125 -0.0625 0
1.125 0 0
1.125 0.80000000000000004 0
1.125 0.8125 0
1.125 0.875 0
1.125 1 0
1.1875 -0.125 0
1.1875 -0.0625 0
1.1875 0 0
1.1875 0.80000000000000004 0
1.1875 0.8125 0
1.1875 0.875 0
1.25 -0.5 0
1.25 -0.25 0
1.25 -0.125 0
1.25 -0.0625 0
1.25 0 0
1.25 0.80000000000000004 0
1.25 0.8125 0
1.25 0.875 0
1.25 1 0
1.25 1.25 0
1.25 1.5 0
1.25 1.75 0
1.25 2 0
1.25 2.25 0
1.25 2.5 0
1.3125 -0.125 0
1.3125 -0.0625 0
1.3125 0 0
1.3125 0.80000000000000004 0
1.3125 0.8125 0
1.3125 0.875 0
1.375 -0.25 0
1.375 -0.125 0
1.375 -0.0625 0
1.375 0 0
1.375 0.80000000000000004 0
1.375 0.8125 0
1.375 0.875 0
1.375 1 0
1.4375 -0.125 0
1.4375 -0.0625 0
1.4375 0 0
1.4375 0.80000000000000004 0
1.4375 0.8125 0
1.4375 0.875 0
1.5 -1 0
1.5 -0.5 0
1.5 -0.25 0
1.5 -0.125 0
1.5 -0.0625 0
1.5 0 0
1.5 0.80000000000000004 0
1.5 0.8125 0
1.5 0.875 0
1.5 1 0
1.5 1.25 0
1.5 1.5 0
1.5 1.75 0
1.5 2 0
1.5 2.25 0
1.5 2.5 0
1.5 3 0
1.5625 -0.125 0
1.5625 -0.0625 0
1.5625 0 0
1.5625 0.80000000000000004 0
1.5625 0.8125 0
1.5625 0.875 0
1.625 -0.25 0
1.625 -0.125 0
1.625 -0.0625 0
1.625 0 0
1.625 0.80000000000000004 0
1.625 0.8125 0
1.625 0.875 0
1.625 1 0
1.6875 -0.125 0
1.6875 -0.0625 0
1.6875 0 0
1.6875 0.80000000000000004 0
1.6875 0.8125 0
1.6875 0.875 0
1.75 -0.5 0
1.75 -0.25 0
1.75 -0.125 0
1.75 -0.0625 0
1.75 0 0
1.75 0.80000000000000004 0
1.75 0.8125 0
1.75 0.875 0
1.75 1 0
1.75 1.25 0
1.75 1.5 0
1.8125 -0.125 0
1.8125 -0.0625 0
1.8125 0 0
1.8125 0.80000000000000004 0
1.8125 0.8125 0
1.8125 0.875 0
1.875 -0.25 0
1.875 -0.125 0
1.875 -0.0625 0
1.875 0 0
1.875 0.80000000000000004 0
1.875 0.8125 0
1.875 0.875 0
1.875 1 0
1.9375 -0.125 0
1.9375 -0.0625 0
1.9375 0 0
1.9375 0.80000000000000004 0
1.9375 0.8125 0
1.9375 0.875 0
2 -1 0
2 -0.5 0
2 -0.25 0
2 -0.125 0
2 -0.0625 0
2 0 0
2 0.0625 0
2 0.125 0
2 0.1875 0
2 0.25 0
2 0.3125 0
2 0.375 0
2 0.4375 0
2 0.5 0
2 0.5625 0
2 0.625 0
2 0.6875 0
2 0.75 0
2 0.80000000000000004 0
2 0.8125 0
2 0.875 0
2 1 0
2 1.25 0
2 1.5 0
2 2 0
2 2.5 0
2 3 0
2.0625 -0.125 0
2.0625 -0.0625 0
2.0625 0 0
2.0625 0.0625 0
2.0625 0.125 0
2.0625 0.1875 0
2.0625 0.25 0
2.0625 0.3125 0
2.0625 0.375 0
2.0625 0.4375 0
2.0625 0.5 0
2.0625 0.5625 0
2.0625 0.625 0
2.0625 0.6875 0
2.0625 0.75 0
2.0625 0.8125 0
2.0625 0.875 0
2.125 -0.25 0
2.125 -0.125 0
2.125 -0.0625 0
2.125 0 0
2.125 0.0625 0
2.125 0.125 0
2.125 0.1875 0
2.125 0.25 0
2.125 0.3125 0
2.125 0.375 0
2.125 0.4375 0
2.125 0.5 0
2.125 0.5625 0
2.125 0.625 0
2.125 0.6875 0
2.125 0.75 0
2.125 0.8125 0
2.125 0.875 0
2.125 1 0
2.25 -0.5 0
2.25 -0.25 0
2.25 -0.125 0
2.25 0 0
2.25 0.125 0
2.25 0.25 0
2.25 0.375 0
2.25 0.5 0
2.25 0.625 0
2.25 0.75 0
2.25 0.875 0
2.25 1 0
2.25 1.25 0
2.25 1.5 0
2.5 -1 0
2.5 -0.5 0
2.5 -0.25 0
2.5 0 0
2.5 0.25 0
2.5 0.5 0
2.5 0.75 0
2.5 1 0
2.5 1.25 0
2.5 1.5 0
2.5 2 0
2.5 2.5 0
2.5 3 0
3 -1 0
3 -0.5 0
3 0 0
3 0.5 0
3 1 0
3 1.5 0
3 2 0
3 2.5 0
3 3 0
CELLS 568 2707
4 0 9 10 1
4 9 123 124 24
3 24 10 9
3 1 10 11
4 11 12 2 1
4 123 216 217 186
3 186 124 123
4 216 338 339 248
3 248 217 216
3 2 12 13
4 13 14 3 2
3 3 14 15
4 15 16 4 3
4 10 24 25 11
4 24 124 125 47
3 47 25 24
3 11 25 26
4 26 27 12 11
4 338 415 416 380
3 380 339 338
4 415 483 484 452
3 452 416 415
4 483 560 561 546
3 546 484 483
4 560 573 574 561
4 574 575 563 562
3 562 561 574
4 124 186 187 172
3 172 125 124
4 186 217 218 202
3 202 187 186
4 217 248 249 234
3 234 218 217
4 575 576 565 564
3 564 563 575
4 248 339 340 304
3 304 249 248
4 576 577 567 566
3 566 565 576
3 4 16 17
4 17 18 5 4
3 5 18 19
4 19 20 6 5
3 12 27 28
4 28 29 13 12
3 13 29 30
4 30 31 14 13
3 6 20 21
4 21 22 7 6
4 7 22 23 8
3 46 164 165
4 165 23 22 46
3 14 31 32
4 32 33 15 14
3 195 226 227
4 227 165 164 195
3 15 33 34
4 34 35 16 15
3 257 358 359
4 359 227 226 257
5 462 506 507 428 427
3 427 426 462
4 577 578 569 568
3 568 567 577
3 559 569 570
4 570 507 506 559
4 569 578 579 570
4 507 508 430 429
3 429 428 507
3 394 430 431
4 431 359 358 394
4 430 508 509 431
4 507 570 571 508
4 25 47 48 26
4 570 579 580 571
4 47 125 126 86
3 86 48 47
4 508 571 572 509
3 26 48 49
4 49 50 27 26
4 571 580 581 572
4 339 380 381 366
3 366 340 339
4 380 416 417 401
3 401 381 380
4 416 452 453 438
3 438 417 416
4 452 484 485 469
3 469 453 452
4 484 546 547 527
3 527 485 484
4 546 561 562 547
4 562 563 549 548
3 548 547 562
4 125 172 173 166
3 166 126 125
4 172 187 188 180
3 180 173 172
4 187 202 203 196
3 196 188 187
4 202 218 219 210
3 210 203 202
4 563 564 551 550
3 550 549 563
4 564 565 553 552
3 552 551 564
4 218 234 235 228
3 228 219 218
4 565 566 555 554
3 554 553 565
4 234 249 250 242
3 242 235 234
4 566 567 557 556
3 556 555 566
4 249 304 305 279
3 279 250 249
4 304 340 341 332
3 332 305 304
3 16 35 36
4 36 37 17 16
3 17 37 38
4 38 39 18 17
3 18 39 40
4 40 41 19 18
3 19 41 42
4 42 43 20 19
3 27 50 51
4 51 52 28 27
3 28 52 53
4 53 54 29 28
3 29 54 55
4 55 56 30 29
3 30 56 57
4 57 58 31 30
3 20 43 44
4 44 45 21 20
4 21 45 46 22
3 85 163 164
4 164 46 45 85
3 179 194 195
4 195 164 163 179
3 209 225 226
4 226 195 194 209
3 31 58 59
4 59 60 32 31
3 241 256 257
4 257 226 225 241
3 32 60 61
4 61 62 33 32
3 331 357 358
4 358 257 256 331
3 33 62 63
4 63 64 34 33
3 34 64 65
4 65 66 35 34
5 373 388 389 349 348
3 348 347 373
3 408 424 425
4 425 389 388 408
4 389 390 351 350
3 350 349 389
4 389 425 426 390
3 445 460 461
4 461 425 424 445
3 476 504 505
4 505 461 460 476
4 425 461 462 426
4 461 505 506 462
4 390 391 353 352
3 352 351 390
4 390 426 427 391
4 391 392 355 354
3 354 353 391
4 391 427 428 392
3 545 557 558
4 558 505 504 545
4 557 567 568 558
4 505 558 559 506
4 558 568 569 559
4 392 393 357 356
3 356 355 392
4 392 428 429 393
4 357 393 394 358
4 393 429 430 394
4 48 86 87 49
4 86 126 127 87
4 49 87 88 50
5 337 346 347 312 311
3 311 310 337
4 87 127 128 88
4 340 366 367 360
3 360 341 340
4 366 381 382 374
3 374 367 366
4 381 401 402 395
3 395 382 381
4 401 417 418 409
3 409 402 401
4 417 438 439 432
3 432 418 417
4 438 453 454 446
3 446 439 438
4 453 469 470 463
3 463 454 453
4 469 485 486 477
3 477 470 469
4 485 527 528 510
3 510 486 485
4 527 547 548 528
4 548 549 530 529
3 529 528 548
4 126 166 167 127
4 166 173 174 167
3 365 372 373
4 373 347 346 365
4 127 167 168 128
3 379 387 388
4 388 373 372 379
4 167 174 175 168
4 173 180 181 174
4 180 188 189 181
3 400 407 408
4 408 388 387 400
4 174 181 182 175
3 414 423 424
4 424 408 407 414
4 181 189 190 182
4 188 196 197 189
4 196 203 204 197
3 437 444 445
4 445 424 423 437
4 189 197 198 190
3 451 459 460
4 460 445 444 451
4 197 204 205 198
4 203 210 211 204
4 210 219 220 211
3 468 475 476
4 476 460 459 468
4 204 211 212 205
3 482 503 504
4 504 476 475 482
4 211 220 221 212
4 549 550 532 531
3 531 530 549
4 550 551 534 533
3 533 532 550
4 551 552 536 535
3 535 534 551
4 552 553 538 537
3 537 536 552
4 553 554 540 539
3 539 538 553
4 554 555 542 541
3 541 540 554
4 219 228 229 220
4 555 556 544 543
3 543 542 555
4 228 235 236 229
3 526 544 545
4 545 504 503 526
4 220 229 230 221
4 544 556 557 545
4 229 236 237 230
4 235 242 243 236
4 242 250 251 243
4 236 243 244 237
4 243 251 252 244
4 250 279 280 251
4 279 305 306 280
4 251 280 281 252
4 280 306 307 281
4 305 332 333 306
4 332 341 342 333
4 306 333 334 307
4 333 342 343 334
3 35 66 67
4 67 68 36 35
3 36 68 69
4 69 70 37 36
3 37 70 71
4 71 72 38 37
3 38 72 73
4 73 74 39 38
3 39 74 75
4 75 76 40 39
3 40 76 77
4 77 78 41 40
3 41 78 79
4 79 80 42 41
3 42 80 81
4 81 82 43 42
4 50 88 89 51
4 347 348 314 313
3 313 312 347
4 88 128 129 89
4 51 89 90 52
4 348 349 316 315
3 315 314 348
4 89 129 130 90
4 52 90 91 53
4 349 350 318 317
3 317 316 349
4 90 130 131 91
4 53 91 92 54
4 350 351 320 319
3 319 318 350
4 91 131 132 92
4 54 92 93 55
4 351 352 322 321
3 321 320 351
4 92 132 133 93
4 55 93 94 56
4 352 353 324 323
3 323 322 352
4 93 133 134 94
4 56 94 95 57
4 353 354 326 325
3 325 324 353
4 94 134 135 95
4 57 95 96 58
4 354 355 328 327
3 327 326 354
4 95 135 136 96
3 43 82 83
4 83 84 44 43
4 44 84 85 45
3 122 162 163
4 163 85 84 122
3 171 178 179
4 179 163 162 171
3 185 193 194
4 194 179 178 185
3 201 208 209
4 209 194 193 201
3 215 224 225
4 225 209 208 215
3 233 240 241
4 241 225 224 233
3 247 255 256
4 256 241 240 247
4 58 96 97 59
4 355 356 330 329
3 329 328 355
4 96 136 137 97
3 303 330 331
4 331 256 255 303
4 59 97 98 60
4 330 356 357 331
4 97 137 138 98
4 60 98 99 61
4 98 138 139 99
4 61 99 100 62
4 99 139 140 100
4 62 100 101 63
4 100 140 141 101
4 63 101 102 64
4 101 141 142 102
4 64 102 103 65
4 102 142 143 103
4 65 103 104 66
4 103 143 144 104
4 282 309 310 283
4 258 308 309 282
3 258 282 259
4 259 282 283 260
4 308 335 336 309
4 335 344 345 336
4 309 336 337 310
4 336 345 346 337
4 260 283 284 261
4 283 310 311 284
4 261 284 285 262
4 284 311 312 285
4 341 360 361 342
4 360 367 368 361
4 342 361 362 343
4 361 368 369 362
4 367 374 375 368
4 374 382 383 375
4 368 375 376 369
4 375 383 384 376
4 382 395 396 383
4 395 402 403 396
4 383 396 397 384
4 396 403 404 397
4 402 409 410 403
4 409 418 419 410
4 403 410 411 404
4 410 419 420 411
4 418 432 433 419
4 432 439 440 433
4 419 433 434 420
4 433 440 441 434
4 439 446 447 440
4 446 454 455 447
4 440 447 448 441
4 447 455 456 448
4 454 463 464 455
4 463 470 471 464
4 455 464 465 456
4 464 471 472 465
4 470 477 478 471
4 477 486 487 478
4 471 478 479 472
4 478 487 488 479
4 486 510 511 487
4 510 528 529 511
4 487 511 512 488
4 511 529 530 512
4 344 363 364 345
4 363 370 371 364
4 345 364 365 346
4 364 371 372 365
4 370 377 378 371
4 377 385 386 378
4 371 378 379 372
4 378 386 387 379
4 385 398 399 386
4 398 405 406 399
4 386 399 400 387
4 399 406 407 400
4 405 412 413 406
4 412 421 422 413
4 406 413 414 407
4 413 422 423 414
4 421 435 436 422
4 435 442 443 436
4 422 436 437 423
4 436 443 444 437
4 442 449 450 443
4 449 457 458 450
4 443 450 451 444
4 450 458 459 451
4 457 466 467 458
4 466 473 474 467
4 458 467 468 459
4 467 474 475 468
4 473 480 481 474
4 480 501 502 481
4 474 481 482 475
4 481 502 503 482
4 488 512 513 489
4 512 530 531 513
4 489 513 514 490
4 513 531 532 514
4 490 514 515 491
4 514 532 533 515
4 491 515 516 492
4 515 533 534 516
4 492 516 517 493
4 516 534 535 517
4 493 517 518 494
4 517 535 536 518
4 494 518 519 495
4 518 536 537 519
4 495 519 520 496
4 519 537 538 520
4 496 520 521 497
4 520 538 539 521
4 497 521 522 498
4 521 539 540 522
4 498 522 523 499
4 522 540 541 523
4 499 523 524 500
4 523 541 542 524
4 524 525 502 501
3 501 500 524
4 524 542 543 525
4 502 525 526 503
4 525 543 544 526
4 66 104 105 67
4 104 144 145 105
4 67 105 106 68
4 105 145 146 106
4 68 106 107 69
4 106 146 147 107
4 69 107 108 70
4 107 147 148 108
4 70 108 109 71
4 108 148 149 109
4 71 109 110 72
4 109 149 150 110
4 72 110 111 73
4 110 150 151 111
4 73 111 112 74
4 111 151 152 112
4 74 112 113 75
4 112 152 153 113
4 75 113 114 76
4 113 153 154 114
4 76 114 115 77
4 114 154 155 115
4 77 115 116 78
4 115 155 156 116
4 78 116 117 79
4 116 156 157 117
4 79 117 118 80
4 117 157 158 118
4 80 118 119 81
4 118 158 159 119
4 81 119 120 82
4 119 159 160 120
4 262 285 286 263
4 285 312 313 286
4 263 286 287 264
4 286 313 314 287
4 264 287 288 265
4 287 314 315 288
4 265 288 289 266
4 288 315 316 289
4 266 289 290 267
4 289 316 317 290
4 267 290 291 268
4 290 317 318 291
4 268 291 292 269
4 291 318 319 292
4 269 292 293 270
4 292 319 320 293
4 270 293 294 271
4 293 320 321 294
4 271 294 295 272
4 294 321 322 295
4 272 295 296 273
4 295 322 323 296
4 273 296 297 274
4 296 323 324 297
4 274 297 298 275
4 297 324 325 298
4 275 298 299 276
4 298 325 326 299
4 276 299 300 277
4 299 326 327 300
4 277 300 301 278
4 300 327 328 301
4 82 120 121 83
4 120 160 161 121
4 83 121 122 84
4 121 161 162 122
4 160 169 170 161
4 169 176 177 170
4 161 170 171 162
4 170 177 178 171
4 176 183 184 177
4 183 191 192 184
4 177 184 185 178
4 184 192 193 185
4 191 199 200 192
4 199 206 207 200
4 192 200 201 193
4 200 207 208 201
4 206 213 214 207
4 213 222 223 214
4 207 214 215 208
4 214 223 224 215
4 222 231 232 223
4 231 238 239 232
4 223 232 233 224
4 232 239 240 233
4 238 245 246 239
4 245 253 254 246
4 239 246 247 240
4 246 254 255 247
4 278 301 302 254
3 254 253 278
4 301 328 329 302
4 254 302 303 255
4 302 329 330 303
CELL_TYPES 568
7
7
7
7
7
7
7
7
7
7
7
7
7
7
7
7
7
7
7
7
7
7
7
7
7
7
7
7
7
7
7
7
7
7
7
7
7
7
7
7
7
7
7
7
7
7
7
7
7
7
7
7
7
7
7
7
7
7
7
7
7
7
7
7
7
7
7
7
7
7
7
7
7
7
7
7
7
7
7
7
7
7
7
7
7
7
7
7
7
7
7
7
7
7
7
7
7
7
7
7
7
7
7
7
7
7
7
7
7
7
7
7
7
7
7
7
7
7
7
7
7
7
7
7
7
7
7
7
7
7
7
7
7
7
7
7
7
7
7
7
7
7
7
7
7
7
7
7
7
7
7
7
7
7
7
7
7
7
7
7
7
7
7
7
7
7
7
7
7
7
7
7
7
7
7
7
7
7
7
7
7
7
7
7
7
7
7
7
7
7
7
7
7
7
7
7
7
7
7
7
7
7
7
7
7
7
7
7
7
7
7
7
7
7
7
7
7
7
7
7
7
7
7
7
7
7
7
7
7
7
7
7
7
7
7
7
7
7
7
7
7
7
7
7
7
7
7
7
7
7
7
7
7
7
7
7
7
7
7
7
7
7
7
7
7
7
7
7
7
7
7
7
7
7
7
7
7
7
7
7
7
7
7
7
7
7
7
7
7
7
7
7
7
7
7
7
7
7
7
7
7
7
7
7
7
7
7
7
7
7
7
7
7
7
7
7
7
7
7
7
7
7
7
7
7
7
7
7
7
7
7
7
7
7
7
7
7
7
7
7
7
7
7
7
7
7
7
7
7
7
7
7
7
7
7
7
7
7
7
7
7
7
7
7
7
7
7
7
7
7
7
7
7
7
7
7
7
7
7
7
7
7
7
7
7
7
7
7
7
7
7
7
7
7
7
7
7
7
7
7
7
7
7
7
7
7
7
7
7
7
7
7
7
7
7
7
7
7
7
7
7
7
7
7
7
7
7
7
7
7
7
7
7
7
7
7
7
7
7
7
7
7
7
7
7
7
7
7
7
7
7
7
7
7
7
7
7
7
7
7
7
7
7
7
7
7
7
7
7
7
7
7
7
7
7
7
7
7
7
7
7
7
7
7
7
7
7
7
7
7
7
7
7
7
7
7
7
7
7
7
7
7
7
7
7
7
7
7
7
7
7
7
7
7
7
7
7
7
7
7
7
7
7
7
7
7
7
7
7
7
7
7
7
7
7
7
7
7
7
7
7
7
7
7
7
7
7
7
7
7
7
7
7
7
7
7
7
7
7
7
7
7
7
7
7
7
7
7
CELL_DATA 568
SCALARS geometry_area double 1
LOOKUP_TABLE default
0.25
0.1875
0.0625
0.0625
0.1875
0.1875
0.0625
0.1875
0.0625
0.0625
0.1875
0.0625
0.1875
0.0625
0.046875
0.015625
0.015625
0.046875
0.1875
0.0625
0.1875
0.0625
0.1875
0.0625
0.25
0.1875
0.0625
0.046875
0.015625
0.046875
0.015625
0.046875
0.015625
0.1875
0.0625
0.046875
0.015625
0.1875
0.0625
0.0625
0.1875
0.0625
0.1875
0.015625
0.046875
0.015625
0.046875
0.0625
0.1875
0.25
0.0625
0.1875
0.015625
0.046875
0.0625
0.1875
0.015625
0.046875
0.0625
0.1875
0.21875
0.03125
0.1875
0.0625
0.0625
0.1875
0.25
0.1875
0.0625
0.0625
0.1875
0.25
0.25
0.015625
0.25
0.01171875
0.00390625
0.25
0.00390625
0.01171875
0.25
0.046875
0.015625
0.046875
0.015625
0.046875
0.015625
0.046875
0.015625
0.046875
0.015625
0.0625
0.046875
0.015625
0.01171875
0.00390625
0.01171875
0.00390625
0.01171875
0.00390625
0.01171875
0.00390625
0.046875
0.015625
0.046875
0.015625
0.01171875
0.00390625
0.046875
0.015625
0.01171875
0.00390625
0.046875
0.015625
0.01171875
0.00390625
0.01171875
0.00390625
0.015625
0.046875
0.015625
0.046875
0.015625
0.046875
0.015625
0.046875
0.00390625
0.01171875
0.00390625
0.01171875
0.00390625
0.01171875
0.00390625
0.01171875
0.015625
0.046875
0.0625
0.015625
0.046875
0.015625
0.046875
0.015625
0.046875
0.00390625
0.01171875
0.015625
0.046875
0.00390625
0.01171875
0.015625
0.046875
0.00390625
0.01171875
0.00390625
0.01171875
0.0546875
0.0078125
0.015625
0.046875
0.046875
0.015625
0.0625
0.015625
0.046875
0.015625
0.046875
0.0625
0.0625
0.046875
0.015625
0.0625
0.046875
0.015625
0.0625
0.015625
0.046875
0.0625
0.0625
0.0625
0.046875
0.015625
0.0625
0.0625
0.0625
0.00390625
0.00390625
0.00390625
0.013671875
0.001953125
0.00390625
0.01171875
0.00390625
0.01171875
0.00390625
0.01171875
0.00390625
0.01171875
0.00390625
0.01171875
0.00390625
0.01171875
0.00390625
0.01171875
0.00390625
0.01171875
0.00390625
0.01171875
0.00390625
0.015625
0.01171875
0.00390625
0.00390625
0.00390625
0.00390625
0.01171875
0.00390625
0.00390625
0.01171875
0.00390625
0.00390625
0.00390625
0.00390625
0.01171875
0.00390625
0.00390625
0.01171875
0.00390625
0.00390625
0.00390625
0.00390625
0.01171875
0.00390625
0.00390625
0.01171875
0.00390625
0.00390625
0.00390625
0.00390625
0.01171875
0.00390625
0.00390625
0.01171875
0.00390625
0.01171875
0.00390625
0.01171875
0.00390625
0.01171875
0.00390625
0.01171875
0.00390625
0.01171875
0.00390625
0.01171875
0.00390625
0.00390625
0.01171875
0.00390625
0.00390625
0.00390625
0.01171875
0.00390625
0.015625
0.00390625
0.00390625
0.00390625
0.00390625
0.00390625
0.00390625
0.00390625
0.00390625
0.00390625
0.00390625
0.00390625
0.00390625
0.00390625
0.00390625
0.01171875
0.00390625
0.01171875
0.00390625
0.01171875
0.00390625
0.01171875
0.00390625
0.01171875
0.00390625
0.01171875
0.00390625
0.01171875
0.00390625
0.01171875
0.00390625
0.01171875
0.00390625
0.00390625
0.00390625
0.01171875
0.00390625
0.00390625
0.00390625
0.01171875
0.00390625
0.00390625
0.00390625
0.01171875
0.00390625
0.00390625
0.00390625
0.01171875
0.00390625
0.00390625
0.00390625
0.01171875
0.00390625
0.00390625
0.00390625
0.01171875
0.00390625
0.00390625
0.00390625
0.01171875
0.00390625
0.00390625
0.00390625
0.01171875
0.015625
0.00390625
0.01171875
0.00390625
0.01171875
0.00390625
0.01171875
0.00390625
0.01171875
0.00390625
0.01171875
0.00390625
0.01171875
0.00390625
0.01171875
0.00390625
0.01171875
0.00390625
0.00390625
0.00390625
0.01171875
0.00390625
0.015625
0.00390625
0.00390625
0.00390625
0.00390625
0.00390625
0.00390625
0.00390625
0.00390625
0.00390625
0.00390625
0.00390625
0.00390625
0.00390625
0.00390625
0.00085937499999999664
7.8124999999999446e-05
0.00078124999999999722
0.00078124999999999722
0.00078124999999999722
0.00390625
0.00390625
0.00078124999999999722
0.00390625
0.00078124999999999722
0.00390625
0.00390625
0.00390625
0.00390625
0.00390625
0.00390625
0.00390625
0.00390625
0.00390625
0.00390625
0.00390625
0.00390625
0.00390625
0.00390625
0.00390625
0.00390625
0.00390625
0.00390625
0.00390625
0.00390625
0.00390625
0.00390625
0.00390625
0.00390625
0.00390625
0.00390625
0.00390625
0.00390625
0.00390625
0.00390625
0.00390625
0.00390625
0.00390625
0.00390625
0.00390625
0.00390625
0.00390625
0.00078124999999999722
0.00078124999999999722
0.00390625
0.00390625
0.00078124999999999722
0.00078124999999999722
0.00390625
0.00390625
0.00078124999999999722
0.00078124999999999722
0.00390625
0.00390625
0.00078124999999999722
0.00078124999999999722
0.00390625
0.00390625
0.00078124999999999722
0.00078124999999999722
0.00390625
0.00390625
0.00078124999999999722
0.00078124999999999722
0.00390625
0.00390625
0.00078124999999999722
0.00078124999999999722
0.00390625
0.00390625
0.00078124999999999722
0.00078124999999999722
0.00390625
0.00390625
0.00390625
0.00390625
0.00390625
0.00390625
0.00390625
0.00390625
0.00390625
0.00390625
0.00390625
0.00390625
0.00390625
0.00390625
0.00390625
0.00390625
0.00390625
0.00390625
0.00390625
0.00390625
0.00390625
0.00390625
0.00390625
0.00390625
0.00390625
0.00390625
0.0023437499999999986
0.0015625000000000014
0.00390625
0.00390625
0.00390625
0.00390625
0.00390625
0.00390625
0.00390625
0.00390625
0.00390625
0.00390625
0.00390625
0.00390625
0.00390625
0.00390625
0.00390625
0.00390625
0.00390625
0.00390625
0.00390625
0.00390625
0.00390625
0.00390625
0.00390625
0.00390625
0.00390625
0.00390625
0.00390625
0.00390625
0.00390625
0.00390625
0.00390625
0.00390625
0.00390625
0.00390625
0.00390625
0.00078124999999999722
0.00390625
0.00078124999999999722
0.00390625
0.00078124999999999722
0.00390625
0.00078124999999999722
0.00390625
0.00078124999999999722
0.00390625
0.00078124999999999722
0.00390625
0.00078124999999999722
0.00390625
0.00078124999999999722
0.00390625
0.00078124999999999722
0.00390625
0.00078124999999999722
0.00390625
0.00078124999999999722
0.00390625
0.00078124999999999722
0.00390625
0.00078124999999999722
0.00390625
0.00078124999999999722
0.00390625
0.00078124999999999722
0.00390625
0.00078124999999999722
0.00390625
0.00390625
0.00390625
0.00390625
0.00390625
0.00390625
0.00390625
0.00390625
0.00390625
0.00390625
0.00390625
0.00390625
0.00390625
0.00390625
0.00390625
0.00390625
0.00390625
0.00390625
0.00390625
0.00390625
0.00390625
0.00390625
0.00390625
0.00390625
0.00390625
0.00390625
0.00390625
0.00390625
0.00390625
0.0023437499999999986
0.0015625000000000014
0.00390625
0.00390625
0.00390625
SCALARS source_id unsigned_long 1
LOOKUP_TABLE default
0
1
2
3
4
5
6
7
8
9
10
11
12
13
14
15
16
17
18
19
20
21
22
23
24
25
26
27
28
29
30
31
32
33
34
35
36
37
38
39
40
41
42
43
44
45
46
47
48
49
50
51
52
53
54
55
56
57
58
59
60
61
62
63
64
65
66
67
68
69
70
71
72
73
74
75
76
77
78
79
80
81
82
83
84
85
86
87
88
89
90
91
92
93
94
95
96
97
98
99
100
101
102
103
104
105
106
107
108
109
110
111
112
113
114
115
116
117
118
119
120
121
122
123
124
125
126
127
128
129
130
131
132
133
134
135
136
137
138
139
140
141
142
143
144
145
146
147
148
149
150
151
152
153
154
155
156
157
158
159
160
161
162
163
164
165
166
167
168
169
170
171
172
173
174
175
176
177
178
179
180
181
182
183
184
185
186
187
188
189
190
191
192
193
194
195
196
197
198
199
200
201
202
203
204
205
206
207
208
209
210
211
212
213
214
215
216
217
218
219
220
221
222
223
224
225
226
227
228
229
230
231
232
233
234
235
236
237
238
239
240
241
242
243
244
245
246
247
248
249
250
251
252
253
254
255
256
257
258
259
260
261
262
263
264
265
266
267
268
269
270
271
272
273
274
275
276
277
278
279
280
281
282
283
284
285
286
287
288
289
290
291
292
293
294
295
296
297
298
299
300
301
302
303
304
305
306
307
308
309
310
311
312
313
314
315
316
317
318
319
320
321
322
323
324
325
326
327
328
329
330
331
332
333
334
335
336
337
338
339
340
341
342
343
344
345
346
347
348
349
350
351
352
353
354
355
356
357
358
359
360
361
362
363
364
365
366
367
368
369
370
371
372
373
374
375
376
377
378
379
380
381
382
383
384
385
386
387
388
389
390
391
392
393
394
395
396
397
398
399
400
401
402
403
404
405
406
407
408
409
410
411
412
413
414
415
416
417
418
419
420
421
422
423
424
425
426
427
428
429
430
431
432
433
434
435
436
437
438
439
440
441
442
443
444
445
446
447
448
449
450
451
452
453
454
455
456
457
458
459
460
461
462
463
464
465
466
467
468
469
470
471
472
473
474
475
476
477
478
479
480
481
482
483
484
485
486
487
488
489
490
491
492
493
494
495
496
497
498
499
500
501
502
503
504
505
506
507
508
509
510
511
512
513
514
515
516
517
518
519
520
521
522
523
524
525
526
527
528
529
530
531
532
533
534
535
536
537
538
539
540
541
542
543
544
545
546
547
548
549
550
551
552
553
554
555
556
557
558
559
560
561
562
563
564
565
566
567
