# vtk DataFile Version 3.0
cartmesh2d deterministic topology export
ASCII
DATASET UNSTRUCTURED_GRID
POINTS 963 double
-1 -1 0
-1 -0.625 0
-1 -0.25 0
-1 0.125 0
-1 0.5 0
-1 0.875 0
-1 1.25 0
-1 1.625 0
-1 2 0
-0.47499999999999998 -1 0
-0.47499999999999998 -0.625 0
-0.47499999999999998 -0.4375 0
-0.47499999999999998 -0.25 0
-0.47499999999999998 -0.0625 0
-0.47499999999999998 0.125 0
-0.47499999999999998 0.3125 0
-0.47499999999999998 0.5 0
-0.47499999999999998 0.6875 0
-0.47499999999999998 0.875 0
-0.47499999999999998 1.0625 0
-0.47499999999999998 1.25 0
-0.47499999999999998 1.4375 0
-0.47499999999999998 1.625 0
-0.47499999999999998 2 0
-0.21249999999999997 -0.625 0
-0.21249999999999997 -0.4375 0
-0.21249999999999997 -0.25 0
-0.21249999999999997 -0.15625 0
-0.21249999999999997 -0.0625 0
-0.21249999999999997 0.03125 0
-0.21249999999999997 0.125 0
-0.21249999999999997 0.21875 0
-0.21249999999999997 0.3125 0
-0.21249999999999997 0.40625 0
-0.21249999999999997 0.5 0
-0.21249999999999997 0.59375 0
-0.21249999999999997 0.6875 0
-0.21249999999999997 0.78125 0
-0.21249999999999997 0.875 0
-0.21249999999999997 0.96875 0
-0.21249999999999997 1.0625 0
-0.21249999999999997 1.15625 0
-0.21249999999999997 1.25 0
-0.21249999999999997 1.4375 0
-0.21249999999999997 1.625 0
-0.081249999999999961 -0.25 0
-0.081249999999999961 -0.15625 0
-0.081249999999999961 -0.0625 0
-0.081249999999999961 -0.015625 0
-0.081249999999999961 0.03125 0
-0.081249999999999961 0.078125 0
-0.081249999999999961 0.125 0
-0.081249999999999961 0.171875 0
-0.081249999999999961 0.21875 0
-0.081249999999999961 0.265625 0
-0.081249999999999961 0.3125 0
-0.081249999999999961 0.359375 0
-0.081249999999999961 0.40625 0
-0.081249999999999961 0.453125 0
-0.081249999999999961 0.5 0
-0.081249999999999961 0.546875 0
-0.081249999999999961 0.59375 0
-0.081249999999999961 0.640625 0
-0.081249999999999961 0.6875 0
-0.081249999999999961 0.734375 0
-0.081249999999999961 0.78125 0
-0.081249999999999961 0.828125 0
-0.081249999999999961 0.875 0
-0.081249999999999961 0.921875 0
-0.081249999999999961 0.96875 0
-0.081249999999999961 1.015625 0
-0.081249999999999961 1.0625 0
-0.081249999999999961 1.15625 0
-0.081249999999999961 1.25 0
-0.015624999999999958 -0.0625 0
-0.015624999999999958 -0.015625 0
-0.015624999999999958 0.0078125 0
-0.015624999999999958 0.03125 0
-0.015624999999999958 0.0546875 0
-0.015624999999999958 0.078125 0
-0.015624999999999958 0.1015625 0
-0.015624999999999958 0.125 0
-0.015624999999999958 0.1484375 0
-0.015624999999999958 0.171875 0
-0.015624999999999958 0.1953125 0
-0.015624999999999958 0.21875 0
-0.015624999999999958 0.2421875 0
-0.015624999999999958 0.265625 0
-0.015624999999999958 0.2890625 0
-0.015624999999999958 0.3125 0
-0.015624999999999958 0.3359375 0
-0.015624999999999958 0.359375 0
-0.015624999999999958 0.3828125 0
-0.015624999999999958 0.40625 0
-0.015624999999999958 0.4296875 0
-0.015624999999999958 0.453125 0
-0.015624999999999958 0.4765625 0
-0.015624999999999958 0.5 0
-0.015624999999999958 0.5234375 0
-0.015624999999999958 0.546875 0
-0.015624999999999958 0.5703125 0
-0.015624999999999958 0.59375 0
-0.015624999999999958 0.6171875 0
-0.015624999999999958 0.640625 0
-0.015624999999999958 0.6640625 0
-0.015624999999999958 0.6875 0
-0.015624999999999958 0.7109375 0
-0.015624999999999958 0.734375 0
-0.015624999999999958 0.7578125 0
-0.015624999999999958 0.78125 0
-0.015624999999999958 0.8046875 0
-0.015624999999999958 0.828125 0
-0.015624999999999958 0.8515625 0
-0.015624999999999958 0.875 0
-0.015624999999999958 0.8984375 0
-0.015624999999999958 0.921875 0
-0.015624999999999958 0.9453125 0
-0.015624999999999958 0.96875 0
-0.015624999999999958 0.9921875 0
-0.015624999999999958 1.015625 0
-0.015624999999999958 1.0625 0
0 0 0
0 0.0078125 0
0 0.03125 0
0 0.0546875 0
0 0.078125 0
0 0.1015625 0
0 0.125 0
0 0.1484375 0
0 0.171875 0
0 0.1953125 0
0 0.21875 0
0 0.2421875 0
0 0.265625 0
0 0.2890625 0
0 0.3125 0
0 0.3359375 0
0 0.359375 0
0 0.3828125 0
0 0.40625 0
0 0.4296875 0
0 0.453125 0
0 0.4765625 0
0 0.5 0
0 0.5234375 0
0 0.546875 0
0 0.5703125 0
0 0.59375 0
0 0.6171875 0
0 0.640625 0
0 0.6640625 0
0 0.6875 0
0 0.7109375 0
0 0.734375 0
0 0.7578125 0
0 0.78125 0
0 0.8046875 0
0 0.828125 0
0 0.8515625 0
0 0.875 0
0 0.8984375 0
0 0.921875 0
0 0.9453125 0
0 0.96875 0
0 0.9921875 0
0 1 0
0.017187500000000043 -0.015625 0
0.017187500000000043 0 0
0.017187500000000043 1 0
0.017187500000000043 1.015625 0
0.050000000000000044 -1 0
0.050000000000000044 -0.625 0
0.050000000000000044 -0.4375 0
0.050000000000000044 -0.25 0
0.050000000000000044 -0.15625 0
0.050000000000000044 -0.0625 0
0.050000000000000044 -0.015625 0
0.050000000000000044 0 0
0.050000000000000044 1 0
0.050000000000000044 1.015625 0
0.050000000000000044 1.0625 0
0.050000000000000044 1.15625 0
0.050000000000000044 1.25 0
0.050000000000000044 1.4375 0
0.050000000000000044 1.625 0
0.050000000000000044 2 0
0.082812500000000039 -0.015625 0
0.082812500000000039 0 0
0.082812500000000039 1 0
0.082812500000000039 1.015625 0
0.11562500000000005 -0.0625 0
0.11562500000000005 -0.015625 0
0.11562500000000005 0 0
0.11562500000000005 1 0
0.11562500000000005 1.015625 0
0.11562500000000005 1.0625 0
0.14843750000000006 -0.015625 0
0.14843750000000006 0 0
0.14843750000000006 1 0
0.14843750000000006 1.015625 0
0.18125000000000005 -0.25 0
0.18125000000000005 -0.15625 0
0.18125000000000005 -0.0625 0
0.18125000000000005 -0.015625 0
0.18125000000000005 0 0
0.18125000000000005 1 0
0.18125000000000005 1.015625 0
0.18125000000000005 1.0625 0
0.18125000000000005 1.15625 0
0.18125000000000005 1.25 0
0.21406250000000004 -0.015625 0
0.21406250000000004 0 0
0.21406250000000004 1 0
0.21406250000000004 1.015625 0
0.24687500000000007 -0.0625 0
0.24687500000000007 -0.015625 0
0.24687500000000007 0 0
0.24687500000000007 1 0
0.24687500000000007 1.015625 0
0.24687500000000007 1.0625 0
0.27968750000000003 -0.015625 0
0.27968750000000003 0 0
0.27968750000000003 1 0
0.27968750000000003 1.015625 0
0.31250000000000006 -0.625 0
0.31250000000000006 -0.4375 0
0.31250000000000006 -0.25 0
0.31250000000000006 -0.15625 0
0.31250000000000006 -0.0625 0
0.31250000000000006 -0.015625 0
0.31250000000000006 0 0
0.31250000000000006 1 0
0.31250000000000006 1.015625 0
0.31250000000000006 1.0625 0
0.31250000000000006 1.15625 0
0.31250000000000006 1.25 0
0.31250000000000006 1.4375 0
0.31250000000000006 1.625 0
0.34531250000000008 -0.015625 0
0.34531250000000008 0 0
0.34531250000000008 1 0
0.34531250000000008 1.015625 0
0.37812500000000004 -0.0625 0
0.37812500000000004 -0.015625 0
0.37812500000000004 0 0
0.37812500000000004 1 0
0.37812500000000004 1.015625 0
0.37812500000000004 1.0625 0
0.41093750000000007 -0.015625 0
0.41093750000000007 0 0
0.41093750000000007 1 0
0.41093750000000007 1.015625 0
0.44375000000000009 -0.25 0
0.44375000000000009 -0.15625 0
0.44375000000000009 -0.0625 0
0.44375000000000009 -0.015625 0
0.44375000000000009 0 0
0.44375000000000009 1 0
0.44375000000000009 1.015625 0
0.44375000000000009 1.0625 0
0.44375000000000009 1.15625 0
0.44375000000000009 1.25 0
0.47656250000000006 -0.015625 0
0.47656250000000006 0 0
0.47656250000000006 1 0
0.47656250000000006 1.015625 0
0.50937500000000002 -0.0625 0
0.50937500000000002 -0.015625 0
0.50937500000000002 0 0
0.50937500000000002 1 0
0.50937500000000002 1.015625 0
0.50937500000000002 1.0625 0
0.54218750000000004 -0.015625 0
0.54218750000000004 0 0
0.54218750000000004 1 0
0.54218750000000004 1.015625 0
0.57500000000000007 -1 0
0.57500000000000007 -0.625 0
0.57500000000000007 -0.4375 0
0.57500000000000007 -0.25 0
0.57500000000000007 -0.15625 0
0.57500000000000007 -0.0625 0
0.57500000000000007 -0.015625 0
0.57500000000000007 0 0
0.57500000000000007 1 0
0.57500000000000007 1.015625 0
0.57500000000000007 1.0625 0
0.57500000000000007 1.15625 0
0.57500000000000007 1.25 0
0.57500000000000007 1.4375 0
0.57500000000000007 1.625 0
0.57500000000000007 2 0
0.60781250000000009 -0.015625 0
0.60781250000000009 0 0
0.60781250000000009 1 0
0.60781250000000009 1.015625 0
0.64062500000000011 -0.0625 0
0.64062500000000011 -0.015625 0
0.64062500000000011 0 0
0.64062500000000011 1 0
0.64062500000000011 1.015625 0
0.64062500000000011 1.0625 0
0.67343750000000002 -0.015625 0
0.67343750000000002 0 0
0.67343750000000002 1 0
0.67343750000000002 1.015625 0
0.70625000000000004 -0.25 0
0.70625000000000004 -0.15625 0
0.70625000000000004 -0.0625 0
0.70625000000000004 -0.015625 0
0.70625000000000004 0 0
0.70625000000000004 1 0
0.70625000000000004 1.015625 0
0.70625000000000004 1.0625 0
0.70625000000000004 1.15625 0
0.70625000000000004 1.25 0
0.73906250000000007 -0.015625 0
0.73906250000000007 0 0
0.73906250000000007 1 0
0.73906250000000007 1.015625 0
0.77187500000000009 -0.0625 0
0.77187500000000009 -0.015625 0
0.77187500000000009 0 0
0.77187500000000009 1 0
0.77187500000000009 1.015625 0
0.77187500000000009 1.0625 0
0.80468750000000011 -0.015625 0
0.80468750000000011 0 0
0.80468750000000011 1 0
0.80468750000000011 1.015625 0
0.83750000000000013 -0.625 0
0.83750000000000013 -0.4375 0
0.83750000000000013 -0.25 0
0.83750000000000013 -0.15625 0
0.83750000000000013 -0.0625 0
0.83750000000000013 -0.015625 0
0.83750000000000013 0 0
0.83750000000000013 1 0
0.83750000000000013 1.015625 0
0.83750000000000013 1.0625 0
0.83750000000000013 1.15625 0
0.83750000000000013 1.25 0
0.83750000000000013 1.4375 0
0.83750000000000013 1.625 0
0.87031250000000004 -0.015625 0
0.87031250000000004 0 0
0.87031250000000004 1 0
0.87031250000000004 1.015625 0
0.90312500000000007 -0.0625 0
0.90312500000000007 -0.015625 0
0.90312500000000007 0 0
0.90312500000000007 1 0
0.90312500000000007 1.015625 0
0.90312500000000007 1.0625 0
0.93593750000000009 -0.015625 0
0.93593750000000009 0 0
0.93593750000000009 1 0
0.93593750000000009 1.015625 0
0.96875000000000011 -0.25 0
0.96875000000000011 -0.15625 0
0.96875000000000011 -0.0625 0
0.96875000000000011 -0.015625 0
0.96875000000000011 0 0
0.96875000000000011 1 0
0.96875000000000011 1.015625 0
0.96875000000000011 1.0625 0
0.96875000000000011 1.15625 0
0.96875000000000011 1.25 0
1 0 0
1 0.0078125 0
1 0.03125 0
1 0.0546875 0
1 0.078125 0
1 0.1015625 0
1 0.125 0
1 0.1484375 0
1 0.171875 0
1 0.1953125 0
1 0.21875 0
1 0.2421875 0
1 0.265625 0
1 0.2890625 0
1 0.3125 0
1 0.3359375 0
1 0.359375 0
1 0.3828125 0
1 0.40625 0
1 0.4296875 0
1 0.453125 0
1 0.4765625 0
1 0.5 0
1 0.5234375 0
1 0.546875 0
1 0.5703125 0
1 0.59375 0
1 0.6171875 0
1 0.640625 0
1 0.6640625 0
1 0.6875 0
1 0.7109375 0
1 0.734375 0
1 0.7578125 0
1 0.78125 0
1 0.8046875 0
1 0.828125 0
1 0.8515625 0
1 0.875 0
1 0.8984375 0
1 0.921875 0
1 0.9453125 0
1 0.96875 0
1 0.9921875 0
1 1 0
1.0015625000000001 -0.015625 0
1.0015625000000001 0.0078125 0
1.0015625000000001 0.9921875 0
1.0015625000000001 1.015625 0
1.034375 -0.0625 0
1.034375 -0.015625 0
1.034375 0.0078125 0
1.034375 0.03125 0
1.034375 0.0546875 0
1.034375 0.078125 0
1.034375 0.1015625 0
1.034375 0.125 0
1.034375 0.1484375 0
1.034375 0.171875 0
1.034375 0.1953125 0
1.034375 0.21875 0
1.034375 0.2421875 0
1.034375 0.265625 0
1.034375 0.2890625 0
1.034375 0.3125 0
1.034375 0.3359375 0
1.034375 0.359375 0
1.034375 0.3828125 0
1.034375 0.40625 0
1.034375 0.4296875 0
1.034375 0.453125 0
1.034375 0.4765625 0
1.034375 0.5 0
1.034375 0.5234375 0
1.034375 0.546875 0
1.034375 0.5703125 0
1.034375 0.59375 0
1.034375 0.6171875 0
1.034375 0.640625 0
1.034375 0.6640625 0
1.034375 0.6875 0
1.034375 0.7109375 0
1.034375 0.734375 0
1.034375 0.7578125 0
1.034375 0.78125 0
1.034375 0.8046875 0
1.034375 0.828125 0
1.034375 0.8515625 0
1.034375 0.875 0
1.034375 0.8984375 0
1.034375 0.921875 0
1.034375 0.9453125 0
1.034375 0.96875 0
1.034375 0.9921875 0
1.034375 1.015625 0
1.034375 1.0625 0
1.1000000000000001 -1 0
1.1000000000000001 -0.625 0
1.1000000000000001 -0.4375 0
1.1000000000000001 -0.25 0
1.1000000000000001 -0.15625 0
1.1000000000000001 -0.0625 0
1.1000000000000001 -0.015625 0
1.1000000000000001 0.03125 0
1.1000000000000001 0.078125 0
1.1000000000000001 0.125 0
1.1000000000000001 0.171875 0
1.1000000000000001 0.21875 0
1.1000000000000001 0.265625 0
1.1000000000000001 0.3125 0
1.1000000000000001 0.359375 0
1.1000000000000001 0.40625 0
1.1000000000000001 0.453125 0
1.1000000000000001 0.5 0
1.1000000000000001 0.546875 0
1.1000000000000001 0.59375 0
1.1000000000000001 0.640625 0
1.1000000000000001 0.6875 0
1.1000000000000001 0.734375 0
1.1000000000000001 0.78125 0
1.1000000000000001 0.828125 0
1.1000000000000001 0.875 0
1.1000000000000001 0.921875 0
1.1000000000000001 0.96875 0
1.1000000000000001 1.015625 0
1.1000000000000001 1.0625 0
1.1000000000000001 1.15625 0
1.1000000000000001 1.25 0
1.1000000000000001 1.4375 0
1.1000000000000001 1.625 0
1.1000000000000001 2 0
1.1656250000000001 -0.0625 0
1.1656250000000001 -0.015625 0
1.1656250000000001 0.0078125 0
1.1656250000000001 0.03125 0
1.1656250000000001 0.0546875 0
1.1656250000000001 0.078125 0
1.1656250000000001 0.1015625 0
1.1656250000000001 0.125 0
1.1656250000000001 0.1484375 0
1.1656250000000001 0.171875 0
1.1656250000000001 0.1953125 0
1.1656250000000001 0.21875 0
1.1656250000000001 0.2421875 0
1.1656250000000001 0.265625 0
1.1656250000000001 0.2890625 0
1.1656250000000001 0.3125 0
1.1656250000000001 0.3359375 0
1.1656250000000001 0.359375 0
1.1656250000000001 0.3828125 0
1.1656250000000001 0.40625 0
1.1656250000000001 0.4296875 0
1.1656250000000001 0.453125 0
1.1656250000000001 0.4765625 0
1.1656250000000001 0.5 0
1.1656250000000001 0.5234375 0
1.1656250000000001 0.546875 0
1.1656250000000001 0.5703125 0
1.1656250000000001 0.59375 0
1.1656250000000001 0.6171875 0
1.1656250000000001 0.640625 0
1.1656250000000001 0.6640625 0
1.1656250000000001 0.6875 0
1.1656250000000001 0.7109375 0
1.1656250000000001 0.734375 0
1.1656250000000001 0.7578125 0
1.1656250000000001 0.78125 0
1.1656250000000001 0.8046875 0
1.1656250000000001 0.828125 0
1.1656250000000001 0.8515625 0
1.1656250000000001 0.875 0
1.1656250000000001 0.8984375 0
1.1656250000000001 0.921875 0
1.1656250000000001 0.9453125 0
1.1656250000000001 0.96875 0
1.1656250000000001 0.9921875 0
1.1656250000000001 1.015625 0
1.1656250000000001 1.0625 0
1.1984375 -0.015625 0
1.1984375 0.0078125 0
1.1984375 0.9921875 0
1.1984375 1.015625 0
1.2 0 0
1.2 0.0078125 0
1.2 0.03125 0
1.2 0.0546875 0
1.2 0.078125 0
1.2 0.1015625 0
1.2 0.125 0
1.2 0.1484375 0
1.2 0.171875 0
1.2 0.1953125 0
1.2 0.21875 0
1.2 0.2421875 0
1.2 0.265625 0
1.2 0.2890625 0
1.2 0.3125 0
1.2 0.3359375 0
1.2 0.359375 0
1.2 0.3828125 0
1.2 0.40625 0
1.2 0.4296875 0
1.2 0.453125 0
1.2 0.4765625 0
1.2 0.5 0
1.2 0.5234375 0
1.2 0.546875 0
1.2 0.5703125 0
1.2 0.59375 0
1.2 0.6171875 0
1.2 0.640625 0
1.2 0.6640625 0
1.2 0.6875 0
1.2 0.7109375 0
1.2 0.734375 0
1.2 0.7578125 0
1.2 0.78125 0
1.2 0.8046875 0
1.2 0.828125 0
1.2 0.8515625 0
1.2 0.875 0
1.2 0.8984375 0
1.2 0.921875 0
1.2 0.9453125 0
1.2 0.96875 0
1.2 0.9921875 0
1.2 1 0
1.2312500000000002 -0.25 0
1.2312500000000002 -0.15625 0
1.2312500000000002 -0.0625 0
1.2312500000000002 -0.015625 0
1.2312500000000002 0 0
1.2312500000000002 1 0
1.2312500000000002 1.015625 0
1.2312500000000002 1.0625 0
1.2312500000000002 1.15625 0
1.2312500000000002 1.25 0
1.2640625000000001 -0.015625 0
1.2640625000000001 0 0
1.2640625000000001 1 0
1.2640625000000001 1.015625 0
1.296875 -0.0625 0
1.296875 -0.015625 0
1.296875 0 0
1.296875 1 0
1.296875 1.015625 0
1.296875 1.0625 0
1.3296875000000001 -0.015625 0
1.3296875000000001 0 0
1.3296875000000001 1 0
1.3296875000000001 1.015625 0
1.3625 -0.625 0
1.3625 -0.4375 0
1.3625 -0.25 0
1.3625 -0.15625 0
1.3625 -0.0625 0
1.3625 -0.015625 0
1.3625 0 0
1.3625 1 0
1.3625 1.015625 0
1.3625 1.0625 0
1.3625 1.15625 0
1.3625 1.25 0
1.3625 1.4375 0
1.3625 1.625 0
1.3953125000000002 -0.015625 0
1.3953125000000002 0 0
1.3953125000000002 1 0
1.3953125000000002 1.015625 0
1.4281250000000001 -0.0625 0
1.4281250000000001 -0.015625 0
1.4281250000000001 0 0
1.4281250000000001 1 0
1.4281250000000001 1.015625 0
1.4281250000000001 1.0625 0
1.4609375 -0.015625 0
1.4609375 0 0
1.4609375 1 0
1.4609375 1.015625 0
1.4937500000000001 -0.25 0
1.4937500000000001 -0.15625 0
1.4937500000000001 -0.0625 0
1.4937500000000001 -0.015625 0
1.4937500000000001 0 0
1.4937500000000001 1 0
1.4937500000000001 1.015625 0
1.4937500000000001 1.0625 0
1.4937500000000001 1.15625 0
1.4937500000000001 1.25 0
1.5265625 -0.015625 0
1.5265625 0 0
1.5265625 1 0
1.5265625 1.015625 0
1.5593750000000002 -0.0625 0
1.5593750000000002 -0.015625 0
1.5593750000000002 0 0
1.5593750000000002 1 0
1.5593750000000002 1.015625 0
1.5593750000000002 1.0625 0
1.5921875000000001 -0.015625 0
1.5921875000000001 0 0
1.5921875000000001 1 0
1.5921875000000001 1.015625 0
1.625 -1 0
1.625 -0.625 0
1.625 -0.4375 0
1.625 -0.25 0
1.625 -0.15625 0
1.625 -0.0625 0
1.625 -0.015625 0
1.625 0 0
1.625 1 0
1.625 1.015625 0
1.625 1.0625 0
1.625 1.15625 0
1.625 1.25 0
1.625 1.4375 0
1.625 1.625 0
1.625 2 0
1.6578125000000001 -0.015625 0
1.6578125000000001 0 0
1.6578125000000001 1 0
1.6578125000000001 1.015625 0
1.690625 -0.0625 0
1.690625 -0.015625 0
1.690625 0 0
1.690625 1 0
1.690625 1.015625 0
1.690625 1.0625 0
1.7234375000000002 -0.015625 0
1.7234375000000002 0 0
1.7234375000000002 1 0
1.7234375000000002 1.015625 0
1.7562500000000001 -0.25 0
1.7562500000000001 -0.15625 0
1.7562500000000001 -0.0625 0
1.7562500000000001 -0.015625 0
1.7562500000000001 0 0
1.7562500000000001 1 0
1.7562500000000001 1.015625 0
1.7562500000000001 1.0625 0
1.7562500000000001 1.15625 0
1.7562500000000001 1.25 0
1.7890625000000002 -0.015625 0
1.7890625000000002 0 0
1.7890625000000002 1 0
1.7890625000000002 1.015625 0
1.8218750000000001 -0.0625 0
1.8218750000000001 -0.015625 0
1.8218750000000001 0 0
1.8218750000000001 1 0
1.8218750000000001 1.015625 0
1.8218750000000001 1.0625 0
1.8546875 -0.015625 0
1.8546875 0 0
1.8546875 1 0
1.8546875 1.015625 0
1.8875000000000002 -0.625 0
1.8875000000000002 -0.4375 0
1.8875000000000002 -0.25 0
1.8875000000000002 -0.15625 0
1.8875000000000002 -0.0625 0
1.8875000000000002 -0.015625 0
1.8875000000000002 0 0
1.8875000000000002 1 0
1.8875000000000002 1.015625 0
1.8875000000000002 1.0625 0
1.8875000000000002 1.15625 0
1.8875000000000002 1.25 0
1.8875000000000002 1.4375 0
1.8875000000000002 1.625 0
1.9203125000000001 -0.015625 0
1.9203125000000001 0 0
1.9203125000000001 1 0
1.9203125000000001 1.015625 0
1.9531250000000002 -0.0625 0
1.9531250000000002 -0.015625 0
1.9531250000000002 0 0
1.9531250000000002 1 0
1.9531250000000002 1.015625 0
1.9531250000000002 1.0625 0
1.9859375000000001 -0.015625 0
1.9859375000000001 0 0
1.9859375000000001 1 0
1.9859375000000001 1.015625 0
2.0187500000000003 -0.25 0
2.0187500000000003 -0.15625 0
2.0187500000000003 -0.0625 0
2.0187500000000003 -0.015625 0
2.0187500000000003 0 0
2.0187500000000003 1 0
2.0187500000000003 1.015625 0
2.0187500000000003 1.0625 0
2.0187500000000003 1.15625 0
2.0187500000000003 1.25 0
2.0515625000000002 -0.015625 0
2.0515625000000002 0 0
2.0515625000000002 1 0
2.0515625000000002 1.015625 0
2.0843750000000001 -0.0625 0
2.0843750000000001 -0.015625 0
2.0843750000000001 0 0
2.0843750000000001 1 0
2.0843750000000001 1.015625 0
2.0843750000000001 1.0625 0
2.1171875 -0.015625 0
2.1171875 0 0
2.1171875 1 0
2.1171875 1.015625 0
2.1500000000000004 -1 0
2.1500000000000004 -0.625 0
2.1500000000000004 -0.4375 0
2.1500000000000004 -0.25 0
2.1500000000000004 -0.15625 0
2.1500000000000004 -0.0625 0
2.1500000000000004 -0.015625 0
2.1500000000000004 0 0
2.1500000000000004 1 0
2.1500000000000004 1.015625 0
2.1500000000000004 1.0625 0
2.1500000000000004 1.15625 0
2.1500000000000004 1.25 0
2.1500000000000004 1.4375 0
2.1500000000000004 1.625 0
2.1500000000000004 2 0
2.1828125000000003 -0.015625 0
2.1828125000000003 0 0
2.1828125000000003 1 0
2.1828125000000003 1.015625 0
2.2000000000000002 0 0
2.2000000000000002 0.0078125 0
2.2000000000000002 0.03125 0
2.2000000000000002 0.0546875 0
2.2000000000000002 0.078125 0
2.2000000000000002 0.1015625 0
2.2000000000000002 0.125 0
2.2000000000000002 0.1484375 0
2.2000000000000002 0.171875 0
2.2000000000000002 0.1953125 0
2.2000000000000002 0.21875 0
2.2000000000000002 0.2421875 0
2.2000000000000002 0.265625 0
2.2000000000000002 0.2890625 0
2.2000000000000002 0.3125 0
2.2000000000000002 0.3359375 0
2.2000000000000002 0.359375 0
2.2000000000000002 0.3828125 0
2.2000000000000002 0.40625 0
2.2000000000000002 0.4296875 0
2.2000000000000002 0.453125 0
2.2000000000000002 0.4765625 0
2.2000000000000002 0.5 0
2.2000000000000002 0.5234375 0
2.2000000000000002 0.546875 0
2.2000000000000002 0.5703125 0
2.2000000000000002 0.59375 0
2.2000000000000002 0.6171875 0
2.2000000000000002 0.640625 0
2.2000000000000002 0.6640625 0
2.2000000000000002 0.6875 0
2.2000000000000002 0.7109375 0
2.2000000000000002 0.734375 0
2.2000000000000002 0.7578125 0
2.2000000000000002 0.78125 0
2.2000000000000002 0.8046875 0
2.2000000000000002 0.828125 0
2.2000000000000002 0.8515625 0
2.2000000000000002 0.875 0
2.2000000000000002 0.8984375 0
2.2000000000000002 0.921875 0
2.2000000000000002 0.9453125 0
2.2000000000000002 0.96875 0
2.2000000000000002 0.9921875 0
2.2000000000000002 1 0
2.2156250000000002 -0.0625 0
2.2156250000000002 -0.015625 0
2.2156250000000002 0.0078125 0
2.2156250000000002 0.03125 0
2.2156250000000002 0.0546875 0
2.2156250000000002 0.078125 0
2.2156250000000002 0.1015625 0
2.2156250000000002 0.125 0
2.2156250000000002 0.1484375 0
2.2156250000000002 0.171875 0
2.2156250000000002 0.1953125 0
2.2156250000000002 0.21875 0
2.2156250000000002 0.2421875 0
2.2156250000000002 0.265625 0
2.2156250000000002 0.2890625 0
2.2156250000000002 0.3125 0
2.2156250000000002 0.3359375 0
2.2156250000000002 0.359375 0
2.2156250000000002 0.3828125 0
2.2156250000000002 0.40625 0
2.2156250000000002 0.4296875 0
2.2156250000000002 0.453125 0
2.2156250000000002 0.4765625 0
2.2156250000000002 0.5 0
2.2156250000000002 0.5234375 0
2.2156250000000002 0.546875 0
2.2156250000000002 0.5703125 0
2.2156250000000002 0.59375 0
2.2156250000000002 0.6171875 0
2.2156250000000002 0.640625 0
2.2156250000000002 0.6640625 0
2.2156250000000002 0.6875 0
2.2156250000000002 0.7109375 0
2.2156250000000002 0.734375 0
2.2156250000000002 0.7578125 0
2.2156250000000002 0.78125 0
2.2156250000000002 0.8046875 0
2.2156250000000002 0.828125 0
2.2156250000000002 0.8515625 0
2.2156250000000002 0.875 0
2.2156250000000002 0.8984375 0
2.2156250000000002 0.921875 0
2.2156250000000002 0.9453125 0
2.2156250000000002 0.96875 0
2.2156250000000002 0.9921875 0
2.2156250000000002 1.015625 0
2.2156250000000002 1.0625 0
2.28125 -0.25 0
2.28125 -0.15625 0
2.28125 -0.0625 0
2.28125 -0.015625 0
2.28125 0.03125 0
2.28125 0.078125 0
2.28125 0.125 0
2.28125 0.171875 0
2.28125 0.21875 0
2.28125 0.265625 0
2.28125 0.3125 0
2.28125 0.359375 0
2.28125 0.40625 0
2.28125 0.453125 0
2.28125 0.5 0
2.28125 0.546875 0
2.28125 0.59375 0
2.28125 0.640625 0
2.28125 0.6875 0
2.28125 0.734375 0
2.28125 0.78125 0
2.28125 0.828125 0
2.28125 0.875 0
2.28125 0.921875 0
2.28125 0.96875 0
2.28125 1.015625 0
2.28125 1.0625 0
2.28125 1.15625 0
2.28125 1.25 0
2.4125000000000001 -0.625 0
2.4125000000000001 -0.4375 0
2.4125000000000001 -0.25 0
2.4125000000000001 -0.15625 0
2.4125000000000001 -0.0625 0
2.4125000000000001 0.03125 0
2.4125000000000001 0.125 0
2.4125000000000001 0.21875 0
2.4125000000000001 0.3125 0
2.4125000000000001 0.40625 0
2.4125000000000001 0.5 0
2.4125000000000001 0.59375 0
2.4125000000000001 0.6875 0
2.4125000000000001 0.78125 0
2.4125000000000001 0.875 0
2.4125000000000001 0.96875 0
2.4125000000000001 1.0625 0
2.4125000000000001 1.15625 0
2.4125000000000001 1.25 0
2.4125000000000001 1.4375 0
2.4125000000000001 1.625 0
2.6750000000000003 -1 0
2.6750000000000003 -0.625 0
2.6750000000000003 -0.4375 0
2.6750000000000003 -0.25 0
2.6750000000000003 -0.0625 0
2.6750000000000003 0.125 0
2.6750000000000003 0.3125 0
2.6750000000000003 0.5 0
2.6750000000000003 0.6875 0
2.6750000000000003 0.875 0
2.6750000000000003 1.0625 0
2.6750000000000003 1.25 0
2.6750000000000003 1.4375 0
2.6750000000000003 1.625 0
2.6750000000000003 2 0
3.2000000000000002 -1 0
3.2000000000000002 -0.625 0
3.2000000000000002 -0.25 0
3.2000000000000002 0.125 0
3.2000000000000002 0.5 0
3.2000000000000002 0.875 0
3.2000000000000002 1.25 0
3.2000000000000002 1.625 0
3.2000000000000002 2 0
CELLS 652 3552
4 0 9 10 1
5 9 170 171 24 10
5 1 10 11 12 2
5 170 276 277 224 171
5 276 464 465 330 277
5 2 12 13 14 3
5 3 14 15 16 4
4 10 24 25 11
4 24 171 172 25
4 11 25 26 12
5 25 172 173 45 26
5 464 671 672 619 465
5 671 777 778 725 672
5 777 939 940 918 778
4 939 954 955 940
5 940 955 956 942 941
4 171 224 225 172
4 224 277 278 225
5 172 225 226 200 173
5 225 278 279 252 226
4 277 330 331 278
5 942 956 957 944 943
4 330 465 466 331
5 278 331 332 306 279
5 944 957 958 946 945
5 331 466 467 358 332
5 4 16 17 18 5
5 5 18 19 20 6
5 12 26 27 28 13
5 13 28 29 30 14
5 6 20 21 22 7
4 7 22 23 8
5 22 44 184 185 23
5 14 30 31 32 15
5 184 237 290 291 185
5 15 32 33 34 16
5 290 343 497 498 291
5 946 958 959 948 947
5 948 959 960 950 949
5 497 632 685 686 498
5 685 738 791 792 686
5 950 960 961 952 951
5 791 938 952 953 792
4 952 961 962 953
4 465 619 620 466
4 619 672 673 620
5 466 620 621 595 467
5 620 673 674 647 621
4 672 725 726 673
4 725 778 779 726
5 673 726 727 701 674
5 726 779 780 753 727
4 778 918 919 779
4 918 940 941 919
5 779 919 920 889 780
4 919 941 942 920
5 920 942 943 922 921
5 922 943 944 924 923
5 924 944 945 926 925
5 926 945 946 928 927
5 16 34 35 36 17
5 17 36 37 38 18
5 18 38 39 40 19
5 19 40 41 42 20
4 26 45 46 27
4 45 173 174 46
4 27 46 47 28
5 46 174 175 74 47
5 28 47 48 49 29
5 29 49 50 51 30
4 20 42 43 21
5 42 73 182 183 43
4 21 43 44 22
4 43 183 184 44
5 182 209 235 236 183
5 235 261 288 289 236
4 183 236 237 184
4 236 289 290 237
5 288 315 341 342 289
5 30 51 52 53 31
5 341 367 495 496 342
4 289 342 343 290
5 31 53 54 55 32
4 342 496 497 343
5 32 55 56 57 33
5 33 57 58 59 34
4 173 200 201 174
4 200 226 227 201
5 174 201 202 190 175
5 201 227 228 214 202
4 226 252 253 227
4 252 279 280 253
5 227 253 254 242 228
5 253 280 281 266 254
4 279 306 307 280
5 928 946 947 930 929
4 306 332 333 307
5 280 307 308 296 281
5 930 947 948 932 931
5 307 333 334 320 308
4 332 358 359 333
4 358 467 468 359
5 333 359 360 348 334
5 359 468 469 417 360
5 932 948 949 934 933
5 934 949 950 936 935
5 495 604 630 631 496
5 630 656 683 684 631
4 496 631 632 497
4 631 684 685 632
5 683 710 736 737 684
5 736 762 789 790 737
4 684 737 738 685
4 737 790 791 738
5 789 917 936 937 790
4 936 950 951 937
4 790 937 938 791
4 937 951 952 938
4 467 595 596 468
4 595 621 622 596
5 468 596 597 499 469
5 596 622 623 609 597
4 621 647 648 622
4 647 674 675 648
5 622 648 649 637 623
5 648 675 676 661 649
4 674 701 702 675
4 701 727 728 702
5 675 702 703 691 676
5 702 728 729 715 703
4 727 753 754 728
4 753 780 781 754
5 728 754 755 743 729
5 754 781 782 767 755
4 780 889 890 781
4 889 920 921 890
5 781 890 891 842 782
4 890 921 922 891
5 891 922 923 893 892
5 893 923 924 895 894
5 895 924 925 897 896
5 897 925 926 899 898
5 899 926 927 901 900
5 901 927 928 903 902
5 34 59 60 61 35
5 35 61 62 63 36
5 36 63 64 65 37
5 37 65 66 67 38
5 38 67 68 69 39
5 39 69 70 71 40
4 40 71 72 41
5 71 120 180 181 72
4 41 72 73 42
4 72 181 182 73
5 180 195 207 208 181
5 207 219 233 234 208
4 181 208 209 182
4 208 234 235 209
5 233 247 259 260 234
5 259 271 286 287 260
4 234 260 261 235
4 260 287 288 261
4 47 74 75 48
5 74 175 176 166 75
5 48 75 76 77 49
5 286 301 313 314 287
5 313 325 339 340 314
4 287 314 315 288
4 314 340 341 315
5 339 353 365 366 340
5 49 77 78 79 50
5 365 463 493 494 366
4 340 366 367 341
5 50 79 80 81 51
4 366 494 495 367
5 51 81 82 83 52
5 52 83 84 85 53
5 53 85 86 87 54
5 54 87 88 89 55
5 55 89 90 91 56
5 56 91 92 93 57
5 57 93 94 95 58
5 58 95 96 97 59
5 175 190 191 186 176
5 190 202 203 196 191
5 202 214 215 210 203
5 214 228 229 220 215
5 493 545 602 603 494
5 602 614 628 629 603
4 494 603 604 495
4 603 629 630 604
5 628 642 654 655 629
5 654 666 681 682 655
4 629 655 656 630
4 655 682 683 656
5 228 242 243 238 229
5 242 254 255 248 243
5 254 266 267 262 255
5 266 281 282 272 267
5 681 696 708 709 682
5 708 720 734 735 709
4 682 709 710 683
4 709 735 736 710
5 734 748 760 761 735
5 760 772 787 788 761
4 735 761 762 736
4 761 788 789 762
5 903 928 929 905 904
5 905 929 930 907 906
5 907 930 931 909 908
5 909 931 932 911 910
5 281 296 297 292 282
5 911 932 933 913 912
5 296 308 309 302 297
5 913 933 934 915 914
5 308 320 321 316 309
5 320 334 335 326 321
5 787 888 915 916 788
4 915 934 935 916
4 788 916 917 789
4 916 935 936 917
5 334 348 349 344 335
5 348 360 361 354 349
5 360 417 418 413 361
4 417 469 470 418
5 418 470 471 420 419
5 420 471 472 422 421
5 422 472 473 424 423
5 424 473 474 426 425
5 426 474 475 428 427
5 428 475 476 430 429
5 430 476 477 432 431
5 432 477 478 434 433
5 434 478 479 436 435
5 436 479 480 438 437
5 438 480 481 440 439
4 469 499 500 470
5 499 597 598 546 500
5 470 500 501 502 471
5 597 609 610 605 598
5 609 623 624 615 610
5 471 502 503 504 472
5 472 504 505 506 473
5 623 637 638 633 624
5 637 649 650 643 638
5 649 661 662 657 650
5 661 676 677 667 662
5 676 691 692 687 677
5 691 703 704 697 692
5 703 715 716 711 704
5 715 729 730 721 716
5 729 743 744 739 730
5 743 755 756 749 744
5 755 767 768 763 756
5 767 782 783 773 768
5 473 506 507 508 474
5 474 508 509 510 475
5 475 510 511 512 476
5 476 512 513 514 477
5 477 514 515 516 478
5 478 516 517 518 479
5 479 518 519 520 480
5 480 520 521 522 481
5 782 842 843 793 783
4 842 891 892 843
5 843 892 893 845 844
5 845 893 894 847 846
5 847 894 895 849 848
5 849 895 896 851 850
5 851 896 897 853 852
5 853 897 898 855 854
5 855 898 899 857 856
5 857 899 900 859 858
5 859 900 901 861 860
5 861 901 902 863 862
5 863 902 903 865 864
5 59 97 98 99 60
5 60 99 100 101 61
5 61 101 102 103 62
5 62 103 104 105 63
5 63 105 106 107 64
5 64 107 108 109 65
5 65 109 110 111 66
5 66 111 112 113 67
5 67 113 114 115 68
5 68 115 116 117 69
5 69 117 118 119 70
4 70 119 120 71
5 119 169 179 180 120
5 440 481 482 442 441
5 442 482 483 444 443
5 444 483 484 446 445
5 446 484 485 448 447
5 448 485 486 450 449
5 450 486 487 452 451
5 452 487 488 454 453
5 454 488 489 456 455
5 179 189 194 195 180
5 194 199 206 207 195
5 206 213 218 219 207
5 218 223 232 233 219
5 232 241 246 247 233
5 246 251 258 259 247
5 258 265 270 271 259
5 270 275 285 286 271
5 285 295 300 301 286
5 300 305 312 313 301
5 312 319 324 325 313
5 324 329 338 339 325
5 456 489 490 458 457
5 458 490 491 460 459
5 338 347 352 353 339
5 352 357 364 365 353
6 75 166 167 121 122 76
5 460 491 492 462 461
4 166 176 177 167
5 364 416 462 463 365
4 76 122 123 77
4 462 492 493 463
4 77 123 124 78
4 78 124 125 79
4 79 125 126 80
4 80 126 127 81
4 81 127 128 82
4 82 128 129 83
4 83 129 130 84
4 84 130 131 85
4 85 131 132 86
4 86 132 133 87
4 87 133 134 88
4 88 134 135 89
4 89 135 136 90
4 90 136 137 91
4 91 137 138 92
4 92 138 139 93
4 93 139 140 94
4 94 140 141 95
4 95 141 142 96
4 96 142 143 97
5 481 522 523 524 482
5 482 524 525 526 483
5 483 526 527 528 484
5 484 528 529 530 485
5 485 530 531 532 486
5 486 532 533 534 487
5 487 534 535 536 488
5 488 536 537 538 489
5 489 538 539 540 490
5 490 540 541 542 491
5 491 542 543 544 492
4 176 186 187 177
4 186 191 192 187
4 492 544 545 493
5 544 549 601 602 545
4 191 196 197 192
4 196 203 204 197
5 601 608 613 614 602
5 613 618 627 628 614
4 203 210 211 204
4 210 215 216 211
5 627 636 641 642 628
5 641 646 653 654 642
4 215 220 221 216
4 220 229 230 221
5 653 660 665 666 654
5 665 670 680 681 666
4 229 238 239 230
4 238 243 244 239
5 680 690 695 696 681
5 695 700 707 708 696
4 243 248 249 244
4 248 255 256 249
5 707 714 719 720 708
5 719 724 733 734 720
4 255 262 263 256
4 262 267 268 263
5 733 742 747 748 734
5 747 752 759 760 748
4 267 272 273 268
4 272 282 283 273
5 759 766 771 772 760
5 771 776 786 787 772
5 865 903 904 867 866
5 867 904 905 869 868
5 869 905 906 871 870
5 871 906 907 873 872
5 873 907 908 875 874
5 875 908 909 877 876
5 877 909 910 879 878
5 879 910 911 881 880
5 881 911 912 883 882
5 883 912 913 885 884
4 282 292 293 283
5 885 913 914 887 886
4 292 297 298 293
5 786 796 887 888 787
4 887 914 915 888
4 297 302 303 298
4 302 309 310 303
4 309 316 317 310
4 316 321 322 317
4 321 326 327 322
4 326 335 336 327
4 335 344 345 336
4 344 349 350 345
4 349 354 355 350
4 354 361 362 355
6 361 413 414 369 368 362
4 413 418 419 414
5 369 414 419 420 370
4 370 420 421 371
4 371 421 422 372
4 372 422 423 373
4 373 423 424 374
4 374 424 425 375
4 375 425 426 376
4 376 426 427 377
4 377 427 428 378
4 378 428 429 379
4 379 429 430 380
4 380 430 431 381
4 381 431 432 382
4 382 432 433 383
4 383 433 434 384
4 384 434 435 385
4 385 435 436 386
4 386 436 437 387
4 387 437 438 388
4 388 438 439 389
4 389 439 440 390
4 500 546 547 501
6 546 598 599 550 551 547
5 501 547 551 552 502
4 598 605 606 599
4 605 610 611 606
4 610 615 616 611
4 615 624 625 616
4 502 552 553 503
4 503 553 554 504
4 504 554 555 505
4 505 555 556 506
4 624 633 634 625
4 633 638 639 634
4 638 643 644 639
4 643 650 651 644
4 650 657 658 651
4 657 662 663 658
4 662 667 668 663
4 667 677 678 668
4 677 687 688 678
4 687 692 693 688
4 692 697 698 693
4 697 704 705 698
4 704 711 712 705
4 711 716 717 712
4 716 721 722 717
4 721 730 731 722
4 730 739 740 731
4 739 744 745 740
4 744 749 750 745
4 749 756 757 750
4 756 763 764 757
4 763 768 769 764
4 768 773 774 769
4 773 783 784 774
4 506 556 557 507
4 507 557 558 508
4 508 558 559 509
4 509 559 560 510
4 510 560 561 511
4 511 561 562 512
4 512 562 563 513
4 513 563 564 514
4 514 564 565 515
4 515 565 566 516
4 516 566 567 517
4 517 567 568 518
4 518 568 569 519
4 519 569 570 520
4 520 570 571 521
4 521 571 572 522
4 783 793 794 784
6 793 843 844 798 797 794
4 798 844 845 799
4 799 845 846 800
4 800 846 847 801
4 801 847 848 802
4 802 848 849 803
4 803 849 850 804
4 804 850 851 805
4 805 851 852 806
4 806 852 853 807
4 807 853 854 808
4 808 854 855 809
4 809 855 856 810
4 810 856 857 811
4 811 857 858 812
4 812 858 859 813
4 813 859 860 814
4 814 860 861 815
4 815 861 862 816
4 816 862 863 817
4 817 863 864 818
4 818 864 865 819
4 97 143 144 98
4 98 144 145 99
4 99 145 146 100
4 100 146 147 101
4 101 147 148 102
4 102 148 149 103
4 103 149 150 104
4 104 150 151 105
4 105 151 152 106
4 106 152 153 107
4 107 153 154 108
4 108 154 155 109
4 109 155 156 110
4 110 156 157 111
4 111 157 158 112
4 112 158 159 113
4 113 159 160 114
4 114 160 161 115
4 115 161 162 116
4 116 162 163 117
4 117 163 164 118
6 118 164 165 168 169 119
4 168 178 179 169
4 390 440 441 391
4 391 441 442 392
4 392 442 443 393
4 393 443 444 394
4 394 444 445 395
4 395 445 446 396
4 396 446 447 397
4 397 447 448 398
4 398 448 449 399
4 399 449 450 400
4 400 450 451 401
4 401 451 452 402
4 402 452 453 403
4 403 453 454 404
4 404 454 455 405
4 405 455 456 406
4 178 188 189 179
4 188 193 194 189
4 193 198 199 194
4 198 205 206 199
4 205 212 213 206
4 212 217 218 213
4 217 222 223 218
4 222 231 232 223
4 231 240 241 232
4 240 245 246 241
4 245 250 251 246
4 250 257 258 251
4 257 264 265 258
4 264 269 270 265
4 269 274 275 270
4 274 284 285 275
4 284 294 295 285
4 294 299 300 295
4 299 304 305 300
4 304 311 312 305
4 311 318 319 312
4 318 323 324 319
4 323 328 329 324
4 328 337 338 329
4 406 456 457 407
4 407 457 458 408
4 408 458 459 409
4 409 459 460 410
4 337 346 347 338
4 346 351 352 347
4 351 356 357 352
4 356 363 364 357
5 410 460 461 415 411
6 363 412 411 415 416 364
4 415 461 462 416
4 522 572 573 523
4 523 573 574 524
4 524 574 575 525
4 525 575 576 526
4 526 576 577 527
4 527 577 578 528
4 528 578 579 529
4 529 579 580 530
4 530 580 581 531
4 531 581 582 532
4 532 582 583 533
4 533 583 584 534
4 534 584 585 535
4 535 585 586 536
4 536 586 587 537
4 537 587 588 538
4 538 588 589 539
4 539 589 590 540
4 540 590 591 541
4 541 591 592 542
5 542 592 593 548 543
4 543 548 549 544
6 548 593 594 600 601 549
4 600 607 608 601
4 607 612 613 608
4 612 617 618 613
4 617 626 627 618
4 626 635 636 627
4 635 640 641 636
4 640 645 646 641
4 645 652 653 646
4 652 659 660 653
4 659 664 665 660
4 664 669 670 665
4 669 679 680 670
4 679 689 690 680
4 689 694 695 690
4 694 699 700 695
4 699 706 707 700
4 706 713 714 707
4 713 718 719 714
4 718 723 724 719
4 723 732 733 724
4 732 741 742 733
4 741 746 747 742
4 746 751 752 747
4 751 758 759 752
4 758 765 766 759
4 765 770 771 766
4 770 775 776 771
4 775 785 786 776
4 819 865 866 820
4 820 866 867 821
4 821 867 868 822
4 822 868 869 823
4 823 869 870 824
4 824 870 871 825
4 825 871 872 826
4 826 872 873 827
4 827 873 874 828
4 828 874 875 829
4 829 875 876 830
4 830 876 877 831
4 831 877 878 832
4 832 878 879 833
4 833 879 880 834
4 834 880 881 835
4 835 881 882 836
4 836 882 883 837
4 837 883 884 838
4 838 884 885 839
4 839 885 886 840
4 785 795 796 786
6 795 841 840 886 887 796
CELL_TYPES 652
7
7
7
7
7
7
7
7
7
7
7
7
7
7
7
7
7
7
7
7
7
7
7
7
7
7
7
7
7
7
7
7
7
7
7
7
7
7
7
7
7
7
7
7
7
7
7
7
7
7
7
7
7
7
7
7
7
7
7
7
7
7
7
7
7
7
7
7
7
7
7
7
7
7
7
7
7
7
7
7
7
7
7
7
7
7
7
7
7
7
7
7
7
7
7
7
7
7
7
7
7
7
7
7
7
7
7
7
7
7
7
7
7
7
7
7
7
7
7
7
7
7
7
7
7
7
7
7
7
7
7
7
7
7
7
7
7
7
7
7
7
7
7
7
7
7
7
7
7
7
7
7
7
7
7
7
7
7
7
7
7
7
7
7
7
7
7
7
7
7
7
7
7
7
7
7
7
7
7
7
7
7
7
7
7
7
7
7
7
7
7
7
7
7
7
7
7
7
7
7
7
7
7
7
7
7
7
7
7
7
7
7
7
7
7
7
7
7
7
7
7
7
7
7
7
7
7
7
7
7
7
7
7
7
7
7
7
7
7
7
7
7
7
7
7
7
7
7
7
7
7
7
7
7
7
7
7
7
7
7
7
7
7
7
7
7
7
7
7
7
7
7
7
7
7
7
7
7
7
7
7
7
7
7
7
7
7
7
7
7
7
7
7
7
7
7
7
7
7
7
7
7
7
7
7
7
7
7
7
7
7
7
7
7
7
7
7
7
7
7
7
7
7
7
7
7
7
7
7
7
7
7
7
7
7
7
7
7
7
7
7
7
7
7
7
7
7
7
7
7
7
7
7
7
7
7
7
7
7
7
7
7
7
7
7
7
7
7
7
7
7
7
7
7
7
7
7
7
7
7
7
7
7
7
7
7
7
7
7
7
7
7
7
7
7
7
7
7
7
7
7
7
7
7
7
7
7
7
7
7
7
7
7
7
7
7
7
7
7
7
7
7
7
7
7
7
7
7
7
7
7
7
7
7
7
7
7
7
7
7
7
7
7
7
7
7
7
7
7
7
7
7
7
7
7
7
7
7
7
7
7
7
7
7
7
7
7
7
7
7
7
7
7
7
7
7
7
7
7
7
7
7
7
7
7
7
7
7
7
7
7
7
7
7
7
7
7
7
7
7
7
7
7
7
7
7
7
7
7
7
7
7
7
7
7
7
7
7
7
7
7
7
7
7
7
7
7
7
7
7
7
7
7
7
7
7
7
7
7
7
7
7
7
7
7
7
7
7
7
7
7
7
7
7
7
7
7
7
7
7
7
7
7
7
7
7
7
7
7
7
7
7
7
7
7
7
7
7
7
7
7
7
7
7
7
7
7
7
7
7
7
7
7
7
7
7
7
7
7
7
7
7
7
7
7
7
7
7
7
7
7
7
7
7
7
7
7
7
7
7
7
7
7
7
7
7
7
7
7
7
7
7
7
7
7
7
7
7
7
7
7
7
7
7
7
7
7
7
7
7
7
7
CELL_DATA 652
SCALARS geometry_area double 1
LOOKUP_TABLE default
0.19687500000000002
0.19687500000000002
0.19687500000000002
0.19687500000000002
0.19687500000000002
0.19687500000000002
0.19687500000000002
0.049218750000000006
0.049218750000000006
0.049218750000000006
0.049218750000000006
0.19687499999999997
0.19687500000000013
0.19687499999999997
0.19687499999999997
0.19687499999999997
0.049218750000000006
0.049218750000000006
0.049218750000000006
0.049218750000000006
0.049218750000000012
0.19687499999999997
0.049218749999999992
0.049218750000000012
0.19687499999999997
0.049218749999999992
0.19687500000000002
0.19687500000000002
0.049218750000000006
0.049218750000000006
0.19687500000000002
0.19687500000000002
0.19687500000000002
0.049218750000000006
0.19687500000000002
0.049218750000000006
0.19687500000000002
0.19687499999999997
0.19687499999999997
0.19687499999999997
0.19687500000000013
0.19687499999999997
0.19687499999999997
0.19687499999999997
0.049218749999999992
0.049218749999999992
0.049218749999999992
0.049218749999999992
0.049218750000000033
0.049218750000000033
0.049218750000000033
0.049218750000000033
0.04921874999999995
0.049218750000000033
0.04921874999999995
0.049218750000000033
0.049218750000000033
0.049218750000000033
0.049218750000000033
0.049218750000000033
0.049218750000000006
0.049218750000000006
0.049218750000000006
0.049218750000000006
0.012304687500000001
0.012304687500000001
0.012304687500000001
0.012304687500000001
0.012304687500000001
0.012304687500000001
0.049218750000000006
0.049218750000000006
0.049218750000000006
0.049218750000000006
0.049218750000000006
0.049218750000000006
0.049218750000000006
0.049218750000000006
0.049218750000000012
0.012304687500000001
0.049218749999999992
0.049218750000000012
0.012304687500000001
0.049218749999999992
0.012304687500000001
0.012304687500000001
0.012304687500000001
0.012304687500000001
0.012304687500000001
0.012304687500000001
0.012304687500000003
0.012304687499999998
0.012304687500000003
0.012304687499999998
0.012304687499999998
0.049218750000000033
0.012304687500000008
0.012304687499999998
0.049218750000000033
0.012304687500000008
0.012304687499999998
0.012304687499999998
0.012304687499999998
0.012304687499999998
0.049218750000000033
0.049218750000000033
0.049218749999999992
0.049218749999999992
0.049218749999999992
0.049218749999999992
0.049218750000000033
0.049218750000000033
0.049218750000000033
0.049218750000000033
0.04921874999999995
0.049218750000000033
0.04921874999999995
0.049218750000000033
0.012304687500000008
0.012304687499999988
0.012304687500000008
0.012304687499999988
0.012304687500000008
0.012304687499999988
0.012304687500000008
0.012304687499999988
0.012304687500000008
0.012304687500000008
0.012304687500000008
0.012304687500000008
0.012304687500000008
0.012304687500000008
0.012304687500000008
0.012304687500000008
0.012304687499999967
0.012304687500000008
0.012304687499999967
0.012304687500000008
0.012304687500000008
0.012304687500000008
0.012304687500000008
0.012304687500000008
0.012304687500000008
0.012304687500000008
0.012304687500000001
0.012304687500000001
0.012304687500000001
0.012304687500000001
0.012304687500000001
0.012304687500000001
0.012304687500000001
0.012304687500000001
0.012304687500000001
0.012304687500000001
0.012304687500000001
0.012304687500000001
0.012304687500000001
0.012304687500000001
0.012304687500000003
0.012304687499999998
0.012304687500000003
0.012304687499999998
0.0030761718750000003
0.0030761718750000003
0.0030761718750000003
0.012304687499999998
0.012304687500000008
0.012304687499999998
0.012304687500000008
0.012304687499999998
0.0030761718750000003
0.012304687499999998
0.012304687499999998
0.0030761718750000003
0.012304687499999998
0.0030761718750000003
0.0030761718750000003
0.0030761718750000003
0.0030761718750000003
0.0030761718750000003
0.0030761718750000003
0.0030761718750000003
0.0030761718750000003
0.0030761718750000003
0.0030761718750000003
0.0030761718750000008
0.0030761718749999995
0.012304687500000008
0.012304687499999988
0.012304687500000008
0.012304687499999988
0.012304687500000008
0.012304687499999988
0.012304687500000008
0.012304687499999988
0.0030761718749999995
0.0030761718750000021
0.0030761718749999969
0.0030761718750000021
0.012304687500000008
0.012304687500000008
0.012304687500000008
0.012304687500000008
0.012304687500000008
0.012304687500000008
0.012304687500000008
0.012304687500000008
0.012304687500000008
0.012304687500000008
0.012304687500000008
0.012304687500000008
0.0030761718750000021
0.012304687500000008
0.0030761718749999969
0.012304687500000008
0.0030761718750000021
0.0030761718750000021
0.012304687499999967
0.012304687500000008
0.012304687499999967
0.012304687500000008
0.0030761718749999969
0.0030761718750000021
0.0030761718749999969
0.0030761718750000021
0.0030761718750000021
0.0030761718750000021
0.0030761718750000021
0.0030761718750000021
0.0030761718750000021
0.0030761718750000021
0.0030761718750000021
0.0030761718750000021
0.0030761718750000021
0.0030761718750000021
0.0030761718750000021
0.0030761718750000021
0.0030761718750000021
0.0030761718750000021
0.0030761718749999917
0.0030761718750000021
0.0030761718750000021
0.0030761718750000021
0.0030761718750000021
0.0030761718750000021
0.0030761718750000021
0.0030761718749999917
0.0030761718750000021
0.0030761718750000021
0.0030761718750000021
0.0030761718750000021
0.0030761718750000021
0.0030761718750000021
0.0030761718749999917
0.0030761718750000125
0.0030761718750000021
0.0030761718750000021
0.0030761718750000021
0.0030761718750000021
0.0030761718750000021
0.0030761718750000021
0.0030761718750000021
0.0030761718750000021
0.0030761718749999917
0.0030761718749999917
0.0030761718749999917
0.0030761718749999917
0.0030761718749999917
0.0030761718749999917
0.0030761718749999917
0.0030761718749999917
0.0030761718749999917
0.0030761718749999917
0.0030761718749999917
0.0030761718749999917
0.0030761718749999917
0.0030761718750000003
0.0030761718750000003
0.0030761718750000003
0.0030761718750000003
0.0030761718750000003
0.0030761718750000003
0.0030761718750000003
0.0030761718750000003
0.0030761718750000003
0.0030761718750000003
0.0030761718750000003
0.0030761718750000003
0.0030761718750000003
0.0030761718750000021
0.0030761718750000021
0.0030761718750000021
0.0030761718750000021
0.0030761718750000021
0.0030761718750000021
0.0030761718750000021
0.0030761718750000021
0.0030761718750000003
0.0030761718750000003
0.0030761718750000008
0.0030761718749999995
0.0030761718749999995
0.0030761718750000021
0.0030761718749999969
0.0030761718750000021
0.0030761718750000021
0.0030761718749999969
0.0030761718750000021
0.0030761718750000021
0.0030761718750000021
0.0030761718750000021
0.0030761718749999969
0.0030761718750000021
0.0006347656249999997
0.0030761718750000021
0.00051269531250000002
0.0030761718749999969
0.00036621093749999902
0.0030761718750000021
0.00036621093749999902
0.00036621093749999902
0.00036621093749999902
0.00036621093749999902
0.00036621093749999902
0.00036621093749999902
0.00036621093749999902
0.00036621093749999902
0.00036621093749999902
0.00036621093749999902
0.00036621093749999902
0.00036621093749999902
0.00036621093749999902
0.00036621093749999902
0.00036621093749999902
0.00036621093749999902
0.00036621093749999902
0.00036621093749999902
0.00036621093749999902
0.00036621093749999902
0.0030761718750000021
0.0030761718750000021
0.0030761718750000021
0.0030761718750000021
0.0030761718750000021
0.0030761718750000021
0.0030761718750000021
0.0030761718750000021
0.0030761718750000021
0.0030761718750000021
0.0030761718750000021
0.00051269531249999991
0.00051269531250000013
0.0030761718750000021
0.0030761718750000021
0.00051269531250000013
0.00051269531249999991
0.0030761718749999917
0.0030761718750000021
0.00051269531249999991
0.00051269531250000035
0.0030761718750000021
0.0030761718750000021
0.00051269531249999948
0.00051269531250000035
0.0030761718750000021
0.0030761718749999917
0.00051269531250000035
0.00051269531249999948
0.0030761718750000021
0.0030761718750000021
0.00051269531250000035
0.00051269531250000035
0.0030761718750000021
0.0030761718750000021
0.00051269531249999948
0.00051269531249999948
0.0030761718750000021
0.0030761718750000021
0.00051269531250000035
0.00051269531250000035
0.0030761718749999917
0.0030761718750000125
0.0030761718749999917
0.0030761718749999917
0.0030761718749999917
0.0030761718749999917
0.0030761718749999917
0.0030761718749999917
0.0030761718749999917
0.0030761718749999917
0.0030761718749999917
0.0030761718749999917
0.00051269531250000035
0.0030761718749999917
0.00051269531250000035
0.0030761718749999917
0.0030761718749999917
0.00051269531249999861
0.00051269531250000035
0.00051269531250000035
0.00051269531250000035
0.00051269531250000035
0.00051269531250000035
0.00051269531249999861
0.00051269531250000035
0.00051269531250000035
0.00051269531250000035
0.00052490234375000139
0.00076904296874999792
0.00080566406250000104
0.00080566406250000104
0.00080566406250000104
0.00080566406250000104
0.00080566406250000104
0.00080566406250000104
0.00080566406250000104
0.00080566406250000104
0.00080566406250000104
0.00080566406250000104
0.00080566406250000104
0.00080566406250000104
0.00080566406250000104
0.00080566406250000104
0.00080566406250000104
0.00080566406250000104
0.00080566406250000104
0.00080566406250000104
0.00080566406250000104
0.00080566406250000104
0.00080566406250000104
0.00076904296874999792
0.00052490234375000139
0.00080566406249999584
0.00051269531249999861
0.00051269531249999861
0.00051269531250000208
0.00051269531249999861
0.00080566406249999584
0.00080566406249999584
0.00080566406249999584
0.00080566406249999584
0.00051269531250000208
0.00051269531249999861
0.00051269531249999861
0.00051269531250000208
0.00051269531249999861
0.00051269531250000208
0.00051269531249999861
0.00051269531249999861
0.00051269531250000208
0.00051269531249999861
0.00051269531250000208
0.00051269531249999861
0.00051269531250000208
0.00051269531249999861
0.00051269531249999861
0.00051269531250000208
0.00051269531249999861
0.00051269531250000208
0.00051269531249999861
0.00051269531250000208
0.00051269531249999861
0.00051269531249999861
0.00051269531249999861
0.00051269531250000555
0.00080566406249999584
0.00080566406249999584
0.00080566406249999584
0.00080566406249999584
0.00080566406249999584
0.00080566406249999584
0.00080566406249999584
0.00080566406249999584
0.00080566406249999584
0.00080566406249999584
0.00080566406249999584
0.00080566406249999584
0.00080566406249999584
0.00080566406249999584
0.00080566406249999584
0.00080566406249999584
0.00051269531249999861
0.00063476562499999861
0.0003662109375
0.0003662109375
0.0003662109375
0.0003662109375
0.0003662109375
0.0003662109375
0.0003662109375
0.0003662109375
0.0003662109375
0.0003662109375
0.0003662109375
0.0003662109375
0.0003662109375
0.0003662109375
0.0003662109375
0.0003662109375
0.0003662109375
0.0003662109375
0.0003662109375
0.0003662109375
0.0003662109375
0.00036621093749999902
0.00036621093749999902
0.00036621093749999902
0.00036621093749999902
0.00036621093749999902
0.00036621093749999902
0.00036621093749999902
0.00036621093749999902
0.00036621093749999902
0.00036621093749999902
0.00036621093749999902
0.00036621093749999902
0.00036621093749999902
0.00036621093749999902
0.00036621093749999902
0.00036621093749999902
0.00036621093749999902
0.00036621093749999902
0.00036621093749999902
0.00036621093749999902
0.00036621093749999902
0.0006347656249999997
0.00051269531250000002
0.00080566406250000104
0.00080566406250000104
0.00080566406250000104
0.00080566406250000104
0.00080566406250000104
0.00080566406250000104
0.00080566406250000104
0.00080566406250000104
0.00080566406250000104
0.00080566406250000104
0.00080566406250000104
0.00080566406250000104
0.00080566406250000104
0.00080566406250000104
0.00080566406250000104
0.00080566406250000104
0.00051269531249999991
0.00051269531250000013
0.00051269531250000013
0.00051269531249999991
0.00051269531249999991
0.00051269531250000035
0.00051269531249999948
0.00051269531250000035
0.00051269531250000035
0.00051269531249999948
0.00051269531250000035
0.00051269531250000035
0.00051269531249999948
0.00051269531249999948
0.00051269531250000035
0.00051269531250000035
0.00051269531250000035
0.00051269531250000035
0.00051269531249999861
0.00051269531250000035
0.00051269531250000035
0.00051269531250000035
0.00051269531250000035
0.00051269531250000035
0.00080566406250000104
0.00080566406250000104
0.00080566406250000104
0.00080566406250000104
0.00051269531249999861
0.00051269531250000035
0.00051269531250000035
0.00051269531250000035
0.00080566406250000104
0.00052490234375000139
0.00076904296874999792
0.00080566406249999584
0.00080566406249999584
0.00080566406249999584
0.00080566406249999584
0.00080566406249999584
0.00080566406249999584
0.00080566406249999584
0.00080566406249999584
0.00080566406249999584
0.00080566406249999584
0.00080566406249999584
0.00080566406249999584
0.00080566406249999584
0.00080566406249999584
0.00080566406249999584
0.00080566406249999584
0.00080566406249999584
0.00080566406249999584
0.00080566406249999584
0.00080566406249999584
0.00080566406249999584
0.00076904296874999792
0.00052490234375000139
0.00051269531249999861
0.00051269531249999861
0.00051269531250000208
0.00051269531249999861
0.00051269531250000208
0.00051269531249999861
0.00051269531249999861
0.00051269531250000208
0.00051269531249999861
0.00051269531250000208
0.00051269531249999861
0.00051269531249999861
0.00051269531250000208
0.00051269531249999861
0.00051269531250000208
0.00051269531249999861
0.00051269531250000208
0.00051269531249999861
0.00051269531249999861
0.00051269531250000208
0.00051269531249999861
0.00051269531250000208
0.00051269531249999861
0.00051269531250000208
0.00051269531249999861
0.00051269531249999861
0.00051269531249999861
0.00051269531250000555
0.0003662109375
0.0003662109375
0.0003662109375
0.0003662109375
0.0003662109375
0.0003662109375
0.0003662109375
0.0003662109375
0.0003662109375
0.0003662109375
0.0003662109375
0.0003662109375
0.0003662109375
0.0003662109375
0.0003662109375
0.0003662109375
0.0003662109375
0.0003662109375
0.0003662109375
0.0003662109375
0.0003662109375
0.00051269531249999861
0.00063476562499999861
SCALARS source_id unsigned_long 1
LOOKUP_TABLE default
0
1
2
3
4
5
6
7
8
9
10
11
12
13
14
15
16
17
18
19
20
21
22
23
24
25
26
27
28
29
30
31
32
33
34
35
36
37
38
39
40
41
42
43
44
45
46
47
48
49
50
51
52
53
54
55
56
57
58
59
60
61
62
63
64
65
66
67
68
69
70
71
72
73
74
75
76
77
78
79
80
81
82
83
84
85
86
87
88
89
90
91
92
93
94
95
96
97
98
99
100
101
102
103
104
105
106
107
108
109
110
111
112
113
114
115
116
117
118
119
120
121
122
123
124
125
126
127
128
129
130
131
132
133
134
135
136
137
138
139
140
141
142
143
144
145
146
147
148
149
150
151
152
153
154
155
156
157
158
159
160
161
162
163
164
165
166
167
168
169
170
171
172
173
174
175
176
177
178
179
180
181
182
183
184
185
186
187
188
189
190
191
192
193
194
195
196
197
198
199
200
201
202
203
204
205
206
207
208
209
210
211
212
213
214
215
216
217
218
219
220
221
222
223
224
225
226
227
228
229
230
231
232
233
234
235
236
237
238
239
240
241
242
243
244
245
246
247
248
249
250
251
252
253
254
255
256
257
258
259
260
261
262
263
264
265
266
267
268
269
270
271
272
273
274
275
276
277
278
279
280
281
282
283
284
285
286
287
288
289
290
291
292
293
294
295
296
297
298
299
300
301
302
303
304
305
306
307
308
309
310
311
312
313
314
315
316
317
318
319
320
321
322
323
324
325
326
327
328
329
330
331
332
333
334
335
336
337
338
339
340
341
342
343
344
345
346
347
348
349
350
351
352
353
354
355
356
357
358
359
360
361
362
363
364
365
366
367
368
369
370
371
372
373
374
375
376
377
378
379
380
381
382
383
384
385
386
387
388
389
390
391
392
393
394
395
396
397
398
399
400
401
402
403
404
405
406
407
408
409
410
411
412
413
414
415
416
417
418
419
420
421
422
423
424
425
426
427
428
429
430
431
432
433
434
435
436
437
438
439
440
441
442
443
444
445
446
447
448
449
450
451
452
453
454
455
456
457
458
459
460
461
462
463
464
465
466
467
468
469
470
471
472
473
474
475
476
477
478
479
480
481
482
483
484
485
486
487
488
489
490
491
492
493
494
495
496
497
498
499
500
501
502
503
504
505
506
507
508
509
510
511
512
513
514
515
516
517
518
519
520
521
522
523
524
525
526
527
528
529
530
531
532
533
534
535
536
537
538
539
540
541
542
543
544
545
546
547
548
549
550
551
552
553
554
555
556
557
558
559
560
561
562
563
564
565
566
567
568
569
570
571
572
573
574
575
576
577
578
579
580
581
582
583
584
585
586
587
588
589
590
591
592
593
594
595
596
597
598
599
600
601
602
603
604
605
606
607
608
609
610
611
612
613
614
615
616
617
618
619
620
621
622
623
624
625
626
627
628
629
630
631
632
633
634
635
636
637
638
639
640
641
642
643
644
645
646
647
648
649
650
651
