solid cube_shift1e9
facet normal 0 0 -1
  outer loop
    vertex 1000000000 1000000000 1000000000
    vertex 1000000001 1000000001 1000000000
    vertex 1000000001 1000000000 1000000000
  endloop
endfacet
facet normal 0 0 -1
  outer loop
    vertex 1000000000 1000000000 1000000000
    vertex 1000000000 1000000001 1000000000
    vertex 1000000001 1000000001 1000000000
  endloop
endfacet
facet normal 0 0 1
  outer loop
    vertex 1000000000 1000000000 1000000001
    vertex 1000000001 1000000000 1000000001
    vertex 1000000001 1000000001 1000000001
  endloop
endfacet
facet normal 0 0 1
  outer loop
    vertex 1000000000 1000000000 1000000001
    vertex 1000000001 1000000001 1000000001
    vertex 1000000000 1000000001 1000000001
  endloop
endfacet
facet normal 0 -1 0
  outer loop
    vertex 1000000000 1000000000 1000000000
    vertex 1000000001 1000000000 1000000000
    vertex 1000000001 1000000000 1000000001
  endloop
endfacet
facet normal 0 -1 0
  outer loop
    vertex 1000000000 1000000000 1000000000
    vertex 1000000001 1000000000 1000000001
    vertex 1000000000 1000000000 1000000001
  endloop
endfacet
facet normal 0 1 0
  outer loop
    vertex 1000000000 1000000001 1000000000
    vertex 1000000000 1000000001 1000000001
    vertex 1000000001 1000000001 1000000001
  endloop
endfacet
facet normal 0 1 0
  outer loop
    vertex 1000000000 1000000001 1000000000
    vertex 1000000001 1000000001 1000000001
    vertex 1000000001 1000000001 1000000000
  endloop
endfacet
facet normal -1 0 0
  outer loop
    vertex 1000000000 1000000000 1000000000
    vertex 1000000000 1000000000 1000000001
    vertex 1000000000 1000000001 1000000001
  endloop
endfacet
facet normal -1 0 0
  outer loop
    vertex 1000000000 1000000000 1000000000
    vertex 1000000000 1000000001 1000000001
    vertex 1000000000 1000000001 1000000000
  endloop
endfacet
facet normal 1 0 0
  outer loop
    vertex 1000000001 1000000000 1000000000
    vertex 1000000001 1000000001 1000000000
    vertex 1000000001 1000000001 1000000001
  endloop
endfacet
facet normal 1 0 0
  outer loop
    vertex 1000000001 1000000000 1000000000
    vertex 1000000001 1000000001 1000000001
    vertex 1000000001 1000000000 1000000001
  endloop
endfacet
endsolid cube_shift1e9
