solid sliver_tetrahedron
facet normal 0 0 -1
  outer loop
    vertex 0 0 0
    vertex 0 9.9999999999999995e-21 0
    vertex 1 0 0
  endloop
endfacet
facet normal 0 -1 0
  outer loop
    vertex 0 0 0
    vertex 1 0 0
    vertex 0 0 1
  endloop
endfacet
facet normal -1 0 0
  outer loop
    vertex 0 0 0
    vertex 0 0 1
    vertex 0 9.9999999999999995e-21 0
  endloop
endfacet
facet normal 9.9999999999999995e-21 1 9.9999999999999995e-21
  outer loop
    vertex 1 0 0
    vertex 0 9.9999999999999995e-21 0
    vertex 0 0 1
  endloop
endfacet
endsolid sliver_tetrahedron
