solid thin_shell_wall005
  facet normal 0 0 0
    outer loop
      vertex 0 0 0
      vertex 1 1 0
      vertex 1 0 0
    endloop
  endfacet
  facet normal 0 0 0
    outer loop
      vertex 0 0 0
      vertex 0 1 0
      vertex 1 1 0
    endloop
  endfacet
  facet normal 0 0 0
    outer loop
      vertex 0 0 1
      vertex 1 0 1
      vertex 1 1 1
    endloop
  endfacet
  facet normal 0 0 0
    outer loop
      vertex 0 0 1
      vertex 1 1 1
      vertex 0 1 1
    endloop
  endfacet
  facet normal 0 0 0
    outer loop
      vertex 0 0 0
      vertex 1 0 0
      vertex 1 0 1
    endloop
  endfacet
  facet normal 0 0 0
    outer loop
      vertex 0 0 0
      vertex 1 0 1
      vertex 0 0 1
    endloop
  endfacet
  facet normal 0 0 0
    outer loop
      vertex 0 1 0
      vertex 0 1 1
      vertex 1 1 1
    endloop
  endfacet
  facet normal 0 0 0
    outer loop
      vertex 0 1 0
      vertex 1 1 1
      vertex 1 1 0
    endloop
  endfacet
  facet normal 0 0 0
    outer loop
      vertex 0 0 0
      vertex 0 0 1
      vertex 0 1 1
    endloop
  endfacet
  facet normal 0 0 0
    outer loop
      vertex 0 0 0
      vertex 0 1 1
      vertex 0 1 0
    endloop
  endfacet
  facet normal 0 0 0
    outer loop
      vertex 1 0 0
      vertex 1 1 0
      vertex 1 1 1
    endloop
  endfacet
  facet normal 0 0 0
    outer loop
      vertex 1 0 0
      vertex 1 1 1
      vertex 1 0 1
    endloop
  endfacet
  facet normal 0 0 0
    outer loop
      vertex 0.050000000000000003 0.050000000000000003 0.050000000000000003
      vertex 0.94999999999999996 0.050000000000000003 0.050000000000000003
      vertex 0.94999999999999996 0.94999999999999996 0.050000000000000003
    endloop
  endfacet
  facet normal 0 0 0
    outer loop
      vertex 0.050000000000000003 0.050000000000000003 0.050000000000000003
      vertex 0.94999999999999996 0.94999999999999996 0.050000000000000003
      vertex 0.050000000000000003 0.94999999999999996 0.050000000000000003
    endloop
  endfacet
  facet normal 0 0 0
    outer loop
      vertex 0.050000000000000003 0.050000000000000003 0.94999999999999996
      vertex 0.94999999999999996 0.94999999999999996 0.94999999999999996
      vertex 0.94999999999999996 0.050000000000000003 0.94999999999999996
    endloop
  endfacet
  facet normal 0 0 0
    outer loop
      vertex 0.050000000000000003 0.050000000000000003 0.94999999999999996
      vertex 0.050000000000000003 0.94999999999999996 0.94999999999999996
      vertex 0.94999999999999996 0.94999999999999996 0.94999999999999996
    endloop
  endfacet
  facet normal 0 0 0
    outer loop
      vertex 0.050000000000000003 0.050000000000000003 0.050000000000000003
      vertex 0.94999999999999996 0.050000000000000003 0.94999999999999996
      vertex 0.94999999999999996 0.050000000000000003 0.050000000000000003
    endloop
  endfacet
  facet normal 0 0 0
    outer loop
      vertex 0.050000000000000003 0.050000000000000003 0.050000000000000003
      vertex 0.050000000000000003 0.050000000000000003 0.94999999999999996
      vertex 0.94999999999999996 0.050000000000000003 0.94999999999999996
    endloop
  endfacet
  facet normal 0 0 0
    outer loop
      vertex 0.050000000000000003 0.94999999999999996 0.050000000000000003
      vertex 0.94999999999999996 0.94999999999999996 0.94999999999999996
      vertex 0.050000000000000003 0.94999999999999996 0.94999999999999996
    endloop
  endfacet
  facet normal 0 0 0
    outer loop
      vertex 0.050000000000000003 0.94999999999999996 0.050000000000000003
      vertex 0.94999999999999996 0.94999999999999996 0.050000000000000003
      vertex 0.94999999999999996 0.94999999999999996 0.94999999999999996
    endloop
  endfacet
  facet normal 0 0 0
    outer loop
      vertex 0.050000000000000003 0.050000000000000003 0.050000000000000003
      vertex 0.050000000000000003 0.94999999999999996 0.94999999999999996
      vertex 0.050000000000000003 0.050000000000000003 0.94999999999999996
    endloop
  endfacet
  facet normal 0 0 0
    outer loop
      vertex 0.050000000000000003 0.050000000000000003 0.050000000000000003
      vertex 0.050000000000000003 0.94999999999999996 0.050000000000000003
      vertex 0.050000000000000003 0.94999999999999996 0.94999999999999996
    endloop
  endfacet
  facet normal 0 0 0
    outer loop
      vertex 0.94999999999999996 0.050000000000000003 0.050000000000000003
      vertex 0.94999999999999996 0.94999999999999996 0.94999999999999996
      vertex 0.94999999999999996 0.94999999999999996 0.050000000000000003
    endloop
  endfacet
  facet normal 0 0 0
    outer loop
      vertex 0.94999999999999996 0.050000000000000003 0.050000000000000003
      vertex 0.94999999999999996 0.050000000000000003 0.94999999999999996
      vertex 0.94999999999999996 0.94999999999999996 0.94999999999999996
    endloop
  endfacet
endsolid thin_shell_wall005
